<svg xmlns="http://www.w3.org/2000/svg" width="10.747" height="14.28" viewBox="0 0 10.747 14.28">
  <path id="Subtraction_5" data-name="Subtraction 5" d="M-12037-1506.469a.689.689,0,0,1-.572-.336L-12041-1512a8.66,8.66,0,0,1-.576-1.081A5.775,5.775,0,0,1-12042-1515a5,5,0,0,1,5-5,5,5,0,0,1,5,5,5.772,5.772,0,0,1-.417,1.912l-.007.012a8.234,8.234,0,0,1-.579,1.081l-3.426,5.193A.7.7,0,0,1-12037-1506.469Zm0-11.179a2.651,2.651,0,0,0-2.649,2.646,2.651,2.651,0,0,0,2.649,2.647,2.65,2.65,0,0,0,2.644-2.647A2.65,2.65,0,0,0-12037-1517.648Z" transform="translate(12042.375 1520.374)" fill="none" stroke="#000" stroke-width="0.75"/>
</svg>
