<svg xmlns="http://www.w3.org/2000/svg" width="80" height="70" viewBox="0 0 80 70"><g data-name="Group 1338" transform="translate(-188 -18)"><rect data-name="Rectangle 448" width="80" height="70" rx="3" transform="translate(188 18)" fill="#fff" opacity=".15"/><path d="M255.5 48.5l5 5-5 5" fill="none" stroke="#fff" stroke-linecap="round" stroke-linejoin="round" stroke-width="1.5"/><g data-name="Group 813"><g data-name="Group 791" fill="#fff"><g data-name="Group 786"><path data-name="Path 7918" d="M227.382 73.075h-1.5l1.5 3.842h-.778l-1.5-3.842h-1.128v3.842h-.718v-7.366h4.122zm-3.4-2.811v2.075h2.7v-2.075z"/><path data-name="Path 7919" d="M227.846 77.234h-1.459l-1.5-3.842h-.594v3.842h-1.353v-8h4.756v4.158h-1.351zm-1.026-.634h.1l-1.5-3.842h1.644v-2.89h-3.489v6.733h.085v-3.844h1.662zm.17-3.944h-3.329v-2.709h3.329zm-2.695-.634h2.061v-1.441h-2.061z"/></g><g data-name="Group 787"><path data-name="Path 7920" d="M230.017 69.551h4.332v7.366h-.758v-3.842h-2.845v3.842h-.729zm.729 2.788h2.845v-2.064h-2.845z"/><path data-name="Path 7921" d="M234.665 77.234h-1.393v-3.842h-2.211v3.842h-1.362v-8h4.965zm-.759-.634h.125v-6.733h-3.7V76.6h.094v-3.843h3.48zm0-3.944h-3.478v-2.7h3.477zm-2.844-.634h2.211v-1.43h-2.211z"/></g><g data-name="Group 788"><path data-name="Path 7922" d="M237.752 76.917h-.769v-7.366h.769z"/><path data-name="Path 7923" d="M238.069 77.234h-1.4v-8h1.4zm-.769-.634h.135v-6.733h-.135z"/></g><g data-name="Group 789"><path data-name="Path 7924" d="M240.296 69.551h3.563v.779l-3 5.863h3.014v.724H240.1v-.779l3-5.862h-2.8z"/><path data-name="Path 7925" d="M244.187 77.234h-4.407v-1.177l2.8-5.469h-2.6v-1.359h4.2v1.173l-2.8 5.469h2.812zm-3.773-.634h3.139v-.091h-3.139zm0-.386v.145l3.129-6.105v-.144zm.2-6.256h2.929v-.091h-2.929z"/></g><g data-name="Group 790"><path data-name="Path 7926" d="M250.497 76.919h-4.285v-7.377l4.282.011zm-3.573-.724h2.844v-5.917h-2.844z"/><path data-name="Path 7927" d="M250.813 77.234h-4.915v-8.012l4.915.012zm-4.281-.634h3.647v-6.734l-3.647-.009zm3.553-.091h-3.478v-6.551h3.478zm-2.845-.634h2.211v-5.283h-2.211z"/></g></g><g data-name="Group 793"><g data-name="Group 792" fill="#fff"><path data-name="Path 7928" d="M198.301 73.957h-.9l-1.388-2.879v5.816h-.694v-7.317h.763l1.765 3.653 1.715-3.653h.9v7.317h-.722v-6z"/><path data-name="Path 7929" d="M200.779 77.207h-1.357v-4.892l-.919 1.959h-1.3l-.872-1.808v4.741h-1.328v-7.951h1.28l1.561 3.233 1.517-3.233h1.42zm-.724-.634h.09V69.89h-.09zm-4.421 0h.06V69.89h-.06zm2.368-2.933h.1l1.759-3.75h-.1zm-.4 0h.095l-1.812-3.75h-.099z"/></g></g><g data-name="Group 794" fill="#fff"><path data-name="Path 7930" d="M207.926 69.528l2.419-.088a1.487 1.487 0 01-.865 1.329s.125-.414-.038-.476l-1.479.1z"/><path data-name="Path 7931" d="M208.314 69.176s.063 2.168.865 2.356a11.742 11.742 0 01-.225-2.369z"/></g><g data-name="Group 796"><g data-name="Group 795" fill="#fff" transform="translate(204.668 68.923)"><ellipse data-name="Ellipse 82" cx=".476" cy=".627" rx=".476" ry=".627" transform="rotate(-58.794 .723 .407)"/><path data-name="Path 7932" d="M2.68 1.234l-1.919 1.4-.243-.37 1.919-1.4z"/></g></g><g data-name="Group 798"><g data-name="Group 797" fill="#fff" transform="translate(216.434 68.996)"><ellipse data-name="Ellipse 83" cx=".446" cy=".616" rx=".446" ry=".616" transform="rotate(-23.36 .986 .204)"/><ellipse data-name="Ellipse 84" cx=".215" cy=".303" rx=".215" ry=".303" transform="translate(1.894)"/><ellipse data-name="Ellipse 85" cx=".215" cy=".303" rx=".215" ry=".303" transform="translate(2.405 .064)"/><path data-name="Path 7933" d="M2.234.875l-1.15 1.821-.356-.249L1.878.626z"/></g></g><g data-name="Group 800"><g data-name="Group 799" fill="#fff"><path data-name="Path 7934" d="M204.282 69.497l-2.064 2.022-.291-.329 2.064-2.022z"/><path data-name="Path 7935" d="M202.464 69.257l1.812 1.535-.531.695-1.812-1.535z"/></g></g><g data-name="Group 802"><g data-name="Group 801" fill="#fff"><path data-name="Rectangle 64" d="M211.061 69.206h1.826v.652h-1.826z"/><path data-name="Rectangle 65" d="M210.923 70.086h1.91v.719h-1.91z"/><path data-name="Path 7936" d="M213.176 70.086l-.563 1.394-.289-.129.507-1.265z"/></g></g><g data-name="Group 804"><g data-name="Group 803" fill="#fff"><path data-name="Path 7937" d="M216.033 69.894l-1.913 1.039-.365-.744 1.913-1.039z"/><path data-name="Rectangle 66" d="M214.825 70.062h.398v1.475h-.398z"/></g></g><path data-name="Rectangle 67" fill="#fff" d="M219.847 69.959h1.686v.77h-1.686z"/><g data-name="Group 806"><g data-name="Group 805" fill="#fff"><path data-name="Path 7938" d="M210.672 76.949h-.58v-4.013h-1.837v4.013h-.572v-4.632h2.244a.768.768 0 01.745.8z"/><path data-name="Path 7939" d="M210.989 77.265h-1.214v-4.012h-1.2v4.012h-1.206V72h2.562a1.079 1.079 0 011.062 1.117z"/></g></g><g data-name="Group 808"><g data-name="Group 807" fill="#fff"><path data-name="Path 7940" d="M212.837 78.083h2.251v-1.315h-2.279v-4.45h.606v3.869h1.673v-3.869h.633v5.566a.768.768 0 01-.745.8h-2.14z"/><path data-name="Path 7941" d="M214.978 79h-2.458v-1.234h2.253v-.681h-2.279v-5.084h1.24v3.869h1.039v-3.869h1.266v5.882A1.079 1.079 0 01214.978 79z"/></g></g><g data-name="Group 810"><g data-name="Group 809" fill="#fff"><path data-name="Path 7942" d="M203.428 76.949a.761.761 0 01-.736-.8v-3.831h2.851v2.269h-2.236v1.781h2.262v.582zm-.121-4.031v1.058h1.629v-1.058z"/><path data-name="Path 7943" d="M205.884 77.265h-2.457a1.076 1.076 0 01-1.054-1.117V72h3.485v2.9h-2.236v1.148h2.262zm-2.262-3.607h1v-.424h-1z"/></g></g><g data-name="Group 812"><g data-name="Group 811" fill="#fff"><path data-name="Path 7944" d="M220.762 76.148a.77.77 0 01-.71.8h-2.181v-2.98h2.27v-1.05h-2.184v-.6h2.807zm-2.3-1.572v1.792h1.672v-1.791z"/><path data-name="Path 7945" d="M217.868 77.265h-.317v-3.617h2.27v-.414h-2.184V72h3.442v4.148a1.093 1.093 0 01-1.012 1.117zm.915-1.215h1.038v-1.158h-1.038z"/></g></g></g><g data-name="Group 210" transform="translate(205.734 29)"><circle data-name="Ellipse 1" cx="17.273" cy="17.273" r="17.273" transform="translate(.107 .107)" fill="#f5e7c8"/><path data-name="Path 7167" d="M17.381 34.762a17.381 17.381 0 1117.381-17.381 17.4 17.4 0 01-17.381 17.381zm0-34.547a17.166 17.166 0 1017.166 17.166A17.185 17.185 0 0017.381.215z" fill="#dd5934"/></g><path data-name="Path 7168" d="M223.115 63.303a16.922 16.922 0 1116.922-16.922 16.942 16.942 0 01-16.922 16.922zm0-32.5a15.58 15.58 0 1015.58 15.58 15.6 15.6 0 00-15.58-15.582z" fill="#563008"/><g data-name="Group 244"><path data-name="Path 7172" d="M223.105 32.872c-10.794.381-13.043 9.612-13.043 9.612h2.988a10.639 10.639 0 0110.051-6.827c7.521-.129 10.1 6.794 10.1 6.794l2.928-.006a13.664 13.664 0 00-13.024-9.573z" fill="#563008"/><path data-name="Path 7173" d="M223.087 59.733a13.664 13.664 0 01-13.025-9.575l2.928-.006s2.578 6.922 10.1 6.794a10.64 10.64 0 0010.051-6.827h2.988s-2.248 9.232-13.043 9.612" fill="#563008"/><g data-name="Group 228" fill="#f5e7c8"><g data-name="Group 211"><path data-name="Path 7174" d="M214.537 38.719l-.537.619-.308-.268.1-.111.195.169.341-.394-.94-.816-.268.309-.115-.1.367-.423z"/><path data-name="Path 7175" d="M214.004 39.39l-.363-.315.144-.167.195.169.293-.338-.884-.768-.268.309-.17-.147.414-.479.028.024 1.2 1.037zm-.26-.323l.253.219.488-.563-1.112-.966-.318.368.059.052.268-.309.028.024.967.839-.389.449-.199-.171z"/></g><g data-name="Group 212"><path data-name="Path 7176" d="M215.253 37.749a.184.184 0 01.011.256l-.376.353-.494-.526.39-.366-.174-.185-.375.352-.1-.106.483-.453zm-.655.093l.3.316.287-.27-.3-.316z"/><path data-name="Path 7177" d="M214.887 38.408l-.544-.58.39-.366-.124-.131-.375.352-.149-.159.536-.5.659.7a.219.219 0 01.01.306zm-.44-.576l.444.472.348-.327a.148.148 0 00-.012-.2l-.609-.648-.429.4.049.052.375-.352.224.238zm.446.377l-.346-.37.341-.32.346.37zm-.243-.366l.246.262.234-.22-.246-.262z"/></g><g data-name="Group 213"><path data-name="Path 7178" d="M216.175 37.25l-.289.221.254.331-.117.09-.934-1.219.545-.418.563.735a.182.182 0 01-.022.26zm-.88-.551l.506.66.315-.241-.506-.66z"/><path data-name="Path 7179" d="M216.017 37.943l-.022-.029-.956-1.248.6-.462.586.765a.219.219 0 01-.03.31l-.259.2.254.331zm-.875-1.263l.889 1.16.059-.045-.253-.331.318-.244a.145.145 0 00.016-.207l-.541-.707zm.653.731l-.551-.719.373-.286.551.719zm-.448-.705l.462.6.256-.2-.461-.6z"/></g><g data-name="Group 214"><path data-name="Path 7180" d="M217.212 36.332a.184.184 0 01-.041.253l-.438.27-.379-.614.456-.281-.133-.216-.439.27-.076-.124.563-.347zm-.66-.04l.227.369.336-.207-.227-.369z"/><path data-name="Path 7181" d="M216.721 36.908l-.417-.676.456-.281-.095-.153-.438.27-.115-.186.626-.386.505.82a.22.22 0 01-.051.3zm-.316-.652l.34.551.408-.251a.148.148 0 00.029-.2l-.467-.757-.5.309.038.061.439-.27.171.278zm.362.459l-.266-.431.4-.245.265.431zm-.165-.407l.189.306.273-.168-.189-.306z"/></g><g data-name="Group 215"><path data-name="Path 7182" d="M218.393 35.949l-.123.06-.422-.874-.39.188.421.874-.121.059-.487-1.009.477-.23a.184.184 0 01.242.1z"/><path data-name="Path 7183" d="M217.741 36.305l-.519-1.075.51-.246a.22.22 0 01.292.115l.418.867-.189.091-.421-.874-.324.156.421.874zm-.421-1.041l.456.943.055-.027-.422-.874.456-.22.421.874.057-.028-.387-.8a.148.148 0 00-.194-.081z"/></g><g data-name="Group 216"><path data-name="Path 7184" d="M219.02 35.697a.183.183 0 01-.229-.123l-.315-.872.632-.229.187.516-.5.18.147.405.5-.182.047.132zm-.359-.907l.087.241.361-.131-.087-.24z"/><path data-name="Path 7185" d="M218.965 35.743a.2.2 0 01-.087-.02.239.239 0 01-.122-.137l-.328-.906.7-.253.212.585-.5.179.122.336.5-.181.072.2-.508.184a.2.2 0 01-.061.013zm-.442-1.019l.3.837a.166.166 0 00.083.1.129.129 0 00.1.005l.44-.159-.023-.063-.5.182-.172-.474.5-.18-.162-.447zm.2.353l-.112-.309.43-.156.112.309zm-.018-.265l.062.172.292-.106-.062-.171z"/></g><g data-name="Group 217"><path data-name="Path 7186" d="M219.941 35.388l-.035-.141.537-.134-.1-.393-.523.13-.138-.552.67-.167.035.141-.529.133.062.246.525-.131.128.512a.184.184 0 01-.124.23z"/><path data-name="Path 7187" d="M219.915 35.433l-.053-.212.537-.134-.08-.322-.524.13-.156-.623.741-.185.053.212-.529.132.044.175.525-.131.136.548a.219.219 0 01-.15.275zm.036-.158l.018.069.474-.118a.131.131 0 00.084-.066.165.165 0 00.013-.119l-.119-.477-.525.131-.08-.317.529-.132-.017-.07-.6.15.12.481.524-.13.116.465z"/></g><g data-name="Group 218"><path data-name="Path 7188" d="M221.29 35.099a.183.183 0 01-.2-.167l-.131-.92.665-.095.078.543-.522.074.061.427.528-.075.02.139zm-.166-.961l.036.253.38-.054-.036-.253z"/><path data-name="Path 7189" d="M221.268 35.137a.222.222 0 01-.213-.2l-.136-.954.739-.106.088.616-.522.075.051.354.528-.075.03.212-.536.076zm-.266-1.092l.126.881a.146.146 0 00.158.136l.463-.066-.01-.067-.528.075-.071-.5.522-.074-.068-.471zm.128.387l-.046-.326.453-.065.046.326zm.037-.263l.026.18.307-.044-.026-.181z"/></g><g data-name="Group 219"><path data-name="Path 7190" d="M223.068 33.409l.227.008.5.584.019-.567.147.005-.052 1.545-.147-.005.025-.751-.585-.681-.047 1.411h-.143z"/><path data-name="Path 7191" d="M223.948 35.023l-.221-.008.027-.773-.514-.6-.046 1.354-.216-.007.054-1.619.28.009.011.012.442.513.017-.509.221.007zm-.145-.079h.074l.049-1.472h-.074l-.021.624-.554-.643-.174-.006-.05 1.472h.07l.05-1.469.655.764z"/></g><g data-name="Group 220"><path data-name="Path 7192" d="M224.937 35.111l-.524-.077.164-1.108.7.1-.136.916a.184.184 0 01-.204.169zm-.248-1.017l-.12.809.429.063.12-.809z"/><path data-name="Path 7193" d="M224.96 35.15h-.03l-.56-.083.175-1.18.77.114-.141.953a.24.24 0 01-.084.151.2.2 0 01-.13.045zm-.507-.147l.487.072a.133.133 0 00.1-.029.165.165 0 00.057-.106l.13-.88-.625-.092zm.573.005l-.5-.074.13-.882.5.074zm-.418-.136l.356.053.109-.737-.356-.052z"/></g><g data-name="Group 221"><path data-name="Path 7194" d="M226.114 35.369l-.512-.132.28-1.085.683.176-.231.9a.184.184 0 01-.22.141zm-.14-1.038l-.2.792.419.108.2-.792z"/><path data-name="Path 7195" d="M226.156 35.411a.184.184 0 01-.05-.006l-.548-.141.3-1.156.754.194-.241.933a.236.236 0 01-.107.147.207.207 0 01-.108.029zm-.032-.077a.13.13 0 00.1-.015.162.162 0 00.074-.1l.222-.862-.612-.158-.261 1.014zm.093-.057l-.491-.127.223-.863.49.127zm-.4-.179l.349.09.186-.722-.348-.09z"/></g><g data-name="Group 222"><path data-name="Path 7196" d="M227.245 35.744l-.478-.179.391-1.049.505.188.138-.369.138.051-.461 1.237a.184.184 0 01-.233.121zm0-1.042l-.292.782.371.138.292-.782z"/><path data-name="Path 7197" d="M227.304 35.791a.2.2 0 01-.071-.013l-.513-.191.013-.034.4-1.084.506.188.138-.369.206.077-.013.034-.461 1.237a.227.227 0 01-.205.155zm-.045-.082a.147.147 0 00.186-.1l.448-1.2-.069-.026-.138.369-.505-.188-.366.981zm.085-.04l-.44-.164.317-.85.44.164zm-.345-.207l.3.112.266-.713-.3-.112z"/></g><g data-name="Group 223"><path data-name="Path 7198" d="M228.017 36.078l-.137-.064.642-1.371.137.064z"/><path data-name="Path 7199" d="M228.035 36.127l-.2-.1.015-.033.658-1.4.2.1-.015.033zm-.106-.131l.071.033.61-1.3-.071-.033z"/></g><g data-name="Group 224"><path data-name="Path 7200" d="M228.629 36.392a.182.182 0 01-.055-.254l.457-.806.584.332-.271.477-.459-.26-.212.375.463.263-.069.122zm.457-.862l-.126.222.334.19.126-.223z"/><path data-name="Path 7201" d="M229.081 36.688l-.471-.267a.219.219 0 01-.07-.3l.476-.837.649.368-.307.541-.458-.26-.177.311.464.263zm-.435-.331l.407.231.033-.059-.463-.263.249-.439.458.26.235-.413-.521-.3-.439.774a.147.147 0 00.041.2zm.66-.368l-.4-.226.162-.286.4.226zm-.3-.253l.27.153.09-.159-.27-.153z"/></g><g data-name="Group 225"><path data-name="Path 7202" d="M231.255 37.052l.12.1-.611.742-.683-.562.984-1.193.563.463zm-.962.256l.448.369.416-.505-.448-.369zm1.119-.687l-.33-.271-.276.334.33.271z"/><path data-name="Path 7203" d="M230.769 37.944l-.739-.609 1.03-1.25.62.51-.372.452.12.1zm-.636-.619l.626.516.564-.685-.12-.1.372-.452-.507-.417zm.613.4l-.5-.415.463-.562.5.415zm-.4-.426l.392.323.369-.449-.392-.322zm.8-.3l-.386-.318.322-.391.386.318zm-.283-.328l.273.225.229-.278-.273-.225z"/></g><g data-name="Group 226"><path data-name="Path 7204" d="M231.748 38.591a.185.185 0 01-.256.015l-.36-.368.516-.5.374.383.181-.177-.36-.368.1-.1.462.474zm-.106-.653l-.31.3.276.282.31-.3z"/><path data-name="Path 7205" d="M231.607 38.687a.2.2 0 01-.14-.054l-.386-.4.568-.556.374.383.129-.126-.359-.368.156-.153.514.526-.689.673a.24.24 0 01-.167.075zm-.423-.448l.334.342a.146.146 0 00.2-.016l.637-.622-.412-.421-.052.05.36.368-.233.229-.374-.383zm.422.336l-.327-.334.362-.354.327.334zm-.223-.333l.224.229.257-.252-.224-.229z"/></g><g data-name="Group 227"><path data-name="Path 7206" d="M231.946 39.11l.866-.709.333.406-.112.092-.24-.293-.754.618z"/><path data-name="Path 7207" d="M232.033 39.279l-.14-.171.923-.756.38.463-.169.138-.239-.293zm-.036-.16l.047.057.754-.618.24.293.056-.046-.286-.35z"/></g></g><g data-name="Group 243"><g data-name="Group 242" fill="#f5e7c8"><g data-name="Group 229"><path data-name="Path 7208" d="M215.307 56.104a.188.188 0 01-.261.026l-.413-.365 1-1.129.117.1-.261.3.429.38zm.086-.962l-.55.621.315.28.55-.621z"/><path data-name="Path 7209" d="M215.162 56.209a.222.222 0 01-.139-.05l-.442-.392.025-.028 1.025-1.157.173.153-.261.295.429.38-.025.028-.61.69a.232.232 0 01-.175.081zm-.476-.448l.385.341a.152.152 0 00.209-.023l.586-.662-.429-.38.261-.295-.06-.054zm.475.335l-.371-.329.025-.028.574-.649.372.329zm-.265-.336l.259.23.5-.565-.259-.23z"/></g><g data-name="Group 230"><path data-name="Path 7210" d="M215.566 56.898l.463.324.181-.259-.468-.327.613-.877.125.087-.533.763.344.24.533-.763.13.091-.766 1.1a.188.188 0 01-.263.05l-.44-.307z"/><path data-name="Path 7211" d="M216.029 57.395a.221.221 0 01-.127-.041l-.471-.329.126-.18.463.324.138-.2-.468-.327.656-.939.186.13-.533.763.283.2.533-.763.191.134-.788 1.128a.23.23 0 01-.189.1zm-.494-.388l.409.286a.152.152 0 00.212-.041l.745-1.066-.069-.048-.533.763-.405-.283.533-.763-.063-.044-.57.816.468.327-.224.321-.463-.323z"/></g><g data-name="Group 231"><path data-name="Path 7212" d="M217.688 57.867l.471-1.01.506.236-.061.131-.364-.17-.41.878z"/><path data-name="Path 7213" d="M217.847 57.982l-.209-.1.5-1.077.574.268-.093.2-.364-.17zm-.11-.134l.074.035.41-.878.364.17.029-.063-.439-.2z"/></g><g data-name="Group 232"><path data-name="Path 7214" d="M219.448 58.366a.189.189 0 01-.232.123l-.517-.181.237-.677.537.188.083-.238-.517-.181.048-.136.664.233zm-.418-.547l-.142.406.4.138.142-.406z"/><path data-name="Path 7215" d="M219.271 58.535a.235.235 0 01-.065-.01l-.553-.194.262-.748.537.188.059-.167-.517-.181.072-.206.735.257-.012.035-.3.869a.226.226 0 01-.218.157zm-.524-.25l.482.169a.151.151 0 00.184-.1l.292-.834-.594-.208-.023.065.517.181-.108.309-.537-.188zm.559.127l-.466-.163.167-.477.466.163zm-.371-.209l.325.114.118-.336-.325-.114z"/></g><g data-name="Group 233"><path data-name="Path 7216" d="M221.178 58.987l-.142-.03.2-.944-.359-.076-.192.913-.138-.029.192-.913-.351-.074-.2.944-.14-.029.23-1.09.95.2a.188.188 0 01.141.227z"/><path data-name="Path 7217" d="M221.212 59.032l-.216-.046.007-.037.191-.907-.286-.06-.192.913-.211-.045.192-.912-.278-.059-.2.944-.213-.045.008-.037.238-1.126.986.208a.227.227 0 01.171.271zm-.127-.1l.07.015.182-.865a.15.15 0 00-.112-.182l-.913-.192-.214 1.016.068.014.2-.944.424.089-.008.037-.185.876.065.013.192-.913.432.091-.008.037z"/></g><g data-name="Group 234"><path data-name="Path 7218" d="M222.058 59.087a.186.186 0 01-.168-.207l.075-.918.712.058-.044.544-.558-.046-.035.427.565.046-.011.139zm.049-.969l-.021.253.407.033.021-.253z"/><path data-name="Path 7219" d="M222.627 59.171l-.572-.047a.223.223 0 01-.2-.247l.077-.956.787.065-.05.618-.559-.045-.028.352.565.046zm-.566-.121l.5.041.006-.065-.565-.046.041-.5.559.046.038-.469-.638-.053-.072.881a.149.149 0 00.134.166zm.466-.6l-.482-.039.026-.328.482.04zm-.4-.108l.333.027.014-.179-.332-.027z"/></g><g data-name="Group 235"><path data-name="Path 7220" d="M223.975 59.128h-.145l-.024-.965-.46.012.024.965h-.144l-.027-1.113.562-.014a.188.188 0 01.191.188z"/><path data-name="Path 7221" d="M223.189 59.187v-.037l-.029-1.151.6-.015a.22.22 0 01.161.063.232.232 0 01.069.161l.024.959-.22.006v-.038l-.023-.927-.386.009.023.965zm.047-1.115l.026 1.038h.068l-.024-.964.535-.014v.038l.023.927h.071l-.022-.884a.155.155 0 00-.046-.109.147.147 0 00-.107-.042z"/></g><g data-name="Group 236"><path data-name="Path 7222" d="M226.261 57.976l-.318.069.488.715-.165.036-.488-.716-.24.052.169.784-.153.033-.324-1.5.877-.189zm-.848-.417l.091.423.574-.124-.091-.424z"/><path data-name="Path 7223" d="M225.525 58.994l-.34-1.576.037-.008.913-.2.171.792-.3.065.487.716-.244.053-.488-.716-.179.039.17.784zm-.251-1.519l.308 1.43.08-.018-.17-.784.3-.065.488.716.086-.019-.487-.715.336-.073-.14-.646zm.2.551l-.107-.5.647-.139.107.5zm-.018-.439l.076.35.5-.108-.076-.35z"/></g><g data-name="Group 237"><path data-name="Path 7224" d="M226.59 57.122l.889-.315.513 1.449-.156.055-.268-.756-.583.207.268.756-.15.053zm.344.5l.584-.207-.144-.406-.583.207z"/><path data-name="Path 7225" d="M227.085 58.617l-.538-1.52.96-.34.538 1.52-.227.08-.268-.756-.513.182.267.756zm-.442-1.475l.488 1.379.079-.028-.268-.756.655-.232.268.756.085-.03-.488-1.379zm.273.521l-.168-.477.654-.232.168.477zm-.073-.431l.119.336.513-.182-.119-.336z"/></g><g data-name="Group 238"><path data-name="Path 7226" d="M228.754 57.915l-.151.071-.652-1.393.151-.071z"/><path data-name="Path 7227" d="M228.584 58.036l-.683-1.461.219-.1.683 1.461zM228 56.611l.62 1.325.084-.039-.62-1.325z"/></g><g data-name="Group 239"><path data-name="Path 7228" d="M230.045 57.211l-.751.44-.205-.35.135-.079.13.221.478-.28-.626-1.068-.375.22-.077-.131.514-.3z"/><path data-name="Path 7229" d="M229.281 57.703l-.244-.415.2-.117.13.221.413-.242-.588-1-.375.22-.115-.2.579-.339.816 1.392zm-.141-.388l.167.286.687-.4-.74-1.263-.449.263.038.066.375-.22.664 1.133-.543.318-.13-.221z"/></g><g data-name="Group 240"><path data-name="Path 7230" d="M230.726 56.742l-.136.1-.9-1.249.135-.1z"/><path data-name="Path 7231" d="M230.581 56.892l-.94-1.31.2-.141.94 1.31zm-.835-1.293l.853 1.189.075-.054-.853-1.189z"/></g><g data-name="Group 241"><path data-name="Path 7232" d="M230.247 55.185l.181-.159.79.055-.373-.423.117-.1 1.016 1.154-.117.1-.494-.56-.919-.067.929 1.054-.114.1z"/><path data-name="Path 7233" d="M231.26 56.392l-1.066-1.21.221-.194.715.05-.337-.383.174-.153 1.066 1.21-.174.153-.509-.577-.812-.059.893 1.013zm-.96-1.2l.967 1.1.058-.051-.964-1.1 1.025.074.48.545.061-.054-.967-1.1-.061.054.408.463-.866-.061z"/></g></g></g></g><g data-name="Group 256"><g data-name="Group 245" fill="#563008"><path data-name="Path 7236" d="M220.933 53.755l1.382-.05a.849.849 0 01-.494.759s.072-.236-.021-.272l-.845.057z"/><path data-name="Path 7237" d="M221.155 53.555s.035 1.238.494 1.346a6.685 6.685 0 01-.129-1.353z"/></g><g data-name="Group 247"><g data-name="Group 246" transform="translate(219.072 53.41)" fill="#563008"><ellipse data-name="Ellipse 2" cx=".272" cy=".358" rx=".272" ry=".358" transform="rotate(-58.794 .413 .233)"/><path data-name="Path 7238" d="M1.531.705l-1.1.8-.139-.211 1.1-.8z"/></g></g><g data-name="Group 249"><g data-name="Group 248" transform="translate(225.792 53.451)" fill="#563008"><ellipse data-name="Ellipse 3" cx=".254" cy=".352" rx=".254" ry=".352" transform="rotate(-23.36 .563 .116)"/><ellipse data-name="Ellipse 4" cx=".123" cy=".173" rx=".123" ry=".173" transform="translate(1.081)"/><ellipse data-name="Ellipse 5" cx=".123" cy=".173" rx=".123" ry=".173" transform="translate(1.373 .036)"/><path data-name="Path 7239" d="M1.276.499l-.657 1.04-.2-.142.657-1.04z"/></g></g><g data-name="Group 251"><g data-name="Group 250" fill="#563008"><path data-name="Path 7240" d="M218.852 53.738l-1.179 1.155-.166-.188 1.179-1.155z"/><path data-name="Path 7241" d="M217.814 53.601l1.035.877-.3.4-1.035-.877z"/></g></g><g data-name="Group 253"><g data-name="Group 252" fill="#563008"><path data-name="Rectangle 8" d="M222.724 53.572h1.043v.372h-1.043z"/><path data-name="Rectangle 9" d="M222.645 54.075h1.091v.411h-1.091z"/><path data-name="Path 7242" d="M223.932 54.075l-.322.8-.165-.074.29-.722z"/></g></g><g data-name="Group 255"><g data-name="Group 254" fill="#563008"><path data-name="Path 7243" d="M225.563 53.965l-1.093.594-.208-.425 1.093-.594z"/><path data-name="Rectangle 10" d="M224.873 54.061h.227v.842h-.227z"/></g></g><path data-name="Rectangle 11" fill="#563008" d="M227.742 54.002h.963v.44h-.963z"/></g><g data-name="Group 274"><g data-name="Group 273"><g data-name="Group 262" fill="#dd5934"><g data-name="Group 257"><path data-name="Path 7244" d="M224.511 51.366h-.482l.482 1.236h-.25l-.478-1.236h-.363v1.236h-.237v-2.369h1.326zm-1.1-.9v.667h.867v-.667z"/><path data-name="Path 7245" d="M224.66 52.703h-.47l-.481-1.236h-.19v1.236h-.435v-2.574h1.53v1.337h-.434zm-.33-.2h.031l-.482-1.236h.529v-.93h-1.122v2.165h.033v-1.236h.534zm.055-1.268h-1.066v-.872h1.071zm-.867-.2h.663v-.463h-.662z"/></g><g data-name="Group 258"><path data-name="Path 7246" d="M225.358 50.228h1.393v2.369h-.244v-1.231h-.915v1.236h-.235zm.235.9h.915v-.664h-.915z"/><path data-name="Path 7247" d="M226.853 52.703h-.446v-1.24h-.711v1.24h-.438v-2.574h1.6zm-.244-.2h.04v-2.165h-1.19v2.165h.031v-1.236h1.117zm0-1.268h-1.119v-.868h1.117zm-.915-.2h.713v-.459h-.711z"/></g><g data-name="Group 259"><path data-name="Path 7248" d="M227.846 52.597h-.247v-2.369h.247z"/><path data-name="Path 7249" d="M227.947 52.703h-.451v-2.574h.451zm-.247-.2h.044v-2.165h-.039z"/></g><g data-name="Group 260"><path data-name="Path 7250" d="M228.665 50.228h1.146v.25l-.966 1.886h.969v.233h-1.213v-.25l.966-1.886h-.9z"/><path data-name="Path 7251" d="M229.916 52.703h-1.417l.011-.4.89-1.737h-.836v-.437h1.35l-.011.4-.89 1.737h.9zm-1.213-.2h1.01v-.029h-1.01zm0-.124v.047l1.007-1.964v-.059zm.065-2.012h.942v-.029h-.946z"/></g><g data-name="Group 261"><path data-name="Path 7252" d="M231.946 52.598h-1.377v-2.373h1.377zm-1.149-.233h.915v-1.9h-.92z"/><path data-name="Path 7253" d="M232.048 52.699h-1.581v-2.577h1.581zm-1.377-.2h1.173v-2.165h-1.173zm1.143-.029h-1.119v-2.108h1.119zm-.915-.2h.711v-1.7h-.711z"/></g></g><g data-name="Group 264"><g data-name="Group 263" fill="#dd5934"><path data-name="Path 7254" d="M215.157 51.645h-.29l-.447-.926v1.87h-.223v-2.354h.246l.567 1.175.552-1.175h.29v2.354h-.229v-1.932z"/><path data-name="Path 7255" d="M215.953 52.694h-.437v-1.573l-.3.63h-.418l-.281-.582v1.525h-.427v-2.558h.411l.5 1.04.489-1.04h.456zm-.233-.2h.029v-2.15h-.029zm-1.422 0h.019v-2.15h-.019zm.761-.944h.032l.565-1.206h-.031zm-.13 0h.03l-.582-1.206h-.029z"/></g></g><g data-name="Group 266"><g data-name="Group 265" fill="#dd5934"><path data-name="Path 7256" d="M219.137 52.608h-.187v-1.29h-.591v1.29h-.184v-1.49h.72a.247.247 0 01.24.258z"/><path data-name="Path 7257" d="M219.238 52.711h-.391V51.42h-.387v1.291h-.387v-1.7h.824a.347.347 0 01.342.359z"/></g></g><g data-name="Group 268"><g data-name="Group 267" fill="#dd5934"><path data-name="Path 7258" d="M219.833 52.975h.724v-.423h-.733V51.12h.2v1.245h.538V51.12h.2v1.79a.247.247 0 01-.239.257h-.689z"/><path data-name="Path 7259" d="M220.521 53.268h-.79v-.4h.724v-.219h-.734v-1.638h.4v1.244h.334v-1.244h.407v1.9a.347.347 0 01-.341.357z"/></g></g><g data-name="Group 270"><g data-name="Group 269" fill="#dd5934"><path data-name="Path 7260" d="M216.806 52.608a.245.245 0 01-.237-.257v-1.233h.917v.73h-.719v.574h.727v.187zm-.039-1.3v.34h.524v-.34z"/><path data-name="Path 7261" d="M217.596 52.711h-.79a.346.346 0 01-.339-.359v-1.341h1.12v.934h-.719v.369h.727zm-.727-1.16h.32v-.14h-.32z"/></g></g><g data-name="Group 272"><g data-name="Group 271" fill="#dd5934"><path data-name="Path 7262" d="M222.382 52.351a.248.248 0 01-.229.257h-.7v-.96h.73v-.337h-.7v-.193h.9zm-.739-.506v.576h.538v-.576z"/><path data-name="Path 7263" d="M221.451 52.711h-.1v-1.163h.73v-.137h-.7v-.4h1.107v1.334a.351.351 0 01-.325.359zm.294-.391h.334v-.372h-.337z"/></g></g></g></g><g data-name="Group 277"><g data-name="Group 275"><path data-name="Path 7264" d="M218.136 40.087h.669v1.656a.224.224 0 01-.031.1.152.152 0 01-.088.034c-.041 0-.072.006-.093.006h-.179c-.117 0-.237 0-.359-.009v-.062h.181a2.411 2.411 0 00.248.012h.01a.173.173 0 00.072-.02.717.717 0 00.018-.176v-.929h-.483c-.03 0-.07 0-.121-.006a.506.506 0 01-.122-.026.17.17 0 01-.036-.093.687.687 0 01-.008-.1v-.326h-.191a.845.845 0 01-.026.247.578.578 0 01-.1.215.746.746 0 01-.222.156 1.83 1.83 0 01-.253.091h-.073v1.064h-.222v-1.829h.6q-.106-.23-.2-.4h-.512v-.057h1.031v-.255h.233v.255h1.031v.057h-.512a2.184 2.184 0 01-.262.395zm-1.186.678c.064-.025.122-.05.176-.077a.651.651 0 00.158-.119.454.454 0 00.1-.2 1.193 1.193 0 00.018-.227h-.447zm.494.964h-.225v-.877h1.1v.74h-.871zm.726-2.039h-.806q.121.235.189.4h.331a1.73 1.73 0 00.286-.4zm-.08 1.222h-.646v.621h.646zm-.054-.363a.268.268 0 00.01.026.156.156 0 01.008.02c.005.023.017.033.036.031a.15.15 0 00.07.011h.057q.155 0 .367-.011v-.482h-.548z" fill="#080046"/></g><g data-name="Group 276"><path data-name="Path 7265" d="M229.25 39.623h-.5v.286h.439v.562h-1.564v-.426h-.207q.145.477.243.848l-.044.012h-.181a1.259 1.259 0 00-.026-.108v1.152h-.225v-1.016q-.056.181-.124.346h-.181l-.034-.02a6.841 6.841 0 00.323-1.214h-.279v-.056h.294v-.533h.225v.533h.215v-.079h.439v-.286h-.519v-.06h1.705zm-1.535 2.206h-.178c0-.012-.011-.028-.021-.051a1.433 1.433 0 00.416-.51h.178l.036.031a1.725 1.725 0 01-.43.53zm1.535-.7h-.719v.695a.1.1 0 01-.023.056.247.247 0 01-.137.026h-.178c-.084 0-.168-.009-.25-.017v-.051h.181a.641.641 0 01.142.011l.026-.011a.1.1 0 00.018-.077v-.633h-.762v-.059h1.705zm-1.571-.4h1.463v.059h-1.467zm.385-.769h-.215v.462h.215zm.225-.048h.235v-.286h-.235zm.235.048h-.235v.462h.235zm.535 1.543l.191.3-.036.04h-.181a4.151 4.151 0 00-.421-.533l.036-.045h.171zm-.31-1.081h.215v-.462h-.215z" fill="#080046"/></g></g><g data-name="Group 289"><g data-name="Group 288"><g data-name="Group 278" fill="#563008"><path data-name="Path 7266" d="M210.864 48.927h3.635v.523h-3.825l-.942-1.037-1 1.061h-.649l1.322-1.417-.546-.6-.312.548h-.57l1.085-1.924h.57l-.221.388h1.2l-.618 1.5zm-.095-3.555v.444h-2.6v-.444h1.029v-.522h-.7v-.445h.7v-.38h-1.029v-.444h1.029v-.476h.507v.475h1.061v.444h-1.059v.38h.729v.444h-.729v.522zm-1.592 1.513l-.063.118.515.562.277-.681zm2.748-2.13l.444-.9h-1.322v-.459h3.4v.459h-1.552l-.443.9h1.94v3.7h-3.275v-3.7zm-.317.436v2.814h.372v-2.811zm1.386 0h-.539v.642h.539zm-.539 1.085v.642h.539v-.642zm0 1.085v.642h.539v-.642zm1.441.642v-2.811h-.427v2.813z"/><path data-name="Path 7267" d="M208.77 49.556h-.876l1.4-1.5-.418-.461-.276.489h-.76l1.178-2.09h.762l-.222.388h1.179l-.645 1.57.812.892h3.681v.688h-3.948l-.907-1zm-.495-.166h.423l1.034-1.1.978 1.076h3.705v-.357h-3.588l-.931-1.024.591-1.438h-1.215l.222-.388h-.379l-.991 1.758h.38l.342-.6.675.743zm6.2-.856h-3.438V44.67h.839l.362-.737h-1.272v-.625h3.57v.625h-1.583l-.362.737h1.89zm-3.278-.166h3.113v-3.532h-1.991l.525-1.069h1.521v-.294h-3.24v.294h1.373l-.525 1.069h-.777zm2.78-.286h-.593v-2.976h.593zm-.427-.165h.262v-2.645h-.262zm-.476.165h-.7v-.807h.7zm-.538-.165h.373v-.476h-.372zm-.475.165h-.537v-2.976h.537zm-.372-.165h.207v-2.645h-.207zm-2.034-.2l-.643-.7.114-.214h.9zm-.442-.728l.387.422.181-.445h-.556zm3.862.009h-.7v-.807h.7zm-.538-.166h.373v-.476h-.373zm.538-.919h-.7v-.807h.7zm-.538-.166h.373v-.476h-.373zm-1.687.15h-2.762v-.61h1.029v-.357h-.7v-.609h.7v-.214h-1.029v-.61h1.029v-.475h.672v.475h1.061v.61h-1.061v.214h.729v.609h-.729v.357h1.061zm-2.6-.166h2.432v-.278h-1.062v-.688h.729v-.278h-.729v-.546h1.062v-.278h-1.062v-.475h-.342v.475h-1.029v.278h1.029v.546h-.7v.278h.7v.688h-1.029z"/></g><g data-name="Group 279" fill="#563008"><path data-name="Path 7268" d="M237.607 46.116l-.642 1.243 1.14 2.138h-.594l-.839-1.568-.76 1.481h-.554l1.061-2.059-.5-1.956h-3.08v.768l-.309 3.318H232l.309-3.342v-1.243h3.484l-.1-.4h.547l.1.4h1.576v.5h-1.449l.317 1.251.269-.53zm-1.03-2.677h1.596v.515h-1.6v.372h-.522v-.372h-1.869v.372h-.522v-.372h-1.587v-.515h1.592v-.317h.522v.317h1.869v-.317h.522zm-1.853 4.458v.507h.626v.436h-2.249v-3.128h2.605v.443h-.982v.459h.847v1.283zm-.491-1.742h-.625v.459h.625zm.848 1.322v-.436h-1.473v.436zm-1.473.42v.507h.625v-.507zm3.746-3.706l.356.618h-.57l-.356-.618z"/><path data-name="Path 7269" d="M238.244 49.58h-.782l-.788-1.472-.712 1.385h-.741l1.109-2.152-.475-1.863h-2.933v.685l-.316 3.4h-.7l.317-3.432v-1.318h3.461l-.1-.4h.717l.1.4h.642l-.387-.67v.266h-.688v-.372h-1.7v.372h-.688v-.372h-1.591v-.68h1.591v-.317h.688v.317h1.7v-.317h.688v.317h1.592v.68h-1.592v.072h.742l.406.7h.19v.665h-1.425l.236.934.192-.379h.741l-.684 1.325zm-.682-.165h.406l-1.1-2.055.6-1.161h-.368l-.346.682-.4-1.568h1.473v-.333h-1.552l-.1-.4h-.38l.1.4h-3.5v1.16l-.3 3.259h.364l.3-3.243v-.843h3.228l.523 2.049-.015.028-1 1.938h.368l.809-1.576zm-.374-4.688h.379l-.261-.452h-.379zm-1.05-.483h.357v-.372h1.591v-.349h-1.591v-.317h-.357v.317h-2.034v-.317h-.357v.317h-1.592v.349h1.592v.372h.357v-.372h2.034zm-.7 4.68h-2.414V45.63h2.771v.609h-.982v.294h.848v1.449h-.848v.341h.626zm-2.249-.166h2.084v-.27h-.626v-.673h.847v-1.12h-.847v-.625h.982v-.275h-2.44zm1.132-.27h-.791v-.673h.791zm-.626-.166h.46v-.341h-.46zm1.473-.761h-1.643v-.6h1.638zm-1.473-.166h1.3v-.27h-1.3zm.626-.7h-.791v-.625h.791zm-.626-.166h.46v-.294h-.46z"/></g><g data-name="Group 280" fill="#dd5934"><path data-name="Path 7270" d="M215.972 44.688l6.193-.364a3.072 3.072 0 01-2.137 2.848s.324-1.07-.1-1.232l-3.825.259z"/><path data-name="Path 7271" d="M217.013 43.555s.162 5.607 2.237 6.093a30.353 30.353 0 01-.583-6.126z"/></g><g data-name="Group 281" fill="#563008"><path data-name="Path 7272" d="M224.751 45.825l-.344-.395.669-.767.344.395z"/><path data-name="Path 7273" d="M225.426 45.801l-.344.395-.669-.767.344-.395z"/></g><g data-name="Group 282" fill="#563008"><path data-name="Path 7274" d="M225.767 45.825l-.344-.395.669-.767.344.395z"/><path data-name="Path 7275" d="M226.442 45.801l-.344.395-.669-.767.344-.395z"/></g><g data-name="Group 283" fill="#563008"><path data-name="Path 7276" d="M227.848 45.825l-.344-.395.669-.767.344.395z"/><path data-name="Path 7277" d="M228.524 45.801l-.344.395-.669-.767.344-.395z"/></g><g data-name="Group 284" fill="#563008"><path data-name="Path 7278" d="M228.855 45.825l-.344-.395.669-.767.344.395z"/><path data-name="Path 7279" d="M229.53 45.801l-.344.395-.669-.767.344-.395z"/></g><g data-name="Group 286"><g data-name="Group 285" fill="#563008"><path data-name="Path 7280" d="M227.23 43.979h3.105v1.211h-.556v-.763h-2.54v1.648h-.493v-1.648h-2.47v.766h-.556v-1.211h3.016v-.394h-2.407v-.42h5.4v.42h-2.5z"/><path data-name="Path 7281" d="M227.321 46.154h-.658v-1.648h-2.3v.766h-.721v-1.377h3.017v-.229h-2.408v-.585h5.562v.585h-2.5v.229h3.105v1.377h-.722v-.766h-2.374zm-.493-.165h.328v-1.651h2.705v.766h.391v-1.046h-3.105v-.559h2.5v-.254h-5.231v.254h2.408v.559h-3.017v1.046h.391v-.766h2.635z"/></g></g><g data-name="Group 287" fill="#563008"><path data-name="Path 7282" d="M225.791 49.61l-2.225-3.248h.821l2.009 2.933z"/><path data-name="Rectangle 12" d="M224.015 46.363h6.084v.628h-6.084z"/><path data-name="Rectangle 13" d="M225.012 47.46h4.139v.536h-4.139z"/><path data-name="Rectangle 14" d="M226.657 49.43v-2.804h.7v2.804z"/><path data-name="Path 7283" d="M227.709 49.312l1.881-2.951h.937l-2.21 3.247z"/><path data-name="Rectangle 15" d="M225.798 49.045h2.52v.564h-2.52z"/></g></g></g><g data-name="Group 290" fill="#e6b222"><path data-name="Path 7284" d="M223.207 40.15h-2.125l1.1-3.469h2.125z"/><path data-name="Path 7285" d="M221.657 43.244l3.8-4.243h-2.578z"/></g><g data-name="Group 295" transform="translate(211.135 50.619)"><circle data-name="Ellipse 6" cx="1.042" cy="1.042" r="1.042" fill="#f5e0bb"/><g data-name="Group 294" fill="#563008"><g data-name="Group 291" transform="translate(.113 .104)"><circle data-name="Ellipse 7" cx=".385" cy=".385" r=".385" transform="translate(.566 .032)"/><path data-name="Path 7286" d="M.575.445a.758.758 0 00-.485.889A.952.952 0 01.642.02a.673.673 0 01.4.021c.192.08-.467.404-.467.404z"/></g><g data-name="Group 292" transform="translate(1.06 .08)"><circle data-name="Ellipse 8" cx=".385" cy=".385" r=".385" transform="translate(0 .836)"/><path data-name="Path 7287" d="M.564.89A.758.758 0 00.08 0a.952.952 0 01.8 1.176.674.674 0 01-.233.323C.479 1.619.564.89.564.89z"/></g><g data-name="Group 293" transform="translate(.235 .916)"><circle data-name="Ellipse 9" cx=".385" cy=".385" r=".385"/><path data-name="Path 7288" d="M.606.69A.756.756 0 001.617.639.951.951 0 01.209.854a.67.67 0 01-.19-.35C-.014.297.606.69.606.69z"/></g></g></g><g data-name="Group 300" transform="translate(232.959 50.616)"><circle data-name="Ellipse 10" cx="1.042" cy="1.042" r="1.042" fill="#f5e0bb"/><g data-name="Group 299" fill="#563008"><g data-name="Group 296" transform="translate(.113 .104)"><circle data-name="Ellipse 11" cx=".385" cy=".385" r=".385" transform="translate(.566 .031)"/><path data-name="Path 7289" d="M.575.445a.757.757 0 00-.485.889A.952.952 0 01.642.021a.671.671 0 01.4.02c.192.08-.467.404-.467.404z"/></g><g data-name="Group 297" transform="translate(1.06 .08)"><circle data-name="Ellipse 12" cx=".385" cy=".385" r=".385" transform="translate(0 .836)"/><path data-name="Path 7290" d="M.564.89A.757.757 0 00.08 0a.952.952 0 01.8 1.176.674.674 0 01-.233.323C.479 1.619.564.89.564.89z"/></g><g data-name="Group 298" transform="translate(.235 .916)"><circle data-name="Ellipse 13" cx=".385" cy=".385" r=".385"/><path data-name="Path 7291" d="M.606.691a.757.757 0 001.011-.05.951.951 0 01-1.408.215.672.672 0 01-.191-.35C-.015.297.606.691.606.691z"/></g></g></g><path data-name="Path 7292" d="M208.817 42.476a14.813 14.813 0 0114.321-10.9s10.946-.324 14.295 10.894c.033.112 0 0 0 0h-.464s.065.219 0 0a14.391 14.391 0 00-27.668 0" fill="#dd5934"/><path data-name="Path 7293" d="M209.298 50.135a14.393 14.393 0 0027.726 0c.025-.082-.025.083 0 0h.48s.043-.158 0 0a14.825 14.825 0 01-14.348 10.994s-11.011.334-14.323-10.991c-.023-.077.022.079 0 0" fill="#dd5934"/></g></svg>