<svg xmlns="http://www.w3.org/2000/svg" width="121.803" height="121.802" viewBox="0 0 121.803 121.802"><path d="M121.802 0v11.941H62.095V0zm0 23.883v11.941H62.095V23.883zm0 23.883v11.941H62.095V47.766zm.001 74.036h-11.941V62.095h11.941zm-23.883 0H85.979V62.095H97.92zm-23.883 0H62.096V62.095h11.941zm-74.037 0v-11.941h59.707v11.941zm0-23.883V85.978h59.707v11.941zm0-23.883V62.095h59.707v11.941zm59.707-14.329H47.766V0h11.941zm-23.883 0H23.883V0h11.941zm-23.883 0H0V0h11.941z" opacity=".104" fill="#d7ad7d"/></svg>