<svg xmlns="http://www.w3.org/2000/svg" width="10.5" height="10.5" viewBox="0 0 10.5 10.5"><g transform="translate(-821.75 -533.75)"><path d="M24.39,34.1l9.324-9.324V30.3H34.1V24.1H27.9v.386h5.521L24.1,33.81Z" transform="translate(797.9 509.9)"/><path d="M24.39,34.35a.249.249,0,0,1-.177-.073l-.29-.29a.25.25,0,0,1,0-.354l8.9-8.9H27.9a.25.25,0,0,1-.25-.25V24.1a.25.25,0,0,1,.25-.25h6.2a.25.25,0,0,1,.25.25v6.2a.25.25,0,0,1-.25.25h-.386a.25.25,0,0,1-.25-.25V25.379l-8.9,8.9A.249.249,0,0,1,24.39,34.35Z" transform="translate(797.9 509.9)"/></g></svg>