<svg id="calendar_2_" data-name="calendar (2)" xmlns="http://www.w3.org/2000/svg" width="18" height="18.753" viewBox="0 0 18 18.753">
  <path id="Path_10714" data-name="Path 10714" d="M17.241,6.947V4.054a2.063,2.063,0,0,0-2.06-2.06h-.543V1.669a1.677,1.677,0,0,0-3.355,0v.325H5.223V1.669a1.677,1.677,0,0,0-3.355,0v.325H1.326a2.063,2.063,0,0,0-2.06,2.06V16.692a2.063,2.063,0,0,0,2.06,2.06H15.181a2.063,2.063,0,0,0,2.06-2.06V7.245A.464.464,0,0,0,17.241,6.947ZM12.961.929a.74.74,0,0,1,.739.739v.988a.739.739,0,0,1-1.479,0V1.669A.74.74,0,0,1,12.961.929ZM2.807,1.669a.739.739,0,0,1,1.479,0v.988a.739.739,0,0,1-1.479,0ZM1.326,2.932h.566a1.677,1.677,0,0,0,3.309,0h6.106a1.677,1.677,0,0,0,3.309,0h.566A1.124,1.124,0,0,1,16.3,4.054V6.627H.2V4.055A1.124,1.124,0,0,1,1.326,2.932ZM15.181,17.815H1.326A1.124,1.124,0,0,1,.2,16.692V7.565H16.3v9.128A1.124,1.124,0,0,1,15.181,17.815Zm0,0" transform="translate(0.734)" fill="#fff"/>
  <path id="Path_10715" data-name="Path 10715" d="M161.136,276.77l-3.079,3.007-1.563-1.526a.469.469,0,0,0-.662.665l.006.006,1.891,1.847a.469.469,0,0,0,.655,0l3.407-3.326a.469.469,0,0,0-.653-.674l0,0Zm0,0" transform="translate(-149.815 -266.236)" fill="#fff"/>
</svg>
