<svg xmlns="http://www.w3.org/2000/svg" width="23.444" height="20.002" viewBox="0 0 23.444 20.002">
  <g id="cutlery_1_" data-name="cutlery (1)" transform="translate(-0.819 0.002)">
    <g id="Group_1054" data-name="Group 1054" transform="translate(0.819 0)">
      <g id="Group_1053" data-name="Group 1053" transform="translate(0)">
        <path id="Path_10751" data-name="Path 10751" d="M6.3,1.252A2.872,2.872,0,0,0,4.007,0a2.873,2.873,0,0,0-2.3,1.249A4.761,4.761,0,0,0,.819,4.1,4.76,4.76,0,0,0,1.71,6.95a3.217,3.217,0,0,0,1.179.994L2.215,18.087a1.8,1.8,0,1,0,3.585,0L5.125,7.944A3.218,3.218,0,0,0,6.3,6.95,4.761,4.761,0,0,0,7.2,4.1,4.76,4.76,0,0,0,6.3,1.252ZM4.649,18.807a.879.879,0,0,1-1.519-.659l.662-9.958c.071.006.143.01.215.01s.144,0,.215-.01l.662,9.958A.871.871,0,0,1,4.649,18.807ZM4.007,7.282a1.653,1.653,0,0,1-.479-.072L3.489,7.2A3.149,3.149,0,0,1,1.736,4.1C1.736,2.347,2.755.92,4.007.92S6.278,2.347,6.278,4.1,5.26,7.282,4.007,7.282Z" transform="translate(-0.819 -0.003)" fill="#563008"/>
      </g>
    </g>
    <g id="Group_1058" data-name="Group 1058" transform="translate(9.156 0)">
      <g id="Group_1057" data-name="Group 1057">
        <path id="Path_10753" data-name="Path 10753" d="M218.875,0a.459.459,0,0,0-.459.459V5.673h-1.169V.462a.459.459,0,0,0-.917,0V5.673h-1.169V.462a.459.459,0,0,0-.917,0V7.1A1.358,1.358,0,0,0,215.6,8.458h.082l-.644,9.674a1.755,1.755,0,1,0,3.5,0L217.9,8.458h.082A1.358,1.358,0,0,0,219.334,7.1V.462A.459.459,0,0,0,218.875,0ZM217.4,18.82a.837.837,0,0,1-1.447-.627l.648-9.735h.376l.648,9.735A.828.828,0,0,1,217.4,18.82ZM218.416,7.1a.439.439,0,0,1-.439.439H215.6a.439.439,0,0,1-.439-.439V6.59h3.255Z" transform="translate(-214.244 -0.003)" fill="#563008"/>
      </g>
    </g>
    <g id="Group_1064" data-name="Group 1064" transform="translate(-5.234 -45.578)">
      <path id="Path_10758" data-name="Path 10758" d="M26.574,65.576a.443.443,0,0,1-.443-.442V46.019a.443.443,0,0,1,.443-.443H27.8a.442.442,0,0,1,.442.415l1.19,19.116a.448.448,0,0,1-.442.469Zm.443-18.963V64.692h1.506l-1.136-18.23h-.3Z" transform="translate(0.062)" fill="#563008"/>
      <path id="Path_10759" data-name="Path 10759" d="M22.493,65.576a.436.436,0,0,1-.439-.469l1.187-19.116a.442.442,0,0,1,.441-.415h1.234a.443.443,0,0,1,.443.443V65.134a.443.443,0,0,1-.443.442Zm1.6-18.973L22.964,64.692h1.5V46.461h-.3Z" transform="translate(0)" fill="#563008"/>
    </g>
  </g>
</svg>
