<svg xmlns="http://www.w3.org/2000/svg" width="14.776" height="20" viewBox="0 0 14.776 20"><g data-name="Group 1211"><g data-name="Group 1051"><g data-name="Group 1050"><path data-name="Path 10738" d="M7.388 0A7.4 7.4 0 000 7.388a8.524 8.524 0 00.627 2.844 11.914 11.914 0 00.854 1.6L6.546 19.5a.963.963 0 001.684 0l5.066-7.676a11.863 11.863 0 00.854-1.6 8.522 8.522 0 00.626-2.844A7.4 7.4 0 007.388 0zm5.96 9.9a10.917 10.917 0 01-.778 1.456l-5.066 7.676c-.1.152-.132.152-.232 0l-5.066-7.676A10.923 10.923 0 011.428 9.9a7.738 7.738 0 01-.559-2.507 6.519 6.519 0 1113.038 0 7.744 7.744 0 01-.558 2.507z"/><path data-name="Path 10739" d="M7.388 3.477a3.911 3.911 0 103.911 3.911 3.916 3.916 0 00-3.911-3.911zm0 6.953a3.042 3.042 0 113.042-3.042 3.046 3.046 0 01-3.042 3.043z"/></g></g></g></svg>