<svg xmlns="http://www.w3.org/2000/svg" width="18" height="13.057" viewBox="0 0 18 13.057">
  <path id="Path_11070" data-name="Path 11070" d="M9.953,26.055A1.448,1.448,0,0,1,8.419,24.8a1.122,1.122,0,0,1,0-.169c.035-.485.044-.65.05-.864.006-.264,0-.515-.023-.842a14.711,14.711,0,0,0-.28-1.994.348.348,0,0,1,0-.13l.029-.177L8.014,20.6c-.554-.081-1.122-.143-1.687-.186A.355.355,0,0,1,6,20.058V16.881a.353.353,0,0,1,.334-.353,21.3,21.3,0,0,0,5.381-1.042,26.729,26.729,0,0,0,5.4-2.438.346.346,0,0,1,.179-.05.355.355,0,0,1,.354.354V23.587a.355.355,0,0,1-.354.354.346.346,0,0,1-.174-.047,29.064,29.064,0,0,0-5.4-2.441L11.23,21.3l0,.237c0,.394.007.793.034,1.187.023.325.051.576.094.837.035.211.068.373.169.848a1.214,1.214,0,0,1-.193.954,1.62,1.62,0,0,1-1.077.665c-.058.01-.117.017-.176.021C10.037,26.054,9.994,26.055,9.953,26.055Zm-.71-5.147-.345.074.02.1a15.3,15.3,0,0,1,.233,1.792c.025.347.032.619.025.908-.006.232-.016.4-.051.9a.509.509,0,0,0,0,.07.765.765,0,0,0,.827.6l.08,0a.935.935,0,0,0,.108-.013.909.909,0,0,0,.606-.358.539.539,0,0,0,.091-.417c-.1-.484-.137-.652-.175-.881-.047-.284-.078-.554-.1-.9-.035-.505-.046-1.019-.03-1.526l0-.141-.137-.035c-.42-.108-.853-.206-1.29-.291Zm7.438-6.8a27.357,27.357,0,0,1-4.748,2.05,24.086,24.086,0,0,1-3.139.792l-.145.026v3l.146.026a23.354,23.354,0,0,1,3.138.775,28.663,28.663,0,0,1,4.749,2.063l.26.14V13.965Zm-8.937,3q-.44.055-.875.09l-.162.013v2.518l.16.015q.441.042.877.1l.2.026V17.085Zm13.979,6.748a.355.355,0,0,1-.229-.084l-.032-.031L19.51,21.714a.353.353,0,0,1,.482-.514l.032.031,1.951,2.029a.353.353,0,0,1-.254.6Zm-.9-5.212a.353.353,0,1,1,0-.706h2.824a.353.353,0,1,1,0,.706ZM19.764,15.74a.353.353,0,0,1-.254-.6l1.957-2.035a.353.353,0,0,1,.509.489l-1.957,2.035A.35.35,0,0,1,19.764,15.74Z" transform="translate(-6 -12.998)"/>
</svg>
