<svg xmlns="http://www.w3.org/2000/svg" width="15" height="15" viewBox="0 0 15 15"><g data-name="Group 1153"><path data-name="Path 10763" d="M7.5 0A7.5 7.5 0 1015 7.5 7.5 7.5 0 007.5 0zm0 14.25c-.594 0-1.359-1.106-1.827-3h3.654c-.468 1.894-1.233 3-1.827 3zM5.512 10.5a16.357 16.357 0 01-.255-2.625h4.485a16.357 16.357 0 01-.255 2.625zM.769 7.875h3.739a17.333 17.333 0 00.243 2.625H1.462a6.692 6.692 0 01-.693-2.625zM7.5.75c.594 0 1.359 1.106 1.827 3H5.673c.468-1.894 1.233-3 1.827-3zM9.488 4.5a16.357 16.357 0 01.255 2.625H5.258A16.357 16.357 0 015.512 4.5zm-4.98 2.625H.769A6.692 6.692 0 011.462 4.5h3.289a17.333 17.333 0 00-.243 2.625zm5.985.75h3.739a6.692 6.692 0 01-.693 2.625h-3.29a17.333 17.333 0 00.243-2.625zm0-.75a17.333 17.333 0 00-.244-2.625h3.289a6.692 6.692 0 01.693 2.625zm2.616-3.375H10.1A7.945 7.945 0 008.93.906a6.766 6.766 0 014.179 2.844zM6.07.906A7.945 7.945 0 004.9 3.75H1.891A6.766 6.766 0 016.07.906zM1.891 11.25H4.9a7.946 7.946 0 001.17 2.844 6.766 6.766 0 01-4.179-2.844zm7.039 2.844a7.946 7.946 0 001.17-2.844h3.013a6.766 6.766 0 01-4.183 2.844z" fill="#fff"/></g></svg>