<svg xmlns="http://www.w3.org/2000/svg" width="105.506" height="41.044" viewBox="0 0 105.506 41.044"><path d="M9.446 18.527l-.329 3.611H0v-.457l6.279-9.556H4.15a7.58 7.58 0 00-.938.041 1.754 1.754 0 00-.541.171 1.707 1.707 0 00-.65.638 15.062 15.062 0 00-.951 1.728H.514l.3-3.264H9.26v.455L2.982 21.45h2.444a7.887 7.887 0 001.564-.1 1.009 1.009 0 00.606-.367 8.976 8.976 0 00.722-1.145 14.261 14.261 0 00.613-1.312zm11.256 3.611h-5.291v-.588a6.066 6.066 0 00.867-.147q.5-.118.5-.291a.907.907 0 00-.011-.136 1.018 1.018 0 00-.057-.2l-.83-2.216h-3.353c-.078.206-.162.447-.255.723s-.173.523-.241.739a4.155 4.155 0 00-.153.611 2.457 2.457 0 00-.025.264c0 .161.112.3.332.411a3.334 3.334 0 001.1.246v.588H9.301v-.588a3.375 3.375 0 00.51-.079 1.291 1.291 0 00.449-.178 1.8 1.8 0 00.475-.444 2.423 2.423 0 00.326-.626l1.591-4.243 1.762-4.689h1.369q1.341 3.633 2.1 5.744t1.294 3.5a1.75 1.75 0 00.226.412 1.486 1.486 0 00.39.35 1.466 1.466 0 00.444.182 3 3 0 00.46.075zm-5.1-4.327l-1.406-3.867-1.385 3.867zm16.739 4.327h-3.847q-.869-1.469-1.567-2.458t-1.786-2.481h-.356v3.363a1.082 1.082 0 00.089.459.714.714 0 00.356.317 1.949 1.949 0 00.366.12 4.372 4.372 0 00.483.091v.588h-5.161v-.588l.524-.046a1.645 1.645 0 00.475-.091.649.649 0 00.343-.293 1.038 1.038 0 00.1-.475V13.06a1.073 1.073 0 00-.082-.444.744.744 0 00-.356-.325 2.341 2.341 0 00-.513-.173 5.137 5.137 0 00-.487-.09v-.589h5.333v.589a14.8 14.8 0 00-.511.063 2.734 2.734 0 00-.51.118.578.578 0 00-.356.309 1.207 1.207 0 00-.089.468v3.6h.287q.535-.535 1.246-1.288t1.1-1.236q.547-.672.8-1.063a1.3 1.3 0 00.257-.679c0-.085-.082-.151-.246-.2a3.925 3.925 0 00-.753-.1v-.589h4.222v.589a4.9 4.9 0 00-1.286.3 3.326 3.326 0 00-1.033.72q-.73.724-1.205 1.255t-1.218 1.359q.657.881 1.579 2.16t1.839 2.494a4.572 4.572 0 00.533.591 2.629 2.629 0 00.663.456 1.631 1.631 0 00.389.128 2.441 2.441 0 00.376.054zm11.591 0h-3.847q-.869-1.469-1.568-2.458t-1.786-2.481h-.356v3.363a1.068 1.068 0 00.089.459.706.706 0 00.356.317 1.949 1.949 0 00.366.12 4.367 4.367 0 00.483.091v.588h-5.161v-.588l.524-.046a1.645 1.645 0 00.475-.091.644.644 0 00.342-.293 1.026 1.026 0 00.1-.475V13.06a1.073 1.073 0 00-.082-.444.753.753 0 00-.356-.325 2.359 2.359 0 00-.512-.173 5.137 5.137 0 00-.487-.09v-.589h5.332v.589c-.141.015-.311.035-.51.063a2.717 2.717 0 00-.51.118.573.573 0 00-.356.309 1.19 1.19 0 00-.089.468v3.6h.287q.534-.535 1.246-1.288t1.1-1.236q.547-.672.8-1.063a1.3 1.3 0 00.256-.679c0-.085-.082-.151-.246-.2a3.9 3.9 0 00-.753-.1v-.589h4.223v.589a4.886 4.886 0 00-1.285.3 3.315 3.315 0 00-1.033.72q-.73.724-1.205 1.255t-1.219 1.359q.657.881 1.58 2.16t1.839 2.494a4.556 4.556 0 00.532.591 2.632 2.632 0 00.664.456 1.629 1.629 0 00.389.128 2.409 2.409 0 00.376.054zM55.296 12.03q-.2.023-.572.1a1.526 1.526 0 00-.626.277 1.078 1.078 0 00-.367.677 7.594 7.594 0 00-.105 1.471v3.98a3.8 3.8 0 01-1.081 2.827 3.889 3.889 0 01-2.861 1.07 4.608 4.608 0 01-3.21-1.033 3.694 3.694 0 01-1.136-2.88v-5.473a1.027 1.027 0 00-.092-.452.863.863 0 00-.353-.339 1.775 1.775 0 00-.438-.159 5.035 5.035 0 00-.425-.082v-.573h5.093v.573a3.817 3.817 0 00-.446.056 2.83 2.83 0 00-.459.125.543.543 0 00-.349.3 1.2 1.2 0 00-.089.475v5.4a3.465 3.465 0 00.635 2.314 2.647 2.647 0 003.712-.075 3.556 3.556 0 00.676-2.353v-3.625a6.438 6.438 0 00-.12-1.444 1.306 1.306 0 00-.366-.691 1.64 1.64 0 00-.62-.3 5.277 5.277 0 00-.619-.166v-.589h4.216zm4.712 10.403a5.481 5.481 0 01-1.66-.245 5.754 5.754 0 01-1.3-.578l-.472.528h-.582l-.088-3.867h.589a10.458 10.458 0 00.506 1.164 5.663 5.663 0 00.712 1.1 3.767 3.767 0 00.935.824 2.261 2.261 0 001.208.317 1.922 1.922 0 001.427-.5 1.725 1.725 0 00.5-1.264 1.439 1.439 0 00-.421-1.052 3.428 3.428 0 00-1.3-.737c-.384-.136-.736-.262-1.058-.378s-.624-.235-.907-.355a3.064 3.064 0 01-1.455-1.232 3.428 3.428 0 01-.475-1.789 3.042 3.042 0 01.246-1.2 3.171 3.171 0 01.719-1.038 3.444 3.444 0 011.156-.7 4.22 4.22 0 011.534-.271 4.5 4.5 0 011.513.248 5.916 5.916 0 011.108.5l.419-.452h.595l.055 3.648h-.588q-.205-.589-.483-1.2a5.309 5.309 0 00-.585-1.023 2.723 2.723 0 00-.774-.7 1.966 1.966 0 00-1.026-.262 1.651 1.651 0 00-1.209.462 1.533 1.533 0 00-.468 1.14 1.421 1.421 0 00.408 1.049 3.41 3.41 0 001.269.718q.506.188 1.034.377t.938.362a3.4 3.4 0 011.509 1.167 3.151 3.151 0 01.517 1.845 3.22 3.22 0 01-.3 1.344 3.08 3.08 0 01-.794 1.079 3.913 3.913 0 01-1.265.732 4.985 4.985 0 01-1.687.239zm17.015-.295h-5.249v-.588l.5-.046a1.419 1.419 0 00.451-.091.682.682 0 00.35-.3 1.016 1.016 0 00.1-.471v-3.686h-4.152v3.6a1.032 1.032 0 00.1.459.688.688 0 00.339.317 2.355 2.355 0 00.445.128 4.078 4.078 0 00.513.083v.588h-5.25v-.588c.115 0 .282-.022.5-.05a2.085 2.085 0 00.482-.1.6.6 0 00.342-.3 1.062 1.062 0 00.1-.471v-7.569a1.04 1.04 0 00-.086-.444.74.74 0 00-.352-.317 2.611 2.611 0 00-.52-.177 3.852 3.852 0 00-.466-.094v-.589h5.25v.589a4.04 4.04 0 00-.507.074 4.271 4.271 0 00-.452.114.559.559 0 00-.352.313 1.214 1.214 0 00-.086.457v3.202h4.148v-3.122a1 1 0 00-.089-.444.756.756 0 00-.356-.317 2.585 2.585 0 00-.475-.17 4.05 4.05 0 00-.476-.1v-.589h5.248v.589a4.5 4.5 0 00-.491.063 3.56 3.56 0 00-.493.125.568.568 0 00-.349.309 1.158 1.158 0 00-.09.461v7.576a1.053 1.053 0 00.09.459.7.7 0 00.349.317 2.15 2.15 0 00.475.136 4.842 4.842 0 00.51.075zm6.433 0H78.07v-.588l.545-.046a1.718 1.718 0 00.5-.091.67.67 0 00.347-.3 1.07 1.07 0 00.091-.471v-7.584a1.066 1.066 0 00-.089-.452.666.666 0 00-.349-.317 2.99 2.99 0 00-.486-.155 5.141 5.141 0 00-.555-.108v-.589h5.382v.589c-.136.015-.308.035-.513.063a2.738 2.738 0 00-.52.118.577.577 0 00-.355.3 1.186 1.186 0 00-.089.472v7.576a1.064 1.064 0 00.093.462.683.683 0 00.352.313 2.248 2.248 0 00.476.132 4.721 4.721 0 00.558.079zm-58.312 11.82a5.053 5.053 0 00-.375.053 2.583 2.583 0 00-.411.12.569.569 0 00-.37.325 1.279 1.279 0 00-.089.475v1.244c0 .25 0 .453.007.606s.011.344.021.569a7.941 7.941 0 01-2.023.852 8.68 8.68 0 01-2.461.4 5.475 5.475 0 01-1.977-.355 4.53 4.53 0 01-1.623-1.064 4.925 4.925 0 01-1.1-1.742 6.6 6.6 0 01-.4-2.384 6.922 6.922 0 01.376-2.316 5.249 5.249 0 011.088-1.833 4.73 4.73 0 011.7-1.176 5.763 5.763 0 012.221-.416 5 5 0 011.534.226 6.5 6.5 0 011.162.483l.425-.415h.6l.061 3.905h-.6a7.267 7.267 0 00-1.245-2.614 2.307 2.307 0 00-1.834-.853 2.227 2.227 0 00-2.03 1.267 7.145 7.145 0 00-.716 3.493 8.026 8.026 0 00.7 3.7 2.173 2.173 0 001.989 1.336 2.715 2.715 0 001.071-.2 2.262 2.262 0 00.729-.464v-2.17a1.047 1.047 0 00-.089-.457.752.752 0 00-.356-.321 2.15 2.15 0 00-.512-.172q-.309-.069-.513-.1v-.589h5.043zm11.79 4.349h-3.727q-.965-1.628-1.6-2.593t-1.59-2.231h-.375v3.25a1.039 1.039 0 00.092.459.732.732 0 00.354.317 2.24 2.24 0 00.406.124 4.4 4.4 0 00.476.087v.588h-5.186v-.588c.132-.015.308-.036.524-.065a1.806 1.806 0 00.462-.1.692.692 0 00.35-.3 1.1 1.1 0 00.089-.472v-7.554a1.169 1.169 0 00-.077-.452.67.67 0 00-.362-.317 2.8 2.8 0 00-.516-.165c-.2-.045-.355-.078-.469-.1v-.589h5.449a5.027 5.027 0 012.775.63 2.131 2.131 0 01.947 1.9 2.682 2.682 0 01-.584 1.806 3.842 3.842 0 01-1.783 1.066q.464.664 1.084 1.537t1.29 1.786q.213.3.579.721a1.687 1.687 0 00.647.524 2.336 2.336 0 00.4.091c.162.025.278.041.346.046zm-4.661-7.953a2.015 2.015 0 00-.545-1.564 2.224 2.224 0 00-1.55-.494h-.54v4.478h.52a2.056 2.056 0 001.56-.58 2.59 2.59 0 00.555-1.84zm13.801-1.552a5.315 5.315 0 011.139 1.749 6.108 6.108 0 01.421 2.336 6.929 6.929 0 01-.355 2.224 5.258 5.258 0 01-1.023 1.818 5.038 5.038 0 01-1.655 1.232 5.345 5.345 0 01-2.266.441 5.253 5.253 0 01-2.006-.385 4.885 4.885 0 01-1.663-1.116 5.22 5.22 0 01-1.129-1.741 6 6 0 01-.419-2.285 6.626 6.626 0 01.408-2.377 5.527 5.527 0 011.119-1.828 4.811 4.811 0 011.673-1.149 5.5 5.5 0 014.106-.012 4.984 4.984 0 011.65 1.093zm-1.759 7.656a6.106 6.106 0 00.444-1.555 12.614 12.614 0 00.137-1.963 13.458 13.458 0 00-.12-1.809 6.263 6.263 0 00-.407-1.566 2.956 2.956 0 00-.781-1.1 1.8 1.8 0 00-1.211-.415 2.029 2.029 0 00-1.882 1.295 8.375 8.375 0 00-.644 3.658 12.273 12.273 0 00.14 1.9 6.039 6.039 0 00.442 1.555 2.79 2.79 0 00.781 1.045 1.815 1.815 0 001.164.374 1.837 1.837 0 001.163-.377 2.59 2.59 0 00.774-1.043zm15.602-8.259q-.2.023-.572.1a1.528 1.528 0 00-.625.274 1.089 1.089 0 00-.367.679 7.587 7.587 0 00-.105 1.47v3.98a3.8 3.8 0 01-1.081 2.827 3.885 3.885 0 01-2.86 1.071 4.608 4.608 0 01-3.211-1.033 3.693 3.693 0 01-1.135-2.88v-5.473a1.026 1.026 0 00-.093-.452.862.862 0 00-.352-.339 1.735 1.735 0 00-.438-.159 5.464 5.464 0 00-.425-.083v-.572h5.096v.572a4.036 4.036 0 00-.445.057 2.959 2.959 0 00-.459.124.549.549 0 00-.349.3 1.216 1.216 0 00-.089.475v5.4a3.465 3.465 0 00.635 2.314 2.646 2.646 0 003.712-.076 3.554 3.554 0 00.676-2.352v-3.625a6.381 6.381 0 00-.12-1.444 1.306 1.306 0 00-.365-.691 1.645 1.645 0 00-.621-.3 5.384 5.384 0 00-.619-.165v-.589h4.216zm9.743 2.086a3.335 3.335 0 01-.339 1.557 2.861 2.861 0 01-.934 1.06 4.176 4.176 0 01-1.406.61 7.657 7.657 0 01-1.776.189h-.794v3.007a1.11 1.11 0 00.092.471.684.684 0 00.352.321 2.654 2.654 0 00.445.128 5.125 5.125 0 00.52.091v.588h-5.263v-.588c.132-.015.308-.036.527-.065a1.691 1.691 0 00.458-.1.683.683 0 00.353-.294 1.117 1.117 0 00.085-.483v-7.548a1.155 1.155 0 00-.082-.456.669.669 0 00-.356-.321 2.5 2.5 0 00-.51-.16 6.787 6.787 0 00-.475-.095v-.589h5.359a4.881 4.881 0 012.812.659 2.306 2.306 0 01.932 2.018zm-2.669.385a2.964 2.964 0 00-.442-1.79 1.857 1.857 0 00-1.572-.585h-.567v4.7h.286a2.04 2.04 0 002.294-2.322zm-43.4-29.492a2.566 2.566 0 00.587.092 2.48 2.48 0 00.31-.014h.042a.316.316 0 01.338.275.4.4 0 01-.233.409 5.624 5.624 0 01-1.108.572 4.232 4.232 0 00.848 1.122c.288.254.423.417.423.685s-.113.4-.29.4a.663.663 0 01-.367-.114 3.093 3.093 0 00-1.771-.381c-.523 0-.89.17-.89.544 0 .529.692.811 1.5.811a1.359 1.359 0 00.389-.056c.48.106.776.339.776.6 0 .183-.127.332-.543.332a3.818 3.818 0 01-1.63-.339 1.29 1.29 0 01-.862-1.064c0-.537.417-1.017 1.455-1.171a8.65 8.65 0 01.96-.085c.063 0 .085-.008.085-.029a.2.2 0 00-.05-.1 11.577 11.577 0 01-.572-.953 4.965 4.965 0 01-1.567.353.821.821 0 01-.594-.254 2.359 2.359 0 01-.416-.459.038.038 0 01-.008-.028.027.027 0 01.029-.029.056.056 0 01.034.008 1.657 1.657 0 00.757.148 3.978 3.978 0 00.854-.162c.191-.05.388-.113.593-.183-.12-.24-.24-.5-.367-.776a.99.99 0 00-.162-.262.383.383 0 00-.255-.084.741.741 0 00-.127.013.243.243 0 01-.056.008.05.05 0 01-.056-.05.093.093 0 01.034-.063c.262-.262.438-.36.565-.36a.9.9 0 01.41.106c.268.127.3.211.3.29 0 .042-.007.127-.007.176a1.125 1.125 0 00.1.4c.048.119.105.254.162.388.183-.077.36-.162.515-.247.085-.042.105-.084.105-.113s-.007-.042-.042-.077c-.078-.077-.155-.141-.247-.219-.013-.014-.013-.014-.013-.028s.013-.029.042-.029zm1.081-.586a1.565 1.565 0 01.692.169.552.552 0 01.375.508.269.269 0 01-.3.29c-.092 0-.17-.035-.239-.183a1.5 1.5 0 00-.586-.7C24.58.655 24.55.641 24.55.62s.022-.029.078-.029zm1.362-.388c.247.119.4.247.4.473 0 .183-.092.3-.268.3-.113 0-.191-.043-.275-.22a1.61 1.61 0 00-.58-.592c-.042-.028-.056-.035-.056-.064s.028-.028.148-.028a1.619 1.619 0 01.629.131zm1.08 4.39a.325.325 0 01-.19.055.8.8 0 01-.473-.24.592.592 0 01-.276-.5c0-.042.014-.056.035-.056a.1.1 0 01.043.014.381.381 0 00.225.071 1.556 1.556 0 00.649-.212 4.553 4.553 0 012.153-.734 1.4 1.4 0 011.539 1.3c0 .592-.36 1.023-1.066 1.341a6.012 6.012 0 01-2.09.459.054.054 0 01-.056-.05c0-.028.013-.042.049-.056a5.369 5.369 0 001.637-.726 1.458 1.458 0 00.77-1.192.756.756 0 00-.854-.755c-.438 0-.924.31-1.8 1.03-.09.075-.16.139-.295.251zm9.545-.987c.325-.375.36-.389.431-.389s.12.008.459.24c.3.212.331.247.331.311s-.013.085-.176.24v.544c0 .191.028.494.028.558 0 .211-.267.3-.656.3-.268 0-.318-.05-.318-.24v-.184h-1.419c.014.9.028 1.384.028 1.5 0 .2-.191.3-.621.3-.31 0-.375-.028-.375-.254 0-.119.022-.628.035-1.538h-1.341v.261c0 .212-.2.311-.657.311-.211 0-.261-.056-.261-.247 0-.12.028-.325.028-.953a9.21 9.21 0 00-.042-1.044 3.431 3.431 0 011.1.29h1.194v-.906h-1.038v.092c0 .212-.2.311-.586.311-.212 0-.331-.056-.331-.247 0-.12.028-.325.028-.84a9.206 9.206 0 00-.042-1.044 3.458 3.458 0 011.1.289h.87c-.008-.677-.022-.86-.043-1.107 1.116.1 1.2.169 1.2.268 0 .077-.071.127-.261.233v.606h.94c.345-.366.38-.38.458-.38s.113 0 .445.24c.267.19.31.225.31.3s-.008.085-.169.233v.55c0 .19.028.494.028.557 0 .212-.227.3-.657.3-.268 0-.318-.05-.318-.24v-.121h-1.036v.9zm-2.245 1.241c.008-.317.008-.684.015-1.1h-1.215a.7.7 0 01-.148.078v1.022zm.015-2.286V1.407h-.89a.669.669 0 01-.149.077v1.081zm.9-1.158v1.158h1.037V1.407zm1.433 3.444v-1.1h-1.437c.008.417.008.784.014 1.1zm4.764-3.395a8.86 8.86 0 00.693-.106.637.637 0 00.268-.113c.105-.077.127-.1.191-.1s.19.056.422.247c.354.3.452.41.452.529s-.049.156-.162.233a.682.682 0 00-.275.311 7.376 7.376 0 01-4.152 3.938.222.222 0 01-.071.021.052.052 0 01-.049-.05c0-.021.007-.035.034-.056a9.331 9.331 0 003.481-4.332.193.193 0 00.014-.064.071.071 0 00-.071-.071c-.043 0-.283.035-.578.092a.778.778 0 01-.17.029.751.751 0 01-.268-.077 6.22 6.22 0 01-2.386 2.2.132.132 0 01-.064.021.058.058 0 01-.063-.056.053.053 0 01.014-.043 7.284 7.284 0 001.637-2.286.8.8 0 00.12-.354c0-.127-.112-.247-.3-.374-.035-.021-.042-.029-.042-.042s.014-.021.056-.035a1.446 1.446 0 01.36-.064 1.371 1.371 0 01.571.268c.219.14.332.233.339.311zm1.646-.875a1.441 1.441 0 01.7.183.577.577 0 01.346.487.3.3 0 01-.289.332.283.283 0 01-.275-.2 1.419 1.419 0 00-.536-.72c-.035-.021-.057-.035-.057-.056s.022-.029.079-.029zm1.341-.444c.262.134.381.254.381.473a.3.3 0 01-.276.311c-.148 0-.218-.029-.3-.219a1.505 1.505 0 00-.543-.6c-.042-.029-.057-.035-.064-.063s.03-.035.078-.035a1.662 1.662 0 01.724.133zm2.181 2.844a2.443 2.443 0 00-.112.353 3.548 3.548 0 01-2.076 2.576.071.071 0 01-.035.008.04.04 0 01-.042-.035c0-.014 0-.021.022-.042a4.125 4.125 0 001.376-2.739 1.618 1.618 0 00.028-.29c0-.148-.112-.247-.395-.388-.028-.014-.035-.021-.035-.035s.028-.035.085-.064a1.023 1.023 0 01.422-.134c.092 0 .219.056.51.254.218.148.3.254.3.338a.466.466 0 01-.048.198zm1.491-.853c-.071.106-.085.211-.1.557a57.446 57.446 0 00-.05 1.92 11.812 11.812 0 002.662-2.124c.014-.014.021-.021.034-.021a.041.041 0 01.043.042.09.09 0 01-.015.042 9.044 9.044 0 01-2.519 2.95c-.092.078-.142.113-.205.177a.187.187 0 01-.148.064c-.063 0-.191-.085-.388-.291s-.276-.345-.276-.422a.74.74 0 01.05-.2.816.816 0 00.035-.254c.021-.833.021-1.644.021-2.554 0-.254-.084-.325-.339-.431-.035-.014-.049-.028-.049-.05s.007-.028.034-.05a.948.948 0 01.467-.2c.092 0 .2.034.515.275.24.183.3.282.3.38a.4.4 0 01-.072.19zm8.254 1.057c.268.113.353.241.353.388 0 .219-.183.312-.416.312-.177 0-.635-.008-.911-.008-.622 0-1.709.056-2.74.17a.73.73 0 00-.353.091.385.385 0 01-.2.056.623.623 0 01-.38-.24c-.255-.268-.347-.409-.347-.507a1.484 1.484 0 01.029-.269c.007-.035.021-.049.035-.049s.014 0 .042.021a.676.676 0 00.515.2c.17 0 .31-.007.458-.014 1.222-.063 1.808-.105 2.775-.169.176-.013.247-.021.431-.042a1.772 1.772 0 01.267-.021 1.328 1.328 0 01.442.081zm1.913 3.077a.043.043 0 01-.048-.049.049.049 0 01.028-.043 7.779 7.779 0 003.063-4 .128.128 0 00.008-.05c0-.042-.029-.056-.085-.056s-.261.021-.417.035a16.409 16.409 0 00-1.884.338 1.335 1.335 0 00-.368.128.5.5 0 01-.2.077c-.135 0-.24-.077-.481-.339-.2-.211-.267-.345-.267-.459a.611.611 0 01.062-.219c.022-.049.022-.049.035-.049s.014 0 .042.021a.776.776 0 00.473.219 4.449 4.449 0 00.572-.042c.693-.085 1.426-.177 2.231-.283a.77.77 0 00.382-.113.334.334 0 01.175-.071c.093 0 .185.035.515.311.3.247.4.36.4.465s-.035.127-.127.212a.586.586 0 00-.2.246 6.3 6.3 0 01-3.875 3.719zM63.513.783a.7.7 0 11-.7-.7.7.7 0 01.7.7zm-1.165 0a.466.466 0 10.466-.465.48.48 0 00-.462.465z" fill="#fff"/><path fill="rgba(0,0,0,0.3)" d="M91.402 18.177l8.597.69-1.337 16.669-8.598-.69z"/><path fill="#e11b22" d="M91.615 18.43l8.133.653-1.299 16.178-8.132-.653z"/><g fill="#fff"><path d="M92.495 29.83c.054.104.104.208.16.3a.3.3 0 00.063.073.034.034 0 00.058-.01.23.23 0 01.231-.115c.1-.002.202-.007.303-.015a.226.226 0 00.07-.037c-.017-.02-.03-.048-.052-.061-.066-.037-.136-.07-.203-.103l-.06-.03a.216.216 0 01-.125-.22.125.125 0 00-.06-.115c-.034-.021-.07-.04-.104-.06a.218.218 0 01-.124-.22 2.668 2.668 0 01.047-.348c.055-.24.12-.477.18-.716.015-.065.032-.13.042-.197a.438.438 0 01.132-.236c.077-.083.162-.16.236-.246a.418.418 0 00.12-.262.5.5 0 00-.015-.094c.08-.002.163 0 .247-.011a1.786 1.786 0 00.186-.05.374.374 0 01.095-.012c.04.003.05.022.033.056a.425.425 0 01-.033.048.575.575 0 00-.036.05.08.08 0 00.036.124.239.239 0 00.078.022.05.05 0 01.05.045c.007.042.012.086.02.129a.122.122 0 00.172.114 1.807 1.807 0 00.414-.16.067.067 0 00.03-.043c.014-.1.023-.2.037-.298a.527.527 0 01.031-.146 2.024 2.024 0 00.122-.392.19.19 0 01.112-.157.152.152 0 00.066-.07.623.623 0 00.044-.112.486.486 0 01.14-.195l-.025 1.26a.547.547 0 00.1-.002.838.838 0 00.155-.048 1.836 1.836 0 01.598-.13 1.263 1.263 0 01.45.035.4.4 0 01.32.326c.01.06.014.12.02.18.017.15.033.303.051.452a.34.34 0 00.025.085.152.152 0 00.117.098.072.072 0 01.063.05 1.737 1.737 0 01.048.204 2.318 2.318 0 00.077.418.179.179 0 01-.037.167c-.036.048-.076.095-.111.138a.31.31 0 00-.077.174.145.145 0 01-.09.137.15.15 0 01-.159-.037.653.653 0 00-.373-.152.444.444 0 00-.19.016.51.51 0 01-.23-.012.292.292 0 00-.198.03.568.568 0 01-.177.04 2.346 2.346 0 00-.243.042c-.17.05-.192.186-.157.324a.079.079 0 00.095.063.3.3 0 00.103-.03 1.32 1.32 0 01.552-.135 3.292 3.292 0 01.577-.002 1.471 1.471 0 01.448.102.711.711 0 01.288.229.376.376 0 01.075.246.457.457 0 00.113.335.336.336 0 01.077.3c-.022.113-.06.223-.084.337a1.1 1.1 0 00-.022.206.407.407 0 01-.065.203l-.101.165a.533.533 0 00-.082.35.261.261 0 01-.006.077.183.183 0 01-.214.162c-.15-.005-.3-.015-.45-.019a2.915 2.915 0 00-.663.043.8.8 0 01-.334-.027l-.388-.09a.16.16 0 00-.039-.003c-.07.001-.091.004-.098.092-.025.315-.06.63-.086.944a3.15 3.15 0 000 .371.344.344 0 00.04.123c.021.046.051.086.073.132s.01.086-.044.113a.413.413 0 01-.04.015.151.151 0 00-.109.177.056.056 0 01-.025.06.137.137 0 01-.187.004.578.578 0 00-.181-.101.553.553 0 01-.37-.53 2.021 2.021 0 01.075-.597 3.689 3.689 0 00.115-.63.8.8 0 00-.006-.167c-.013-.089-.055-.118-.145-.111-.151.006-.302.013-.456.016a3.587 3.587 0 00-.578.055c-.127.023-.257.028-.384.048a.47.47 0 00-.27.128.266.266 0 00-.056.077.311.311 0 01-.215.177 1.242 1.242 0 01-.182.036c-.066-.002-.137.005-.208.007a.14.14 0 01-.11-.065.463.463 0 00-.093-.096.181.181 0 01-.074-.207c.01-.048.022-.098.03-.143a.249.249 0 00-.026-.166.6.6 0 01-.059-.406 2.215 2.215 0 01.126-.492 1.437 1.437 0 01.14-.256 1.876 1.876 0 00.175-.322 2.66 2.66 0 01.26-.491.99.99 0 01.325-.303l.049-.024zm1.894 1.424a.12.12 0 00.002-.02c-.002-.176-.003-.353-.007-.529a.04.04 0 00-.013-.024 1.078 1.078 0 01-.118-.116.211.211 0 00-.174-.092c-.157 0-.313 0-.468.007a3.944 3.944 0 01-.72-.006.208.208 0 00-.032-.002 1.377 1.377 0 00-.033.331.512.512 0 00.02.117.074.074 0 00.066.058.662.662 0 01.237.076.612.612 0 00.245.069.347.347 0 01.072.01 1.644 1.644 0 00.188.055c.142.022.284.038.427.05.103.014.204.013.307.017zm.736.013a.142.142 0 00.027.002c.15-.006.301-.007.452-.021a.8.8 0 01.219.009c.082.014.165.029.248.037.054.005.084-.016.09-.059a.088.088 0 01.062-.076l.11-.038a.188.188 0 00.118-.1.28.28 0 00-.17-.378.852.852 0 00-.324-.014.887.887 0 01-.27.013c-.04-.003-.08-.013-.123-.017a.66.66 0 00-.272.01.167.167 0 00-.128.153c-.006.087-.02.174-.025.261-.012.075-.012.146-.014.218zm.12-2.649c.078-.004.15-.005.22-.01a.831.831 0 00.312-.071.563.563 0 01.38-.048.059.059 0 00.07-.027.177.177 0 00-.031-.24c-.06-.065-.113-.137-.173-.202a.259.259 0 00-.106-.078.473.473 0 00-.497.085.205.205 0 01-.135.07zm-.79.107c.018-.062.068-.073.115-.086.025-.006.033-.015.033-.041a14.54 14.54 0 01-.014-.367c.003-.041-.027-.046-.055-.046a9.719 9.719 0 00-.341 0 .285.285 0 00-.103.026c-.042.02-.045.047-.006.075a.583.583 0 00.064.038c.026.015.055.029.08.046.01 0 .014.017.02.025a.131.131 0 01-.026.02c-.063.023-.075.052-.036.107a.586.586 0 00.234.192.256.256 0 00.031.01zm2.271-2.539a.22.22 0 01-.003-.067 1.272 1.272 0 01.05-.152.236.236 0 01.134-.127.16.16 0 00.101-.179.125.125 0 00-.12-.125.2.2 0 00-.082.001.638.638 0 01-.21.009 1.092 1.092 0 00-.13.001c-.053.002-.066.016-.076.066a.046.046 0 01-.006.016c-.011.016-.021.04-.037.044a.064.064 0 01-.051-.023.386.386 0 01-.09-.247.65.65 0 01.113-.326 1.99 1.99 0 01.055-.106 1.722 1.722 0 01.079-.154.156.156 0 01.138-.074.453.453 0 00.131-.033c.029-.01.055-.029.084-.04a.06.06 0 01.084.024.274.274 0 00.153.112.473.473 0 01.282.233 1.355 1.355 0 00.118.156.243.243 0 01.041.156c0 .086-.013.171-.02.256a.106.106 0 01-.08.094.107.107 0 00-.081.104.148.148 0 01-.111.14 7.711 7.711 0 01-.382.143.094.094 0 00-.055.072.1.1 0 01-.015.029zm-1.648-4.28a1.86 1.86 0 01.027-.226 1.7 1.7 0 01.045-.312.138.138 0 00-.061-.158.984.984 0 01-.078-.06c-.027-.025-.022-.045.014-.054a.535.535 0 01.237-.014.181.181 0 01.096.06 1.028 1.028 0 01.2.365.456.456 0 01.002.2l-.002.033c-.008.093.026.138.12.142a.359.359 0 00.19-.042.307.307 0 01.304.037.191.191 0 00.165.036c.061-.007.123-.015.184-.015a.26.26 0 01.168.062.531.531 0 00.24.105.212.212 0 01.137.068.385.385 0 00.084.064.484.484 0 01.194.23.277.277 0 01.02.14.065.065 0 01-.082.065c-.063-.005-.076.002-.096.063-.01.03-.017.06-.028.088a.059.059 0 01-.062.046c-.023-.002-.033.011-.034.033a.5.5 0 00-.004.05.066.066 0 01-.074.08c-.109 0-.113.004-.116.113-.003.034-.01.044-.045.041a.169.169 0 00-.177.099.079.079 0 01-.083.05c-.048-.005-.101.01-.146.012a.12.12 0 01-.064-.014.173.173 0 00-.126-.02.477.477 0 01-.242-.018.516.516 0 00-.08-.02.113.113 0 00-.136.094.393.393 0 00-.014.082.925.925 0 01-.088.346.986.986 0 00-.096.3.11.11 0 01-.096.101 1.5 1.5 0 01-.203.029.112.112 0 01-.07-.04.218.218 0 01-.046-.082 5.78 5.78 0 01-.091-.321c-.01-.04-.005-.086-.014-.126a.3.3 0 00-.044-.104.346.346 0 01-.055-.171 1.742 1.742 0 01-.005-.188c.005-.065-.01-.082-.077-.085-.088-.007-.178 0-.265-.01-.123-.014-.246-.04-.368-.061-.076-.014-.152-.03-.228-.047s-.133-.039-.197-.055a.142.142 0 01-.11-.084c-.019-.05-.043-.09-.067-.133a.057.057 0 00-.026-.023l.014.08a.133.133 0 01-.037.13.1.1 0 00-.024.129.494.494 0 01-.248-.038c-.044-.02-.09-.03-.135-.048a.161.161 0 01-.107-.128c.002-.022-.004-.045-.008-.067a.03.03 0 00-.046-.026c-.026.012-.05.03-.074.042s-.042.017-.062.025a.261.261 0 01.005-.067c.025-.071.055-.14.078-.213a.479.479 0 00.01-.12.061.061 0 00-.035-.052c-.017-.01-.026-.03-.037-.042a.428.428 0 01.043-.028.1.1 0 01.031-.005c.04-.006.05-.019.032-.06s-.037-.063-.05-.096a.182.182 0 01-.03-.141.114.114 0 01.04-.061c.024-.016.048.003.068.02s.024.021.033.035.044.02.063-.008.018-.023.028-.035a.1.1 0 01.08-.039.228.228 0 00.095-.029c.027-.015.022-.039-.005-.057a.3.3 0 01-.053-.044.234.234 0 00-.157-.082.212.212 0 01-.164-.104.142.142 0 01-.021-.06c-.007-.068-.01-.145-.014-.213.044.048.093.093.139.145a.161.161 0 00.16.054 1.022 1.022 0 00.134-.036c.008-.004.02-.019.018-.024a.046.046 0 00-.025-.02.15.15 0 00-.033-.009.1.1 0 01-.104-.1.574.574 0 01.022-.127c0-.008 0-.015.015-.026l.012.095a.288.288 0 00.015.064c.007.015.02.033.033.035a.049.049 0 00.036-.028.728.728 0 00.036-.108c.002-.028.004-.058.013-.085s.033-.047.06-.019a.32.32 0 01.048.066c.013.021.02.046.033.066s.041.032.068.005l.007-.009c.016-.026.033-.029.06-.012.072.04.109.027.147-.045.021-.034.03-.037.055-.005a.154.154 0 00.12.062.089.089 0 01.085.069c.008.02.014.042.023.063a.142.142 0 00.066.071.453.453 0 01.114.085.991.991 0 00.38.27c.087.036.17.082.257.12a.846.846 0 00.122.037.149.149 0 00.04-.003z"/><path d="M93.897 23.555l.029.056.124-.076c-.003.037.003.07.005.1a.086.086 0 00.006.031c0 .008.01.02.015.021a.029.029 0 00.024-.013.61.61 0 00.035-.06c.023-.04.044-.083.069-.122a.188.188 0 01.04-.036.233.233 0 01.026.052c.006.03.005.062.008.092a.411.411 0 00.055.169 1.119 1.119 0 01.074.173.463.463 0 00.099.174.2.2 0 00.062.046.939.939 0 01.349.263c.036.04.064.087.098.13a.632.632 0 00.063.07.3.3 0 01.078.277c-.003.042-.031.053-.072.042l-.044-.011c-.038-.01-.052-.004-.068.036a.051.051 0 01-.013.02c-.038.03-.074.062-.113.092a.128.128 0 01-.154.002.648.648 0 00-.064-.038c-.031-.016-.046-.01-.057.024l-.001.02a.063.063 0 01-.09.047.166.166 0 01-.11-.091.077.077 0 00-.063-.054c-.03-.005-.043-.03-.052-.054s-.015-.05-.023-.078a.3.3 0 00-.203-.198.6.6 0 01-.105-.053l-.249-.134-.023-.01c-.074-.034-.091-.066-.045-.138a.356.356 0 00.042-.18.378.378 0 00-.001-.101.3.3 0 01.058-.17c.034-.058.062-.12.094-.18s.057-.094.085-.142zm4.763-3.035l.108-.005a.137.137 0 01-.011.025.905.905 0 00-.173.387 2.777 2.777 0 00-.066.54.125.125 0 00-.104.042.046.046 0 01-.032.011.411.411 0 01-.26-.052.169.169 0 00-.073-.025.135.135 0 01-.114-.091c-.027-.069-.061-.135-.084-.207a.663.663 0 01-.035-.187c0-.1.016-.2.023-.292a.328.328 0 01.065-.154.579.579 0 00.103-.203.378.378 0 01.013-.081.4.4 0 01.085-.156c.027-.035.051-.072.077-.109.005-.008.014-.015.015-.023.037-.046.062-.043.084.01a.157.157 0 00.013.025c.03.044.069.047.092-.003a.438.438 0 00.03-.09c.016-.062.034-.068.089-.03a.952.952 0 00.095.066.2.2 0 01.093.246 1.43 1.43 0 00-.033.356zm-2.086.507a.831.831 0 01.046-.322c.018-.044.044-.085.057-.13a.676.676 0 00.01-.124.24.24 0 01.08-.163c.079-.071.164-.137.248-.204a.161.161 0 01.037-.02c.045-.019.053-.014.058.034s.036.068.076.054a.586.586 0 00.116-.064c.03-.02.055-.047.086-.065s.05-.006.045.028a.845.845 0 01-.025.116.5.5 0 00-.022.278.111.111 0 00.013.027.472.472 0 01.028.352c-.01.065-.029.127-.039.192a.364.364 0 00.002.094.042.042 0 00.021.028c.026.012.022.03.008.043a.249.249 0 01-.083.055c-.076.022-.154.036-.23.05a.245.245 0 01-.045-.003.068.068 0 00-.076.068c-.004.06-.013.069-.072.063a.421.421 0 01-.119-.03.074.074 0 01-.047-.09.147.147 0 00-.018-.111.144.144 0 01-.02-.12c.009-.033-.007-.052-.04-.05a.756.756 0 00-.095.014z"/></g></svg>