<svg id="logo_raizo_x" xmlns="http://www.w3.org/2000/svg" width="111.86" height="30" viewBox="0 0 111.86 30">
  <g id="Group_570" data-name="Group 570" transform="translate(37.105 8.218)">
    <g id="Group_548" data-name="Group 548" transform="translate(37.426 0.4)">
      <g id="Group_543" data-name="Group 543" transform="translate(0 0.016)">
        <path id="Path_7606" data-name="Path 7606" d="M271.223,483.186h-2.005l2.005,5.146H270.18l-2.005-5.146h-1.51v5.146H265.7v-9.865h5.521Zm-4.558-3.764V482.2h3.609v-2.779Z" transform="translate(-265.277 -478.042)"/>
        <path id="Path_7607" data-name="Path 7607" d="M271.606,488.52h-1.954l-2.005-5.147h-.795v5.147h-1.813V477.8h6.371v5.569H269.6Zm-1.373-.851h.13l-2.005-5.146h2.2v-3.869h-4.67v9.015H266v-5.146h2.226Zm.228-5.281H266v-3.629h4.459Zm-3.609-.85h2.759v-1.929h-2.759Z" transform="translate(-265.039 -477.804)"/>
      </g>
      <g id="Group_544" data-name="Group 544" transform="translate(9.049 0.016)">
        <path id="Path_7608" data-name="Path 7608" d="M279.82,478.467h5.8v9.865h-1.015v-5.146H280.8v5.146h-.976Zm.976,3.734h3.81v-2.764H280.8Z" transform="translate(-279.394 -478.042)"/>
        <path id="Path_7609" data-name="Path 7609" d="M285.808,488.52h-1.866v-5.147h-2.96v5.147h-1.826V477.8h6.652Zm-1.016-.851h.166v-9.015h-4.952v9.015h.126v-5.146h4.66Zm0-5.281h-4.66v-3.614h4.66Zm-3.81-.85h2.96v-1.913h-2.96Z" transform="translate(-279.156 -477.804)"/>
      </g>
      <g id="Group_545" data-name="Group 545" transform="translate(18.38 0.016)">
        <path id="Path_7610" data-name="Path 7610" d="M295.4,488.332h-1.029v-9.865H295.4Z" transform="translate(-293.95 -478.042)"/>
        <path id="Path_7611" data-name="Path 7611" d="M295.591,488.52h-1.879V477.8h1.879Zm-1.029-.851h.179v-9.015h-.179Z" transform="translate(-293.712 -477.804)"/>
      </g>
      <g id="Group_546" data-name="Group 546" transform="translate(22.551 0.016)">
        <path id="Path_7612" data-name="Path 7612" d="M301.148,478.467h4.772v1.044l-4.024,7.851h4.037v.971h-5.053v-1.044l4.024-7.852h-3.756Z" transform="translate(-300.456 -478.042)"/>
        <path id="Path_7613" data-name="Path 7613" d="M306.121,488.52h-5.9v-1.573l3.754-7.323h-3.487V477.8h5.622v1.571l-3.754,7.324h3.767Zm-5.053-.851h4.2v-.12h-4.2Zm0-.516v.193l4.19-8.176v-.193Zm.267-8.379h3.922v-.12h-3.922Z" transform="translate(-300.218 -477.804)"/>
      </g>
      <g id="Group_547" data-name="Group 547" transform="translate(30.745)">
        <path id="Path_7614" data-name="Path 7614" d="M319.4,488.324h-5.735v-9.88l5.735.015Zm-4.785-.971h3.81v-7.925h-3.81Z" transform="translate(-313.239 -478.018)"/>
        <path id="Path_7615" data-name="Path 7615" d="M319.586,488.511H313V477.779l6.585.017Zm-5.735-.851h4.885v-9.017l-4.885-.013Zm4.759-.12h-4.66v-8.776h4.66Zm-3.81-.85h2.96v-7.075H314.8Z" transform="translate(-313.001 -477.779)"/>
      </g>
    </g>
    <g id="Group_550" data-name="Group 550" transform="translate(0 0.445)">
      <g id="Group_549" data-name="Group 549">
        <path id="Path_7616" data-name="Path 7616" d="M211.315,484.384h-1.208l-1.858-3.856v7.785h-.929v-9.8h1.022L210.7,483.4l2.3-4.893h1.208v9.8h-.969v-8.033Z" transform="translate(-206.893 -478.087)"/>
        <path id="Path_7617" data-name="Path 7617" d="M214.4,488.5h-1.819v-6.553l-1.231,2.624H209.6l-1.167-2.421v6.35h-1.78V477.849h1.714l2.092,4.33,2.033-4.33h1.9Zm-.969-.85h.119V478.7h-.119Zm-5.922,0h.079V478.7H207.5Zm3.171-3.929h.131l2.356-5.022h-.131Zm-.54,0h.127l-2.426-5.022h-.121Z" transform="translate(-206.655 -477.849)"/>
      </g>
    </g>
    <g id="Group_551" data-name="Group 551" transform="translate(17.313 0.324)">
      <path id="Path_7618" data-name="Path 7618" d="M233.664,478.352l3.24-.117a1.99,1.99,0,0,1-1.158,1.779s.167-.554-.051-.638l-1.981.134Z" transform="translate(-233.664 -477.866)" fill="#da2128"/>
      <path id="Path_7619" data-name="Path 7619" d="M234.476,477.676s.084,2.9,1.158,3.156a15.714,15.714,0,0,1-.3-3.172Z" transform="translate(-233.955 -477.659)" fill="#da2128"/>
    </g>
    <g id="Group_553" data-name="Group 553" transform="translate(12.949)">
      <g id="Group_552" data-name="Group 552" transform="translate(0)">
        <ellipse id="Ellipse_48" data-name="Ellipse 48" cx="0.638" cy="0.839" rx="0.638" ry="0.839" transform="translate(0 1.091) rotate(-58.794)"/>
        <path id="Path_7620" data-name="Path 7620" d="M230.835,479.457l-2.57,1.869-.325-.5,2.57-1.869Z" transform="translate(-227.244 -477.803)"/>
      </g>
    </g>
    <g id="Group_555" data-name="Group 555" transform="translate(28.708 0.097)">
      <g id="Group_554" data-name="Group 554" transform="translate(0)">
        <ellipse id="Ellipse_49" data-name="Ellipse 49" cx="0.597" cy="0.825" rx="0.597" ry="0.825" transform="matrix(0.918, -0.397, 0.397, 0.918, 0, 0.547)"/>
        <ellipse id="Ellipse_50" data-name="Ellipse 50" cx="0.289" cy="0.406" rx="0.289" ry="0.406" transform="translate(2.536)"/>
        <ellipse id="Ellipse_51" data-name="Ellipse 51" cx="0.289" cy="0.406" rx="0.289" ry="0.406" transform="translate(3.221 0.085)"/>
        <path id="Path_7621" data-name="Path 7621" d="M254.978,478.947l-1.54,2.439-.476-.333,1.54-2.439Z" transform="translate(-251.985 -477.775)"/>
      </g>
    </g>
    <g id="Group_557" data-name="Group 557" transform="translate(9.279 0.328)">
      <g id="Group_556" data-name="Group 556">
        <path id="Path_7622" data-name="Path 7622" d="M224.283,478.107l-2.764,2.708-.39-.441,2.764-2.708Z" transform="translate(-221.13 -477.666)"/>
        <path id="Path_7623" data-name="Path 7623" d="M221.852,477.852l2.427,2.056-.712.93-2.427-2.056Z" transform="translate(-221.134 -477.733)"/>
      </g>
    </g>
    <g id="Group_559" data-name="Group 559" transform="translate(21.328 0.379)">
      <g id="Group_558" data-name="Group 558">
        <rect id="Rectangle_40" data-name="Rectangle 40" width="2.445" height="0.873" transform="translate(0.185)"/>
        <rect id="Rectangle_41" data-name="Rectangle 41" width="2.558" height="0.963" transform="translate(0 1.179)"/>
        <path id="Path_7624" data-name="Path 7624" d="M243.995,479.585l-.754,1.868-.387-.173.68-1.694Z" transform="translate(-240.977 -478.406)"/>
      </g>
    </g>
    <g id="Group_561" data-name="Group 561" transform="translate(25.12 0.305)">
      <g id="Group_560" data-name="Group 560">
        <path id="Path_7625" data-name="Path 7625" d="M248.893,478.625l-2.562,1.392-.489-1,2.562-1.392Z" transform="translate(-245.842 -477.63)"/>
        <rect id="Rectangle_42" data-name="Rectangle 42" width="0.533" height="1.975" transform="translate(1.433 1.221)"/>
      </g>
    </g>
    <rect id="Rectangle_43" data-name="Rectangle 43" width="2.258" height="1.031" transform="translate(33.28 1.387)"/>
    <g id="Group_563" data-name="Group 563" transform="translate(16.562 4.121)">
      <g id="Group_562" data-name="Group 562">
        <path id="Path_7626" data-name="Path 7626" d="M237.159,490.45h-.778v-5.374h-2.46v5.374h-.766v-6.2h3.006a1.029,1.029,0,0,1,1,1.072Z" transform="translate(-232.73 -483.821)"/>
        <path id="Path_7627" data-name="Path 7627" d="M237.346,490.637h-1.628v-5.374h-1.61v5.374h-1.617v-7.054h3.431a1.446,1.446,0,0,1,1.422,1.5Z" transform="translate(-232.492 -483.583)"/>
      </g>
    </g>
    <g id="Group_565" data-name="Group 565" transform="translate(23.431 4.121)">
      <g id="Group_564" data-name="Group 564">
        <path id="Path_7628" data-name="Path 7628" d="M243.906,491.969h3.017v-1.762h-3.052v-5.961h.812v5.183h2.24v-5.183h.847V491.7a1.029,1.029,0,0,1-1,1.072h-2.867Z" transform="translate(-243.446 -483.821)"/>
        <path id="Path_7629" data-name="Path 7629" d="M246.534,492.96h-3.292v-1.655h3.018v-.911h-3.053v-6.811h1.662v5.182h1.39v-5.182h1.7v7.879A1.446,1.446,0,0,1,246.534,492.96Z" transform="translate(-243.208 -483.583)"/>
      </g>
    </g>
    <g id="Group_567" data-name="Group 567" transform="translate(9.876 4.121)">
      <g id="Group_566" data-name="Group 566">
        <path id="Path_7630" data-name="Path 7630" d="M223.712,490.45a1.02,1.02,0,0,1-.987-1.072v-5.131h3.818v3.038h-2.994v2.387h3.029v.779Zm-.163-5.4v1.417h2.182V485.05Z" transform="translate(-222.3 -483.821)"/>
        <path id="Path_7631" data-name="Path 7631" d="M226.765,490.637h-3.291a1.441,1.441,0,0,1-1.412-1.5v-5.556h4.669v3.888h-2.995v1.537h3.029Zm-3.029-4.833h1.332v-.567h-1.332Z" transform="translate(-222.062 -483.583)"/>
      </g>
    </g>
    <g id="Group_569" data-name="Group 569" transform="translate(30.204 4.121)">
      <g id="Group_568" data-name="Group 568">
        <path id="Path_7632" data-name="Path 7632" d="M258.313,489.377a1.032,1.032,0,0,1-.952,1.072h-2.924v-4h3.04v-1.4h-2.925v-.8h3.761Zm-3.076-2.107v2.4h2.24v-2.4Z" transform="translate(-254.011 -483.821)"/>
        <path id="Path_7633" data-name="Path 7633" d="M254.2,490.637h-.426v-4.845h3.042v-.554h-2.926v-1.654h4.61v5.556a1.464,1.464,0,0,1-1.356,1.5Zm1.226-1.629h1.39v-1.549h-1.39Z" transform="translate(-253.773 -483.583)"/>
      </g>
    </g>
  </g>
  <g id="logo_raizo" transform="translate(0 0)">
    <g id="Group_210" data-name="Group 210">
      <circle id="Ellipse_1" data-name="Ellipse 1" cx="14.907" cy="14.907" r="14.907" transform="translate(0.093 0.093)" fill="#f5e7c8"/>
      <path id="Path_7167" data-name="Path 7167" d="M210.176,206.4a15,15,0,1,1,15-15A15.017,15.017,0,0,1,210.176,206.4Zm0-29.814A14.814,14.814,0,1,0,224.991,191.4,14.831,14.831,0,0,0,210.176,176.584Z" transform="translate(-195.176 -176.398)" fill="#dd5934"/>
    </g>
    <path id="Path_7168" data-name="Path 7168" d="M210.853,206.679a14.6,14.6,0,1,1,14.6-14.6A14.621,14.621,0,0,1,210.853,206.679Zm0-28.05A13.446,13.446,0,1,0,224.3,192.075,13.461,13.461,0,0,0,210.853,178.629Z" transform="translate(-195.853 -177.075)" fill="#563008"/>
    <g id="Group_244" data-name="Group 244" transform="translate(3.735 3.341)">
      <path id="Path_7172" data-name="Path 7172" d="M216.558,185.456a11.626,11.626,0,0,0-11.256,8.3l2.579,0a9.182,9.182,0,0,1,8.675-5.892c6.491-.111,8.716,5.863,8.716,5.863l2.527-.006A11.792,11.792,0,0,0,216.558,185.456Z" transform="translate(-205.302 -185.455)" fill="#563008"/>
      <path id="Path_7173" data-name="Path 7173" d="M216.543,234.1a11.792,11.792,0,0,1-11.241-8.263l2.527-.005s2.225,5.974,8.716,5.863a9.183,9.183,0,0,0,8.675-5.892l2.579,0a11.626,11.626,0,0,1-11.256,8.3" transform="translate(-205.302 -210.92)" fill="#563008"/>
      <g id="Group_228" data-name="Group 228" transform="translate(2.494 0.431)">
        <g id="Group_211" data-name="Group 211" transform="translate(0 3.697)">
          <path id="Path_7174" data-name="Path 7174" d="M213.507,197.641l-.463.535-.266-.231.083-.1.168.146.294-.34-.811-.7-.231.266-.1-.086.316-.365Z" transform="translate(-212.138 -196.721)" fill="#f5e7c8"/>
          <path id="Path_7175" data-name="Path 7175" d="M212.971,198.143l-.314-.272.124-.144.168.146.253-.292-.763-.663-.231.266-.147-.127.357-.413.024.021,1.032.9Zm-.224-.279.218.189.421-.486-.96-.833-.275.317.051.045.231-.266.024.021.835.724-.336.388-.168-.146Z" transform="translate(-212.062 -196.645)" fill="#f5e7c8"/>
        </g>
        <g id="Group_212" data-name="Group 212" transform="translate(0.979 3.15)">
          <path id="Path_7176" data-name="Path 7176" d="M215.8,195.868a.159.159,0,0,1,.009.221l-.324.3-.426-.454.337-.316-.15-.159-.324.3-.086-.091.416-.391Zm-.565.08.256.273.248-.233-.256-.273Z" transform="translate(-214.792 -195.24)" fill="#f5e7c8"/>
          <path id="Path_7177" data-name="Path 7177" d="M215.408,196.361l-.47-.5.337-.316-.107-.113-.324.3-.129-.138.463-.434.569.606a.189.189,0,0,1,.008.264Zm-.38-.5.383.408.3-.282a.128.128,0,0,0-.01-.176l-.526-.56-.37.348.042.045.324-.3.193.206Zm.385.326-.3-.319.294-.276.3.319Zm-.21-.316.212.227.2-.19-.212-.226Z" transform="translate(-214.716 -195.164)" fill="#f5e7c8"/>
        </g>
        <g id="Group_213" data-name="Group 213" transform="translate(1.802 2.445)">
          <path id="Path_7178" data-name="Path 7178" d="M218,194.231l-.249.191.219.286-.1.077-.806-1.052.47-.36.486.634A.157.157,0,0,1,218,194.231Zm-.76-.475.437.57.272-.208-.437-.57Z" transform="translate(-217.022 -193.328)" fill="#f5e7c8"/>
          <path id="Path_7179" data-name="Path 7179" d="M217.79,194.753l-.019-.025-.825-1.077.52-.4.506.66a.189.189,0,0,1-.026.268h0l-.224.172.219.286Zm-.755-1.09.767,1,.051-.039-.219-.286.274-.211a.125.125,0,0,0,.014-.179l-.467-.61Zm.564.631-.475-.62.322-.247.475.62Zm-.387-.609.4.52.221-.17-.4-.52Z" transform="translate(-216.946 -193.252)" fill="#f5e7c8"/>
        </g>
        <g id="Group_214" data-name="Group 214" transform="translate(2.728 1.834)">
          <path id="Path_7180" data-name="Path 7180" d="M220.481,192.395a.159.159,0,0,1-.035.218l-.378.233-.327-.53.393-.242-.115-.186-.378.233-.066-.107.486-.3Zm-.57-.034.2.318.29-.179-.2-.318Z" transform="translate(-219.531 -191.67)" fill="#f5e7c8"/>
          <path id="Path_7181" data-name="Path 7181" d="M219.982,192.815l-.36-.584.394-.242-.082-.132-.378.233-.1-.16.54-.333.436.708a.19.19,0,0,1-.044.261Zm-.273-.563.293.476.352-.217a.128.128,0,0,0,.025-.174l-.4-.653-.432.266.032.053.378-.233.148.24Zm.312.4-.229-.372.344-.212.229.372Zm-.142-.352.163.264.236-.145-.163-.264Z" transform="translate(-219.457 -191.596)" fill="#f5e7c8"/>
        </g>
        <g id="Group_215" data-name="Group 215" transform="translate(3.686 1.374)">
          <path id="Path_7182" data-name="Path 7182" d="M223.136,191.255l-.106.052-.364-.754-.336.162.364.754-.1.051-.42-.871.411-.2a.158.158,0,0,1,.209.084Z" transform="translate(-222.126 -190.404)" fill="#f5e7c8"/>
          <path id="Path_7183" data-name="Path 7183" d="M222.5,191.507l-.448-.928.44-.212a.19.19,0,0,1,.252.1l.361.748-.163.079-.364-.754-.28.135.364.754Zm-.364-.9.393.814.048-.023-.364-.754.394-.19.364.754.049-.024-.334-.692a.127.127,0,0,0-.167-.07Z" transform="translate(-222.054 -190.349)" fill="#f5e7c8"/>
        </g>
        <g id="Group_216" data-name="Group 216" transform="translate(4.728 0.911)">
          <path id="Path_7184" data-name="Path 7184" d="M225.46,190.259a.158.158,0,0,1-.2-.106l-.272-.752.545-.2.161.445-.428.155.127.35.433-.157.041.114Zm-.31-.783.075.208.312-.113-.075-.207Z" transform="translate(-224.949 -189.163)" fill="#f5e7c8"/>
          <path id="Path_7185" data-name="Path 7185" d="M225.342,190.23a.173.173,0,0,1-.075-.017.207.207,0,0,1-.105-.118l-.283-.782.606-.219.183.5-.428.155.105.29.432-.156.062.173-.439.159A.171.171,0,0,1,225.342,190.23Zm-.381-.879.262.722a.143.143,0,0,0,.072.083.111.111,0,0,0,.085,0l.38-.138-.02-.055-.433.157-.148-.409.428-.155-.139-.385Zm.176.3-.1-.267.371-.134.1.267Zm-.015-.229.053.148.252-.091-.053-.148Z" transform="translate(-224.879 -189.094)" fill="#f5e7c8"/>
        </g>
        <g id="Group_217" data-name="Group 217" transform="translate(5.772 0.618)">
          <path id="Path_7186" data-name="Path 7186" d="M228.035,189.489l-.03-.121.463-.116-.085-.339-.452.113-.119-.477.578-.144.03.121-.457.114.053.212.453-.113.11.442a.159.159,0,0,1-.107.2Z" transform="translate(-227.775 -188.366)" fill="#f5e7c8"/>
          <path id="Path_7187" data-name="Path 7187" d="M227.947,189.462l-.046-.183.464-.116-.069-.278-.452.113-.134-.538.64-.16.046.183-.457.114.038.151.453-.113.118.473a.189.189,0,0,1-.13.237Zm.031-.136.015.06.409-.1a.113.113,0,0,0,.072-.057.143.143,0,0,0,.011-.1l-.1-.411-.453.113-.069-.274.457-.114-.015-.06-.516.129.1.415.452-.113.1.4Z" transform="translate(-227.709 -188.3)" fill="#f5e7c8"/>
        </g>
        <g id="Group_218" data-name="Group 218" transform="translate(6.877 0.437)">
          <path id="Path_7188" data-name="Path 7188" d="M231.086,188.925a.158.158,0,0,1-.172-.144l-.113-.792.574-.082.067.469-.45.064.052.368.456-.065.017.12Zm-.143-.83.031.218.328-.047-.031-.218Z" transform="translate(-230.765 -187.871)" fill="#f5e7c8"/>
          <path id="Path_7189" data-name="Path 7189" d="M231,188.9a.192.192,0,0,1-.184-.173l-.117-.823.637-.091.076.531-.451.065.044.305.456-.065.026.183-.463.066Zm-.23-.942.109.76a.126.126,0,0,0,.137.118l.4-.057-.008-.058-.456.065-.061-.431.45-.064-.058-.406Zm.11.334-.039-.281.391-.056.04.281Zm.032-.227.022.156.265-.038-.022-.156Z" transform="translate(-230.704 -187.81)" fill="#f5e7c8"/>
        </g>
        <g id="Group_219" data-name="Group 219" transform="translate(8.654)">
          <path id="Path_7190" data-name="Path 7190" d="M235.655,186.713l.2.007.435.5.017-.489.127,0-.045,1.334-.127,0,.022-.648-.5-.588-.041,1.218-.123,0Z" transform="translate(-235.577 -186.68)" fill="#f5e7c8"/>
          <path id="Path_7191" data-name="Path 7191" d="M236.358,188.049l-.191-.007.023-.667-.443-.517-.039,1.169-.187-.006.047-1.4.241.008.009.011.382.443.015-.439.19.006Zm-.125-.068.064,0,.042-1.27-.063,0-.018.538-.478-.555-.151,0-.043,1.27.06,0,.043-1.268.565.66Z" transform="translate(-235.521 -186.624)" fill="#f5e7c8"/>
        </g>
        <g id="Group_220" data-name="Group 220" transform="translate(9.855 0.444)">
          <path id="Path_7192" data-name="Path 7192" d="M239.327,188.947l-.452-.067.141-.956.6.089-.117.791A.159.159,0,0,1,239.327,188.947Zm-.214-.878-.1.7.37.055.1-.7Z" transform="translate(-238.839 -187.888)" fill="#f5e7c8"/>
          <path id="Path_7193" data-name="Path 7193" d="M239.286,188.919l-.026,0-.484-.072.151-1.019.664.1-.121.822a.207.207,0,0,1-.072.131A.174.174,0,0,1,239.286,188.919Zm-.437-.127.421.062a.115.115,0,0,0,.089-.025.143.143,0,0,0,.049-.091l.112-.76-.539-.079Zm.495,0-.432-.064.112-.761.433.064Zm-.36-.117.307.045.094-.636-.307-.045Z" transform="translate(-238.777 -187.827)" fill="#f5e7c8"/>
        </g>
        <g id="Group_221" data-name="Group 221" transform="translate(10.881 0.636)">
          <path id="Path_7194" data-name="Path 7194" d="M242.1,189.5l-.442-.114.241-.936.589.152-.2.774A.159.159,0,0,1,242.1,189.5Zm-.121-.9-.176.684.362.093.176-.684Z" transform="translate(-241.624 -188.414)" fill="#f5e7c8"/>
          <path id="Path_7195" data-name="Path 7195" d="M242.074,189.473a.16.16,0,0,1-.044-.006l-.473-.122.257-1,.651.168-.208.8a.2.2,0,0,1-.093.127A.178.178,0,0,1,242.074,189.473Zm-.028-.067a.113.113,0,0,0,.086-.013.14.14,0,0,0,.064-.088l.192-.744-.528-.136-.225.875Zm.08-.049-.423-.109.192-.745.423.109Zm-.346-.155.3.077.16-.623-.3-.077Z" transform="translate(-241.558 -188.348)" fill="#f5e7c8"/>
        </g>
        <g id="Group_222" data-name="Group 222" transform="translate(11.883 0.791)">
          <path id="Path_7196" data-name="Path 7196" d="M244.8,190.095l-.413-.154.338-.906.436.163.119-.319.119.044-.4,1.068A.159.159,0,0,1,244.8,190.095Zm0-.9-.252.675.321.12.252-.675Z" transform="translate(-244.345 -188.838)" fill="#f5e7c8"/>
          <path id="Path_7197" data-name="Path 7197" d="M244.779,190.066a.169.169,0,0,1-.061-.011l-.443-.165.011-.03.348-.935.436.162.119-.318.178.066-.011.029-.4,1.068A.2.2,0,0,1,244.779,190.066ZM244.74,190a.127.127,0,0,0,.16-.085l.387-1.038-.06-.022-.119.319-.436-.162-.316.846Zm.073-.035-.38-.142.273-.734.38.142Zm-.3-.179.261.1.229-.615-.261-.1Z" transform="translate(-244.275 -188.769)" fill="#f5e7c8"/>
        </g>
        <g id="Group_223" data-name="Group 223" transform="translate(12.841 1.056)">
          <path id="Path_7198" data-name="Path 7198" d="M247.107,190.838l-.118-.055.554-1.183.118.055Z" transform="translate(-246.947 -189.558)" fill="#f5e7c8"/>
          <path id="Path_7199" data-name="Path 7199" d="M247.05,190.809l-.176-.082.013-.029.568-1.212.176.082-.013.029Zm-.091-.113.061.028.527-1.125-.061-.029Z" transform="translate(-246.874 -189.486)" fill="#f5e7c8"/>
        </g>
        <g id="Group_224" data-name="Group 224" transform="translate(13.426 1.649)">
          <path id="Path_7200" data-name="Path 7200" d="M248.616,192.125a.157.157,0,0,1-.048-.219l.395-.7.5.286-.234.412-.4-.225-.183.324.4.227-.06.105Zm.394-.744-.109.192.288.164.109-.192Z" transform="translate(-248.512 -191.168)" fill="#f5e7c8"/>
          <path id="Path_7201" data-name="Path 7201" d="M248.953,192.31l-.406-.231a.189.189,0,0,1-.06-.263l.411-.723.56.318-.265.467-.4-.225-.152.269.4.227Zm-.375-.286.351.2.029-.051-.4-.227.215-.378.4.225.2-.357-.45-.255-.379.668a.127.127,0,0,0,.036.176Zm.57-.318-.343-.195.14-.247.343.195Zm-.257-.219.233.132.078-.137-.233-.132Z" transform="translate(-248.458 -191.094)" fill="#f5e7c8"/>
        </g>
        <g id="Group_225" data-name="Group 225" transform="translate(14.74 2.342)">
          <path id="Path_7202" data-name="Path 7202" d="M253.153,193.885l.1.085-.527.64-.59-.485.849-1.03.486.4Zm-.83.221.387.318.359-.436-.387-.318Zm.966-.593-.284-.234-.238.288.285.234Z" transform="translate(-252.096 -193.05)" fill="#f5e7c8"/>
          <path id="Path_7203" data-name="Path 7203" d="M252.658,194.579l-.638-.526.889-1.079.535.44-.321.39.1.085Zm-.549-.535.54.445.487-.591-.1-.085.321-.39-.437-.36Zm.529.348-.436-.359.4-.485.436.358Zm-.346-.367.338.279.319-.387-.338-.278Zm.688-.256-.333-.274.278-.337.333.274Zm-.244-.283.236.194.2-.24-.236-.194Z" transform="translate(-252.02 -192.974)" fill="#f5e7c8"/>
        </g>
        <g id="Group_226" data-name="Group 226" transform="translate(15.647 3.493)">
          <path id="Path_7204" data-name="Path 7204" d="M255.13,197.181a.159.159,0,0,1-.221.013l-.311-.318.445-.435.323.331.156-.153-.311-.318.09-.088.4.409Zm-.092-.564-.267.262.238.243.267-.261Z" transform="translate(-254.555 -196.168)" fill="#f5e7c8"/>
          <path id="Path_7205" data-name="Path 7205" d="M254.933,197.187a.176.176,0,0,1-.121-.046l-.333-.341.49-.48.323.331.111-.108-.31-.318.135-.132.444.454-.594.581A.207.207,0,0,1,254.933,197.187Zm-.365-.387.288.295a.126.126,0,0,0,.176-.014h0l.55-.537-.355-.363-.045.043.311.318-.2.2-.323-.33Zm.364.29-.282-.288.312-.306.282.288Zm-.193-.287.193.2.222-.217-.193-.2Z" transform="translate(-254.479 -196.092)" fill="#f5e7c8"/>
        </g>
        <g id="Group_227" data-name="Group 227" transform="translate(16.347 4.296)">
          <path id="Path_7206" data-name="Path 7206" d="M256.5,199l.748-.612.287.35-.1.08-.207-.253-.651.533Z" transform="translate(-256.454 -198.345)" fill="#f5e7c8"/>
          <path id="Path_7207" data-name="Path 7207" d="M256.5,199.068l-.121-.147.8-.652.328.4-.146.12-.207-.253Zm-.031-.138.04.049.651-.533.207.253.048-.039-.247-.3Z" transform="translate(-256.378 -198.269)" fill="#f5e7c8"/>
        </g>
      </g>
      <g id="Group_243" data-name="Group 243" transform="translate(3.899 18.668)">
        <g id="Group_242" data-name="Group 242">
          <g id="Group_229" data-name="Group 229" transform="translate(0 0.069)">
            <path id="Path_7208" data-name="Path 7208" d="M216.577,237.639a.162.162,0,0,1-.225.023l-.356-.315.863-.975.1.089-.225.255.37.328Zm.074-.83-.475.536.272.241.475-.536Z" transform="translate(-215.949 -236.326)" fill="#f5e7c8"/>
            <path id="Path_7209" data-name="Path 7209" d="M216.373,237.652a.191.191,0,0,1-.12-.043l-.382-.338.022-.024.884-1,.149.132-.225.255.37.328-.022.024-.527.6A.2.2,0,0,1,216.373,237.652Zm-.411-.387.332.294a.131.131,0,0,0,.18-.02l.505-.571-.37-.328.225-.255-.052-.047Zm.41.289-.321-.284.022-.024.5-.56.321.284Zm-.229-.29.224.2.432-.488-.224-.2Z" transform="translate(-215.871 -236.248)" fill="#f5e7c8"/>
          </g>
          <g id="Group_230" data-name="Group 230" transform="translate(0.735 1.04)">
            <path id="Path_7210" data-name="Path 7210" d="M218.057,239.985l.4.28.156-.224-.4-.283.529-.757.108.075-.46.658.3.207.46-.658.112.078-.661.947a.162.162,0,0,1-.227.044l-.38-.265Z" transform="translate(-217.94 -238.956)" fill="#f5e7c8"/>
            <path id="Path_7211" data-name="Path 7211" d="M218.379,240.337a.191.191,0,0,1-.11-.035l-.407-.284.108-.155.4.279.119-.171-.4-.282.566-.81.16.112-.46.658.244.17.46-.658.165.115-.68.973A.2.2,0,0,1,218.379,240.337Zm-.426-.335.353.247a.131.131,0,0,0,.183-.036l.643-.92-.059-.041-.46.658-.35-.244.46-.658-.055-.038-.492.7.4.282-.193.277-.4-.279Z" transform="translate(-217.863 -238.879)" fill="#f5e7c8"/>
          </g>
          <g id="Group_231" data-name="Group 231" transform="translate(2.639 1.989)">
            <path id="Path_7212" data-name="Path 7212" d="M223.141,242.44l.407-.871.437.2-.053.113-.314-.146-.354.758Z" transform="translate(-223.098 -241.526)" fill="#f5e7c8"/>
            <path id="Path_7213" data-name="Path 7213" d="M223.206,242.467l-.181-.084.434-.93.5.231-.08.171-.314-.146Zm-.095-.115.064.03.354-.758.314.146.025-.054-.378-.177Z" transform="translate(-223.025 -241.453)" fill="#f5e7c8"/>
          </g>
          <g id="Group_232" data-name="Group 232" transform="translate(3.514 2.344)">
            <path id="Path_7214" data-name="Path 7214" d="M226.156,243.476a.163.163,0,0,1-.2.106l-.446-.156.2-.584.464.162.072-.206-.446-.156.041-.118.573.2Zm-.361-.472-.123.351.342.119.123-.351Z" transform="translate(-225.469 -242.484)" fill="#f5e7c8"/>
            <path id="Path_7215" data-name="Path 7215" d="M225.932,243.552a.2.2,0,0,1-.056-.008l-.478-.168.226-.645.464.162.051-.144-.446-.156.062-.178.634.222-.01.03-.263.75A.2.2,0,0,1,225.932,243.552Zm-.452-.215.416.146a.131.131,0,0,0,.159-.086l.252-.72-.512-.179-.02.056.446.156-.093.266-.464-.162Zm.482.11-.4-.141.144-.412.4.141Zm-.32-.181.28.1.1-.29-.281-.1Z" transform="translate(-225.398 -242.414)" fill="#f5e7c8"/>
          </g>
          <g id="Group_233" data-name="Group 233" transform="translate(4.684 2.687)">
            <path id="Path_7216" data-name="Path 7216" d="M229.65,244.594l-.123-.026.171-.815-.31-.065-.166.788-.12-.025.166-.788-.3-.064-.172.815-.121-.025.2-.941.82.173a.162.162,0,0,1,.122.2Z" transform="translate(-228.636 -243.41)" fill="#f5e7c8"/>
            <path id="Path_7217" data-name="Path 7217" d="M229.609,244.567l-.186-.039.006-.032.165-.783-.247-.052-.166.788L229,244.41l.166-.787-.24-.051-.172.815-.184-.039.007-.032.205-.972.851.179a.2.2,0,0,1,.147.233Zm-.11-.089.06.013.157-.747a.129.129,0,0,0-.1-.157l-.788-.166-.185.877.058.012.171-.815.366.077-.007.032-.159.756.056.011.166-.788.373.079-.007.032Z" transform="translate(-228.57 -243.344)" fill="#f5e7c8"/>
          </g>
          <g id="Group_234" data-name="Group 234" transform="translate(6.276 2.951)">
            <path id="Path_7218" data-name="Path 7218" d="M233.117,245.127a.161.161,0,0,1-.145-.179l.065-.792.615.05-.038.469-.482-.04-.03.369.488.04-.01.12Zm.042-.836-.018.219.351.029.018-.219Z" transform="translate(-232.939 -244.121)" fill="#f5e7c8"/>
            <path id="Path_7219" data-name="Path 7219" d="M233.553,245.14l-.494-.04a.193.193,0,0,1-.174-.214l.067-.825.679.056-.044.533-.482-.039-.024.3.488.04Zm-.488-.1.429.035,0-.056-.488-.04.035-.433.483.039.033-.4-.55-.045-.062.761a.129.129,0,0,0,.115.143Zm.4-.522-.416-.034.023-.283.416.034Zm-.346-.093.287.024.012-.155-.287-.023Z" transform="translate(-232.884 -244.061)" fill="#f5e7c8"/>
          </g>
          <g id="Group_235" data-name="Group 235" transform="translate(7.404 3.004)">
            <path id="Path_7220" data-name="Path 7220" d="M236.7,245.25l-.125,0-.021-.833-.4.01.021.833-.124,0-.024-.961.485-.012a.162.162,0,0,1,.165.162Z" transform="translate(-235.999 -244.261)" fill="#f5e7c8"/>
            <path id="Path_7221" data-name="Path 7221" d="M235.968,245.244v-.032l-.025-.993.518-.013a.19.19,0,0,1,.139.055.2.2,0,0,1,.059.139l.02.827-.19,0V245.2l-.02-.8-.333.008.02.833Zm.04-.962.023.9.059,0-.021-.832.462-.012v.032l.02.8h.061l-.019-.763a.134.134,0,0,0-.04-.094.127.127,0,0,0-.092-.036Z" transform="translate(-235.942 -244.205)" fill="#f5e7c8"/>
          </g>
          <g id="Group_236" data-name="Group 236" transform="translate(9.153 2.339)">
            <path id="Path_7222" data-name="Path 7222" d="M241.678,243.127l-.275.059.421.617-.143.031-.421-.618-.207.045.146.677-.132.028-.28-1.3.757-.163Zm-.732-.36.079.365.5-.107-.079-.366Z" transform="translate(-240.749 -242.468)" fill="#f5e7c8"/>
            <path id="Path_7223" data-name="Path 7223" d="M240.977,243.939l-.294-1.36.032-.007.788-.17.148.684-.26.056.421.617-.211.045-.421-.617-.154.034.146.677Zm-.217-1.311.266,1.234.069-.015-.146-.677.26-.056.421.617.075-.016-.421-.617.29-.063-.121-.558Zm.174.476-.093-.429.558-.12.093.429Zm-.016-.379.065.3.431-.093-.065-.3Z" transform="translate(-240.683 -242.402)" fill="#f5e7c8"/>
          </g>
          <g id="Group_237" data-name="Group 237" transform="translate(10.324 1.948)">
            <path id="Path_7224" data-name="Path 7224" d="M243.97,241.725l.767-.271.443,1.251-.135.048-.231-.653-.5.179.231.653-.129.045Zm.3.428.5-.179-.124-.35-.5.179Z" transform="translate(-243.928 -241.413)" fill="#f5e7c8"/>
            <path id="Path_7225" data-name="Path 7225" d="M244.321,242.947l-.464-1.312.829-.293.464,1.312-.2.069-.231-.653-.443.157.231.653Zm-.381-1.273.421,1.19.068-.024-.231-.653.565-.2.231.653.073-.026-.421-1.19Zm.235.45-.145-.411.565-.2.145.411Zm-.063-.372.1.29.443-.157-.1-.29Z" transform="translate(-243.857 -241.342)" fill="#f5e7c8"/>
          </g>
          <g id="Group_238" data-name="Group 238" transform="translate(11.496 1.7)">
            <path id="Path_7226" data-name="Path 7226" d="M247.845,241.989l-.131.061-.563-1.2.131-.061Z" transform="translate(-247.109 -240.744)" fill="#f5e7c8"/>
            <path id="Path_7227" data-name="Path 7227" d="M247.626,242.02l-.59-1.261.189-.089.589,1.261Zm-.5-1.23.535,1.144.072-.034-.535-1.144Z" transform="translate(-247.036 -240.67)" fill="#f5e7c8"/>
          </g>
          <g id="Group_239" data-name="Group 239" transform="translate(12.188 1.149)">
            <path id="Path_7228" data-name="Path 7228" d="M250.146,240.44l-.648.38-.177-.3.116-.068.112.191.413-.241-.54-.922-.324.19-.066-.113.443-.259Z" transform="translate(-248.988 -239.251)" fill="#f5e7c8"/>
            <path id="Path_7229" data-name="Path 7229" d="M249.411,240.788l-.21-.358.173-.1.112.191.357-.209-.507-.866-.324.19-.1-.169.5-.292.7,1.2Zm-.121-.335.144.247.593-.347-.639-1.09-.388.227.033.057.324-.19.573.978-.468.274-.112-.191Z" transform="translate(-248.912 -239.175)" fill="#f5e7c8"/>
          </g>
          <g id="Group_240" data-name="Group 240" transform="translate(12.998 0.81)">
            <path id="Path_7230" data-name="Path 7230" d="M252.122,239.457l-.117.084-.774-1.078.117-.084Z" transform="translate(-251.186 -238.334)" fill="#f5e7c8"/>
            <path id="Path_7231" data-name="Path 7231" d="M251.919,239.509l-.811-1.131.17-.122.811,1.131Zm-.721-1.116.736,1.026.065-.046-.736-1.026Z" transform="translate(-251.108 -238.257)" fill="#f5e7c8"/>
          </g>
          <g id="Group_241" data-name="Group 241" transform="translate(13.475)">
            <path id="Path_7232" data-name="Path 7232" d="M252.524,236.729l.156-.138.682.048-.322-.365.1-.089.877,1-.1.089-.426-.484-.793-.058.8.91-.1.087Z" transform="translate(-252.478 -236.139)" fill="#f5e7c8"/>
            <path id="Path_7233" data-name="Path 7233" d="M253.32,237.692l-.92-1.044.191-.168.617.043-.291-.33.15-.132.92,1.044-.15.132-.439-.5-.7-.051.771.875Zm-.829-1.038.834.947.05-.044-.832-.945.885.064.414.47.052-.047-.834-.947-.052.047.352.4-.747-.053Z" transform="translate(-252.4 -236.061)" fill="#f5e7c8"/>
          </g>
        </g>
      </g>
    </g>
    <g id="Group_256" data-name="Group 256" transform="translate(10.161 21.066)">
      <g id="Group_245" data-name="Group 245" transform="translate(2.957 0.119)">
        <path id="Path_7236" data-name="Path 7236" d="M230.736,234.241l1.193-.043a.733.733,0,0,1-.426.655s.062-.2-.018-.235l-.729.049Z" transform="translate(-230.736 -234.062)" fill="#563008"/>
        <path id="Path_7237" data-name="Path 7237" d="M231.256,233.836s.031,1.069.426,1.161a5.769,5.769,0,0,1-.111-1.168Z" transform="translate(-231.064 -233.83)" fill="#563008"/>
      </g>
      <g id="Group_247" data-name="Group 247" transform="translate(1.351 0)">
        <g id="Group_246" data-name="Group 246" transform="translate(0)">
          <ellipse id="Ellipse_2" data-name="Ellipse 2" cx="0.235" cy="0.309" rx="0.235" ry="0.309" transform="translate(0 0.402) rotate(-58.794)" fill="#563008"/>
          <path id="Path_7238" data-name="Path 7238" d="M228.141,234.845l-.946.688-.12-.182.946-.688Z" transform="translate(-226.82 -234.236)" fill="#563008"/>
        </g>
      </g>
      <g id="Group_249" data-name="Group 249" transform="translate(7.15 0.036)">
        <g id="Group_248" data-name="Group 248" transform="translate(0)">
          <ellipse id="Ellipse_3" data-name="Ellipse 3" cx="0.22" cy="0.304" rx="0.22" ry="0.304" transform="matrix(0.918, -0.397, 0.397, 0.918, 0, 0.201)" fill="#563008"/>
          <ellipse id="Ellipse_4" data-name="Ellipse 4" cx="0.106" cy="0.15" rx="0.106" ry="0.15" transform="translate(0.933)" fill="#563008"/>
          <ellipse id="Ellipse_5" data-name="Ellipse 5" cx="0.106" cy="0.15" rx="0.106" ry="0.15" transform="translate(1.185 0.031)" fill="#563008"/>
          <path id="Path_7239" data-name="Path 7239" d="M243.819,234.563l-.567.9-.175-.123.567-.9Z" transform="translate(-242.718 -234.132)" fill="#563008"/>
        </g>
      </g>
      <g id="Group_251" data-name="Group 251" transform="translate(0 0.121)">
        <g id="Group_250" data-name="Group 250">
          <path id="Path_7240" data-name="Path 7240" d="M223.881,234l-1.017,1-.143-.162,1.017-1Z" transform="translate(-222.72 -233.834)" fill="#563008"/>
          <path id="Path_7241" data-name="Path 7241" d="M222.989,233.953l.893.757-.262.342-.893-.757Z" transform="translate(-222.725 -233.909)" fill="#563008"/>
        </g>
      </g>
      <g id="Group_253" data-name="Group 253" transform="translate(4.434 0.14)">
        <g id="Group_252" data-name="Group 252">
          <rect id="Rectangle_8" data-name="Rectangle 8" width="0.9" height="0.321" transform="translate(0.068)" fill="#563008"/>
          <rect id="Rectangle_9" data-name="Rectangle 9" width="0.942" height="0.354" transform="translate(0 0.434)" fill="#563008"/>
          <path id="Path_7242" data-name="Path 7242" d="M237.033,235.062l-.278.687-.142-.064.25-.623Z" transform="translate(-235.922 -234.628)" fill="#563008"/>
        </g>
      </g>
      <g id="Group_255" data-name="Group 255" transform="translate(5.83 0.112)">
        <g id="Group_254" data-name="Group 254">
          <path id="Path_7243" data-name="Path 7243" d="M239.647,234.177l-.943.512-.18-.367.943-.512Z" transform="translate(-238.524 -233.811)" fill="#563008"/>
          <rect id="Rectangle_10" data-name="Rectangle 10" width="0.196" height="0.727" transform="translate(0.527 0.449)" fill="#563008"/>
        </g>
      </g>
      <rect id="Rectangle_11" data-name="Rectangle 11" width="0.831" height="0.379" transform="translate(8.833 0.511)" fill="#563008"/>
    </g>
    <g id="Group_274" data-name="Group 274" transform="translate(7.215 18.229)">
      <g id="Group_273" data-name="Group 273">
        <g id="Group_262" data-name="Group 262" transform="translate(7.757)">
          <g id="Group_257" data-name="Group 257" transform="translate(0 0.003)">
            <path id="Path_7244" data-name="Path 7244" d="M237.147,227.04h-.416l.416,1.066h-.216l-.416-1.066H236.2v1.066H236v-2.045h1.145Zm-.945-.78v.576h.748v-.576Z" transform="translate(-235.914 -225.974)" fill="#dd5934"/>
            <path id="Path_7245" data-name="Path 7245" d="M237.125,228.044h-.405l-.415-1.067h-.165v1.067h-.375v-2.221h1.32v1.154h-.375Zm-.285-.176h.027l-.416-1.066h.457V226h-.969v1.869h.024V226.8h.461Zm.047-1.094h-.924v-.752h.924Zm-.748-.176h.572v-.4h-.572Z" transform="translate(-235.764 -225.823)" fill="#dd5934"/>
          </g>
          <g id="Group_258" data-name="Group 258" transform="translate(1.876 0.003)">
            <path id="Path_7246" data-name="Path 7246" d="M241.087,226.062h1.2v2.045h-.211V227.04h-.789v1.066h-.2Zm.2.774h.789v-.573h-.789Z" transform="translate(-240.999 -225.974)" fill="#dd5934"/>
            <path id="Path_7247" data-name="Path 7247" d="M242.227,228.044h-.386v-1.067h-.614v1.067h-.378v-2.221h1.378Zm-.21-.176h.034V226h-1.027v1.869h.027V226.8h.966Zm0-1.094h-.966v-.749h.966Zm-.79-.176h.614v-.4h-.614Z" transform="translate(-240.849 -225.823)" fill="#dd5934"/>
          </g>
          <g id="Group_259" data-name="Group 259" transform="translate(3.81 0.003)">
            <path id="Path_7248" data-name="Path 7248" d="M246.543,228.107h-.213v-2.045h.213Z" transform="translate(-246.242 -225.974)" fill="#dd5934"/>
            <path id="Path_7249" data-name="Path 7249" d="M246.481,228.044h-.389v-2.221h.389Zm-.213-.176h.038V226h-.038Z" transform="translate(-246.092 -225.823)" fill="#dd5934"/>
          </g>
          <g id="Group_260" data-name="Group 260" transform="translate(4.674 0.003)">
            <path id="Path_7250" data-name="Path 7250" d="M248.728,226.062h.989v.216l-.834,1.627h.837v.2h-1.047v-.216l.834-1.627h-.779Z" transform="translate(-248.585 -225.974)" fill="#dd5934"/>
            <path id="Path_7251" data-name="Path 7251" d="M249.658,228.044h-1.223l.01-.345.768-1.5h-.722v-.377h1.165l-.01.345-.768,1.5h.78Zm-1.047-.176h.871v-.025h-.871Zm0-.107v.041l.869-1.7v-.041Zm.056-1.737h.813V226h-.813Z" transform="translate(-248.435 -225.823)" fill="#dd5934"/>
          </g>
          <g id="Group_261" data-name="Group 261" transform="translate(6.372)">
            <path id="Path_7252" data-name="Path 7252" d="M254.465,228.1h-1.189v-2.048l1.189,0Zm-.992-.2h.79v-1.643h-.79Z" transform="translate(-253.189 -225.965)" fill="#dd5934"/>
            <path id="Path_7253" data-name="Path 7253" d="M254.4,228.038h-1.364v-2.224l1.364,0Zm-1.188-.176h1.013v-1.869l-1.013,0Zm.986-.025h-.965v-1.819h.965Zm-.789-.176h.614v-1.466h-.614Z" transform="translate(-253.039 -225.814)" fill="#dd5934"/>
          </g>
        </g>
        <g id="Group_264" data-name="Group 264" transform="translate(0 0.009)">
          <g id="Group_263" data-name="Group 263">
            <path id="Path_7254" data-name="Path 7254" d="M215.8,227.295h-.25l-.385-.8v1.613h-.193v-2.031h.212l.49,1.014.476-1.014h.25v2.031h-.2v-1.665Z" transform="translate(-214.886 -225.99)" fill="#dd5934"/>
            <path id="Path_7255" data-name="Path 7255" d="M216.34,228.047h-.377v-1.358l-.255.543h-.361l-.243-.5v1.317h-.368v-2.208h.355l.433.9.422-.9h.394Zm-.2-.176h.025v-1.855h-.025Zm-1.227,0h.017v-1.855h-.017Zm.657-.814h.027l.488-1.041h-.027Zm-.112,0h.026l-.5-1.041h-.025Z" transform="translate(-214.736 -225.839)" fill="#dd5934"/>
          </g>
        </g>
        <g id="Group_266" data-name="Group 266" transform="translate(3.433 0.771)">
          <g id="Group_265" data-name="Group 265">
            <path id="Path_7256" data-name="Path 7256" d="M225.11,229.429h-.161v-1.114h-.51v1.114h-.159v-1.286h.623a.213.213,0,0,1,.207.222Z" transform="translate(-224.192 -228.055)" fill="#dd5934"/>
            <path id="Path_7257" data-name="Path 7257" d="M225.048,229.367h-.337v-1.114h-.334v1.114h-.334V227.9h.711a.3.3,0,0,1,.295.31Z" transform="translate(-224.042 -227.905)" fill="#dd5934"/>
          </g>
        </g>
        <g id="Group_268" data-name="Group 268" transform="translate(4.856 0.771)">
          <g id="Group_267" data-name="Group 267">
            <path id="Path_7258" data-name="Path 7258" d="M228.146,229.744h.625v-.365h-.633v-1.236h.169v1.074h.464v-1.074h.176v1.545a.213.213,0,0,1-.207.222h-.594Z" transform="translate(-228.051 -228.055)" fill="#dd5934"/>
            <path id="Path_7259" data-name="Path 7259" d="M228.59,229.848h-.682v-.343h.625v-.189H227.9V227.9h.344v1.074h.288V227.9h.351v1.633A.3.3,0,0,1,228.59,229.848Z" transform="translate(-227.901 -227.905)" fill="#dd5934"/>
          </g>
        </g>
        <g id="Group_270" data-name="Group 270" transform="translate(2.047 0.771)">
          <g id="Group_269" data-name="Group 269">
            <path id="Path_7260" data-name="Path 7260" d="M220.727,229.429a.211.211,0,0,1-.2-.222v-1.064h.791v.63h-.62v.5h.628v.161Zm-.034-1.119v.294h.452v-.294Z" transform="translate(-220.435 -228.055)" fill="#dd5934"/>
            <path id="Path_7261" data-name="Path 7261" d="M221.259,229.367h-.682a.3.3,0,0,1-.292-.31V227.9h.967v.806h-.62v.319h.627Zm-.627-1h.276v-.118h-.276Z" transform="translate(-220.285 -227.905)" fill="#dd5934"/>
          </g>
        </g>
        <g id="Group_272" data-name="Group 272" transform="translate(6.26 0.771)">
          <g id="Group_271" data-name="Group 271">
            <path id="Path_7262" data-name="Path 7262" d="M232.748,229.207a.214.214,0,0,1-.2.222h-.606V228.6h.63v-.291h-.606v-.167h.779Zm-.637-.437v.5h.464v-.5Z" transform="translate(-231.857 -228.055)" fill="#dd5934"/>
            <path id="Path_7263" data-name="Path 7263" d="M231.795,229.367h-.088v-1h.63v-.115h-.606V227.9h.955v1.152a.3.3,0,0,1-.281.31Zm.254-.338h.288v-.321h-.288Z" transform="translate(-231.707 -227.905)" fill="#dd5934"/>
          </g>
        </g>
      </g>
    </g>
    <g id="Group_277" data-name="Group 277" transform="translate(9.394 8.957)">
      <g id="Group_275" data-name="Group 275">
        <path id="Path_7264" data-name="Path 7264" d="M221.952,201.291h.578q0,1.4,0,1.429a.194.194,0,0,1-.027.09.132.132,0,0,1-.076.03c-.036,0-.062,0-.08,0h-.154c-.1,0-.2,0-.31-.007v-.054h.156a2.092,2.092,0,0,0,.214.01h.009a.15.15,0,0,0,.062-.017.619.619,0,0,0,.016-.152v-.808h-.417c-.025,0-.06,0-.1,0a.436.436,0,0,1-.105-.022.147.147,0,0,1-.031-.08.6.6,0,0,1-.007-.088v-.281h-.165a.729.729,0,0,1-.022.213.5.5,0,0,1-.085.186.643.643,0,0,1-.192.135,1.575,1.575,0,0,1-.218.078h-.063v.918h-.192v-1.579h.518q-.091-.2-.17-.343h-.442V200.9h.89v-.22h.2v.22h.89v.049h-.442A1.884,1.884,0,0,1,221.952,201.291Zm-1.024.585c.055-.021.105-.043.152-.066a.56.56,0,0,0,.136-.1.391.391,0,0,0,.083-.172,1.033,1.033,0,0,0,.015-.2h-.386Zm.426.832h-.194v-.757h.946v.639h-.752Zm.627-1.76h-.7q.1.2.163.343h.286A1.493,1.493,0,0,0,221.981,200.948ZM221.912,202h-.558v.536h.558Zm-.047-.314c0,.008.006.016.009.022a.127.127,0,0,1,.007.017c0,.02.015.028.031.027a.13.13,0,0,0,.06.01h.049q.134,0,.317-.01v-.416h-.473Z" transform="translate(-220.643 -200.679)" fill="#080046"/>
      </g>
      <g id="Group_276" data-name="Group 276" transform="translate(8.827 0.066)">
        <path id="Path_7265" data-name="Path 7265" d="M246.646,201h-.433v.247h.379v.485h-1.349v-.367h-.179q.125.412.21.732l-.038.01h-.156c-.009-.042-.017-.073-.023-.093v.994h-.194v-.876q-.049.157-.107.3H244.6l-.029-.017a5.9,5.9,0,0,0,.279-1.048h-.241v-.049h.254v-.46h.194v.46h.185v-.069h.379V201h-.448v-.052h1.472Zm-1.325,1.9h-.154c0-.01-.009-.024-.018-.044a1.236,1.236,0,0,0,.359-.44h.154l.031.027A1.489,1.489,0,0,1,245.322,202.907Zm1.325-.6h-.62q0,.58,0,.6a.089.089,0,0,1-.02.049.213.213,0,0,1-.118.022h-.154c-.073,0-.145-.008-.216-.015v-.044h.156a.552.552,0,0,1,.123.01l.022-.01a.09.09,0,0,0,.015-.066V202.3h-.658v-.051h1.472Zm-1.356-.348h1.262v.051H245.29Zm.332-.663h-.185v.4h.185Zm.194-.042h.2V201h-.2Zm.2.042h-.2v.4h.2Zm.462,1.331.165.257-.031.034h-.156a3.585,3.585,0,0,0-.363-.46l.031-.039h.147Zm-.268-.933h.185v-.4h-.185Z" transform="translate(-244.572 -200.858)" fill="#080046"/>
      </g>
    </g>
    <g id="Group_289" data-name="Group 289" transform="translate(1.817 12.103)">
      <g id="Group_288" data-name="Group 288">
        <g id="Group_278" data-name="Group 278">
          <path id="Path_7266" data-name="Path 7266" d="M202.922,214.425h3.137v.451h-3.3l-.813-.9-.861.916h-.56l1.141-1.223-.471-.519-.267.471h-.492l.936-1.661h.492l-.191.335H202.7l-.533,1.3Zm-.082-3.068v.383H200.6v-.383h.888v-.451h-.6v-.383h.6v-.328H200.6v-.383h.888v-.41h.438v.41h.916v.383h-.916v.328h.629v.383h-.629v.451Zm-1.374,1.305-.055.1.444.485.239-.588Zm2.371-1.838.383-.779h-1.141v-.4h2.939v.4h-1.339l-.383.779h1.674v3.192H203.14v-3.192Zm-.273.376v2.426h.321V211.2Zm1.2,0H204.3v.554h.465Zm-.465.936v.554h.465v-.554Zm0,.936v.554h.465v-.554Zm1.243.554V211.2h-.369v2.426Z" transform="translate(-200.312 -209.33)" fill="#563008"/>
          <path id="Path_7267" data-name="Path 7267" d="M200.905,214.846h-.756l1.209-1.3-.361-.4-.238.422H200.1l1.017-1.8h.657l-.191.335H202.6l-.557,1.355.7.77h3.176v.594h-3.4l-.782-.861Zm-.427-.143h.365l.893-.949.844.929h3.2v-.308h-3.1l-.8-.884.51-1.241h-1.048l.191-.335H201.2l-.855,1.518h.328l.295-.521.582.641Zm5.354-.738H202.86V210.63h.724l.313-.636h-1.1v-.539h3.081v.539h-1.366l-.313.636h1.631ZM203,213.821h2.687v-3.048h-1.718l.453-.922h1.313V209.6h-2.8v.253h1.185l-.453.922H203Zm2.4-.247h-.512v-2.569h.512Zm-.369-.143h.226v-2.283h-.226Zm-.411.143h-.607v-.7h.607Zm-.464-.143h.322v-.411h-.322Zm-.41.143h-.464v-2.569h.464Zm-.321-.143h.179v-2.283h-.179Zm-1.755-.173-.555-.606.1-.185h.778Zm-.381-.628.334.364.156-.384h-.48Zm3.333.007h-.607v-.7h.607Zm-.464-.143h.322v-.411h-.322Zm.464-.793h-.607v-.7h.607Zm-.464-.143h.322v-.411h-.322Zm-1.456.129h-2.384v-.526h.888v-.308h-.6v-.526h.6v-.185h-.888v-.526h.888v-.41h.58v.41h.916v.526h-.916v.185h.629v.526h-.629v.308h.916Zm-2.242-.143h2.1v-.24h-.916v-.594h.629v-.24h-.629V210h.916v-.24h-.916v-.41h-.295v.41h-.888V210h.888v.471h-.6v.24h.6v.594h-.888Z" transform="translate(-200.103 -209.208)" fill="#563008"/>
        </g>
        <g id="Group_279" data-name="Group 279" transform="translate(20.772 0.014)">
          <path id="Path_7268" data-name="Path 7268" d="M261.466,212.022l-.554,1.073.984,1.845h-.513l-.724-1.353L260,214.865h-.478l.916-1.777-.43-1.688h-2.659v.663l-.267,2.863h-.458l.266-2.884v-1.073H259.9l-.089-.348h.472l.089.348h1.36v.431h-1.25l.273,1.08.232-.458Zm-.889-2.31h1.374v.444h-1.374v.321h-.451v-.321h-1.613v.321h-.451v-.321h-1.374v-.444h1.374v-.273h.451v.273h1.613v-.273h.451Zm-1.6,3.847V214h.54v.376h-1.941v-2.7h2.248v.383h-.847v.4h.731v1.107Zm-.424-1.5h-.54v.4h.54Zm.732,1.141v-.376h-1.271v.376Zm-1.271.362V214h.54v-.438Zm3.233-3.2.308.533h-.492l-.308-.533Z" transform="translate(-256.548 -209.367)" fill="#563008"/>
          <path id="Path_7269" data-name="Path 7269" d="M261.881,214.889h-.675l-.68-1.27-.614,1.2h-.639l.957-1.857-.41-1.608h-2.532v.591l-.273,2.935h-.6l.274-2.962v-1.138h2.987l-.089-.349h.619l.089.349h.554l-.334-.578v.229h-.594v-.321h-1.47v.321h-.594v-.321h-1.373v-.587h1.373v-.273h.594v.273h1.47v-.273h.594v.273h1.374v.587h-1.374v.062h.64l.35.608h.164v.574h-1.23l.2.806.166-.327h.64l-.59,1.144Zm-.589-.143h.35l-.946-1.773.517-1H260.9l-.3.589-.343-1.353h1.271v-.288h-1.344l-.089-.349h-.324l.089.349H256.83v1l-.259,2.813h.314l.26-2.8v-.728h2.785l.451,1.768-.013.024-.862,1.672h.317l.7-1.36Zm-.323-4.046h.327l-.225-.39h-.327Zm-.906-.417h.308v-.321h1.373v-.3h-1.373v-.274h-.308v.274h-1.756v-.274H258v.274h-1.374v.3H258v.321h.308v-.321h1.756Zm-.608,4.038h-2.083V211.48h2.391v.526h-.848v.253h.731v1.25h-.731v.294h.54Zm-1.941-.143h1.8v-.233h-.54v-.581h.731V212.4h-.731v-.54h.847v-.24h-2.106Zm.977-.233h-.683v-.581h.683Zm-.54-.143h.4v-.294h-.4Zm1.271-.657h-1.414v-.519h1.414ZM257.951,213h1.129v-.233h-1.129Zm.54-.6h-.683v-.54h.683Zm-.54-.143h.4v-.253h-.4Z" transform="translate(-256.414 -209.245)" fill="#563008"/>
        </g>
        <g id="Group_280" data-name="Group 280" transform="translate(7.018 0.426)">
          <path id="Path_7270" data-name="Path 7270" d="M219.129,212.563l5.344-.314a2.652,2.652,0,0,1-1.844,2.458s.28-.923-.084-1.063l-3.3.224Z" transform="translate(-219.129 -211.553)" fill="#dd5934"/>
          <path id="Path_7271" data-name="Path 7271" d="M221.565,210.391s.14,4.839,1.93,5.259a26.193,26.193,0,0,1-.5-5.287Z" transform="translate(-220.666 -210.363)" fill="#dd5934"/>
        </g>
        <g id="Group_281" data-name="Group 281" transform="translate(14.298 1.415)">
          <path id="Path_7272" data-name="Path 7272" d="M239.16,214.046l-.3-.341.577-.662.3.341Z" transform="translate(-238.863 -213.043)" fill="#563008"/>
          <path id="Path_7273" data-name="Path 7273" d="M239.752,214.573l-.3.341-.577-.662.3-.341Z" transform="translate(-238.872 -213.591)" fill="#563008"/>
        </g>
        <g id="Group_282" data-name="Group 282" transform="translate(15.175 1.415)">
          <path id="Path_7274" data-name="Path 7274" d="M241.537,214.046l-.3-.341.577-.662.3.341Z" transform="translate(-241.24 -213.043)" fill="#563008"/>
          <path id="Path_7275" data-name="Path 7275" d="M242.129,214.573l-.3.341-.577-.662.3-.341Z" transform="translate(-241.25 -213.591)" fill="#563008"/>
        </g>
        <g id="Group_283" data-name="Group 283" transform="translate(16.971 1.415)">
          <path id="Path_7276" data-name="Path 7276" d="M246.406,214.046l-.3-.341.577-.662.3.341Z" transform="translate(-246.109 -213.043)" fill="#563008"/>
          <path id="Path_7277" data-name="Path 7277" d="M247,214.573l-.3.341-.577-.662.3-.341Z" transform="translate(-246.119 -213.591)" fill="#563008"/>
        </g>
        <g id="Group_284" data-name="Group 284" transform="translate(17.84 1.415)">
          <path id="Path_7278" data-name="Path 7278" d="M248.762,214.046l-.3-.341.577-.662.3.341Z" transform="translate(-248.465 -213.043)" fill="#563008"/>
          <path id="Path_7279" data-name="Path 7279" d="M249.354,214.573l-.3.341-.577-.662.3-.341Z" transform="translate(-248.474 -213.591)" fill="#563008"/>
        </g>
        <g id="Group_286" data-name="Group 286" transform="translate(13.633 0.05)">
          <g id="Group_285" data-name="Group 285">
            <path id="Path_7280" data-name="Path 7280" d="M240.285,210.24h2.68v1.045h-.48v-.661h-2.192v1.422h-.425v-1.422h-2.131v.661h-.48V210.24h2.6v-.34h-2.078v-.362h4.657v.362h-2.154Z" transform="translate(-237.184 -209.466)" fill="#563008"/>
            <path id="Path_7281" data-name="Path 7281" d="M240.242,212h-.568v-1.422h-1.989v.661h-.623v-1.188h2.6v-.2h-2.078v-.505h4.8v.505h-2.154v.2h2.68v1.188h-.623v-.661h-2.049Zm-.426-.143h.283V210.43h2.335v.661h.337v-.9h-2.68v-.483h2.154v-.219H237.73v.219h2.078v.483h-2.6v.9h.337v-.661h2.274Z" transform="translate(-237.062 -209.344)" fill="#563008"/>
          </g>
        </g>
        <g id="Group_287" data-name="Group 287" transform="translate(13.573 2.88)">
          <path id="Path_7282" data-name="Path 7282" d="M238.817,219.82l-1.92-2.8h.708l1.734,2.531Z" transform="translate(-236.897 -217.016)" fill="#563008"/>
          <rect id="Rectangle_12" data-name="Rectangle 12" width="5.251" height="0.542" transform="translate(0.387 0.001)" fill="#563008"/>
          <rect id="Rectangle_13" data-name="Rectangle 13" width="3.572" height="0.463" transform="translate(1.247 0.949)" fill="#563008"/>
          <rect id="Rectangle_14" data-name="Rectangle 14" width="2.42" height="0.604" transform="translate(2.667 2.648) rotate(-90)" fill="#563008"/>
          <path id="Path_7283" data-name="Path 7283" d="M246.587,219.563l1.624-2.547h.809l-1.907,2.8Z" transform="translate(-243.012 -217.016)" fill="#563008"/>
          <rect id="Rectangle_15" data-name="Rectangle 15" width="2.175" height="0.486" transform="translate(1.925 2.316)" fill="#563008"/>
        </g>
      </g>
    </g>
    <g id="Group_290" data-name="Group 290" transform="translate(13.246 6.629)">
      <path id="Path_7284" data-name="Path 7284" d="M232.918,197.363h-1.834l.948-2.994h1.834Z" transform="translate(-231.084 -194.369)" fill="#e6b222"/>
      <path id="Path_7285" data-name="Path 7285" d="M232.429,203.459l3.283-3.661h-2.225Z" transform="translate(-231.933 -197.795)" fill="#e6b222"/>
    </g>
    <g id="Group_295" data-name="Group 295" transform="translate(4.661 18.658)">
      <circle id="Ellipse_6" data-name="Ellipse 6" cx="0.899" cy="0.899" r="0.899" transform="translate(0)" fill="#f5e0bb"/>
      <g id="Group_294" data-name="Group 294" transform="translate(0.097 0.069)">
        <g id="Group_291" data-name="Group 291" transform="translate(0 0.021)">
          <circle id="Ellipse_7" data-name="Ellipse 7" cx="0.332" cy="0.332" r="0.332" transform="translate(0.489 0.027)" fill="#563008"/>
          <path id="Path_7286" data-name="Path 7286" d="M208.573,227.6a.654.654,0,0,0-.418.768.821.821,0,0,1,.476-1.134.58.58,0,0,1,.343.018C209.141,227.325,208.573,227.6,208.573,227.6Z" transform="translate(-208.076 -227.221)" fill="#563008"/>
        </g>
        <g id="Group_292" data-name="Group 292" transform="translate(0.817)">
          <circle id="Ellipse_8" data-name="Ellipse 8" cx="0.332" cy="0.332" r="0.332" transform="translate(0 0.722)" fill="#563008"/>
          <path id="Path_7287" data-name="Path 7287" d="M210.9,227.933a.654.654,0,0,0-.418-.768.821.821,0,0,1,.694,1.015.581.581,0,0,1-.2.279C210.825,228.562,210.9,227.933,210.9,227.933Z" transform="translate(-210.411 -227.165)" fill="#563008"/>
        </g>
        <g id="Group_293" data-name="Group 293" transform="translate(0.105 0.721)">
          <circle id="Ellipse_9" data-name="Ellipse 9" cx="0.332" cy="0.332" r="0.332" fill="#563008"/>
          <path id="Path_7288" data-name="Path 7288" d="M208.91,230.373a.653.653,0,0,0,.873-.044.821.821,0,0,1-1.215.186.578.578,0,0,1-.164-.3C208.374,230.034,208.91,230.373,208.91,230.373Z" transform="translate(-208.387 -229.777)" fill="#563008"/>
        </g>
      </g>
    </g>
    <g id="Group_300" data-name="Group 300" transform="translate(23.496 18.655)">
      <circle id="Ellipse_10" data-name="Ellipse 10" cx="0.899" cy="0.899" r="0.899" transform="translate(0)" fill="#f5e0bb"/>
      <g id="Group_299" data-name="Group 299" transform="translate(0.097 0.069)">
        <g id="Group_296" data-name="Group 296" transform="translate(0 0.021)">
          <circle id="Ellipse_11" data-name="Ellipse 11" cx="0.332" cy="0.332" r="0.332" transform="translate(0.489 0.027)" fill="#563008"/>
          <path id="Path_7289" data-name="Path 7289" d="M259.632,227.6a.653.653,0,0,0-.418.768.821.821,0,0,1,.476-1.134.579.579,0,0,1,.343.017C260.2,227.317,259.632,227.6,259.632,227.6Z" transform="translate(-259.135 -227.213)" fill="#563008"/>
        </g>
        <g id="Group_297" data-name="Group 297" transform="translate(0.817)">
          <circle id="Ellipse_12" data-name="Ellipse 12" cx="0.332" cy="0.332" r="0.332" transform="translate(0 0.722)" fill="#563008"/>
          <path id="Path_7290" data-name="Path 7290" d="M261.957,227.925a.653.653,0,0,0-.418-.768.821.821,0,0,1,.694,1.015.581.581,0,0,1-.2.279C261.883,228.554,261.957,227.925,261.957,227.925Z" transform="translate(-261.469 -227.157)" fill="#563008"/>
        </g>
        <g id="Group_298" data-name="Group 298" transform="translate(0.105 0.722)">
          <circle id="Ellipse_13" data-name="Ellipse 13" cx="0.332" cy="0.332" r="0.332" fill="#563008"/>
          <path id="Path_7291" data-name="Path 7291" d="M259.968,230.365a.653.653,0,0,0,.873-.044.821.821,0,0,1-1.215.185.58.58,0,0,1-.164-.3C259.433,230.027,259.968,230.365,259.968,230.365Z" transform="translate(-259.445 -229.769)" fill="#563008"/>
        </g>
      </g>
    </g>
    <path id="Path_7292" data-name="Path 7292" d="M202.388,191.838a12.809,12.809,0,0,1,24.7,0c.029.1,0,0,0,0h-.4s.056.189,0,0a12.42,12.42,0,0,0-23.878,0" transform="translate(-199.728 -180.207)" fill="#dd5934"/>
    <path id="Path_7293" data-name="Path 7293" d="M202.817,225.735a12.422,12.422,0,0,0,23.928,0c.022-.07-.022.071,0,0l.414,0s.037-.136,0,0a12.81,12.81,0,0,1-24.743,0c-.02-.067.019.068,0,0" transform="translate(-199.742 -207.495)" fill="#dd5934"/>
  </g>
</svg>
