<svg xmlns="http://www.w3.org/2000/svg" width="14.776" height="20" viewBox="0 0 14.776 20">
  <g id="Group_1211" data-name="Group 1211" transform="translate(-144.949 -411)">
    <g id="pin" transform="translate(144.949 411)">
      <g id="Group_1051" data-name="Group 1051" transform="translate(0)">
        <g id="Group_1050" data-name="Group 1050">
          <path id="Path_10738" data-name="Path 10738" d="M55.468,0A7.4,7.4,0,0,0,48.08,7.388a8.524,8.524,0,0,0,.627,2.844,11.914,11.914,0,0,0,.854,1.6L54.626,19.5a.963.963,0,0,0,1.684,0l5.066-7.676a11.863,11.863,0,0,0,.854-1.6,8.522,8.522,0,0,0,.626-2.844A7.4,7.4,0,0,0,55.468,0Zm5.96,9.9a10.917,10.917,0,0,1-.778,1.456l-5.066,7.676c-.1.152-.132.152-.232,0l-5.066-7.676a10.923,10.923,0,0,1-.778-1.456,7.738,7.738,0,0,1-.559-2.507,6.519,6.519,0,1,1,13.038,0A7.744,7.744,0,0,1,61.429,9.9Z" transform="translate(-48.08)"/>
          <path id="Path_10739" data-name="Path 10739" d="M115.991,64.008a3.911,3.911,0,1,0,3.911,3.911A3.916,3.916,0,0,0,115.991,64.008Zm0,6.953a3.042,3.042,0,1,1,3.042-3.042A3.046,3.046,0,0,1,115.991,70.962Z" transform="translate(-108.603 -60.531)"/>
        </g>
      </g>
    </g>
  </g>
</svg>
