<svg xmlns="http://www.w3.org/2000/svg" width="18" height="16.821" viewBox="0 0 18 16.821"><g opacity="0.397"><path d="M6.9,28.989v0a7.12,7.12,0,0,1,.339-1.756A7.1,7.1,0,0,1,3.13,24.392a7.935,7.935,0,0,0-.15,4.891A3.93,3.93,0,0,0,6.9,28.989Z" transform="translate(-2.666 -18.839)" fill="#fff"/><path d="M8.8,16.818c.338.346.733.811.556,1.262a.212.212,0,0,0,.12.275c.327.128.734-.668-.329-1.788a4.286,4.286,0,0,1,.585-1.036c1.551,1.166.45,1.707.936,1.892.416.157.79-1.118-.664-2.219a4.105,4.105,0,0,1,.409-.383,5.362,5.362,0,0,1-2.587-4.289,8.215,8.215,0,0,0-2.853,3.449A6.8,6.8,0,0,0,8.8,16.818Z" transform="translate(-4.317 -8.898)" fill="#fff"/><path d="M19.812,51.146a5.834,5.834,0,0,0-2.078.455,5.482,5.482,0,0,1-1.578-1.38,2.309,2.309,0,0,1-1.648,1.708,12.565,12.565,0,0,0,2.686,1.377,3.276,3.276,0,0,0,3.087.749,1.509,1.509,0,0,0,.749-2.31A1.453,1.453,0,0,0,19.812,51.146Z" transform="translate(-11.16 -37.367)" fill="#fff"/><path d="M8.546,44.1a.1.1,0,0,1,.008-.04,3.951,3.951,0,0,1-.433-1.679A4.58,4.58,0,0,1,5.888,43a4.316,4.316,0,0,1-1.51-.28,7.2,7.2,0,0,0,2.429,3.271A2,2,0,0,0,8.546,44.1Z" transform="translate(-3.894 -31.743)" fill="#fff"/><path d="M19.894,11.444a1.066,1.066,0,0,1,.093.885.212.212,0,0,0,.392.161c.36-.876-.31-1.62-.97-2.278a4.519,4.519,0,0,1,.564-.26c1.15.643,1.352,1.524,1.106,2.056a.212.212,0,0,0,.385.178,1.975,1.975,0,0,0-.95-2.4,4.91,4.91,0,0,1,.5-.1,10.871,10.871,0,0,1,.076-4.931,9.169,9.169,0,0,0-4.215,1.151c-.119.068-.237.136-.351.209C16.591,9.458,19.16,10.052,19.894,11.444Z" transform="translate(-12.609 -4.759)" fill="#fff"/><path d="M40.932,8.608h0a3.33,3.33,0,0,0,1.431-1.555.215.215,0,0,0-.02-.218.219.219,0,0,0-.2-.082c-1.063.167-2.561-.368-4.15-.933a13.1,13.1,0,0,0-4.631-1.069,10.447,10.447,0,0,0-.076,4.9c.064-.005.011,0,.432-.015.772.768,2.132,1.215,1.985,2.648l-.31,3.03a.212.212,0,0,0,.422.043l.31-3.03c.168-1.647-1.333-2.26-1.756-2.712l.47-.016c.866.8,1.779,1.085,1.9,2.194l.327,2.866a.212.212,0,0,0,.421-.048c-.392-2.277-.025-3.453-1.148-4.351l-.859-.687q.6-.026,1.143-.06c.492.548.752.711.944,1.149,1.085,2.338,1.03,2.672,1.35,2.532.357-.158-.09-.536-.962-2.7a2.218,2.218,0,0,0-.42-.631l-.366-.387a14.9,14.9,0,0,0,2.494-.37,3.053,3.053,0,0,1,.6,1.536c.281,3.465-.682,5.7-2.864,6.647a.212.212,0,0,0,.168.389c2.367-1.025,3.416-3.4,3.118-7.071a3.431,3.431,0,0,0-.6-1.629h0c.16-.053.311-.112.455-.174,1.823,2.853,2.36,5.5-.758,9.04a.212.212,0,1,0,.318.281C43.572,14.19,42.6,11.222,40.932,8.608ZM37.093,7.78a.53.53,0,1,1,.532-.532A.531.531,0,0,1,37.093,7.78Z" transform="translate(-24.444 -4.752)" fill="#fff"/></g></svg>