<svg xmlns="http://www.w3.org/2000/svg" width="8.075" height="20" viewBox="0 0 8.075 20"><path d="M39.122,8.458,38.139,6.7a4.289,4.289,0,0,1-.523-1.736L37.532,3.9h0a.276.276,0,0,0,0-.523h0a.409.409,0,0,0,.021-.732.611.611,0,0,0-.188-.042H34.29a.611.611,0,0,0-.188.042.4.4,0,0,0,.021.732h0a.276.276,0,0,0,0,.523l-.084,1.067A4.194,4.194,0,0,1,33.515,6.7l-.983,1.757a5.72,5.72,0,0,0-.732,2.8v9.414A1.92,1.92,0,0,0,33.725,22.6h4.226a1.92,1.92,0,0,0,1.925-1.925V11.261A5.912,5.912,0,0,0,39.122,8.458Z" transform="translate(-31.8 -2.6)" fill="#fff" opacity="0.397"/></svg>