<svg xmlns="http://www.w3.org/2000/svg" width="22.466" height="12" viewBox="0 0 22.466 12"><path d="M25.028,30.857h0c0-.047,0-.071-.024-.094v-.589a21.837,21.837,0,0,1,.8-3.957.237.237,0,0,0-.071-.212.181.181,0,0,0-.236.024c-1.861,1.931-2.025,3.7-2.661,3.768H22.72a1.449,1.449,0,0,1-.306-.024,1.777,1.777,0,0,1-.565-.188l-2.355-1.036c-.047-.024-.118-.047-.165-.071a1.311,1.311,0,0,1,.212-1.06c.353-.447.4-.73-.236-.542a4.992,4.992,0,0,0-1.437.824c-.071.047-.141.118-.212.165-.542-.165-1.083-.306-1.649-.424h0a7.318,7.318,0,0,0-2.19-1.013c-.471-.141-.824-.236-1.107-.33a2.63,2.63,0,0,1-1.154-.8c-.024-.024-.047-.047-.047-.071a.157.157,0,0,0-.236,0A6.559,6.559,0,0,0,9.743,27.3c-.542.094-1.013.188-1.437.283a14.471,14.471,0,0,0-4.828,2.779.354.354,0,0,0,.024.565l.212.118a4.024,4.024,0,0,1,.4.259.142.142,0,0,1-.094.259l-.377-.047a.154.154,0,0,0-.071.283,15.027,15.027,0,0,0,7.4,3.2c.024.094.071.188.094.283a2.676,2.676,0,0,0,1.649,1.884c.071.024.165-.024.118-.094a2.439,2.439,0,0,1,.047-1.413.8.8,0,0,0,.047-.565,13.607,13.607,0,0,0,3.815-.636c.377-.118.754-.259,1.13-.4a4.993,4.993,0,0,0,1.437.824c.612.188.589-.094.236-.542A1.367,1.367,0,0,1,19.3,33.4a11.814,11.814,0,0,0,1.484-.895c.683-.447,1.507-1.013,1.554-1.06a1.022,1.022,0,0,1,.377-.165.652.652,0,0,1,.212-.024c.071,0,.118.024.188.024a.023.023,0,0,1,.024.024h0c.518.236.73,1.319,2.167,2.826h0c.071.071.118.141.188.212a.181.181,0,0,0,.236.024.179.179,0,0,0,.071-.212A27.24,27.24,0,0,1,25.028,30.857Z" transform="translate(-3.348 -25.175)" fill="#fff" opacity="0.397"/></svg>