<svg xmlns="http://www.w3.org/2000/svg" width="17" height="15.242" viewBox="0 0 17 15.242"><g opacity="0.397"><path d="M58.3,84.094c-.417.282-.347.512.157.512h1.27a2.832,2.832,0,0,0,1.465-.312,4,4,0,0,0,.549-2V82.28c0-.5-.3-.631-.663-.284Z" transform="translate(-48.303 -69.415)" fill="#fff"/><path d="M23.507,84.094c.417.282.347.512-.157.512h-1.27a2.831,2.831,0,0,1-1.465-.312,4,4,0,0,1-.549-2V82.28c0-.5.3-.631.663-.284Z" transform="translate(-16.734 -69.415)" fill="#fff"/><path d="M.4,17.068a1.752,1.752,0,0,1,.665-2.016,1.974,1.974,0,0,1,2.05-3.019c-.546-2.205,1.629-3.506,3.373-2.05a2.466,2.466,0,0,1,4.567-.057c1.873-1.4,3.967-.1,3.327,2.107a1.984,1.984,0,0,1,2.049,3.019c.788.7,1.047,1.544.685,2.065S9.259,23.657,8.7,23.657C7.8,23.657.574,17.517.4,17.068Z" transform="translate(-0.272 -8.415)" fill="#fff"/></g></svg>