<svg xmlns="http://www.w3.org/2000/svg" width="18.404" height="19" viewBox="0 0 18.404 19"><path d="M18.248,284.829a.14.14,0,0,0-.108.052,6.239,6.239,0,0,1-3.732,2.231,3.279,3.279,0,0,0-2.894,2.4,4.37,4.37,0,0,1-1.923,2.112.465.465,0,0,1-.111.044,3.836,3.836,0,0,0-2.554,2.093h0a.473.473,0,0,0-.02.051,4.611,4.611,0,0,1-2.091,2.542.463.463,0,0,1-.074.034,5.087,5.087,0,0,0-2.734,2.328.933.933,0,0,0-.112.356,3.716,3.716,0,0,1-1.139,2.315.14.14,0,0,0-.019.181,6.108,6.108,0,0,0,1.618,1.6,3.332,3.332,0,0,0,3.656.222,4.935,4.935,0,0,0,2.809-3.024,1.4,1.4,0,0,1,.1-.235,2.987,2.987,0,0,1,2.1-1.508.934.934,0,0,0,.289-.1,4,4,0,0,0,1.849-2.223,2.9,2.9,0,0,1,1.889-2.056,6.818,6.818,0,0,0,3.325-9.334.14.14,0,0,0-.125-.075Zm-2.933,3.534a1.4,1.4,0,0,1,1.463,1.509,2.973,2.973,0,0,1-2.725,2.725,1.4,1.4,0,0,1-1.505-1.507,2.973,2.973,0,0,1,2.725-2.724l.042,0Zm-4.725,4.726a1.4,1.4,0,0,1,1.463,1.51,2.972,2.972,0,0,1-2.725,2.724,1.4,1.4,0,0,1-1.507-1.506,2.973,2.973,0,0,1,2.725-2.725l.044,0Zm-4.726,4.726a1.4,1.4,0,0,1,1.463,1.51A2.972,2.972,0,0,1,4.6,302.049,1.4,1.4,0,0,1,3.1,300.542a2.973,2.973,0,0,1,2.725-2.725l.044,0Z" transform="translate(-0.712 -284.829)" fill="#fff" opacity="0.4"/></svg>