<svg xmlns="http://www.w3.org/2000/svg" width="20" height="19.761" viewBox="0 0 20 19.761"><g opacity="0.4"><path d="M18.914,5.951c.814.124,1.591-.561,1.8-1.935a8.462,8.462,0,0,0-.763-3.7,7.437,7.437,0,0,0-2.183,3.252C17.559,4.941,18.1,5.826,18.914,5.951Z" transform="translate(-5.895 -0.105)" fill="#fff"/><path d="M15.562,8.16A9.413,9.413,0,0,0,14.11,4.234c-.086,0-1.849,2.385-1.849,3.926s.737,2.419,1.65,2.419S15.561,9.7,15.562,8.16Z" transform="translate(-4.078 -1.408)" fill="#fff"/><path d="M8.692,8.461c-.085,0-1.849,2.387-1.85,3.927s.739,2.42,1.652,2.42,1.65-.88,1.651-2.42A9.431,9.431,0,0,0,8.692,8.461Z" transform="translate(-2.276 -2.814)" fill="#fff"/><path d="M22.782,7.489c-1.377.195-2.07.966-1.953,1.782s.994,1.364,2.372,1.169a7.436,7.436,0,0,0,3.274-2.152A8.477,8.477,0,0,0,22.782,7.489Z" transform="translate(-6.924 -2.482)" fill="#fff"/><path d="M18.4,15.814c1.541,0,3.928-1.765,3.928-1.849A9.4,9.4,0,0,0,18.4,12.512c-1.541,0-2.419.739-2.419,1.65S16.855,15.814,18.4,15.814Z" transform="translate(-5.314 -4.162)" fill="#fff"/><path d="M17.929,19.219A9.394,9.394,0,0,0,14,17.765c-1.54,0-2.419.74-2.419,1.652s.879,1.652,2.419,1.652S17.929,19.3,17.929,19.219Z" transform="translate(-3.852 -5.909)" fill="#fff"/><path d="M23.855,3.729c.552.551,1.531.468,2.465-.465A8.059,8.059,0,0,0,27.818,0a7.066,7.066,0,0,0-3.5,1.259C23.387,2.2,23.3,3.176,23.855,3.729Z" transform="translate(-7.82 0)" fill="#fff"/><path d="M7.038,18.557c-.014,0-.031,0-.043,0L.024,25.163c-.06.079-.011.35.185.545s.452.263.532.2l3.127-3.28,3.515-3.683a.379.379,0,0,0-.131-.257A.622.622,0,0,0,7.038,18.557Z" transform="translate(0 -6.171)" fill="#fff"/></g></svg>