<svg xmlns="http://www.w3.org/2000/svg" width="48" height="23" viewBox="0 0 48 23"><rect width="48" height="23" rx="3" fill="#ff3838"/><path d="M9.358 17H10.9v-4.858c0-1.12-.126-2.31-.21-3.374h.07l1.076 2.156L15.252 17h1.666V6.682h-1.54V11.5c0 1.12.126 2.366.21 3.43h-.07l-1.078-2.186-3.416-6.062H9.358zm10.626 0h6.244v-1.372h-4.62V12.3h3.78v-1.376h-3.78v-2.87h4.466V6.682h-6.09zm9.816 0h1.96l1.358-5.726c.168-.812.336-1.582.49-2.366h.056c.14.784.294 1.554.476 2.366L35.524 17h2l2.03-10.318H38l-.98 5.376c-.168 1.078-.35 2.184-.518 3.3h-.07c-.238-1.12-.462-2.226-.7-3.3L34.4 6.682h-1.438l-1.33 5.376a247.04 247.04 0 00-.7 3.3h-.056c-.182-1.106-.364-2.212-.546-3.3l-.966-5.376H27.7z" fill="#fff"/></svg>