<svg xmlns="http://www.w3.org/2000/svg" width="86" height="23" viewBox="0 0 86 23"><g transform="translate(-429 -543)"><rect width="86" height="23" rx="3" transform="translate(429 543)" fill="#afafaf"/><path d="M440.3 560.182c2.254 0 3.626-1.344 3.626-3a2.877 2.877 0 00-2.102-2.782l-1.414-.6c-.84-.336-1.666-.672-1.666-1.568 0-.812.686-1.316 1.736-1.316a3.282 3.282 0 012.268.924l.852-1.04a4.414 4.414 0 00-3.12-1.3c-1.96 0-3.388 1.218-3.388 2.842a2.964 2.964 0 002.1 2.7l1.428.618c.952.42 1.652.714 1.652 1.652 0 .868-.7 1.456-1.946 1.456a4 4 0 01-2.744-1.218l-.952 1.12a5.141 5.141 0 003.67 1.512zm9.842 0c2.646 0 4.494-2.058 4.494-5.376s-1.85-5.306-4.496-5.306-4.48 1.988-4.48 5.306 1.834 5.376 4.48 5.376zm0-1.414c-1.708 0-2.814-1.554-2.814-3.962s1.106-3.892 2.814-3.892 2.828 1.47 2.828 3.892-1.122 3.962-2.83 3.962zm6.984 1.232h5.992v-1.372h-4.368v-8.946h-1.624zm8.162 0h2.758c3.08 0 4.886-1.848 4.886-5.194s-1.806-5.124-4.97-5.124h-2.674zm1.624-1.33v-7.658h.938c2.212 0 3.4 1.218 3.4 3.794s-1.19 3.864-3.4 3.864zm15.932 1.512c2.646 0 4.494-2.058 4.494-5.376s-1.848-5.306-4.494-5.306-4.48 1.988-4.48 5.306 1.836 5.376 4.48 5.376zm0-1.414c-1.708 0-2.814-1.554-2.814-3.962s1.106-3.892 2.814-3.892 2.828 1.47 2.828 3.892-1.12 3.962-2.828 3.962zm10.766 1.414c2.282 0 3.822-1.246 3.822-4.606v-5.894h-1.568v6.006c0 2.324-.952 3.08-2.254 3.08s-2.21-.756-2.21-3.08v-6.006h-1.626v5.894c0 3.36 1.554 4.606 3.836 4.606zm8.932-.182h1.624v-8.946h3.034v-1.372h-7.682v1.372h3.024z" fill="#fff"/></g></svg>