<svg xmlns="http://www.w3.org/2000/svg" width="26.499" height="20.352" viewBox="0 0 26.499 20.352"><defs><clipPath id="a"><path fill="none" d="M0 0h26.499v20.352H0z"/></clipPath></defs><g data-name="Repeat Grid 2"><g data-name="noun_menu list_3027233" fill="#fff" clip-path="url(#a)"><path data-name="Path 10774" d="M9.453 1.7h16.193a.852.852 0 100-1.7H9.453a.852.852 0 100 1.7z"/><path data-name="Path 10775" d="M25.646 15.341H9.453a.852.852 0 100 1.7h16.193a.852.852 0 100-1.7z"/><path data-name="Path 10776" d="M9.453 9.37H23.09a.852.852 0 000-1.7H9.453a.852.852 0 100 1.7z"/><path data-name="Path 10777" d="M5.192 0h-1.7a.852.852 0 000 1.7h1.7a.852.852 0 000-1.7z"/><path data-name="Path 10778" d="M5.192 15.341h-1.7a.852.852 0 000 1.7h1.7a.852.852 0 000-1.7z"/><path data-name="Path 10779" d="M5.192 7.67h-1.7a.852.852 0 000 1.7h1.7a.852.852 0 000-1.7z"/></g></g></svg>