<svg xmlns="http://www.w3.org/2000/svg" width="48" height="23" viewBox="0 0 48 23"><rect width="48" height="23" rx="3" fill="#ff3838"/><path d="M1.358,0H2.9V-4.858c0-1.12-.126-2.31-.21-3.374h.07L3.836-6.076,7.252,0H8.918V-10.318H7.378V-5.5c0,1.12.126,2.366.21,3.43h-.07L6.44-4.256,3.024-10.318H1.358ZM11.984,0h6.244V-1.372h-4.62V-4.7h3.78V-6.076h-3.78v-2.87h4.466v-1.372h-6.09ZM21.8,0h1.96l1.358-5.726c.168-.812.336-1.582.49-2.366h.056c.14.784.294,1.554.476,2.366L27.524,0h2l2.03-10.318H30l-.98,5.376c-.168,1.078-.35,2.184-.518,3.3h-.07c-.238-1.12-.462-2.226-.7-3.3L26.4-10.318H24.962l-1.33,5.376c-.238,1.092-.476,2.2-.7,3.3h-.056c-.182-1.106-.364-2.212-.546-3.3l-.966-5.376H19.7Z" transform="translate(8 17)" fill="#fff"/></svg>