<svg xmlns="http://www.w3.org/2000/svg" width="86" height="23" viewBox="0 0 86 23"><g transform="translate(-429 -543)"><rect width="86" height="23" rx="3" transform="translate(429 543)" fill="#afafaf"/><path d="M4.3.182c2.254,0,3.626-1.344,3.626-3A2.877,2.877,0,0,0,5.824-5.6L4.41-6.2c-.84-.336-1.666-.672-1.666-1.568,0-.812.686-1.316,1.736-1.316a3.282,3.282,0,0,1,2.268.924L7.6-9.2A4.414,4.414,0,0,0,4.48-10.5c-1.96,0-3.388,1.218-3.388,2.842a2.964,2.964,0,0,0,2.1,2.7L4.62-4.34c.952.42,1.652.714,1.652,1.652,0,.868-.7,1.456-1.946,1.456A4,4,0,0,1,1.582-2.45L.63-1.33A5.141,5.141,0,0,0,4.3.182Zm9.842,0c2.646,0,4.494-2.058,4.494-5.376S16.786-10.5,14.14-10.5,9.66-8.512,9.66-5.194,11.494.182,14.14.182Zm0-1.414c-1.708,0-2.814-1.554-2.814-3.962s1.106-3.892,2.814-3.892,2.828,1.47,2.828,3.892S15.848-1.232,14.14-1.232ZM21.126,0h5.992V-1.372H22.75v-8.946H21.126Zm8.162,0h2.758c3.08,0,4.886-1.848,4.886-5.194s-1.806-5.124-4.97-5.124H29.288Zm1.624-1.33V-8.988h.938c2.212,0,3.4,1.218,3.4,3.794s-1.19,3.864-3.4,3.864ZM46.844.182c2.646,0,4.494-2.058,4.494-5.376S49.49-10.5,46.844-10.5s-4.48,1.988-4.48,5.306S44.2.182,46.844.182Zm0-1.414c-1.708,0-2.814-1.554-2.814-3.962s1.106-3.892,2.814-3.892,2.828,1.47,2.828,3.892S48.552-1.232,46.844-1.232ZM57.61.182c2.282,0,3.822-1.246,3.822-4.606v-5.894H59.864v6.006c0,2.324-.952,3.08-2.254,3.08S55.4-1.988,55.4-4.312v-6.006H53.774v5.894C53.774-1.064,55.328.182,57.61.182ZM66.542,0h1.624V-8.946H71.2v-1.372H63.518v1.372h3.024Z" transform="translate(436 560)" fill="#fff"/></g></svg>