<svg xmlns="http://www.w3.org/2000/svg" xmlns:xlink="http://www.w3.org/1999/xlink" width="26.499" height="20.352" viewBox="0 0 26.499 20.352">
  <defs>
    <clipPath id="clip-path">
      <rect width="26.499" height="20.352" fill="none"/>
    </clipPath>
  </defs>
  <g id="Repeat_Grid_2" data-name="Repeat Grid 2" clip-path="url(#clip-path)">
    <g transform="translate(-314.001 -154)">
      <g id="menu_list" transform="translate(315.5 154)">
        <g id="noun_menu_list_3027233" data-name="noun_menu list_3027233" transform="translate(1.136)">
          <path id="Path_10774" data-name="Path 10774" d="M9.852,7.7H26.045a.852.852,0,1,0,0-1.7H9.852a.852.852,0,1,0,0,1.7Z" transform="translate(-3.034 -6)" fill="#fff"/>
          <path id="Path_10775" data-name="Path 10775" d="M26.045,24H9.852a.852.852,0,1,0,0,1.7H26.045a.852.852,0,1,0,0-1.7Z" transform="translate(-3.034 -8.659)" fill="#fff"/>
          <path id="Path_10776" data-name="Path 10776" d="M9.852,16.7H23.489a.852.852,0,0,0,0-1.7H9.852a.852.852,0,1,0,0,1.7Z" transform="translate(-3.034 -7.33)" fill="#fff"/>
          <path id="Path_10777" data-name="Path 10777" d="M4.557,6h-1.7a.852.852,0,0,0,0,1.7h1.7a.852.852,0,0,0,0-1.7Z" transform="translate(-2 -6)" fill="#fff"/>
          <path id="Path_10778" data-name="Path 10778" d="M4.557,24h-1.7a.852.852,0,0,0,0,1.7h1.7a.852.852,0,0,0,0-1.7Z" transform="translate(-2 -8.659)" fill="#fff"/>
          <path id="Path_10779" data-name="Path 10779" d="M4.557,15h-1.7a.852.852,0,0,0,0,1.7h1.7a.852.852,0,0,0,0-1.7Z" transform="translate(-2 -7.33)" fill="#fff"/>
        </g>
        <g id="pulldown_menu" transform="translate(0 18.182)" opacity="0">
          <rect id="Rectangle_381" data-name="Rectangle 381" width="0.125" height="1.136" rx="0.063" fill="#fff"/>
          <path id="Path_10826" data-name="Path 10826" d="M0,0H.039" transform="translate(0.001 0.113) rotate(90)" fill="none" stroke="#d7ad7d" stroke-linecap="round" stroke-width="3"/>
          <g id="close" transform="translate(0.105)">
            <path id="Rectangle_300" data-name="Rectangle 300" d="M0,0H0A.021.021,0,0,1,.021.021V.085a0,0,0,0,1,0,0H0a0,0,0,0,1,0,0V0A0,0,0,0,1,0,0Z" transform="translate(0)" fill="#d7ad7d"/>
            <line id="Line_11" data-name="Line 11" x2="0.031" y2="0.032" transform="translate(0.005 0.023)" fill="none" stroke="#fff" stroke-linecap="round" stroke-width="1.2"/>
            <line id="Line_101" data-name="Line 101" x1="0.031" y2="0.032" transform="translate(0.005 0.023)" fill="none" stroke="#fff" stroke-linecap="round" stroke-width="1.2"/>
          </g>
          <text id="Seasonal_Food_Menu" data-name="Seasonal Food Menu" transform="translate(0.007 1.114)" font-size="1" font-family="NotoSansJP-Regular, Noto Sans JP" letter-spacing="0.025em"><tspan x="0" y="0">Seasonal Food Menu</tspan></text>
          <text id="Seasonal_Drinks" data-name="Seasonal Drinks" transform="translate(0.007 1.17)" font-size="1" font-family="NotoSansJP-Regular, Noto Sans JP" letter-spacing="0.025em"><tspan x="0" y="0">Seasonal Drinks</tspan></text>
        </g>
      </g>
    </g>
  </g>
</svg>
