<svg xmlns="http://www.w3.org/2000/svg" width="20" height="18.918" viewBox="0 0 20 18.918">
  <path id="Path_11048" data-name="Path 11048" d="M685.16,396.907a.45.45,0,0,1-.328-.141l-.007-.007-.015-.015a.454.454,0,0,1,.015-.641l9.369-9.393a4.688,4.688,0,0,0,1.375-3.272,4.393,4.393,0,0,0-1.285-3.209,4.6,4.6,0,0,0-6.481.093l-9.388,9.388a3.216,3.216,0,0,0,2.252,5.5h0a3.174,3.174,0,0,0,2.277-.953L685.3,391.9l7.167-7.212a1.857,1.857,0,0,0-.068-2.6l-.025-.026a1.822,1.822,0,0,0-2.576-.046l-5.763,5.763-.023.024a.47.47,0,0,1-.644-.683l5.742-5.787a2.671,2.671,0,0,1,1.88-.781l.1,0a2.886,2.886,0,0,1,2,.848,2.975,2.975,0,0,1,.848,1.994,2.662,2.662,0,0,1-.779,1.981l-9.665,9.665-.011.025-.02.009-.024.021a4.162,4.162,0,0,1-5.707-6.053l3.537-3.537,5.86-5.858a5.532,5.532,0,0,1,7.824-.081,5.418,5.418,0,0,1,1.572,3.91,5.621,5.621,0,0,1-1.665,3.918l-9.385,9.385a.451.451,0,0,1-.312.125Z" transform="translate(-676.523 -377.989)"/>
</svg>
