<svg xmlns="http://www.w3.org/2000/svg" width="40" height="40" viewBox="0 0 40 40">
  <g id="logo_raizo" transform="translate(0)">
    <g id="Group_210" data-name="Group 210" transform="translate(0 0)">
      <circle id="Ellipse_1" data-name="Ellipse 1" cx="19.876" cy="19.876" r="19.876" transform="translate(0.124 0.124)" fill="#f5e7c8"/>
      <path id="Path_7167" data-name="Path 7167" d="M215.176,216.4a20,20,0,1,1,20-20A20.023,20.023,0,0,1,215.176,216.4Zm0-39.753A19.753,19.753,0,1,0,234.929,196.4,19.775,19.775,0,0,0,215.176,176.645Z" transform="translate(-195.176 -176.398)" fill="#dd5934"/>
    </g>
    <path id="Path_7168" data-name="Path 7168" d="M215.721,216.416a19.472,19.472,0,1,1,19.473-19.472A19.495,19.495,0,0,1,215.721,216.416Zm0-37.4a17.928,17.928,0,1,0,17.928,17.928A17.948,17.948,0,0,0,215.721,179.015Z" transform="translate(-195.721 -176.943)" fill="#563008"/>
    <g id="Group_244" data-name="Group 244" transform="translate(4.98 4.454)">
      <path id="Path_7172" data-name="Path 7172" d="M220.31,185.456c-12.421.438-15.008,11.061-15.008,11.061l3.438,0a12.242,12.242,0,0,1,11.566-7.856c8.654-.148,11.621,7.817,11.621,7.817l3.37-.007C231.521,185.059,220.31,185.456,220.31,185.456Z" transform="translate(-205.302 -185.455)" fill="#563008"/>
      <path id="Path_7173" data-name="Path 7173" d="M220.289,236.867s-11.211.4-14.987-11.018l3.37-.007s2.966,7.965,11.621,7.817a12.243,12.243,0,0,0,11.566-7.856l3.438,0s-2.587,10.623-15.008,11.061" transform="translate(-205.302 -205.958)" fill="#563008"/>
      <g id="Group_228" data-name="Group 228" transform="translate(3.325 0.575)">
        <g id="Group_211" data-name="Group 211" transform="translate(0 4.929)">
          <path id="Path_7174" data-name="Path 7174" d="M213.948,197.932l-.618.713-.355-.308.111-.128.224.195.392-.453-1.082-.938-.308.355-.132-.115.422-.487Z" transform="translate(-212.123 -196.706)" fill="#f5e7c8"/>
          <path id="Path_7175" data-name="Path 7175" d="M213.274,198.643l-.418-.363.166-.192.224.195.337-.389-1.018-.883-.308.355-.2-.17.477-.551.032.028,1.376,1.194Zm-.3-.372.291.252.562-.648-1.28-1.111-.366.423.068.059.308-.355.032.028,1.113.966-.448.517-.224-.195Z" transform="translate(-212.062 -196.645)" fill="#f5e7c8"/>
        </g>
        <g id="Group_212" data-name="Group 212" transform="translate(1.305 4.2)">
          <path id="Path_7176" data-name="Path 7176" d="M216.122,196.063a.212.212,0,0,1,.012.294l-.432.406-.568-.605.449-.422-.2-.212-.432.405-.114-.122.555-.521Zm-.753.107.341.363.331-.31-.341-.363Z" transform="translate(-214.777 -195.225)" fill="#f5e7c8"/>
          <path id="Path_7177" data-name="Path 7177" d="M215.639,196.761l-.626-.667.449-.422-.142-.151-.432.405-.172-.183.617-.579.758.808a.253.253,0,0,1,.011.353Zm-.507-.663.511.543.4-.376a.17.17,0,0,0-.014-.235l-.7-.746-.494.463.057.06.432-.405.258.274Zm.513.434-.4-.425.392-.368.4.425Zm-.279-.422.283.3.27-.253-.283-.3Z" transform="translate(-214.716 -195.164)" fill="#f5e7c8"/>
        </g>
        <g id="Group_213" data-name="Group 213" transform="translate(2.402 3.26)">
          <path id="Path_7178" data-name="Path 7178" d="M218.315,194.517l-.332.255.292.381-.135.1-1.074-1.4.627-.481.648.846A.21.21,0,0,1,218.315,194.517Zm-1.013-.634.582.76.362-.277-.582-.76Z" transform="translate(-217.007 -193.313)" fill="#f5e7c8"/>
          <path id="Path_7179" data-name="Path 7179" d="M218.071,195.253l-.026-.033-1.1-1.436.693-.532.675.88a.252.252,0,0,1-.034.357h0l-.3.229.292.381Zm-1.007-1.453,1.023,1.335.067-.052-.292-.381.366-.281a.167.167,0,0,0,.018-.238l-.623-.813Zm.752.841-.634-.827.429-.329.633.827Zm-.516-.812.531.693.3-.226-.531-.693Z" transform="translate(-216.946 -193.252)" fill="#f5e7c8"/>
        </g>
        <g id="Group_214" data-name="Group 214" transform="translate(3.637 2.445)">
          <path id="Path_7180" data-name="Path 7180" d="M220.783,192.621a.212.212,0,0,1-.047.291l-.5.311-.436-.706.524-.323-.153-.248-.5.311-.088-.142.648-.4Zm-.76-.046.262.424.386-.238-.262-.424Z" transform="translate(-219.517 -191.656)" fill="#f5e7c8"/>
          <path id="Path_7181" data-name="Path 7181" d="M220.157,193.221l-.48-.778.525-.323-.109-.177-.5.311-.132-.214.721-.444.581.943a.253.253,0,0,1-.059.348Zm-.363-.751.391.634.469-.289a.171.171,0,0,0,.033-.233l-.538-.871-.576.355.043.07.5-.311.2.32Zm.417.528-.306-.5.459-.282.305.5Zm-.189-.469.217.353.314-.194-.217-.352Z" transform="translate(-219.457 -191.596)" fill="#f5e7c8"/>
        </g>
        <g id="Group_215" data-name="Group 215" transform="translate(4.914 1.832)">
          <path id="Path_7182" data-name="Path 7182" d="M223.459,191.528l-.142.069-.485-1.006-.449.216.485,1.006-.14.067-.56-1.161.548-.265a.211.211,0,0,1,.279.113Z" transform="translate(-222.112 -190.394)" fill="#f5e7c8"/>
          <path id="Path_7183" data-name="Path 7183" d="M222.651,191.893l-.6-1.237.586-.283a.253.253,0,0,1,.335.133l.481,1-.217.105-.485-1.005-.373.18.485,1.006Zm-.485-1.2.524,1.085.063-.031-.485-1.006.525-.253.485,1.006.066-.032-.445-.922a.17.17,0,0,0-.223-.093Z" transform="translate(-222.054 -190.349)" fill="#f5e7c8"/>
        </g>
        <g id="Group_216" data-name="Group 216" transform="translate(6.304 1.215)">
          <path id="Path_7184" data-name="Path 7184" d="M225.616,190.611a.21.21,0,0,1-.264-.142l-.363-1,.727-.263.215.594-.571.207.169.466.577-.209.055.152Zm-.413-1.044.1.277.416-.15-.1-.276Z" transform="translate(-224.935 -189.149)" fill="#f5e7c8"/>
          <path id="Path_7185" data-name="Path 7185" d="M225.5,190.608a.229.229,0,0,1-.1-.023.276.276,0,0,1-.14-.158l-.377-1.042.808-.292.243.673-.571.206.141.387.576-.209.083.231-.585.212A.228.228,0,0,1,225.5,190.608Zm-.509-1.172.349.963a.191.191,0,0,0,.1.11.148.148,0,0,0,.113.006l.507-.183-.027-.073-.577.209-.2-.546.571-.207-.186-.514Zm.234.406-.129-.356.5-.179.129.356Zm-.02-.305.071.2.335-.122-.071-.2Z" transform="translate(-224.879 -189.094)" fill="#f5e7c8"/>
        </g>
        <g id="Group_217" data-name="Group 217" transform="translate(7.696 0.824)">
          <path id="Path_7186" data-name="Path 7186" d="M228.11,189.851l-.04-.162.618-.154-.113-.452-.6.15-.159-.635.771-.192.04.162-.609.152.071.283.6-.151.147.589a.212.212,0,0,1-.142.265Z" transform="translate(-227.762 -188.353)" fill="#f5e7c8"/>
          <path id="Path_7187" data-name="Path 7187" d="M228.026,189.849l-.061-.243.618-.154-.092-.371-.6.15-.179-.717.853-.213.061.244-.609.152.05.2.6-.151.157.63a.252.252,0,0,1-.173.316Zm.041-.182.02.08.545-.136a.151.151,0,0,0,.1-.076.19.19,0,0,0,.015-.137l-.137-.548L228,189l-.091-.365.609-.152-.02-.08-.689.172.138.553.6-.15.134.535Z" transform="translate(-227.709 -188.3)" fill="#f5e7c8"/>
        </g>
        <g id="Group_218" data-name="Group 218" transform="translate(9.169 0.583)">
          <path id="Path_7188" data-name="Path 7188" d="M231.181,189.264a.21.21,0,0,1-.229-.192l-.151-1.056.766-.109.09.625-.6.086.07.491.608-.087.023.16Zm-.191-1.106.042.291.438-.062-.042-.291Z" transform="translate(-230.753 -187.859)" fill="#f5e7c8"/>
          <path id="Path_7189" data-name="Path 7189" d="M231.105,189.259a.256.256,0,0,1-.245-.23l-.156-1.1.85-.121.1.708-.6.086.059.407.608-.087.035.243-.617.088A.182.182,0,0,1,231.105,189.259ZM230.8,188l.145,1.014a.168.168,0,0,0,.182.157l.533-.076-.011-.077-.607.087-.082-.574.6-.086-.078-.542Zm.147.445-.053-.375.521-.075.053.375Zm.042-.3.03.208.354-.05-.03-.208Z" transform="translate(-230.704 -187.81)" fill="#f5e7c8"/>
        </g>
        <g id="Group_219" data-name="Group 219" transform="translate(11.538)">
          <path id="Path_7190" data-name="Path 7190" d="M235.67,186.713l.261.009.579.672.022-.652.169.006-.06,1.778-.169-.006.029-.864-.673-.784-.055,1.624-.164-.005Z" transform="translate(-235.566 -186.669)" fill="#f5e7c8"/>
          <path id="Path_7191" data-name="Path 7191" d="M236.637,188.524l-.254-.009.03-.89-.591-.689-.053,1.558-.249-.008.062-1.863.322.011.012.014.509.59.02-.586.254.008Zm-.167-.09.085,0,.057-1.693-.085,0-.024.718-.638-.74-.2-.006-.057,1.693.08,0,.058-1.69.754.879Z" transform="translate(-235.521 -186.624)" fill="#f5e7c8"/>
        </g>
        <g id="Group_220" data-name="Group 220" transform="translate(13.14 0.592)">
          <path id="Path_7192" data-name="Path 7192" d="M239.478,189.288l-.6-.089.188-1.275.8.119-.156,1.055A.212.212,0,0,1,239.478,189.288Zm-.286-1.171-.138.931.493.073.138-.931Z" transform="translate(-238.827 -187.876)" fill="#f5e7c8"/>
          <path id="Path_7193" data-name="Path 7193" d="M239.456,189.283l-.034,0-.645-.1.2-1.358.886.131-.162,1.1a.276.276,0,0,1-.1.174A.233.233,0,0,1,239.456,189.283Zm-.583-.169.561.083a.153.153,0,0,0,.119-.034.19.19,0,0,0,.066-.121l.15-1.013-.719-.106Zm.66.006-.576-.085.15-1.015.577.086Zm-.481-.156.41.06.125-.848-.41-.06Z" transform="translate(-238.777 -187.827)" fill="#f5e7c8"/>
        </g>
        <g id="Group_221" data-name="Group 221" transform="translate(14.507 0.848)">
          <path id="Path_7194" data-name="Path 7194" d="M242.252,189.852l-.59-.152.322-1.248.785.2-.266,1.032A.211.211,0,0,1,242.252,189.852Zm-.161-1.194-.235.911.482.124.235-.911Z" transform="translate(-241.611 -188.401)" fill="#f5e7c8"/>
          <path id="Path_7195" data-name="Path 7195" d="M242.247,189.848a.211.211,0,0,1-.058-.007l-.631-.162.342-1.33.868.224-.277,1.073a.272.272,0,0,1-.123.169A.238.238,0,0,1,242.247,189.848Zm-.037-.089a.15.15,0,0,0,.115-.017.187.187,0,0,0,.085-.118l.256-.992-.7-.181-.3,1.167Zm.107-.066-.565-.146.256-.994.564.146Zm-.462-.206.4.1.213-.83-.4-.1Z" transform="translate(-241.558 -188.348)" fill="#f5e7c8"/>
        </g>
        <g id="Group_222" data-name="Group 222" transform="translate(15.844 1.055)">
          <path id="Path_7196" data-name="Path 7196" d="M244.936,190.5l-.55-.206.45-1.207.581.217.158-.425.159.059-.531,1.424A.212.212,0,0,1,244.936,190.5Zm0-1.2-.335.9.427.159.335-.9Z" transform="translate(-244.331 -188.825)" fill="#f5e7c8"/>
          <path id="Path_7197" data-name="Path 7197" d="M244.947,190.5a.226.226,0,0,1-.082-.015l-.59-.22.015-.039.464-1.247.582.216.158-.424.238.089-.015.039-.531,1.424A.262.262,0,0,1,244.947,190.5Zm-.052-.094a.169.169,0,0,0,.213-.113l.516-1.385-.08-.03-.158.425-.581-.216-.421,1.128Zm.1-.046-.506-.189.364-.978.507.189Zm-.4-.238.348.129.306-.82-.348-.129Z" transform="translate(-244.275 -188.769)" fill="#f5e7c8"/>
        </g>
        <g id="Group_223" data-name="Group 223" transform="translate(17.122 1.408)">
          <path id="Path_7198" data-name="Path 7198" d="M247.146,191.251l-.157-.074.739-1.577.157.074Z" transform="translate(-246.932 -189.544)" fill="#f5e7c8"/>
          <path id="Path_7199" data-name="Path 7199" d="M247.109,191.25l-.235-.11.018-.038.757-1.616.234.11-.018.038Zm-.122-.15.082.038.7-1.5-.081-.038Z" transform="translate(-246.874 -189.486)" fill="#f5e7c8"/>
        </g>
        <g id="Group_224" data-name="Group 224" transform="translate(17.901 2.199)">
          <path id="Path_7200" data-name="Path 7200" d="M248.641,192.43a.21.21,0,0,1-.063-.292l.526-.927.672.382-.311.549-.528-.3-.244.431.533.3-.08.141Zm.525-.992-.145.256.384.218.146-.256Z" transform="translate(-248.502 -191.153)" fill="#f5e7c8"/>
          <path id="Path_7201" data-name="Path 7201" d="M249.118,192.715l-.542-.307a.252.252,0,0,1-.08-.35l.547-.964.747.423-.354.622-.527-.3-.2.358.534.3Zm-.5-.381.468.266.038-.067-.533-.3.287-.5.527.3.27-.476-.6-.34-.506.89a.17.17,0,0,0,.048.235Zm.759-.423-.457-.26.187-.33.458.26Zm-.342-.292.311.177.1-.183-.311-.176Z" transform="translate(-248.458 -191.094)" fill="#f5e7c8"/>
        </g>
        <g id="Group_225" data-name="Group 225" transform="translate(19.653 3.123)">
          <path id="Path_7202" data-name="Path 7202" d="M253.491,194.148l.138.114-.7.854-.786-.647,1.132-1.373.648.533Zm-1.107.294.515.424.479-.581-.515-.424Zm1.288-.791-.379-.312-.317.385.38.312Z" transform="translate(-252.081 -193.035)" fill="#f5e7c8"/>
          <path id="Path_7203" data-name="Path 7203" d="M252.871,195.114l-.851-.7,1.185-1.438.713.587-.428.52.138.114Zm-.732-.713.721.594.649-.788-.138-.114.428-.52-.583-.48Zm.705.464-.581-.478.533-.646.581.478Zm-.462-.49.451.371.425-.516-.451-.371Zm.917-.341-.445-.366.371-.45.445.366Zm-.326-.377.314.259.263-.32-.314-.259Z" transform="translate(-252.02 -192.974)" fill="#f5e7c8"/>
        </g>
        <g id="Group_226" data-name="Group 226" transform="translate(20.862 4.657)">
          <path id="Path_7204" data-name="Path 7204" d="M255.307,197.5a.212.212,0,0,1-.294.018l-.414-.423.594-.58.431.441.209-.2-.414-.423.12-.117.532.545Zm-.122-.752-.357.349.317.324.357-.348Z" transform="translate(-254.54 -196.153)" fill="#f5e7c8"/>
          <path id="Path_7205" data-name="Path 7205" d="M255.084,197.552a.235.235,0,0,1-.161-.062l-.445-.455.654-.64.43.441.148-.145-.414-.424.18-.176.592.6-.792.775A.276.276,0,0,1,255.084,197.552Zm-.486-.515.385.393a.168.168,0,0,0,.234-.019h0l.733-.716-.474-.484-.06.058.414.423-.269.263-.43-.44Zm.486.386-.376-.385.417-.408.376.385Zm-.257-.383.258.264.3-.29-.258-.264Z" transform="translate(-254.479 -196.092)" fill="#f5e7c8"/>
        </g>
        <g id="Group_227" data-name="Group 227" transform="translate(21.796 5.727)">
          <path id="Path_7206" data-name="Path 7206" d="M256.5,199.206l1-.816.383.467-.129.106-.276-.337-.868.711Z" transform="translate(-256.44 -198.33)" fill="#f5e7c8"/>
          <path id="Path_7207" data-name="Path 7207" d="M256.539,199.335l-.161-.2,1.062-.87.437.533-.195.159-.275-.337Zm-.042-.184.054.065.868-.711.276.337.064-.053-.329-.4Z" transform="translate(-256.378 -198.269)" fill="#f5e7c8"/>
        </g>
      </g>
      <g id="Group_243" data-name="Group 243" transform="translate(5.198 24.89)">
        <g id="Group_242" data-name="Group 242">
          <g id="Group_229" data-name="Group 229" transform="translate(0 0.092)">
            <path id="Path_7208" data-name="Path 7208" d="M216.771,238.062a.217.217,0,0,1-.3.03l-.475-.421,1.151-1.3.134.119-.3.34.494.437Zm.1-1.107-.633.715.363.322.633-.715Z" transform="translate(-215.934 -236.311)" fill="#f5e7c8"/>
            <path id="Path_7209" data-name="Path 7209" d="M216.54,238.12a.255.255,0,0,1-.16-.057l-.509-.451.029-.032,1.179-1.332.2.177-.3.339.494.438-.029.032-.7.794A.267.267,0,0,1,216.54,238.12Zm-.547-.515.443.392a.174.174,0,0,0,.24-.027l.674-.761-.494-.438.3-.339-.069-.062Zm.547.385-.427-.379.029-.032.661-.747.428.379Zm-.305-.386.3.265.576-.651-.3-.265Z" transform="translate(-215.871 -236.248)" fill="#f5e7c8"/>
          </g>
          <g id="Group_230" data-name="Group 230" transform="translate(0.98 1.386)">
            <path id="Path_7210" data-name="Path 7210" d="M218.08,240.313l.533.373.209-.3-.539-.377.705-1.009.144.1-.613.877.4.276.613-.877.15.1-.882,1.263a.216.216,0,0,1-.3.058l-.507-.354Z" transform="translate(-217.925 -238.941)" fill="#f5e7c8"/>
            <path id="Path_7211" data-name="Path 7211" d="M218.552,240.823a.254.254,0,0,1-.147-.047l-.542-.378.145-.207.533.372.158-.228-.539-.376.755-1.08.214.15-.613.877.325.227.613-.877.22.154-.907,1.3A.265.265,0,0,1,218.552,240.823Zm-.569-.446.471.329a.175.175,0,0,0,.243-.048l.858-1.227-.079-.055-.613.877-.466-.326.613-.877-.073-.051-.656.938.539.376-.258.369-.533-.372Z" transform="translate(-217.863 -238.879)" fill="#f5e7c8"/>
          </g>
          <g id="Group_231" data-name="Group 231" transform="translate(3.519 2.652)">
            <path id="Path_7212" data-name="Path 7212" d="M223.141,242.731l.542-1.162.582.271-.07.151-.419-.2-.472,1.011Z" transform="translate(-223.084 -241.512)" fill="#f5e7c8"/>
            <path id="Path_7213" data-name="Path 7213" d="M223.266,242.8l-.241-.112.578-1.239.66.308-.107.228-.419-.2Zm-.126-.154.085.04.472-1.011.419.2.034-.072-.5-.236Z" transform="translate(-223.025 -241.453)" fill="#f5e7c8"/>
          </g>
          <g id="Group_232" data-name="Group 232" transform="translate(4.686 3.125)">
            <path id="Path_7214" data-name="Path 7214" d="M226.371,243.793a.217.217,0,0,1-.267.141l-.595-.209.272-.779.618.216.1-.274-.595-.208.055-.157.764.268Zm-.482-.63-.164.468.455.159.164-.468Z" transform="translate(-225.455 -242.47)" fill="#f5e7c8"/>
            <path id="Path_7215" data-name="Path 7215" d="M226.11,243.931a.272.272,0,0,1-.075-.011l-.637-.223.3-.86.618.216.067-.192-.595-.209.083-.238.846.3-.014.04-.351,1A.261.261,0,0,1,226.11,243.931Zm-.6-.287.554.194a.174.174,0,0,0,.211-.115l.336-.96-.683-.239-.027.075.595.209-.124.355-.618-.216Zm.643.146-.537-.188.192-.549.536.188Zm-.427-.241.374.131.136-.386-.374-.131Z" transform="translate(-225.398 -242.414)" fill="#f5e7c8"/>
          </g>
          <g id="Group_233" data-name="Group 233" transform="translate(6.246 3.582)">
            <path id="Path_7216" data-name="Path 7216" d="M229.975,244.976l-.164-.034.228-1.086-.413-.087-.221,1.05-.159-.033.221-1.05-.4-.085-.229,1.086-.161-.034.264-1.254,1.093.23a.216.216,0,0,1,.162.261Z" transform="translate(-228.623 -243.397)" fill="#f5e7c8"/>
            <path id="Path_7217" data-name="Path 7217" d="M229.956,244.974l-.248-.053.008-.042.22-1.044-.329-.069-.221,1.05-.243-.052.221-1.05-.32-.067-.229,1.087-.245-.052.009-.042.273-1.3,1.135.239a.261.261,0,0,1,.2.311Zm-.147-.119.08.017.209-1a.172.172,0,0,0-.129-.209l-1.051-.221-.246,1.17.078.016.228-1.086.488.1-.009.042-.212,1.008.075.015.221-1.05.5.1-.009.042Z" transform="translate(-228.57 -243.344)" fill="#f5e7c8"/>
          </g>
          <g id="Group_234" data-name="Group 234" transform="translate(8.368 3.935)">
            <path id="Path_7218" data-name="Path 7218" d="M233.165,245.451a.214.214,0,0,1-.193-.238l.086-1.056.819.067-.051.626-.642-.053-.04.492.65.053-.013.16Zm.056-1.115-.024.292.468.038.024-.292Z" transform="translate(-232.928 -244.109)" fill="#f5e7c8"/>
            <path id="Path_7219" data-name="Path 7219" d="M233.776,245.5l-.658-.054a.257.257,0,0,1-.233-.285l.089-1.1.906.074-.058.711-.643-.052-.032.405.65.053Zm-.651-.14.573.047.006-.074-.65-.053.047-.577.643.053.044-.54-.734-.06-.083,1.014a.172.172,0,0,0,.154.191Zm.537-.7-.554-.045.031-.378.554.046Zm-.461-.124.383.031.016-.206-.382-.031Z" transform="translate(-232.884 -244.061)" fill="#f5e7c8"/>
          </g>
          <g id="Group_235" data-name="Group 235" transform="translate(9.872 4.006)">
            <path id="Path_7220" data-name="Path 7220" d="M236.927,245.569l-.167,0-.028-1.11-.53.013.028,1.11-.165,0-.031-1.281.647-.016a.216.216,0,0,1,.22.216Z" transform="translate(-235.988 -244.25)" fill="#f5e7c8"/>
            <path id="Path_7221" data-name="Path 7221" d="M235.977,245.59v-.043l-.033-1.325.691-.017a.253.253,0,0,1,.185.073.267.267,0,0,1,.079.185l.027,1.1-.253.006v-.043l-.026-1.067-.444.011.027,1.11Zm.054-1.283.03,1.195.079,0-.028-1.11.616-.016v.043l.026,1.067.082,0-.026-1.017a.178.178,0,0,0-.053-.125.169.169,0,0,0-.123-.049Z" transform="translate(-235.942 -244.205)" fill="#f5e7c8"/>
          </g>
          <g id="Group_236" data-name="Group 236" transform="translate(12.204 3.119)">
            <path id="Path_7222" data-name="Path 7222" d="M241.975,243.334l-.366.079.561.823-.19.041-.561-.823-.276.06.195.9-.176.038-.373-1.73,1.009-.217Zm-.975-.48.1.487.66-.142-.105-.487Z" transform="translate(-240.736 -242.455)" fill="#f5e7c8"/>
            <path id="Path_7223" data-name="Path 7223" d="M241.075,244.452l-.392-1.814.042-.009,1.051-.227.2.912-.346.075.561.823-.281.061-.562-.823-.206.045.2.9Zm-.289-1.748.355,1.645.092-.02-.2-.9.347-.075.562.823.1-.022-.561-.823.387-.084-.161-.744Zm.233.634-.123-.572.744-.16.123.572Zm-.021-.505.087.4.575-.124-.087-.4Z" transform="translate(-240.683 -242.402)" fill="#f5e7c8"/>
          </g>
          <g id="Group_237" data-name="Group 237" transform="translate(13.765 2.597)">
            <path id="Path_7224" data-name="Path 7224" d="M243.97,241.816l1.023-.362.591,1.668-.18.063-.308-.87-.671.238.308.87-.172.061Zm.4.571.672-.238-.166-.467-.671.238Z" transform="translate(-243.914 -241.399)" fill="#f5e7c8"/>
            <path id="Path_7225" data-name="Path 7225" d="M244.476,243.482l-.619-1.749,1.105-.391.619,1.749-.261.092-.308-.87-.59.209.307.87Zm-.509-1.7.562,1.587.09-.032-.308-.87.754-.267.308.87.1-.034-.562-1.587Zm.314.6-.194-.548.753-.267.194.548Zm-.084-.5.137.386.591-.209-.137-.386Z" transform="translate(-243.857 -241.342)" fill="#f5e7c8"/>
          </g>
          <g id="Group_238" data-name="Group 238" transform="translate(15.328 2.267)">
            <path id="Path_7226" data-name="Path 7226" d="M248.076,242.39l-.174.082-.75-1.6.174-.082Z" transform="translate(-247.095 -240.729)" fill="#f5e7c8"/>
            <path id="Path_7227" data-name="Path 7227" d="M247.822,242.47l-.786-1.681.252-.119.786,1.681Zm-.672-1.64.713,1.525.1-.045-.713-1.525Z" transform="translate(-247.036 -240.67)" fill="#f5e7c8"/>
          </g>
          <g id="Group_239" data-name="Group 239" transform="translate(16.251 1.532)">
            <path id="Path_7228" data-name="Path 7228" d="M250.518,240.822l-.865.507-.236-.4.155-.091.15.255.55-.322-.72-1.229-.432.253-.088-.15.591-.346Z" transform="translate(-248.973 -239.236)" fill="#f5e7c8"/>
            <path id="Path_7229" data-name="Path 7229" d="M249.577,241.326l-.28-.477.23-.134.15.255.476-.279-.676-1.154-.432.253-.132-.225.666-.39.938,1.6Zm-.162-.447.192.329.791-.463-.851-1.453-.517.3.044.076.432-.253.764,1.3-.625.365-.149-.255Z" transform="translate(-248.912 -239.175)" fill="#f5e7c8"/>
          </g>
          <g id="Group_240" data-name="Group 240" transform="translate(17.331 1.08)">
            <path id="Path_7230" data-name="Path 7230" d="M252.419,239.817l-.156.112-1.031-1.438.156-.112Z" transform="translate(-251.171 -238.319)" fill="#f5e7c8"/>
            <path id="Path_7231" data-name="Path 7231" d="M252.19,239.927l-1.082-1.508.227-.162,1.082,1.508Zm-.961-1.488.981,1.368.086-.062-.981-1.368Z" transform="translate(-251.108 -238.257)" fill="#f5e7c8"/>
          </g>
          <g id="Group_241" data-name="Group 241" transform="translate(17.966)">
            <path id="Path_7232" data-name="Path 7232" d="M252.524,236.91l.209-.183.909.063-.429-.486.135-.119,1.17,1.327-.135.119-.569-.645-1.057-.077,1.069,1.213-.131.116Z" transform="translate(-252.463 -236.124)" fill="#f5e7c8"/>
            <path id="Path_7233" data-name="Path 7233" d="M253.627,238.236l-1.227-1.392.254-.224.822.058-.388-.44.2-.176,1.227,1.392-.2.176-.585-.664-.934-.068,1.028,1.166Zm-1.105-1.385,1.113,1.263.067-.059-1.11-1.26,1.179.086.552.627.07-.062-1.113-1.263-.07.062.47.533-1-.07Z" transform="translate(-252.4 -236.061)" fill="#f5e7c8"/>
          </g>
        </g>
      </g>
    </g>
    <g id="Group_256" data-name="Group 256" transform="translate(13.547 28.089)">
      <g id="Group_245" data-name="Group 245" transform="translate(3.942 0.159)">
        <path id="Path_7236" data-name="Path 7236" d="M230.736,234.256l1.59-.058a.977.977,0,0,1-.569.873s.083-.271-.025-.313l-.972.066Z" transform="translate(-230.736 -234.017)" fill="#563008"/>
        <path id="Path_7237" data-name="Path 7237" d="M231.256,233.838s.041,1.425.568,1.548a7.7,7.7,0,0,1-.148-1.557Z" transform="translate(-231 -233.83)" fill="#563008"/>
      </g>
      <g id="Group_247" data-name="Group 247" transform="translate(1.801 0)">
        <g id="Group_246" data-name="Group 246" transform="translate(0)">
          <ellipse id="Ellipse_2" data-name="Ellipse 2" cx="0.313" cy="0.412" rx="0.313" ry="0.412" transform="translate(0 0.535) rotate(-58.794)" fill="#563008"/>
          <path id="Path_7238" data-name="Path 7238" d="M228.5,234.906l-1.261.917-.16-.243,1.261-.917Z" transform="translate(-226.734 -234.094)" fill="#563008"/>
        </g>
      </g>
      <g id="Group_249" data-name="Group 249" transform="translate(9.534 0.048)">
        <g id="Group_248" data-name="Group 248" transform="translate(0)">
          <ellipse id="Ellipse_3" data-name="Ellipse 3" cx="0.293" cy="0.405" rx="0.293" ry="0.405" transform="matrix(0.918, -0.397, 0.397, 0.918, 0, 0.268)" fill="#563008"/>
          <ellipse id="Ellipse_4" data-name="Ellipse 4" cx="0.142" cy="0.199" rx="0.142" ry="0.199" transform="translate(1.244)" fill="#563008"/>
          <ellipse id="Ellipse_5" data-name="Ellipse 5" cx="0.142" cy="0.199" rx="0.142" ry="0.199" transform="translate(1.58 0.042)" fill="#563008"/>
          <path id="Path_7239" data-name="Path 7239" d="M244.067,234.6l-.756,1.2-.234-.164.756-1.2Z" transform="translate(-242.598 -234.029)" fill="#563008"/>
        </g>
      </g>
      <g id="Group_251" data-name="Group 251" transform="translate(0 0.161)">
        <g id="Group_250" data-name="Group 250">
          <path id="Path_7240" data-name="Path 7240" d="M224.268,234.051l-1.356,1.329-.191-.216,1.356-1.329Z" transform="translate(-222.72 -233.834)" fill="#563008"/>
          <path id="Path_7241" data-name="Path 7241" d="M223.077,233.953l1.191,1.009-.349.457-1.191-1.009Z" transform="translate(-222.724 -233.895)" fill="#563008"/>
        </g>
      </g>
      <g id="Group_253" data-name="Group 253" transform="translate(5.912 0.186)">
        <g id="Group_252" data-name="Group 252">
          <rect id="Rectangle_8" data-name="Rectangle 8" width="1.2" height="0.428" transform="translate(0.091)" fill="#563008"/>
          <rect id="Rectangle_9" data-name="Rectangle 9" width="1.255" height="0.473" transform="translate(0 0.578)" fill="#563008"/>
          <path id="Path_7242" data-name="Path 7242" d="M237.173,235.062l-.37.916-.19-.085.333-.831Z" transform="translate(-235.692 -234.483)" fill="#563008"/>
        </g>
      </g>
      <g id="Group_255" data-name="Group 255" transform="translate(7.773 0.149)">
        <g id="Group_254" data-name="Group 254">
          <path id="Path_7243" data-name="Path 7243" d="M240.021,234.3l-1.257.683-.24-.489,1.257-.683Z" transform="translate(-238.524 -233.811)" fill="#563008"/>
          <rect id="Rectangle_10" data-name="Rectangle 10" width="0.261" height="0.969" transform="translate(0.703 0.599)" fill="#563008"/>
        </g>
      </g>
      <rect id="Rectangle_11" data-name="Rectangle 11" width="1.108" height="0.506" transform="translate(11.777 0.681)" fill="#563008"/>
    </g>
    <g id="Group_274" data-name="Group 274" transform="translate(9.62 24.305)">
      <g id="Group_273" data-name="Group 273">
        <g id="Group_262" data-name="Group 262" transform="translate(10.342)">
          <g id="Group_257" data-name="Group 257" transform="translate(0 0.004)">
            <path id="Path_7244" data-name="Path 7244" d="M237.528,227.366h-.554l.554,1.422h-.288l-.554-1.422h-.418v1.422H236v-2.726h1.526Zm-1.26-1.04v.768h1v-.768Z" transform="translate(-235.885 -225.944)" fill="#dd5934"/>
            <path id="Path_7245" data-name="Path 7245" d="M237.579,228.784h-.541l-.554-1.422h-.22v1.422h-.5v-2.961h1.76v1.539h-.5Zm-.38-.235h.036l-.554-1.422h.609v-1.07H236v2.492h.032v-1.422h.615Zm.063-1.459H236.03v-1h1.232Zm-1-.235h.763v-.533h-.763Z" transform="translate(-235.764 -225.823)" fill="#dd5934"/>
          </g>
          <g id="Group_258" data-name="Group 258" transform="translate(2.501 0.004)">
            <path id="Path_7246" data-name="Path 7246" d="M241.087,226.062h1.6v2.726h-.281v-1.422h-1.053v1.422h-.27Zm.27,1.032h1.053v-.764h-1.053Z" transform="translate(-240.97 -225.944)" fill="#dd5934"/>
            <path id="Path_7247" data-name="Path 7247" d="M242.687,228.784h-.515v-1.422h-.818v1.422h-.5v-2.961h1.837Zm-.28-.235h.046v-2.492h-1.369v2.492h.035v-1.422h1.288Zm0-1.459h-1.288v-1h1.288Zm-1.053-.235h.818v-.529h-.818Z" transform="translate(-240.849 -225.823)" fill="#dd5934"/>
          </g>
          <g id="Group_259" data-name="Group 259" transform="translate(5.08 0.004)">
            <path id="Path_7248" data-name="Path 7248" d="M246.614,228.788h-.284v-2.726h.284Z" transform="translate(-246.213 -225.944)" fill="#dd5934"/>
            <path id="Path_7249" data-name="Path 7249" d="M246.61,228.784h-.518v-2.961h.518Zm-.284-.235h.05v-2.492h-.05Z" transform="translate(-246.092 -225.823)" fill="#dd5934"/>
          </g>
          <g id="Group_260" data-name="Group 260" transform="translate(6.232 0.004)">
            <path id="Path_7250" data-name="Path 7250" d="M248.747,226.062h1.319v.288l-1.112,2.17h1.116v.268h-1.4V228.5l1.112-2.17h-1.038Z" transform="translate(-248.556 -225.944)" fill="#dd5934"/>
            <path id="Path_7251" data-name="Path 7251" d="M250.065,228.784h-1.63l.013-.459,1.024-2h-.963v-.5h1.553l-.013.459-1.024,2h1.04Zm-1.4-.235h1.162v-.033h-1.162Zm0-.143v.054l1.159-2.26v-.054Zm.074-2.316h1.085v-.033h-1.085Z" transform="translate(-248.435 -225.823)" fill="#dd5934"/>
          </g>
          <g id="Group_261" data-name="Group 261" transform="translate(8.497)">
            <path id="Path_7252" data-name="Path 7252" d="M254.862,228.784h-1.585v-2.73l1.585,0Zm-1.323-.268h1.053v-2.19h-1.053Z" transform="translate(-253.16 -225.936)" fill="#dd5934"/>
            <path id="Path_7253" data-name="Path 7253" d="M254.858,228.78h-1.819v-2.966l1.819,0Zm-1.584-.235h1.35v-2.492l-1.35,0Zm1.315-.033H253.3v-2.425h1.287Zm-1.053-.235h.818v-1.955h-.818Z" transform="translate(-253.039 -225.814)" fill="#dd5934"/>
          </g>
        </g>
        <g id="Group_264" data-name="Group 264" transform="translate(0 0.012)">
          <g id="Group_263" data-name="Group 263">
            <path id="Path_7254" data-name="Path 7254" d="M216.079,227.7h-.334l-.514-1.065v2.151h-.257v-2.709h.283l.653,1.352.635-1.352h.334v2.709h-.268v-2.22Z" transform="translate(-214.857 -225.96)" fill="#dd5934"/>
            <path id="Path_7255" data-name="Path 7255" d="M216.875,228.783h-.5v-1.81l-.34.724h-.482l-.324-.669v1.755h-.491v-2.944h.473l.578,1.2.562-1.2h.525Zm-.268-.235h.033v-2.473h-.033Zm-1.636,0h.022v-2.473h-.022Zm.876-1.086h.036l.651-1.387H216.5Zm-.15,0h.035l-.67-1.387h-.034Z" transform="translate(-214.736 -225.839)" fill="#dd5934"/>
          </g>
        </g>
        <g id="Group_266" data-name="Group 266" transform="translate(4.577 1.028)">
          <g id="Group_265" data-name="Group 265">
            <path id="Path_7256" data-name="Path 7256" d="M225.387,229.858h-.215v-1.485h-.68v1.485h-.211v-1.715h.831a.285.285,0,0,1,.276.3Z" transform="translate(-224.163 -228.026)" fill="#dd5934"/>
            <path id="Path_7257" data-name="Path 7257" d="M225.383,229.854h-.45v-1.485h-.446v1.485h-.446V227.9h.948a.4.4,0,0,1,.393.414Z" transform="translate(-224.042 -227.905)" fill="#dd5934"/>
          </g>
        </g>
        <g id="Group_268" data-name="Group 268" transform="translate(6.475 1.028)">
          <g id="Group_267" data-name="Group 267">
            <path id="Path_7258" data-name="Path 7258" d="M228.149,230.277h.834v-.486h-.844v-1.648h.225v1.432h.619v-1.432h.234v2.06a.284.284,0,0,1-.275.3h-.792Z" transform="translate(-228.022 -228.026)" fill="#dd5934"/>
            <path id="Path_7259" data-name="Path 7259" d="M228.82,230.5h-.909v-.457h.834v-.252H227.9V227.9h.459v1.432h.385V227.9h.468v2.177A.4.4,0,0,1,228.82,230.5Z" transform="translate(-227.901 -227.905)" fill="#dd5934"/>
          </g>
        </g>
        <g id="Group_270" data-name="Group 270" transform="translate(2.729 1.028)">
          <g id="Group_269" data-name="Group 269">
            <path id="Path_7260" data-name="Path 7260" d="M220.8,229.858a.281.281,0,0,1-.272-.3v-1.418h1.055v.84h-.827v.66h.837v.215Zm-.045-1.492v.392h.6v-.392Z" transform="translate(-220.406 -228.026)" fill="#dd5934"/>
            <path id="Path_7261" data-name="Path 7261" d="M221.584,229.854h-.909a.4.4,0,0,1-.39-.414V227.9h1.289v1.074h-.827v.425h.837Zm-.837-1.335h.368v-.157h-.368Z" transform="translate(-220.285 -227.905)" fill="#dd5934"/>
          </g>
        </g>
        <g id="Group_272" data-name="Group 272" transform="translate(8.347 1.028)">
          <g id="Group_271" data-name="Group 271">
            <path id="Path_7262" data-name="Path 7262" d="M233.016,229.561a.285.285,0,0,1-.263.3h-.808v-1.1h.84v-.388h-.808v-.222h1.039Zm-.85-.582v.663h.619v-.663Z" transform="translate(-231.828 -228.026)" fill="#dd5934"/>
            <path id="Path_7263" data-name="Path 7263" d="M231.824,229.854h-.117v-1.339h.84v-.153h-.809V227.9h1.274v1.536a.4.4,0,0,1-.374.413Zm.338-.45h.385v-.428h-.385Z" transform="translate(-231.707 -227.905)" fill="#dd5934"/>
          </g>
        </g>
      </g>
    </g>
    <g id="Group_277" data-name="Group 277" transform="translate(12.526 11.942)">
      <g id="Group_275" data-name="Group 275" transform="translate(0)">
        <path id="Path_7264" data-name="Path 7264" d="M222.389,201.495h.77q0,1.864,0,1.906a.258.258,0,0,1-.035.12.175.175,0,0,1-.1.039c-.048,0-.083.006-.107.006h-.206c-.135,0-.272,0-.413-.01v-.072h.208a2.784,2.784,0,0,0,.286.013h.012a.2.2,0,0,0,.083-.023.826.826,0,0,0,.021-.2V202.2h-.556c-.034,0-.081,0-.14-.006a.582.582,0,0,1-.14-.03.2.2,0,0,1-.041-.107.793.793,0,0,1-.009-.118v-.375h-.22a.972.972,0,0,1-.03.284.664.664,0,0,1-.113.248.858.858,0,0,1-.256.18,2.106,2.106,0,0,1-.291.1h-.084V203.6h-.256v-2.105h.69q-.122-.264-.226-.457h-.589v-.065h1.187v-.294h.268v.294h1.186v.065h-.589A2.516,2.516,0,0,1,222.389,201.495Zm-1.365.78c.073-.029.141-.058.2-.088a.749.749,0,0,0,.182-.137.522.522,0,0,0,.11-.229,1.374,1.374,0,0,0,.021-.261h-.514Zm.568,1.11h-.259v-1.009h1.261v.852h-1Zm.836-2.347H221.5q.139.271.217.457h.381A1.991,1.991,0,0,0,222.427,201.038Zm-.092,1.407h-.744v.715h.744Zm-.062-.418a.3.3,0,0,0,.012.03.181.181,0,0,1,.009.023c.006.026.02.038.042.036a.173.173,0,0,0,.08.013h.065q.179,0,.422-.013v-.555h-.63Z" transform="translate(-220.643 -200.679)" fill="#080046"/>
      </g>
      <g id="Group_276" data-name="Group 276" transform="translate(11.769 0.088)">
        <path id="Path_7265" data-name="Path 7265" d="M247.338,201.051h-.577v.33h.506v.646h-1.8v-.49h-.238q.167.549.28.976l-.051.013h-.208c-.012-.057-.022-.1-.03-.124v1.325h-.259v-1.169q-.065.209-.143.4h-.208l-.039-.023a7.87,7.87,0,0,0,.372-1.4h-.321v-.065h.339v-.614h.259v.614h.247v-.091h.506v-.33h-.6v-.069h1.962Zm-1.766,2.539h-.205c0-.013-.012-.032-.024-.059a1.649,1.649,0,0,0,.479-.587h.205l.041.036A1.985,1.985,0,0,1,245.571,203.59Zm1.766-.806h-.827q0,.773,0,.8a.118.118,0,0,1-.027.065.284.284,0,0,1-.158.029h-.205c-.1,0-.193-.011-.288-.02V203.6h.208a.741.741,0,0,1,.164.013l.03-.013a.121.121,0,0,0,.021-.088v-.728h-.877v-.068h1.962Zm-1.808-.463h1.683v.068H245.53Zm.443-.884h-.247v.532h.247Zm.259-.056h.271v-.33h-.271Zm.271.056h-.271v.532h.271Zm.616,1.775.22.343-.042.046h-.208a4.778,4.778,0,0,0-.484-.614l.041-.052h.2Zm-.357-1.243h.247v-.532h-.247Z" transform="translate(-244.572 -200.858)" fill="#080046"/>
      </g>
    </g>
    <g id="Group_289" data-name="Group 289" transform="translate(2.423 16.137)">
      <g id="Group_288" data-name="Group 288">
        <g id="Group_278" data-name="Group 278">
          <path id="Path_7266" data-name="Path 7266" d="M203.751,216.1h4.183v.6h-4.4l-1.084-1.194-1.148,1.221h-.747l1.522-1.631-.629-.693-.356.629h-.656l1.248-2.214h.656l-.255.447h1.376L202.749,215Zm-.109-4.091v.511h-2.989v-.511h1.184v-.6h-.8V210.9h.8v-.437h-1.184v-.511h1.184V209.4h.583v.546h1.221v.511h-1.221v.437h.839v.511h-.839v.6Zm-1.832,1.741-.073.136.592.647.319-.783Zm3.162-2.451.511-1.039h-1.522v-.529h3.918v.529h-1.786l-.51,1.039h2.232v4.255h-3.772V211.3Zm-.364.5v3.235h.428V211.8Zm1.6,0h-.62v.738h.62Zm-.62,1.248v.738h.62v-.738Zm0,1.248v.738h.62v-.738Zm1.658.738V211.8h-.492v3.235Z" transform="translate(-200.271 -209.307)" fill="#563008"/>
          <path id="Path_7267" data-name="Path 7267" d="M201.173,216.725h-1.008L201.777,215l-.481-.53-.318.562H200.1l1.355-2.4h.876l-.255.447h1.354l-.742,1.807.934,1.027h4.235v.792h-4.539l-1.043-1.148Zm-.569-.191h.486l1.19-1.266,1.126,1.238h4.264V216.1h-4.13l-1.071-1.178.68-1.655h-1.4l.255-.447h-.436l-1.141,2.023h.437l.393-.695.777.855Zm7.138-.985h-3.963V211.1h.965l.417-.848H203.7v-.719h4.108v.719h-1.821l-.417.848h2.174Zm-3.772-.191h3.582v-4.065h-2.291l.6-1.23h1.75v-.338h-3.728v.338h1.58l-.6,1.23h-.894Zm3.2-.329h-.682V211.6h.682Zm-.492-.19h.3V211.8h-.3Zm-.547.19h-.81V214.1h.81Zm-.619-.19h.429v-.547h-.429Zm-.547.19h-.618V211.6h.618Zm-.428-.19h.239V211.8h-.239Zm-2.341-.23-.74-.808.131-.246h1.038Zm-.509-.837.445.486.209-.513H201.7Zm4.444.01h-.81v-.929h.81Zm-.619-.191h.429v-.547h-.429Zm.619-1.057h-.81V211.6h.81Zm-.619-.191h.429V211.8h-.429Zm-1.941.173H200.39v-.7h1.184V211.4h-.8v-.7h.8v-.246H200.39v-.7h1.184v-.546h.773v.546h1.221v.7h-1.221v.246h.839v.7h-.839v.411h1.221Zm-2.989-.191h2.8V212h-1.222v-.792H203v-.32h-.839v-.628h1.222v-.32h-1.222V209.4h-.393v.547H200.58v.32h1.184v.628h-.8v.32h.8V212H200.58Z" transform="translate(-200.103 -209.208)" fill="#563008"/>
        </g>
        <g id="Group_279" data-name="Group 279" transform="translate(27.696 0.018)">
          <path id="Path_7268" data-name="Path 7268" d="M263.078,212.883l-.738,1.43,1.312,2.46h-.684l-.965-1.8-.875,1.7h-.638l1.221-2.369-.574-2.251h-3.545v.884l-.356,3.818h-.61l.355-3.845V211.48h4.01l-.119-.464h.629l.119.464h1.813v.574h-1.667l.364,1.44.31-.61Zm-1.185-3.08h1.832v.592h-1.832v.428h-.6V210.4h-2.151v.428h-.6V210.4h-1.832V209.8h1.832v-.364h.6v.364h2.151v-.364h.6Zm-2.132,5.13v.583h.72v.5h-2.588v-3.6h3v.51h-1.13v.529h.975v1.476Zm-.565-2h-.72v.529h.72Zm.975,1.522v-.5h-1.695v.5Zm-1.695.483v.583h.72v-.583Zm4.31-4.264.41.711h-.656l-.41-.711Z" transform="translate(-256.522 -209.344)" fill="#563008"/>
          <path id="Path_7269" data-name="Path 7269" d="M263.7,216.771h-.9l-.906-1.694-.819,1.594h-.852l1.276-2.476-.547-2.144H257.58v.788l-.363,3.913h-.8l.365-3.949v-1.517h3.982l-.118-.465h.825l.119.465h.739l-.445-.771v.306h-.791v-.428h-1.96v.428h-.792v-.428h-1.831v-.783h1.831v-.364h.792v.364h1.96v-.364h.791v.364h1.832v.783H261.88v.083h.854l.467.811h.219v.765h-1.64l.272,1.074.221-.436h.853l-.787,1.525Zm-.785-.19h.467l-1.261-2.364.69-1.336h-.423l-.4.785-.457-1.8h1.694v-.384h-1.792l-.118-.465h-.432l.118.465h-4.037v1.335l-.346,3.75h.419l.347-3.732v-.97H261.1l.6,2.357-.017.032-1.149,2.23h.423l.931-1.814Zm-.43-5.394h.436l-.3-.52h-.436Zm-1.208-.556h.411V210.2h1.831v-.4H261.69v-.365h-.411v.365h-2.341v-.365h-.411v.365H256.7v.4h1.832v.428h.411V210.2h2.341Zm-.811,5.385H257.69v-3.79h3.188v.7h-1.13v.338h.975v1.667h-.975v.392h.72Zm-2.588-.191h2.4v-.31h-.72v-.774h.975v-1.285h-.975v-.72h1.13v-.32h-2.807Zm1.3-.31h-.91v-.774h.91Zm-.72-.191h.53v-.392h-.53Zm1.695-.875h-1.885v-.692h1.885Zm-1.695-.191h1.505v-.31h-1.505Zm.72-.8h-.91v-.72h.91Zm-.72-.191h.53v-.338h-.53Z" transform="translate(-256.414 -209.245)" fill="#563008"/>
        </g>
        <g id="Group_280" data-name="Group 280" transform="translate(9.358 0.568)">
          <path id="Path_7270" data-name="Path 7270" d="M219.129,212.668l7.126-.419a3.535,3.535,0,0,1-2.459,3.277s.373-1.231-.112-1.417l-4.4.3Z" transform="translate(-219.129 -211.321)" fill="#dd5934"/>
          <path id="Path_7271" data-name="Path 7271" d="M221.565,210.4s.186,6.452,2.574,7.012a34.927,34.927,0,0,1-.671-7.049Z" transform="translate(-220.367 -210.363)" fill="#dd5934"/>
        </g>
        <g id="Group_281" data-name="Group 281" transform="translate(19.064 1.886)">
          <path id="Path_7272" data-name="Path 7272" d="M239.259,214.38l-.4-.454.77-.883.4.454Z" transform="translate(-238.863 -213.043)" fill="#563008"/>
          <path id="Path_7273" data-name="Path 7273" d="M240.044,214.794l-.4.454-.77-.883.4-.454Z" transform="translate(-238.871 -213.484)" fill="#563008"/>
        </g>
        <g id="Group_282" data-name="Group 282" transform="translate(20.233 1.886)">
          <path id="Path_7274" data-name="Path 7274" d="M241.636,214.38l-.4-.454.77-.883.4.454Z" transform="translate(-241.24 -213.043)" fill="#563008"/>
          <path id="Path_7275" data-name="Path 7275" d="M242.421,214.794l-.4.454-.77-.883.4-.454Z" transform="translate(-241.248 -213.484)" fill="#563008"/>
        </g>
        <g id="Group_283" data-name="Group 283" transform="translate(22.628 1.886)">
          <path id="Path_7276" data-name="Path 7276" d="M246.505,214.38l-.4-.454.77-.883.4.454Z" transform="translate(-246.109 -213.043)" fill="#563008"/>
          <path id="Path_7277" data-name="Path 7277" d="M247.29,214.794l-.4.454-.77-.883.4-.454Z" transform="translate(-246.117 -213.484)" fill="#563008"/>
        </g>
        <g id="Group_284" data-name="Group 284" transform="translate(23.786 1.886)">
          <path id="Path_7278" data-name="Path 7278" d="M248.861,214.38l-.4-.454.77-.883.4.454Z" transform="translate(-248.465 -213.043)" fill="#563008"/>
          <path id="Path_7279" data-name="Path 7279" d="M249.646,214.794l-.4.454-.77-.883.4-.454Z" transform="translate(-248.473 -213.484)" fill="#563008"/>
        </g>
        <g id="Group_286" data-name="Group 286" transform="translate(18.178 0.067)">
          <g id="Group_285" data-name="Group 285">
            <path id="Path_7280" data-name="Path 7280" d="M241.295,210.474h3.573v1.393h-.64v-.881H241.3v1.9h-.567v-1.9H237.9v.881h-.64v-1.393h3.471v-.453h-2.77v-.483h6.21v.483h-2.872Z" transform="translate(-237.161 -209.443)" fill="#563008"/>
            <path id="Path_7281" data-name="Path 7281" d="M241.3,212.879h-.757v-1.9h-2.652v.881h-.83V210.28h3.471v-.263h-2.771v-.673h6.4v.673h-2.872v.263h3.573v1.584h-.83v-.881H241.3Zm-.568-.19h.377v-1.9h3.113v.882h.45v-1.2H241.1v-.644h2.872v-.292h-6.02v.292h2.771v.644h-3.471v1.2h.45v-.882h3.032Z" transform="translate(-237.062 -209.344)" fill="#563008"/>
          </g>
        </g>
        <g id="Group_287" data-name="Group 287" transform="translate(18.097 3.84)">
          <path id="Path_7282" data-name="Path 7282" d="M239.457,220.754l-2.56-3.738h.944l2.312,3.375Z" transform="translate(-236.897 -217.016)" fill="#563008"/>
          <rect id="Rectangle_12" data-name="Rectangle 12" width="7.001" height="0.722" transform="translate(0.516 0.002)" fill="#563008"/>
          <rect id="Rectangle_13" data-name="Rectangle 13" width="4.763" height="0.617" transform="translate(1.662 1.265)" fill="#563008"/>
          <rect id="Rectangle_14" data-name="Rectangle 14" width="3.227" height="0.805" transform="translate(3.555 3.531) rotate(-90)" fill="#563008"/>
          <path id="Path_7283" data-name="Path 7283" d="M246.587,220.411l2.165-3.4h1.078l-2.543,3.737Z" transform="translate(-241.821 -217.016)" fill="#563008"/>
          <rect id="Rectangle_15" data-name="Rectangle 15" width="2.899" height="0.649" transform="translate(2.567 3.088)" fill="#563008"/>
        </g>
      </g>
    </g>
    <g id="Group_290" data-name="Group 290" transform="translate(17.661 8.839)">
      <path id="Path_7284" data-name="Path 7284" d="M233.529,198.361h-2.445l1.264-3.992h2.445Z" transform="translate(-231.084 -194.369)" fill="#e6b222"/>
      <path id="Path_7285" data-name="Path 7285" d="M232.429,204.68l4.378-4.882H233.84Z" transform="translate(-231.768 -197.128)" fill="#e6b222"/>
    </g>
    <g id="Group_295" data-name="Group 295" transform="translate(6.215 24.877)">
      <circle id="Ellipse_6" data-name="Ellipse 6" cx="1.199" cy="1.199" r="1.199" fill="#f5e0bb"/>
      <g id="Group_294" data-name="Group 294" transform="translate(0.13 0.092)">
        <g id="Group_291" data-name="Group 291" transform="translate(0 0.027)">
          <circle id="Ellipse_7" data-name="Ellipse 7" cx="0.443" cy="0.443" r="0.443" transform="translate(0.652 0.036)" fill="#563008"/>
          <path id="Path_7286" data-name="Path 7286" d="M208.738,227.733a.872.872,0,0,0-.558,1.024,1.1,1.1,0,0,1,.635-1.511.774.774,0,0,1,.457.024C209.5,227.36,208.738,227.733,208.738,227.733Z" transform="translate(-208.076 -227.221)" fill="#563008"/>
        </g>
        <g id="Group_292" data-name="Group 292" transform="translate(1.09)">
          <circle id="Ellipse_8" data-name="Ellipse 8" cx="0.443" cy="0.443" r="0.443" transform="translate(0 0.962)" fill="#563008"/>
          <path id="Path_7287" data-name="Path 7287" d="M211.037,228.189a.872.872,0,0,0-.557-1.024,1.1,1.1,0,0,1,.925,1.354.775.775,0,0,1-.268.372C210.939,229.028,211.037,228.189,211.037,228.189Z" transform="translate(-210.387 -227.165)" fill="#563008"/>
        </g>
        <g id="Group_293" data-name="Group 293" transform="translate(0.14 0.962)">
          <circle id="Ellipse_9" data-name="Ellipse 9" cx="0.443" cy="0.443" r="0.443" fill="#563008"/>
          <path id="Path_7288" data-name="Path 7288" d="M209.079,230.443a.87.87,0,0,0,1.164-.059,1.094,1.094,0,0,1-1.62.247.771.771,0,0,1-.219-.4C208.365,229.991,209.079,230.443,209.079,230.443Z" transform="translate(-208.382 -229.649)" fill="#563008"/>
        </g>
      </g>
    </g>
    <g id="Group_300" data-name="Group 300" transform="translate(31.328 24.873)">
      <circle id="Ellipse_10" data-name="Ellipse 10" cx="1.199" cy="1.199" r="1.199" fill="#f5e0bb"/>
      <g id="Group_299" data-name="Group 299" transform="translate(0.13 0.092)">
        <g id="Group_296" data-name="Group 296" transform="translate(0 0.028)">
          <circle id="Ellipse_11" data-name="Ellipse 11" cx="0.443" cy="0.443" r="0.443" transform="translate(0.652 0.036)" fill="#563008"/>
          <path id="Path_7289" data-name="Path 7289" d="M259.8,227.726a.871.871,0,0,0-.558,1.024,1.1,1.1,0,0,1,.635-1.511.772.772,0,0,1,.457.023C260.555,227.352,259.8,227.726,259.8,227.726Z" transform="translate(-259.135 -227.213)" fill="#563008"/>
        </g>
        <g id="Group_297" data-name="Group 297" transform="translate(1.09)">
          <circle id="Ellipse_12" data-name="Ellipse 12" cx="0.443" cy="0.443" r="0.443" transform="translate(0 0.963)" fill="#563008"/>
          <path id="Path_7290" data-name="Path 7290" d="M262.1,228.181a.871.871,0,0,0-.557-1.024,1.1,1.1,0,0,1,.925,1.354.775.775,0,0,1-.268.372C262,229.02,262.1,228.181,262.1,228.181Z" transform="translate(-261.446 -227.157)" fill="#563008"/>
        </g>
        <g id="Group_298" data-name="Group 298" transform="translate(0.14 0.962)">
          <circle id="Ellipse_13" data-name="Ellipse 13" cx="0.443" cy="0.443" r="0.443" fill="#563008"/>
          <path id="Path_7291" data-name="Path 7291" d="M260.137,230.436a.871.871,0,0,0,1.164-.058,1.094,1.094,0,0,1-1.62.247.774.774,0,0,1-.219-.4C259.424,229.984,260.137,230.436,260.137,230.436Z" transform="translate(-259.44 -229.642)" fill="#563008"/>
        </g>
      </g>
    </g>
    <path id="Path_7292" data-name="Path 7292" d="M202.388,194.972a17.045,17.045,0,0,1,16.479-12.538s12.6-.372,16.449,12.536c.038.129,0,0,0,0h-.534s.074.252,0,0a16.668,16.668,0,0,0-15.915-12s-12.04-.413-15.923,12" transform="translate(-198.841 -179.465)" fill="#dd5934"/>
    <path id="Path_7293" data-name="Path 7293" d="M202.953,225.756a16.562,16.562,0,0,0,31.9,0c.029-.094-.029.095,0,0l.552,0s.05-.181,0,0A17.059,17.059,0,0,1,218.9,238.4s-12.671.385-16.482-12.647c-.027-.089.025.091,0,0" transform="translate(-198.852 -201.437)" fill="#dd5934"/>
  </g>
</svg>
