<svg xmlns="http://www.w3.org/2000/svg" width="20" height="17.314" viewBox="0 0 20 17.314">
  <path id="Path_11025" data-name="Path 11025" d="M10.732,25.187a.943.943,0,0,0,.613.825.849.849,0,0,0,.317.063.936.936,0,0,0,.7-.317l1.861-2.051,3.553,2.474a1.064,1.064,0,0,0,.571.169,1.016,1.016,0,0,0,.973-.783L22.681,9.684a.519.519,0,0,0-.19-.529.567.567,0,0,0-.55-.085L3.287,17.234a1,1,0,0,0-.592.973.972.972,0,0,0,.7.888l7.127,2.157Zm1.057-.338-.148-2.94,1.734,1.206Zm6.535.4-6.472-4.462,9.39-9.369Zm1.8-14.212L10.88,20.259,3.858,18.144Z" transform="translate(-2.694 -9.036)" fill="#fff"/>
</svg>
