<svg xmlns="http://www.w3.org/2000/svg" width="34" height="30" viewBox="0 0 34 30"><g transform="translate(6 5)"><rect width="34" height="30" transform="translate(-6 -5)" fill="none"/><path d="M98.8,350.322a2.145,2.145,0,1,0,2.145,2.145A2.145,2.145,0,0,0,98.8,350.322Zm0,3.337a1.192,1.192,0,1,1,1.192-1.192A1.192,1.192,0,0,1,98.8,353.659Z" transform="translate(-92.243 -334.613)" fill="#fff"/><path d="M297.329,350.322a2.145,2.145,0,1,0,2.145,2.145A2.145,2.145,0,0,0,297.329,350.322Zm0,3.337a1.192,1.192,0,1,1,1.192-1.192A1.192,1.192,0,0,1,297.329,353.659Z" transform="translate(-281.716 -334.613)" fill="#fff"/><path d="M20.453,9.222a.6.6,0,0,0-.381-.191L4.553,8.817,4.124,7.506a2.193,2.193,0,0,0-2.05-1.478H.477a.477.477,0,0,0,0,.954h1.6a1.24,1.24,0,0,1,1.144.834l3.027,9.13-.238.548a2.288,2.288,0,0,0,.215,2.074,2.217,2.217,0,0,0,1.788,1h9.273a.477.477,0,1,0,0-.954H8.01a1.216,1.216,0,0,1-1-.572A1.311,1.311,0,0,1,6.889,17.9l.191-.429,10.036-1.049a2.622,2.622,0,0,0,2.265-2l1.144-4.791A.405.405,0,0,0,20.453,9.222Zm-2,4.982A1.621,1.621,0,0,1,17,15.468L7.08,16.493,4.863,9.771l14.613.215Z" transform="translate(0 -6.028)" fill="#fff"/></g></svg>