<svg xmlns="http://www.w3.org/2000/svg" width="34" height="30" viewBox="0 0 34 30"><g transform="translate(7 5)"><rect width="34" height="30" transform="translate(-7 -5)" fill="none"/><path d="M18.437,7.409V4.324a2.2,2.2,0,0,0-2.2-2.2h-.579V1.78a1.789,1.789,0,0,0-3.578,0v.347H5.62V1.78a1.789,1.789,0,0,0-3.578,0v.347H1.463a2.2,2.2,0,0,0-2.2,2.2V17.8a2.2,2.2,0,0,0,2.2,2.2H16.239a2.2,2.2,0,0,0,2.2-2.2V7.726A.5.5,0,0,0,18.437,7.409ZM13.872.991a.789.789,0,0,1,.788.789V2.833a.788.788,0,0,1-1.577,0V1.78A.789.789,0,0,1,13.872.991ZM3.042,1.78a.788.788,0,0,1,1.577,0V2.833a.788.788,0,0,1-1.577,0ZM1.463,3.127h.6a1.789,1.789,0,0,0,3.529,0h6.512a1.789,1.789,0,0,0,3.529,0h.6a1.2,1.2,0,0,1,1.2,1.2V7.067H.266V4.324A1.2,1.2,0,0,1,1.463,3.127ZM16.239,19H1.463a1.2,1.2,0,0,1-1.2-1.2V8.068h17.17V17.8A1.2,1.2,0,0,1,16.239,19Zm0,0" transform="translate(0.734)" fill="#fff"/><path d="M161.5,276.779l-3.284,3.207-1.667-1.628a.5.5,0,0,0-.706.709l.007.007,2.017,1.969a.5.5,0,0,0,.7,0l3.634-3.548a.5.5,0,0,0-.7-.719l0,0Zm0,0" transform="translate(-149.423 -265.545)" fill="#fff"/></g></svg>