<svg xmlns="http://www.w3.org/2000/svg" width="121.803" height="121.802" viewBox="0 0 121.803 121.802"><g opacity="0.104"><g transform="translate(62.095)"><rect width="11.941" height="59.707" transform="translate(59.707 0) rotate(90)" fill="#d7ad7d"/><rect width="11.941" height="59.707" transform="translate(59.707 23.883) rotate(90)" fill="#d7ad7d"/><rect width="11.941" height="59.707" transform="translate(59.707 47.766) rotate(90)" fill="#d7ad7d"/></g><g transform="translate(62.096 62.095)"><rect width="11.941" height="59.707" transform="translate(59.707 59.707) rotate(180)" fill="#d7ad7d"/><rect width="11.941" height="59.707" transform="translate(35.824 59.707) rotate(180)" fill="#d7ad7d"/><rect width="11.941" height="59.707" transform="translate(11.941 59.707) rotate(180)" fill="#d7ad7d"/></g><g transform="translate(0 62.095)"><rect width="11.941" height="59.707" transform="translate(0 59.707) rotate(-90)" fill="#d7ad7d"/><rect width="11.941" height="59.707" transform="translate(0 35.824) rotate(-90)" fill="#d7ad7d"/><rect width="11.941" height="59.707" transform="translate(0 11.941) rotate(-90)" fill="#d7ad7d"/></g><g transform="translate(0)"><rect width="11.941" height="59.707" transform="translate(59.707 59.707) rotate(180)" fill="#d7ad7d"/><rect width="11.941" height="59.707" transform="translate(35.824 59.707) rotate(180)" fill="#d7ad7d"/><rect width="11.941" height="59.707" transform="translate(11.941 59.707) rotate(180)" fill="#d7ad7d"/></g></g></svg>