<svg xmlns="http://www.w3.org/2000/svg" width="15" height="28.012" viewBox="0 0 15 28.012"><g transform="translate(0.02)"><path d="M15.054,4.709l.013-.031a.389.389,0,0,1,.026-.044V4.616a.4.4,0,0,1,.128-.115l.066-.035L25.383.332a.459.459,0,0,1,.658.42V4.426h3.52a.462.462,0,0,1,.459.459V27.84a.462.462,0,0,1-.459.459H15.483a.462.462,0,0,1-.459-.459V4.881a.268.268,0,0,1,0-.084A.7.7,0,0,1,15.054,4.709ZM25.123,1.428l-7.3,2.994h7.3ZM15.942,27.376H29.1V5.34H15.942Z" transform="translate(-15.04 -0.287)"/><path d="M30.367,45.919H22.409a.459.459,0,0,1,0-.919h7.958a.459.459,0,0,1,0,.919Z" transform="translate(-18.97 -25.255)"/><path d="M27.029,50.54h3.979a.459.459,0,0,1,0,.919H27.029a.459.459,0,0,1,0-.919Z" transform="translate(-21.568 -28.348)"/><path d="M26.1,35.846h-.808a4.044,4.044,0,0,0-3.635-4.018V31.4a.4.4,0,0,0-.808,0v.424a4.044,4.044,0,0,0-3.635,4.018H16.4a.4.4,0,1,0,0,.808H26.1a.4.4,0,1,0,0-.808Zm-8.077,0a3.231,3.231,0,0,1,6.462,0Z" transform="translate(-13.728 -21.25)"/></g></svg>