<svg xmlns="http://www.w3.org/2000/svg" width="20.833" height="25" viewBox="0 0 20.833 25"><path d="M7.036,23.914v0a.015.015,0,0,1,0,.012A.407.407,0,0,0,7,24.067c0,.006,0,.011,0,.017v2.5A.417.417,0,0,0,7.418,27h20a.417.417,0,0,0,.417-.417v-2.5c0-.006,0-.011,0-.016a.405.405,0,0,0-.028-.136.031.031,0,0,0,0-.012v0l-1.632-3.669V7.944l1.612-2.819c.005-.009.008-.02.012-.029s.01-.023.014-.035a.416.416,0,0,0,.029-.142v-2.5A.417.417,0,0,0,27.417,2h-20A.417.417,0,0,0,7,2.417v2.5a.417.417,0,0,0,.028.14c0,.012.009.023.014.035s.007.02.012.029L8.667,7.944v12.3ZM27,26.167H7.833V24.5H27ZM7.833,2.833H27V4.5H7.833ZM9.445,7.625,8.135,5.333H26.7l-1.31,2.292a.417.417,0,0,0-.055.208v12.5a.417.417,0,0,0,.036.169l1.406,3.164H8.058L9.464,20.5a.417.417,0,0,0,.036-.169V7.833A.417.417,0,0,0,9.445,7.625Z" transform="translate(-7 -2)" fill="#fff"/><path d="M21.274,25.257l-.327.766,1.15.491-1.083.625.417.722,1.083-.625-.15,1.241.827.1.224-1.861,1.72-.993v1.987l-1.5,1.125.5.667,1-.75V30h.833V28.75l1,.75.5-.667-1.5-1.125V25.722l1.72.993.224,1.861.827-.1-.15-1.241,1.083.625.417-.722-1.083-.625,1.15-.491-.327-.766-1.724.736L26.386,25l1.721-.993,1.724.736.327-.766-1.15-.491,1.083-.625-.417-.722-1.083.625.15-1.241-.827-.1-.224,1.861-1.72.993V22.292l1.5-1.125-.5-.667-1,.75V20h-.833v1.25l-1-.75-.5.667,1.5,1.125v1.987l-1.72-.993-.224-1.861-.827.1.15,1.241-1.083-.625-.417.722,1.083.625-1.15.491.327.766L23,24.007,24.719,25,23,25.993Z" transform="translate(-15.136 -12.5)" fill="#fff"/></svg>