<svg xmlns="http://www.w3.org/2000/svg" width="25" height="25" viewBox="0 0 25 25"><rect width="25" height="25" fill="rgba(253,73,198,0.35)" opacity="0"/><g transform="translate(2.5 2.5)"><path d="M5-.75H15A5.757,5.757,0,0,1,20.75,5V15A5.757,5.757,0,0,1,15,20.75H5A5.757,5.757,0,0,1-.75,15V5A5.757,5.757,0,0,1,5-.75Zm10,20A4.255,4.255,0,0,0,19.25,15V5A4.255,4.255,0,0,0,15,.75H5A4.255,4.255,0,0,0,.75,5V15A4.255,4.255,0,0,0,5,19.25Z" fill="#d7ad7d"/><path d="M10.7,5.881a4.774,4.774,0,0,1,.7.052,4.75,4.75,0,0,1,1.439,8.941,4.772,4.772,0,0,1-2.135.508,4.75,4.75,0,0,1,0-9.5Zm0,8a3.25,3.25,0,0,0,3.214-3.727A3.23,3.23,0,0,0,11.18,7.416a3.27,3.27,0,0,0-.478-.035,3.25,3.25,0,0,0,0,6.5Z" transform="translate(-0.659 -0.674)" fill="#d7ad7d"/><path d="M.01.75H0A.75.75,0,0,1-.75,0,.75.75,0,0,1,0-.75H.01A.75.75,0,0,1,.76,0,.75.75,0,0,1,.01.75Z" transform="translate(15.5 4.5)" fill="#d7ad7d"/></g></svg>