<svg xmlns="http://www.w3.org/2000/svg" width="25" height="25" viewBox="0 0 25 25"><rect width="25" height="25" fill="rgba(253,73,198,0.35)" opacity="0"/><g transform="translate(7.5 2.5)"><path d="M13.834.917h3a.75.75,0,0,1,.75.75v4a.75.75,0,0,1-.75.75h-3a.25.25,0,0,0-.25.25v2.25h3.25a.75.75,0,0,1,.728.932l-1,4a.75.75,0,0,1-.728.568h-2.25v7.25a.75.75,0,0,1-.75.75h-4a.75.75,0,0,1-.75-.75v-7.25H5.833a.75.75,0,0,1-.75-.75v-4a.75.75,0,0,1,.75-.75h2.25V6.666A5.757,5.757,0,0,1,13.834.917Zm2.25,1.5h-2.25A4.255,4.255,0,0,0,9.583,6.666v3a.75.75,0,0,1-.75.75H6.583v2.5h2.25a.75.75,0,0,1,.75.75v7.25h2.5v-7.25a.75.75,0,0,1,.75-.75h2.414l.625-2.5H12.834a.75.75,0,0,1-.75-.75v-3a1.752,1.752,0,0,1,1.75-1.75h2.25Z" transform="translate(-5.833 -1.667)" fill="#d7ad7d"/></g></svg>