<svg id="shopping-cart" xmlns="http://www.w3.org/2000/svg" width="20" height="19.465" viewBox="0 0 20 19.465">
  <g id="Group_1038" data-name="Group 1038" transform="translate(0 0)">
    <g id="Group_1037" data-name="Group 1037">
      <path id="Path_10724" data-name="Path 10724" d="M98.741,350.322a2.088,2.088,0,1,0,2.088,2.088A2.088,2.088,0,0,0,98.741,350.322Zm0,3.248a1.16,1.16,0,1,1,1.16-1.16A1.16,1.16,0,0,1,98.741,353.57Z" transform="translate(-92.361 -335.033)"/>
      <path id="Path_10725" data-name="Path 10725" d="M297.272,350.322a2.088,2.088,0,1,0,2.088,2.088A2.088,2.088,0,0,0,297.272,350.322Zm0,3.248a1.16,1.16,0,1,1,1.16-1.16A1.16,1.16,0,0,1,297.272,353.57Z" transform="translate(-282.076 -335.033)"/>
      <path id="Path_10726" data-name="Path 10726" d="M19.905,9.137a.58.58,0,0,0-.371-.186l-15.1-.209L4.014,7.466a2.134,2.134,0,0,0-2-1.438H.464a.464.464,0,1,0,0,.928H2.018a1.206,1.206,0,0,1,1.114.812l2.946,8.886-.232.534a2.227,2.227,0,0,0,.209,2.018,2.158,2.158,0,0,0,1.74.974H16.82a.464.464,0,1,0,0-.928H7.8a1.183,1.183,0,0,1-.974-.557A1.276,1.276,0,0,1,6.7,17.581l.186-.418,9.767-1.021a2.552,2.552,0,0,0,2.2-1.949l1.114-4.663A.394.394,0,0,0,19.905,9.137Zm-1.949,4.849a1.578,1.578,0,0,1-1.415,1.23l-9.651,1L4.733,9.67l14.221.209Z" transform="translate(0 -6.028)"/>
    </g>
  </g>
</svg>
