<svg xmlns="http://www.w3.org/2000/svg" width="18" height="16.023" viewBox="0 0 18 16.023"><path d="M45.231,29.509a.736.736,0,0,0-.4-.109A6.71,6.71,0,0,0,43,29.911a11.253,11.253,0,0,1-1.423.438,13.6,13.6,0,0,1-2.044.182c-.511-.036-.949-.036-1.387-.036A15.683,15.683,0,0,0,33,31.3a6.483,6.483,0,0,0-4.562,5.475,4.993,4.993,0,0,0,.62,2.883,1.281,1.281,0,0,0,.182.292A14.494,14.494,0,0,0,27.492,44.8a.54.54,0,0,0,.438.62H28a.549.549,0,0,0,.547-.474,12.6,12.6,0,0,1,1.423-4.234,3.506,3.506,0,0,0,.73.474,6.356,6.356,0,0,0,2.7.62h0a6.661,6.661,0,0,0,1.46-.182c5.146-1.2,10.293-9.855,10.585-11.424A.553.553,0,0,0,45.231,29.509ZM34.646,40.642a4.534,4.534,0,0,1-1.2.146h0a5.358,5.358,0,0,1-2.226-.511,2.8,2.8,0,0,1-.62-.438c1.569-2.226,4.015-3.869,7.482-5.073a.543.543,0,1,0-.365-1.022,15.848,15.848,0,0,0-7.847,5.219,3.744,3.744,0,0,1-.4-2.08,5.218,5.218,0,0,1,3.8-4.562,14.434,14.434,0,0,1,4.781-.766c.4,0,.839,0,1.387.036a17.231,17.231,0,0,0,2.3-.182c.4-.073.985-.292,1.606-.474.255-.073.547-.182.839-.292C43.187,32.831,38.843,39.656,34.646,40.642Z" transform="translate(-27.487 -29.4)" fill="#92d69e"/></svg>