<svg xmlns="http://www.w3.org/2000/svg" width="18" height="17.443" viewBox="0 0 18 17.443"><path d="M17.092,3.341a6.041,6.041,0,0,1-.131,8.372,14.2,14.2,0,0,0-2.809,4.139,7.813,7.813,0,0,1-6.461,4.4c-1.442.187-2.547-.393-2.716-1.817A6.083,6.083,0,0,1,7.54,12.349a6.5,6.5,0,0,0,2.641-3.39A7.209,7.209,0,0,1,13.927,4.82a4.171,4.171,0,0,0,1.835-1.48.921.921,0,0,1,.543-.487C16.567,2.779,16.9,3.116,17.092,3.341Z" transform="translate(-4.923 -2.843)"/><path d="M64.735,52.456a2.233,2.233,0,0,0,.141,2.82,2,2,0,0,0,2.485.529,4.244,4.244,0,0,0,1.392-1.234,4.091,4.091,0,0,0,.846-3.648,3.1,3.1,0,0,1-.106-.705c.018-.212-.106-.317-.335-.317a4.275,4.275,0,0,0-2.767.776A5.656,5.656,0,0,0,64.735,52.456Z" transform="translate(-51.728 -39.52)"/></svg>