<svg xmlns="http://www.w3.org/2000/svg" width="18" height="18" viewBox="0 0 18 18"><g transform="translate(-8.013 -8.033)"><path d="M17.833,26a9,9,0,1,1,8.143-8.143A9,9,0,0,1,17.833,26ZM17.9,8.924a8.143,8.143,0,1,0,7.217,7.217A8.143,8.143,0,0,0,17.9,8.924Z" fill="#d8a469"/><path d="M30.219,40.731a.857.857,0,0,1-.594-.238l-3.143-3.011a.859.859,0,1,1,1.189-1.239l2.537,2.434,4.748-4.691a.857.857,0,0,1,1.2,1.219l-5.34,5.278A.857.857,0,0,1,30.219,40.731Z" transform="translate(-14.304 -20.21)" fill="#d8a469"/></g></svg>