<svg xmlns="http://www.w3.org/2000/svg" width="13.299" height="18" viewBox="0 0 13.299 18">
  <g id="Group_1052" data-name="Group 1052" transform="translate(-144.949 -411)">
    <g id="pin" transform="translate(144.949 411)">
      <g id="Group_1051" data-name="Group 1051" transform="translate(0)">
        <g id="Group_1050" data-name="Group 1050">
          <path id="Path_10738" data-name="Path 10738" d="M54.729,0A6.657,6.657,0,0,0,48.08,6.649a7.672,7.672,0,0,0,.564,2.56,10.723,10.723,0,0,0,.769,1.437l4.559,6.908a.867.867,0,0,0,1.515,0l4.559-6.908a10.677,10.677,0,0,0,.769-1.437,7.669,7.669,0,0,0,.564-2.56A6.657,6.657,0,0,0,54.729,0Zm5.364,8.906a9.826,9.826,0,0,1-.7,1.31l-4.559,6.908c-.09.137-.119.137-.208,0l-4.559-6.908a9.83,9.83,0,0,1-.7-1.311,6.964,6.964,0,0,1-.5-2.256,5.867,5.867,0,1,1,11.734,0A6.969,6.969,0,0,1,60.094,8.906Z" transform="translate(-48.08)"/>
          <path id="Path_10739" data-name="Path 10739" d="M115.6,64.008a3.52,3.52,0,1,0,3.52,3.52A3.524,3.524,0,0,0,115.6,64.008Zm0,6.258a2.738,2.738,0,1,1,2.738-2.738A2.741,2.741,0,0,1,115.6,70.266Z" transform="translate(-108.951 -60.879)"/>
        </g>
      </g>
    </g>
  </g>
</svg>
