<svg xmlns="http://www.w3.org/2000/svg" width="20.867" height="20" viewBox="0 0 20.867 20">
  <g id="Group_1400" data-name="Group 1400" transform="translate(-375.341 -188.764)">
    <rect id="Rectangle_479" data-name="Rectangle 479" width="8.296" height="1.166" transform="translate(379.031 192.522)"/>
    <rect id="Rectangle_480" data-name="Rectangle 480" width="8.296" height="1.166" transform="translate(379.031 196.597)"/>
    <path id="Path_11058" data-name="Path 11058" d="M443.955,410.946v-1.166h.158v-.023h7.41l-.241.242a2.747,2.747,0,0,0-.614.947Z" transform="translate(-64.924 -209.109)"/>
    <path id="Path_11059" data-name="Path 11059" d="M376.241,208.764a.906.906,0,0,1-.371-.087.868.868,0,0,1-.529-.79V189.641a.889.889,0,0,1,.877-.877h14.013a.889.889,0,0,1,.877.877v6.544l-.871.871v-7.421H376.212v18.279l3.279-2.981a.908.908,0,0,1,.6-.233h5.359a2.723,2.723,0,0,0,.171.849H380.1l-3.262,2.982A.908.908,0,0,1,376.241,208.764Z"/>
    <path id="Path_11060" data-name="Path 11060" d="M600.018,343.127a.81.81,0,0,1-.564-.222.78.78,0,0,1-.223-.609l.114-1.824v-.01a.69.69,0,0,1,.222-.5L605,334.532a.812.812,0,0,1,1.128,0l1.695,1.695a.808.808,0,0,1,0,1.131l-5.426,5.426a.919.919,0,0,1-.527.23l-1.8.112Zm.137-2.58-.094,1.728,1.736-.095.772-.846-1.6-1.6Zm1.444-1.4,1.611,1.611,3.941-3.967-1.611-1.611Z" transform="translate(-211.847 -137.713)"/>
  </g>
</svg>
