<svg xmlns="http://www.w3.org/2000/svg" width="14" height="13.106" viewBox="0 0 14 13.106"><g transform="translate(0)"><path d="M50.069,22.813a3.639,3.639,0,0,0,.917-2.381c0-1.9-1.711-4.432-2.493-4.432S46,18.529,46,20.432s1.64,3.324,2.493,3.324A2.434,2.434,0,0,0,50.069,22.813Z" transform="translate(-41.498 -16)"/><path d="M17.811,69.276c-1.346-1.346-4.343-1.924-4.9-1.371s.025,3.551,1.371,4.9a3.638,3.638,0,0,0,2.33,1.032c.089,0,.177.01.263.01a2.264,2.264,0,0,0,1.524-.457,2.437,2.437,0,0,0,.447-1.783A3.639,3.639,0,0,0,17.811,69.276Z" transform="translate(-12.706 -60.741)"/><path d="M71.973,69.276a3.639,3.639,0,0,0-1.03,2.331,2.441,2.441,0,0,0,.447,1.783,2.249,2.249,0,0,0,1.524.457,2.4,2.4,0,0,0,.263-.01A3.638,3.638,0,0,0,75.508,72.8c1.346-1.346,1.924-4.343,1.371-4.9S73.319,67.929,71.973,69.276Z" transform="translate(-63.087 -60.741)"/></g></svg>