<svg xmlns="http://www.w3.org/2000/svg" width="19" height="18.975" viewBox="0 0 19 18.975"><path d="M18.255,10.586H13.2V9.11h5.053Zm-.927,7.646H7.665v-5.62a.372.372,0,0,0-.373-.372H3.641a.372.372,0,0,0-.373.372v5.62H1.684v-6.9H17.328Zm-13.314,0H6.919V12.984H4.014ZM.745,9.11H5.8v1.476H.745ZM2.477,4.946H6.806l-.921,3.42H.947ZM5.717,4.2h7.567V3.479H5.717Zm-1.3-1.467H14.625V.744H4.412Zm7.011,2.211.921,3.42H6.657l.921-3.42Zm-4.879,5.64h5.914V9.11H6.543Zm11.505-2.22H13.115l-.921-3.42h4.294ZM19,8.727c0-.005,0-.01,0-.016s0-.02,0-.03l0-.012a.37.37,0,0,0-.026-.083v0l-1.9-4.164a.373.373,0,0,0-.339-.218h-2.7V3.479H15a.372.372,0,0,0,.373-.372V.372A.372.372,0,0,0,15,0H4.039a.372.372,0,0,0-.373.372V3.107a.372.372,0,0,0,.373.372h.932V4.2H2.235a.373.373,0,0,0-.34.22L.032,8.586v0a.354.354,0,0,0-.016.042v0a.353.353,0,0,0-.009.039l0,.013c0,.01,0,.019,0,.029s0,.01,0,.015,0,.007,0,.01v2.22a.372.372,0,0,0,.373.372H.939V18.6a.372.372,0,0,0,.373.372H17.7a.372.372,0,0,0,.373-.372V11.33h.555A.372.372,0,0,0,19,10.958V8.738s0-.007,0-.011ZM9.873,16.1h5.343V12.984H9.873Zm-.745-3.485v3.857a.372.372,0,0,0,.373.372h6.088a.372.372,0,0,0,.373-.372V12.612a.372.372,0,0,0-.373-.372H9.5a.372.372,0,0,0-.373.372Z" fill-rule="evenodd"/></svg>