<svg xmlns="http://www.w3.org/2000/svg" width="16" height="16" viewBox="0 0 16 16"><path d="M13.8,15.5A14.313,14.313,0,0,1-.5,1.2,1.706,1.706,0,0,1,1.2-.5H3.958a1.7,1.7,0,0,1,1.7,1.7,8.03,8.03,0,0,0,.4,2.522l0,.007a1.714,1.714,0,0,1-.4,1.7L4.649,6.8A8.6,8.6,0,0,0,8.2,10.35l1.4-1.058a1.679,1.679,0,0,1,1.148-.43,1.637,1.637,0,0,1,.53.085,8,8,0,0,0,2.513.4,1.706,1.706,0,0,1,1.7,1.7V13.8A1.706,1.706,0,0,1,13.8,15.5ZM1.2.5a.7.7,0,0,0-.7.7A13.311,13.311,0,0,0,13.8,14.5a.7.7,0,0,0,.7-.7V11.049a.7.7,0,0,0-.7-.7,9.007,9.007,0,0,1-2.831-.451.647.647,0,0,0-.211-.033.7.7,0,0,0-.462.158l-.027.027L8.293,11.535l-.282-.15a9.809,9.809,0,0,1-4.4-4.4l-.149-.281L4.913,4.782l.025-.025a.717.717,0,0,0,.175-.722A9.029,9.029,0,0,1,4.662,1.2a.7.7,0,0,0-.7-.7Z" transform="translate(0.5 0.5)"/></svg>