<svg xmlns="http://www.w3.org/2000/svg" width="10.747" height="14.28" viewBox="0 0 10.747 14.28"><path data-name="Subtraction 5" d="M5.375 13.905a.689.689 0 01-.572-.336L1.375 8.374a8.66 8.66 0 01-.576-1.081 5.775 5.775 0 01-.424-1.919 5 5 0 015-5 5 5 0 015 5 5.772 5.772 0 01-.417 1.912l-.007.012a8.234 8.234 0 01-.579 1.081l-3.426 5.193a.7.7 0 01-.571.333zm0-11.179a2.651 2.651 0 00-2.649 2.646 2.651 2.651 0 002.649 2.647 2.65 2.65 0 002.644-2.647 2.65 2.65 0 00-2.644-2.646z" fill="none" stroke="#000" stroke-width=".75"/></svg>