<svg xmlns="http://www.w3.org/2000/svg" width="18" height="18.753" viewBox="0 0 18 18.753"><path d="M17.975 6.947V4.054a2.063 2.063 0 00-2.06-2.06h-.543v-.325a1.677 1.677 0 00-3.355 0v.325h-6.06v-.325a1.677 1.677 0 00-3.355 0v.325H2.06A2.063 2.063 0 000 4.054v12.638a2.063 2.063 0 002.06 2.06h13.855a2.063 2.063 0 002.06-2.06V7.245a.464.464 0 000-.298zM13.695.929a.74.74 0 01.739.739v.988a.74.74 0 01-1.479 0v-.987a.74.74 0 01.74-.74zm-10.154.74a.74.74 0 011.479 0v.988a.74.74 0 01-1.479 0zM2.06 2.932h.566a1.677 1.677 0 003.309 0h6.106a1.677 1.677 0 003.309 0h.566a1.124 1.124 0 011.118 1.122v2.573H.934V4.055A1.124 1.124 0 012.06 2.932zm13.855 14.883H2.06a1.124 1.124 0 01-1.126-1.123V7.565h16.1v9.128a1.124 1.124 0 01-1.119 1.122zm0 0"/><path d="M11.321 10.534l-3.079 3.007-1.563-1.526a.47.47 0 00-.662.665l.006.006 1.891 1.847a.469.469 0 00.655 0l3.407-3.326a.47.47 0 00-.653-.674zm0 0"/></svg>