<svg xmlns="http://www.w3.org/2000/svg" width="23.444" height="20.002" viewBox="0 0 23.444 20.002"><g data-name="cutlery (1)"><g data-name="Group 1054"><g data-name="Group 1053"><path data-name="Path 10751" d="M5.481 1.251A2.872 2.872 0 003.188-.001a2.873 2.873 0 00-2.3 1.249A4.761 4.761 0 000 4.099a4.76 4.76 0 00.891 2.85 3.217 3.217 0 001.179.994l-.674 10.143a1.8 1.8 0 103.585 0L4.306 7.943a3.218 3.218 0 001.175-.994 4.761 4.761 0 00.9-2.85 4.76 4.76 0 00-.9-2.848zM3.83 18.806a.879.879 0 01-1.519-.659l.662-9.958c.071.006.143.01.215.01s.144 0 .215-.01l.662 9.958a.871.871 0 01-.235.659zM3.188 7.281a1.653 1.653 0 01-.479-.072l-.039-.01a3.149 3.149 0 01-1.753-3.1c0-1.753 1.019-3.18 2.271-3.18s2.271 1.427 2.271 3.18-1.018 3.182-2.271 3.182z" fill="#563008"/></g></g><g data-name="Group 1058"><g data-name="Group 1057"><path data-name="Path 10753" d="M12.968-.001a.459.459 0 00-.459.459v5.214H11.34V.461a.459.459 0 00-.917 0v5.211H9.254V.461a.459.459 0 00-.917 0v6.638a1.358 1.358 0 001.356 1.358h.082l-.644 9.674a1.755 1.755 0 103.5 0l-.638-9.674h.082a1.358 1.358 0 001.352-1.358V.461a.459.459 0 00-.459-.462zm-1.475 18.82a.837.837 0 01-1.447-.627l.648-9.735h.376l.648 9.735a.828.828 0 01-.225.627zm1.016-11.72a.439.439 0 01-.439.439H9.693a.439.439 0 01-.439-.439v-.51h3.255z" fill="#563008"/></g></g><g data-name="Group 1064" fill="#563008"><path data-name="Path 10758" d="M20.583 20a.443.443 0 01-.443-.442V.443A.443.443 0 0120.583 0h1.226a.442.442 0 01.442.415l1.19 19.116a.448.448 0 01-.442.469zm.443-18.963v18.079h1.506L21.396.886h-.3z"/><path data-name="Path 10759" d="M16.44 20a.436.436 0 01-.439-.469L17.188.415A.442.442 0 0117.629 0h1.234a.443.443 0 01.443.443v19.115a.443.443 0 01-.443.442zm1.6-18.973l-1.129 18.089h1.5V.885h-.3z"/></g></g></svg>