<svg xmlns="http://www.w3.org/2000/svg" width="80" height="70" viewBox="0 0 80 70">
  <g id="Group_1338" data-name="Group 1338" transform="translate(-188 -18)">
    <rect id="Rectangle_448" data-name="Rectangle 448" width="80" height="70" rx="3" transform="translate(188 18)" fill="#fff" opacity="0.15"/>
    <path id="Path" d="M0,0,5,5,0,10" transform="translate(255.5 48.5)" fill="none" stroke="#fff" stroke-linecap="round" stroke-linejoin="round" stroke-width="1.5"/>
    <g id="logo_raizo_y_w" transform="translate(195 29)">
      <g id="Group_813" data-name="Group 813" transform="translate(0 39.923)">
        <g id="Group_791" data-name="Group 791" transform="translate(27.943 0.299)">
          <g id="Group_786" data-name="Group 786" transform="translate(0 0.012)">
            <path id="Path_7918" data-name="Path 7918" d="M240.588,656.864h-1.5l1.5,3.842h-.778l-1.5-3.842h-1.128v3.842h-.718V653.34h4.122Zm-3.4-2.811v2.075h2.7v-2.075Z" transform="translate(-236.149 -653.023)" fill="#fff"/>
            <path id="Path_7919" data-name="Path 7919" d="M240.806,660.777h-1.459l-1.5-3.842h-.594v3.842H235.9v-8h4.756v4.158h-1.351Zm-1.026-.634h.1l-1.5-3.842h1.644v-2.89h-3.489v6.733h.085V656.3h1.662Zm.17-3.944h-3.329v-2.709h3.329Zm-2.695-.634h2.061v-1.441h-2.061Z" transform="translate(-235.903 -652.777)" fill="#fff"/>
          </g>
          <g id="Group_787" data-name="Group 787" transform="translate(6.757 0.012)">
            <path id="Path_7920" data-name="Path 7920" d="M248.457,653.34h4.332v7.366h-.758v-3.842h-2.845v3.842h-.729Zm.729,2.788h2.845v-2.064h-2.845Z" transform="translate(-248.14 -653.023)" fill="#fff"/>
            <path id="Path_7921" data-name="Path 7921" d="M252.86,660.777h-1.393v-3.842h-2.211v3.842h-1.362v-8h4.965Zm-.759-.634h.125v-6.733h-3.7v6.733h.094V656.3H252.1Zm0-3.944h-3.478v-2.7H252.1Zm-2.844-.634h2.211v-1.43h-2.211Z" transform="translate(-247.895 -652.777)" fill="#fff"/>
          </g>
          <g id="Group_788" data-name="Group 788" transform="translate(13.723 0.012)">
            <path id="Path_7922" data-name="Path 7922" d="M261.589,660.706h-.769V653.34h.769Z" transform="translate(-260.503 -653.023)" fill="#fff"/>
            <path id="Path_7923" data-name="Path 7923" d="M261.66,660.777h-1.4v-8h1.4Zm-.769-.634h.135v-6.733h-.135Z" transform="translate(-260.257 -652.777)" fill="#fff"/>
          </g>
          <g id="Group_789" data-name="Group 789" transform="translate(16.837 0.012)">
            <path id="Path_7924" data-name="Path 7924" d="M266.545,653.34h3.563v.779l-3,5.863h3.014v.724h-3.773v-.779l3-5.862h-2.8Z" transform="translate(-266.029 -653.023)" fill="#fff"/>
            <path id="Path_7925" data-name="Path 7925" d="M270.19,660.777h-4.407V659.6l2.8-5.469h-2.6v-1.359h4.2v1.173l-2.8,5.469h2.812Zm-3.773-.634h3.139v-.091h-3.139Zm0-.386v.145l3.129-6.105v-.144Zm.2-6.256h2.929v-.091h-2.929Z" transform="translate(-265.783 -652.777)" fill="#fff"/>
          </g>
          <g id="Group_790" data-name="Group 790" transform="translate(22.955)">
            <path id="Path_7926" data-name="Path 7926" d="M281.485,660.7H277.2v-7.377l4.282.011Zm-3.573-.724h2.844v-5.917h-2.844Z" transform="translate(-276.886 -653.003)" fill="#fff"/>
            <path id="Path_7927" data-name="Path 7927" d="M281.556,660.768h-4.915v-8.012l4.915.012Zm-4.281-.634h3.647V653.4l-3.647-.009Zm3.553-.091h-3.478v-6.551h3.478Zm-2.845-.634h2.211v-5.283h-2.211Z" transform="translate(-276.641 -652.756)" fill="#fff"/>
          </g>
        </g>
        <g id="Group_793" data-name="Group 793" transform="translate(0 0.333)">
          <g id="Group_792" data-name="Group 792">
            <path id="Path_7928" data-name="Path 7928" d="M189.861,657.763h-.9l-1.388-2.879V660.7h-.694v-7.317h.763l1.765,3.653,1.715-3.653h.9V660.7H191.3v-6Z" transform="translate(-186.56 -653.062)" fill="#fff"/>
            <path id="Path_7929" data-name="Path 7929" d="M192.093,660.767h-1.357v-4.892l-.919,1.959h-1.3l-.872-1.808v4.741h-1.328v-7.951h1.28l1.561,3.233,1.517-3.233h1.42Zm-.724-.634h.09V653.45h-.09Zm-4.421,0h.06V653.45h-.06Zm2.368-2.933h.1l1.759-3.75h-.1Zm-.4,0h.095l-1.812-3.75H187.1Z" transform="translate(-186.314 -652.816)" fill="#fff"/>
          </g>
        </g>
        <g id="Group_794" data-name="Group 794" transform="translate(12.926 0.241)">
          <path id="Path_7930" data-name="Path 7930" d="M209.254,653.231l2.419-.088a1.487,1.487,0,0,1-.865,1.329s.125-.414-.038-.476l-1.479.1Z" transform="translate(-209.254 -652.867)" fill="#fff"/>
          <path id="Path_7931" data-name="Path 7931" d="M209.943,652.666s.063,2.168.865,2.356a11.742,11.742,0,0,1-.225-2.369Z" transform="translate(-209.555 -652.654)" fill="#fff"/>
        </g>
        <g id="Group_796" data-name="Group 796" transform="translate(9.668)">
          <g id="Group_795" data-name="Group 795">
            <ellipse id="Ellipse_82" data-name="Ellipse 82" cx="0.476" cy="0.627" rx="0.476" ry="0.627" transform="translate(0 0.815) rotate(-58.794)" fill="#fff"/>
            <path id="Path_7932" data-name="Path 7932" d="M206.553,654.13l-1.919,1.4-.243-.37,1.919-1.4Z" transform="translate(-203.873 -652.896)" fill="#fff"/>
          </g>
        </g>
        <g id="Group_798" data-name="Group 798" transform="translate(21.434 0.073)">
          <g id="Group_797" data-name="Group 797">
            <ellipse id="Ellipse_83" data-name="Ellipse 83" cx="0.446" cy="0.616" rx="0.446" ry="0.616" transform="matrix(0.918, -0.397, 0.397, 0.918, 0, 0.408)" fill="#fff"/>
            <ellipse id="Ellipse_84" data-name="Ellipse 84" cx="0.215" cy="0.303" rx="0.215" ry="0.303" transform="translate(1.894)" fill="#fff"/>
            <ellipse id="Ellipse_85" data-name="Ellipse 85" cx="0.215" cy="0.303" rx="0.215" ry="0.303" transform="translate(2.405 0.064)" fill="#fff"/>
            <path id="Path_7933" data-name="Path 7933" d="M227.15,653.714,226,655.535l-.356-.249,1.15-1.821Z" transform="translate(-224.916 -652.839)" fill="#fff"/>
          </g>
        </g>
        <g id="Group_800" data-name="Group 800" transform="translate(6.927 0.245)">
          <g id="Group_799" data-name="Group 799">
            <path id="Path_7934" data-name="Path 7934" d="M200.962,652.989l-2.064,2.022-.291-.329,2.064-2.022Z" transform="translate(-198.607 -652.66)" fill="#fff"/>
            <path id="Path_7935" data-name="Path 7935" d="M199.148,652.818l1.812,1.535-.531.695-1.812-1.535Z" transform="translate(-198.611 -652.729)" fill="#fff"/>
          </g>
        </g>
        <g id="Group_802" data-name="Group 802" transform="translate(15.923 0.283)">
          <g id="Group_801" data-name="Group 801">
            <rect id="Rectangle_64" data-name="Rectangle 64" width="1.826" height="0.652" transform="translate(0.138)" fill="#fff"/>
            <rect id="Rectangle_65" data-name="Rectangle 65" width="1.91" height="0.719" transform="translate(0 0.88)" fill="#fff"/>
            <path id="Path_7936" data-name="Path 7936" d="M217.911,654.29l-.563,1.394-.289-.129.507-1.265Z" transform="translate(-215.658 -653.41)" fill="#fff"/>
          </g>
        </g>
        <g id="Group_804" data-name="Group 804" transform="translate(18.755 0.227)">
          <g id="Group_803" data-name="Group 803">
            <path id="Path_7937" data-name="Path 7937" d="M221.875,653.373l-1.913,1.039-.365-.744,1.913-1.039Z" transform="translate(-219.597 -652.629)" fill="#fff"/>
            <rect id="Rectangle_66" data-name="Rectangle 66" width="0.398" height="1.475" transform="translate(1.07 0.912)" fill="#fff"/>
          </g>
        </g>
        <rect id="Rectangle_67" data-name="Rectangle 67" width="1.686" height="0.77" transform="translate(24.847 1.036)" fill="#fff"/>
        <g id="Group_806" data-name="Group 806" transform="translate(12.366 3.077)">
          <g id="Group_805" data-name="Group 805">
            <path id="Path_7938" data-name="Path 7938" d="M211.811,662.881h-.58v-4.013h-1.837v4.013h-.572v-4.632h2.244a.768.768,0,0,1,.745.8Z" transform="translate(-208.505 -657.932)" fill="#fff"/>
            <path id="Path_7939" data-name="Path 7939" d="M211.882,662.952h-1.214V658.94h-1.2v4.012h-1.206v-5.265h2.562a1.079,1.079,0,0,1,1.062,1.117Z" transform="translate(-208.259 -657.687)" fill="#fff"/>
          </g>
        </g>
        <g id="Group_808" data-name="Group 808" transform="translate(17.494 3.077)">
          <g id="Group_807" data-name="Group 807">
            <path id="Path_7940" data-name="Path 7940" d="M217.949,664.015H220.2V662.7h-2.279v-4.45h.606v3.869H220.2v-3.869h.633v5.566a.768.768,0,0,1-.745.8h-2.14Z" transform="translate(-217.606 -657.932)" fill="#fff"/>
            <path id="Path_7941" data-name="Path 7941" d="M219.844,664.687h-2.458v-1.234h2.253v-.681H217.36v-5.084H218.6v3.869h1.039v-3.869h1.266v5.882A1.079,1.079,0,0,1,219.844,664.687Z" transform="translate(-217.36 -657.687)" fill="#fff"/>
          </g>
        </g>
        <g id="Group_810" data-name="Group 810" transform="translate(7.373 3.077)">
          <g id="Group_809" data-name="Group 809">
            <path id="Path_7942" data-name="Path 7942" d="M200.7,662.881a.761.761,0,0,1-.736-.8v-3.831h2.851v2.269h-2.236V662.3h2.262v.582Zm-.121-4.031v1.058h1.629V658.85Z" transform="translate(-199.645 -657.932)" fill="#fff"/>
            <path id="Path_7943" data-name="Path 7943" d="M202.91,662.952h-2.457a1.076,1.076,0,0,1-1.054-1.117v-4.148h3.485v2.9h-2.236v1.148h2.262Zm-2.262-3.607h1v-.424h-1Z" transform="translate(-199.399 -657.687)" fill="#fff"/>
          </g>
        </g>
        <g id="Group_812" data-name="Group 812" transform="translate(22.551 3.077)">
          <g id="Group_811" data-name="Group 811">
            <path id="Path_7944" data-name="Path 7944" d="M229.791,662.08a.77.77,0,0,1-.71.8H226.9V659.9h2.27V658.85h-2.184v-.6h2.807Zm-2.3-1.572V662.3h1.672v-1.791Z" transform="translate(-226.58 -657.932)" fill="#fff"/>
            <path id="Path_7945" data-name="Path 7945" d="M226.652,662.952h-.317v-3.617h2.27v-.414h-2.184v-1.234h3.442v4.148a1.093,1.093,0,0,1-1.012,1.117Zm.915-1.215h1.038v-1.158h-1.038Z" transform="translate(-226.335 -657.687)" fill="#fff"/>
          </g>
        </g>
      </g>
      <g id="logo_raizo" transform="translate(10.734 0)">
        <g id="Group_210" data-name="Group 210" transform="translate(0)">
          <circle id="Ellipse_1" data-name="Ellipse 1" cx="17.273" cy="17.273" r="17.273" transform="translate(0.107 0.107)" fill="#f5e7c8"/>
          <path id="Path_7167" data-name="Path 7167" d="M212.557,211.16a17.381,17.381,0,1,1,17.381-17.381A17.4,17.4,0,0,1,212.557,211.16Zm0-34.547a17.166,17.166,0,1,0,17.166,17.166A17.185,17.185,0,0,0,212.557,176.613Z" transform="translate(-195.176 -176.398)" fill="#dd5934"/>
        </g>
        <path id="Path_7168" data-name="Path 7168" d="M213.171,211.315a16.922,16.922,0,1,1,16.922-16.922A16.942,16.942,0,0,1,213.171,211.315Zm0-32.5a15.58,15.58,0,1,0,15.58,15.58A15.6,15.6,0,0,0,213.171,178.813Z" transform="translate(-195.79 -177.012)" fill="#563008"/>
        <g id="Group_244" data-name="Group 244" transform="translate(4.328 3.871)">
          <path id="Path_7172" data-name="Path 7172" d="M218.345,185.456c-10.794.381-13.043,9.612-13.043,9.612l2.988,0a10.639,10.639,0,0,1,10.051-6.827c7.521-.129,10.1,6.794,10.1,6.794l2.928-.006A13.664,13.664,0,0,0,218.345,185.456Z" transform="translate(-205.302 -185.455)" fill="#563008"/>
          <path id="Path_7173" data-name="Path 7173" d="M218.327,235.419a13.664,13.664,0,0,1-13.025-9.575l2.928-.006s2.578,6.922,10.1,6.794a10.64,10.64,0,0,0,10.051-6.827l2.988,0s-2.248,9.232-13.043,9.612" transform="translate(-205.302 -208.557)" fill="#563008"/>
          <g id="Group_228" data-name="Group 228" transform="translate(2.889 0.5)">
            <g id="Group_211" data-name="Group 211" transform="translate(0 4.283)">
              <path id="Path_7174" data-name="Path 7174" d="M213.717,197.779l-.537.619-.308-.268.1-.111.195.169.341-.394-.94-.816-.268.309-.115-.1.367-.423Z" transform="translate(-212.131 -196.714)" fill="#f5e7c8"/>
              <path id="Path_7175" data-name="Path 7175" d="M213.115,198.381l-.363-.315.144-.167.195.169.293-.338-.884-.768-.268.309-.17-.147.414-.479.028.024,1.2,1.037Zm-.26-.323.253.219.488-.563-1.112-.966-.318.368.059.052.268-.309.028.024.967.839-.389.449L212.9,198Z" transform="translate(-212.062 -196.645)" fill="#f5e7c8"/>
            </g>
            <g id="Group_212" data-name="Group 212" transform="translate(1.134 3.65)">
              <path id="Path_7176" data-name="Path 7176" d="M215.953,195.961a.184.184,0,0,1,.011.256l-.376.353-.494-.526.39-.366-.174-.185-.375.352-.1-.106.483-.453Zm-.655.093.3.316.287-.27-.3-.316Z" transform="translate(-214.785 -195.233)" fill="#f5e7c8"/>
              <path id="Path_7177" data-name="Path 7177" d="M215.518,196.551l-.544-.58.39-.366-.124-.131-.375.352-.149-.159.536-.5.659.7a.219.219,0,0,1,.01.306Zm-.44-.576.444.472.348-.327a.148.148,0,0,0-.012-.2l-.609-.648-.429.4.049.052.375-.352.224.238Zm.446.377-.346-.37.341-.32.346.37Zm-.243-.366.246.262.234-.22-.246-.262Z" transform="translate(-214.716 -195.164)" fill="#f5e7c8"/>
            </g>
            <g id="Group_213" data-name="Group 213" transform="translate(2.088 2.833)">
              <path id="Path_7178" data-name="Path 7178" d="M218.151,194.367l-.289.221.254.331-.117.09-.934-1.219.545-.418.563.735A.182.182,0,0,1,218.151,194.367Zm-.88-.551.506.66.315-.241-.506-.66Z" transform="translate(-217.015 -193.321)" fill="#f5e7c8"/>
              <path id="Path_7179" data-name="Path 7179" d="M217.924,194.991l-.022-.029-.956-1.248.6-.462.586.765a.219.219,0,0,1-.03.31h0l-.259.2.254.331Zm-.875-1.263.889,1.16.059-.045-.253-.331.318-.244a.145.145,0,0,0,.016-.207l-.541-.707Zm.653.731-.551-.719.373-.286.551.719Zm-.448-.705.462.6.256-.2-.461-.6Z" transform="translate(-216.946 -193.252)" fill="#f5e7c8"/>
            </g>
            <g id="Group_214" data-name="Group 214" transform="translate(3.161 2.125)">
              <path id="Path_7180" data-name="Path 7180" d="M220.625,192.5a.184.184,0,0,1-.041.253l-.438.27-.379-.614.456-.281-.133-.216-.439.27-.076-.124.563-.347Zm-.66-.04.227.369.336-.207-.227-.369Z" transform="translate(-219.525 -191.664)" fill="#f5e7c8"/>
              <path id="Path_7181" data-name="Path 7181" d="M220.066,193.008l-.417-.676.456-.281-.095-.153-.438.27-.115-.186.626-.386.505.82a.22.22,0,0,1-.051.3Zm-.316-.652.34.551.408-.251a.148.148,0,0,0,.029-.2l-.467-.757-.5.309.038.061.439-.27.171.278Zm.362.459-.266-.431.4-.245.265.431Zm-.165-.407.189.306.273-.168-.189-.306Z" transform="translate(-219.457 -191.596)" fill="#f5e7c8"/>
            </g>
            <g id="Group_215" data-name="Group 215" transform="translate(4.271 1.592)">
              <path id="Path_7182" data-name="Path 7182" d="M223.29,191.385l-.123.06-.422-.874-.39.188.421.874-.121.059-.487-1.009.477-.23a.184.184,0,0,1,.242.1Z" transform="translate(-222.119 -190.399)" fill="#f5e7c8"/>
              <path id="Path_7183" data-name="Path 7183" d="M222.573,191.691l-.519-1.075.51-.246a.22.22,0,0,1,.292.115l.418.867-.189.091-.421-.874-.324.156.421.874Zm-.421-1.041.456.943.055-.027-.422-.874.456-.22.421.874.057-.028-.387-.8a.148.148,0,0,0-.194-.081Z" transform="translate(-222.054 -190.349)" fill="#f5e7c8"/>
            </g>
            <g id="Group_216" data-name="Group 216" transform="translate(5.478 1.056)">
              <path id="Path_7184" data-name="Path 7184" d="M225.534,190.426a.183.183,0,0,1-.229-.123l-.315-.872.632-.229.187.516-.5.18.147.405.5-.182.047.132Zm-.359-.907.087.241.361-.131-.087-.24Z" transform="translate(-224.943 -189.156)" fill="#f5e7c8"/>
              <path id="Path_7185" data-name="Path 7185" d="M225.415,190.41a.2.2,0,0,1-.087-.02.239.239,0,0,1-.122-.137l-.328-.906.7-.253.212.585-.5.179.122.336.5-.181.072.2-.508.184A.2.2,0,0,1,225.415,190.41Zm-.442-1.019.3.837a.166.166,0,0,0,.083.1.129.129,0,0,0,.1.005l.44-.159-.023-.063-.5.182-.172-.474.5-.18-.162-.447Zm.2.353-.112-.309.43-.156.112.309Zm-.018-.265.062.172.292-.106-.062-.171Z" transform="translate(-224.879 -189.094)" fill="#f5e7c8"/>
            </g>
            <g id="Group_217" data-name="Group 217" transform="translate(6.688 0.716)">
              <path id="Path_7186" data-name="Path 7186" d="M228.071,189.661l-.035-.141.537-.134-.1-.393-.523.13-.138-.552.67-.167.035.141-.529.133.062.246.525-.131.128.512a.184.184,0,0,1-.124.23Z" transform="translate(-227.769 -188.36)" fill="#f5e7c8"/>
              <path id="Path_7187" data-name="Path 7187" d="M227.985,189.646l-.053-.212.537-.134-.08-.322-.524.13-.156-.623.741-.185.053.212-.529.132.044.175.525-.131.136.548a.219.219,0,0,1-.15.275Zm.036-.158.018.069.474-.118a.131.131,0,0,0,.084-.066.165.165,0,0,0,.013-.119l-.119-.477-.525.131-.08-.317.529-.132-.017-.07-.6.15.12.481.524-.13.116.465Z" transform="translate(-227.709 -188.3)" fill="#f5e7c8"/>
            </g>
            <g id="Group_218" data-name="Group 218" transform="translate(7.968 0.507)">
              <path id="Path_7188" data-name="Path 7188" d="M231.131,189.087a.183.183,0,0,1-.2-.167L230.8,188l.665-.095.078.543-.522.074.061.427.528-.075.02.139Zm-.166-.961.036.253.38-.054-.036-.253Z" transform="translate(-230.76 -187.866)" fill="#f5e7c8"/>
              <path id="Path_7189" data-name="Path 7189" d="M231.053,189.069a.222.222,0,0,1-.213-.2l-.136-.954.739-.106.088.616-.522.075.051.354.528-.075.03.212-.536.076Zm-.266-1.092.126.881a.146.146,0,0,0,.158.136l.463-.066-.01-.067-.528.075-.071-.5.522-.074-.068-.471Zm.128.387-.046-.326.453-.065.046.326Zm.037-.263.026.18.307-.044-.026-.181Z" transform="translate(-230.704 -187.81)" fill="#f5e7c8"/>
            </g>
            <g id="Group_219" data-name="Group 219" transform="translate(10.027)">
              <path id="Path_7190" data-name="Path 7190" d="M235.662,186.713l.227.008.5.584.019-.567.147.005-.052,1.545-.147-.005.025-.751-.585-.681-.047,1.411-.143,0Z" transform="translate(-235.572 -186.675)" fill="#f5e7c8"/>
              <path id="Path_7191" data-name="Path 7191" d="M236.491,188.276l-.221-.008.027-.773-.514-.6-.046,1.354-.216-.007.054-1.619.28.009.011.012.442.513.017-.509.221.007Zm-.145-.079.074,0,.049-1.472-.074,0-.021.624-.554-.643-.174-.006-.05,1.472.07,0,.05-1.469.655.764Z" transform="translate(-235.521 -186.624)" fill="#f5e7c8"/>
            </g>
            <g id="Group_220" data-name="Group 220" transform="translate(11.419 0.514)">
              <path id="Path_7192" data-name="Path 7192" d="M239.4,189.109l-.524-.077.164-1.108.7.1-.136.916A.184.184,0,0,1,239.4,189.109Zm-.248-1.017-.12.809.429.063.12-.809Z" transform="translate(-238.833 -187.883)" fill="#f5e7c8"/>
              <path id="Path_7193" data-name="Path 7193" d="M239.367,189.092l-.03,0-.56-.083.175-1.18.77.114-.141.953a.24.24,0,0,1-.084.151A.2.2,0,0,1,239.367,189.092Zm-.507-.147.487.072a.133.133,0,0,0,.1-.029.165.165,0,0,0,.057-.106l.13-.88-.625-.092Zm.573.005-.5-.074.13-.882.5.074Zm-.418-.136.356.053.109-.737-.356-.052Z" transform="translate(-238.777 -187.827)" fill="#f5e7c8"/>
            </g>
            <g id="Group_221" data-name="Group 221" transform="translate(12.607 0.737)">
              <path id="Path_7194" data-name="Path 7194" d="M242.174,189.669l-.512-.132.28-1.085.683.176-.231.9A.184.184,0,0,1,242.174,189.669Zm-.14-1.038-.2.792.419.108.2-.792Z" transform="translate(-241.618 -188.408)" fill="#f5e7c8"/>
              <path id="Path_7195" data-name="Path 7195" d="M242.156,189.651a.184.184,0,0,1-.05-.006l-.548-.141.3-1.156.754.194-.241.933a.236.236,0,0,1-.107.147A.207.207,0,0,1,242.156,189.651Zm-.032-.077a.13.13,0,0,0,.1-.015.162.162,0,0,0,.074-.1l.222-.862-.612-.158-.261,1.014Zm.093-.057-.491-.127.223-.863.49.127Zm-.4-.179.349.09.186-.722-.348-.09Z" transform="translate(-241.558 -188.348)" fill="#f5e7c8"/>
            </g>
            <g id="Group_222" data-name="Group 222" transform="translate(13.769 0.917)">
              <path id="Path_7196" data-name="Path 7196" d="M244.864,190.288l-.478-.179.391-1.049.505.188.138-.369.138.051-.461,1.237A.184.184,0,0,1,244.864,190.288Zm0-1.042-.292.782.371.138.292-.782Z" transform="translate(-244.339 -188.832)" fill="#f5e7c8"/>
              <path id="Path_7197" data-name="Path 7197" d="M244.859,190.272a.2.2,0,0,1-.071-.013l-.513-.191.013-.034.4-1.084.506.188.138-.369.206.077-.013.034-.461,1.237A.227.227,0,0,1,244.859,190.272Zm-.045-.082a.147.147,0,0,0,.186-.1l.448-1.2-.069-.026-.138.369-.505-.188-.366.981Zm.085-.04-.44-.164.317-.85.44.164Zm-.345-.207.3.112.266-.713-.3-.112Z" transform="translate(-244.275 -188.769)" fill="#f5e7c8"/>
            </g>
            <g id="Group_223" data-name="Group 223" transform="translate(14.88 1.223)">
              <path id="Path_7198" data-name="Path 7198" d="M247.126,191.035l-.137-.064.642-1.371.137.064Z" transform="translate(-246.94 -189.551)" fill="#f5e7c8"/>
              <path id="Path_7199" data-name="Path 7199" d="M247.078,191.019l-.2-.1.015-.033.658-1.4.2.1-.015.033Zm-.106-.131.071.033.61-1.3-.071-.033Z" transform="translate(-246.874 -189.486)" fill="#f5e7c8"/>
            </g>
            <g id="Group_224" data-name="Group 224" transform="translate(15.557 1.911)">
              <path id="Path_7200" data-name="Path 7200" d="M248.628,192.271a.182.182,0,0,1-.055-.254l.457-.806.584.332-.271.477-.459-.26-.212.375.463.263-.069.122Zm.457-.862-.126.222.334.19.126-.223Z" transform="translate(-248.507 -191.161)" fill="#f5e7c8"/>
              <path id="Path_7201" data-name="Path 7201" d="M249.031,192.5l-.471-.267a.219.219,0,0,1-.07-.3l.476-.837.649.368-.307.541-.458-.26-.177.311.464.263Zm-.435-.331.407.231.033-.059-.463-.263.249-.439.458.26.235-.413-.521-.3-.439.774a.147.147,0,0,0,.041.2Zm.66-.368-.4-.226.162-.286.4.226Zm-.3-.253.27.153.09-.159-.27-.153Z" transform="translate(-248.458 -191.094)" fill="#f5e7c8"/>
            </g>
            <g id="Group_225" data-name="Group 225" transform="translate(17.079 2.714)">
              <path id="Path_7202" data-name="Path 7202" d="M253.314,194.01l.12.1-.611.742-.683-.562.984-1.193.563.463Zm-.962.256.448.369.416-.505-.448-.369Zm1.119-.687-.33-.271-.276.334.33.271Z" transform="translate(-252.089 -193.043)" fill="#f5e7c8"/>
              <path id="Path_7203" data-name="Path 7203" d="M252.759,194.833l-.739-.609,1.03-1.25.62.51-.372.452.12.1Zm-.636-.619.626.516.564-.685-.12-.1.372-.452-.507-.417Zm.613.4-.5-.415.463-.562.5.415Zm-.4-.426.392.323.369-.449-.392-.322Zm.8-.3-.386-.318.322-.391.386.318Zm-.283-.328.273.225.229-.278-.273-.225Z" transform="translate(-252.02 -192.974)" fill="#f5e7c8"/>
            </g>
            <g id="Group_226" data-name="Group 226" transform="translate(18.13 4.047)">
              <path id="Path_7204" data-name="Path 7204" d="M255.215,197.334a.185.185,0,0,1-.256.015l-.36-.368.516-.5.374.383.181-.177-.36-.368.1-.1.462.474Zm-.106-.653-.31.3.276.282.31-.3Z" transform="translate(-254.548 -196.161)" fill="#f5e7c8"/>
              <path id="Path_7205" data-name="Path 7205" d="M255.005,197.361a.2.2,0,0,1-.14-.054l-.386-.4.568-.556.374.383.129-.126-.359-.368.156-.153.514.526-.689.673A.24.24,0,0,1,255.005,197.361Zm-.423-.448.334.342a.146.146,0,0,0,.2-.016h0l.637-.622-.412-.421-.052.05.36.368-.233.229-.374-.383Zm.422.336-.327-.334.362-.354.327.334Zm-.223-.333.224.229.257-.252-.224-.229Z" transform="translate(-254.479 -196.092)" fill="#f5e7c8"/>
            </g>
            <g id="Group_227" data-name="Group 227" transform="translate(18.942 4.977)">
              <path id="Path_7206" data-name="Path 7206" d="M256.5,199.1l.866-.709.333.406-.112.092-.24-.293-.754.618Z" transform="translate(-256.447 -198.338)" fill="#f5e7c8"/>
              <path id="Path_7207" data-name="Path 7207" d="M256.518,199.2l-.14-.171.923-.756.38.463-.169.138-.239-.293Zm-.036-.16.047.057.754-.618.24.293.056-.046-.286-.35Z" transform="translate(-256.378 -198.269)" fill="#f5e7c8"/>
            </g>
          </g>
          <g id="Group_243" data-name="Group 243" transform="translate(4.518 21.631)">
            <g id="Group_242" data-name="Group 242">
              <g id="Group_229" data-name="Group 229" transform="translate(0 0.08)">
                <path id="Path_7208" data-name="Path 7208" d="M216.669,237.841a.188.188,0,0,1-.261.026l-.413-.365,1-1.129.117.1-.261.3.429.38Zm.086-.962-.55.621.315.28.55-.621Z" transform="translate(-215.942 -236.319)" fill="#f5e7c8"/>
                <path id="Path_7209" data-name="Path 7209" d="M216.453,237.875a.222.222,0,0,1-.139-.05l-.442-.392.025-.028,1.025-1.157.173.153-.261.295.429.38-.025.028-.61.69A.232.232,0,0,1,216.453,237.875Zm-.476-.448.385.341a.152.152,0,0,0,.209-.023l.586-.662-.429-.38.261-.295-.06-.054Zm.475.335-.371-.329.025-.028.574-.649.372.329Zm-.265-.336.259.23.5-.565-.259-.23Z" transform="translate(-215.871 -236.248)" fill="#f5e7c8"/>
              </g>
              <g id="Group_230" data-name="Group 230" transform="translate(0.851 1.204)">
                <path id="Path_7210" data-name="Path 7210" d="M218.068,240.141l.463.324.181-.259-.468-.327.613-.877.125.087-.533.763.344.24.533-.763.13.091-.766,1.1a.188.188,0,0,1-.263.05l-.44-.307Z" transform="translate(-217.933 -238.949)" fill="#f5e7c8"/>
                <path id="Path_7211" data-name="Path 7211" d="M218.461,240.568a.221.221,0,0,1-.127-.041l-.471-.329.126-.18.463.324.138-.2-.468-.327.656-.939.186.13-.533.763.283.2.533-.763.191.134-.788,1.128A.23.23,0,0,1,218.461,240.568Zm-.494-.388.409.286a.152.152,0,0,0,.212-.041l.745-1.066-.069-.048-.533.763-.405-.283.533-.763-.063-.044-.57.816.468.327-.224.321-.463-.323Z" transform="translate(-217.863 -238.879)" fill="#f5e7c8"/>
              </g>
              <g id="Group_231" data-name="Group 231" transform="translate(3.058 2.305)">
                <path id="Path_7212" data-name="Path 7212" d="M223.141,242.579l.471-1.01.506.236-.061.131-.364-.17-.41.878Z" transform="translate(-223.091 -241.519)" fill="#f5e7c8"/>
                <path id="Path_7213" data-name="Path 7213" d="M223.234,242.628l-.209-.1.5-1.077.574.268-.093.2-.364-.17Zm-.11-.134.074.035.41-.878.364.17.029-.063-.439-.2Z" transform="translate(-223.025 -241.453)" fill="#f5e7c8"/>
              </g>
              <g id="Group_232" data-name="Group 232" transform="translate(4.072 2.715)">
                <path id="Path_7214" data-name="Path 7214" d="M226.258,243.627a.189.189,0,0,1-.232.123l-.517-.181.237-.677.537.188.083-.238-.517-.181.048-.136.664.233Zm-.418-.547-.142.406.4.138.142-.406Z" transform="translate(-225.462 -242.478)" fill="#f5e7c8"/>
                <path id="Path_7215" data-name="Path 7215" d="M226.017,243.732a.235.235,0,0,1-.065-.01l-.553-.194.262-.748.537.188.059-.167-.517-.181.072-.206.735.257-.012.035-.3.869A.226.226,0,0,1,226.017,243.732Zm-.524-.25.482.169a.151.151,0,0,0,.184-.1l.292-.834-.594-.208-.023.065.517.181-.108.309-.537-.188Zm.559.127-.466-.163.167-.477.466.163Zm-.371-.209.325.114.118-.336-.325-.114Z" transform="translate(-225.398 -242.414)" fill="#f5e7c8"/>
              </g>
              <g id="Group_233" data-name="Group 233" transform="translate(5.428 3.113)">
                <path id="Path_7216" data-name="Path 7216" d="M229.8,244.776l-.142-.03.2-.944-.359-.076-.192.913-.138-.029.192-.913-.351-.074-.2.944-.14-.029.23-1.09.95.2a.188.188,0,0,1,.141.227Z" transform="translate(-228.63 -243.404)" fill="#f5e7c8"/>
                <path id="Path_7217" data-name="Path 7217" d="M229.774,244.761l-.216-.046.007-.037.191-.907-.286-.06-.192.913-.211-.045.192-.912-.278-.059-.2.944-.213-.045.008-.037.238-1.126.986.208a.227.227,0,0,1,.171.271Zm-.127-.1.07.015.182-.865a.15.15,0,0,0-.112-.182l-.913-.192-.214,1.016.068.014.2-.944.424.089-.008.037-.185.876.065.013.192-.913.432.091-.008.037Z" transform="translate(-228.57 -243.344)" fill="#f5e7c8"/>
              </g>
              <g id="Group_234" data-name="Group 234" transform="translate(7.272 3.419)">
                <path id="Path_7218" data-name="Path 7218" d="M233.14,245.281a.186.186,0,0,1-.168-.207l.075-.918.712.058-.044.544-.558-.046-.035.427.565.046-.011.139Zm.049-.969-.021.253.407.033.021-.253Z" transform="translate(-232.934 -244.115)" fill="#f5e7c8"/>
                <path id="Path_7219" data-name="Path 7219" d="M233.659,245.311l-.572-.047a.223.223,0,0,1-.2-.247l.077-.956.787.065-.05.618-.559-.045-.028.352.565.046Zm-.566-.121.5.041.006-.065-.565-.046.041-.5.559.046.038-.469-.638-.053-.072.881a.149.149,0,0,0,.134.166Zm.466-.6-.482-.039.026-.328.482.04Zm-.4-.108.333.027.014-.179-.332-.027Z" transform="translate(-232.884 -244.061)" fill="#f5e7c8"/>
              </g>
              <g id="Group_235" data-name="Group 235" transform="translate(8.579 3.481)">
                <path id="Path_7220" data-name="Path 7220" d="M236.81,245.4l-.145,0-.024-.965-.46.012.024.965-.144,0-.027-1.113.562-.014a.188.188,0,0,1,.191.188Z" transform="translate(-235.994 -244.255)" fill="#f5e7c8"/>
                <path id="Path_7221" data-name="Path 7221" d="M235.972,245.409v-.037l-.029-1.151.6-.015a.22.22,0,0,1,.161.063.232.232,0,0,1,.069.161l.024.959-.22.006v-.038l-.023-.927-.386.009.023.965Zm.047-1.115.026,1.038.068,0-.024-.964.535-.014v.038l.023.927.071,0-.022-.884a.155.155,0,0,0-.046-.109.147.147,0,0,0-.107-.042Z" transform="translate(-235.942 -244.205)" fill="#f5e7c8"/>
              </g>
              <g id="Group_236" data-name="Group 236" transform="translate(10.605 2.71)">
                <path id="Path_7222" data-name="Path 7222" d="M241.819,243.226l-.318.069.488.715-.165.036-.488-.716-.24.052.169.784-.153.033-.324-1.5.877-.189Zm-.848-.417.091.423.574-.124-.091-.424Z" transform="translate(-240.743 -242.462)" fill="#f5e7c8"/>
                <path id="Path_7223" data-name="Path 7223" d="M241.023,244.184l-.34-1.576.037-.008.913-.2.171.792-.3.065.487.716-.244.053-.488-.716-.179.039.17.784Zm-.251-1.519.308,1.43.08-.018-.17-.784.3-.065.488.716.086-.019-.487-.715.336-.073-.14-.646Zm.2.551-.107-.5.647-.139.107.5Zm-.018-.439.076.35.5-.108-.076-.35Z" transform="translate(-240.683 -242.402)" fill="#f5e7c8"/>
              </g>
              <g id="Group_237" data-name="Group 237" transform="translate(11.962 2.257)">
                <path id="Path_7224" data-name="Path 7224" d="M243.97,241.769l.889-.315.513,1.449-.156.055-.268-.756-.583.207.268.756-.15.053Zm.344.5.584-.207-.144-.406-.583.207Z" transform="translate(-243.922 -241.406)" fill="#f5e7c8"/>
                <path id="Path_7225" data-name="Path 7225" d="M244.4,243.2l-.538-1.52.96-.34.538,1.52-.227.08-.268-.756-.513.182.267.756Zm-.442-1.475.488,1.379.079-.028-.268-.756.655-.232.268.756.085-.03-.488-1.379Zm.273.521-.168-.477.654-.232.168.477Zm-.073-.431.119.336.513-.182-.119-.336Z" transform="translate(-243.857 -241.342)" fill="#f5e7c8"/>
              </g>
              <g id="Group_238" data-name="Group 238" transform="translate(13.321 1.97)">
                <path id="Path_7226" data-name="Path 7226" d="M247.955,242.18l-.151.071-.652-1.393.151-.071Z" transform="translate(-247.102 -240.737)" fill="#f5e7c8"/>
                <path id="Path_7227" data-name="Path 7227" d="M247.719,242.234l-.683-1.461.219-.1.683,1.461Zm-.584-1.425.62,1.325.084-.039-.62-1.325Z" transform="translate(-247.036 -240.67)" fill="#f5e7c8"/>
              </g>
              <g id="Group_239" data-name="Group 239" transform="translate(14.123 1.331)">
                <path id="Path_7228" data-name="Path 7228" d="M250.323,240.622l-.751.44-.205-.35.135-.079.13.221.478-.28-.626-1.068-.375.22-.077-.131.514-.3Z" transform="translate(-248.981 -239.244)" fill="#f5e7c8"/>
                <path id="Path_7229" data-name="Path 7229" d="M249.49,241.045l-.244-.415.2-.117.13.221.413-.242-.588-1-.375.22-.115-.2.579-.339.816,1.392Zm-.141-.388.167.286.687-.4-.74-1.263-.449.263.038.066.375-.22.664,1.133-.543.318-.13-.221Z" transform="translate(-248.912 -239.175)" fill="#f5e7c8"/>
              </g>
              <g id="Group_240" data-name="Group 240" transform="translate(15.061 0.939)">
                <path id="Path_7230" data-name="Path 7230" d="M252.263,239.628l-.136.1-.9-1.249.135-.1Z" transform="translate(-251.178 -238.327)" fill="#f5e7c8"/>
                <path id="Path_7231" data-name="Path 7231" d="M252.048,239.708l-.94-1.31.2-.141.94,1.31Zm-.835-1.293.853,1.189.075-.054-.853-1.189Z" transform="translate(-251.108 -238.257)" fill="#f5e7c8"/>
              </g>
              <g id="Group_241" data-name="Group 241" transform="translate(15.614)">
                <path id="Path_7232" data-name="Path 7232" d="M252.524,236.815l.181-.159.79.055-.373-.423.117-.1,1.016,1.154-.117.1-.494-.56-.919-.067.929,1.054-.114.1Z" transform="translate(-252.471 -236.132)" fill="#f5e7c8"/>
                <path id="Path_7233" data-name="Path 7233" d="M253.466,237.951l-1.066-1.21.221-.194.715.05-.337-.383.174-.153,1.066,1.21-.174.153-.509-.577-.812-.059.893,1.013Zm-.96-1.2.967,1.1.058-.051-.964-1.1,1.025.074.48.545.061-.054-.967-1.1-.061.054.408.463-.866-.061Z" transform="translate(-252.4 -236.061)" fill="#f5e7c8"/>
              </g>
            </g>
          </g>
        </g>
        <g id="Group_256" data-name="Group 256" transform="translate(11.773 24.41)">
          <g id="Group_245" data-name="Group 245" transform="translate(3.426 0.138)">
            <path id="Path_7236" data-name="Path 7236" d="M230.736,234.248l1.382-.05a.849.849,0,0,1-.494.759s.072-.236-.021-.272l-.845.057Z" transform="translate(-230.736 -234.041)" fill="#563008"/>
            <path id="Path_7237" data-name="Path 7237" d="M231.256,233.837s.035,1.238.494,1.346a6.685,6.685,0,0,1-.129-1.353Z" transform="translate(-231.034 -233.83)" fill="#563008"/>
          </g>
          <g id="Group_247" data-name="Group 247" transform="translate(1.565 0)">
            <g id="Group_246" data-name="Group 246" transform="translate(0)">
              <ellipse id="Ellipse_2" data-name="Ellipse 2" cx="0.272" cy="0.358" rx="0.272" ry="0.358" transform="translate(0 0.465) rotate(-58.794)" fill="#563008"/>
              <path id="Path_7238" data-name="Path 7238" d="M228.31,234.874l-1.1.8-.139-.211,1.1-.8Z" transform="translate(-226.779 -234.169)" fill="#563008"/>
            </g>
          </g>
          <g id="Group_249" data-name="Group 249" transform="translate(8.285 0.041)">
            <g id="Group_248" data-name="Group 248" transform="translate(0)">
              <ellipse id="Ellipse_3" data-name="Ellipse 3" cx="0.254" cy="0.352" rx="0.254" ry="0.352" transform="matrix(0.918, -0.397, 0.397, 0.918, 0, 0.233)" fill="#563008"/>
              <ellipse id="Ellipse_4" data-name="Ellipse 4" cx="0.123" cy="0.173" rx="0.123" ry="0.173" transform="translate(1.081)" fill="#563008"/>
              <ellipse id="Ellipse_5" data-name="Ellipse 5" cx="0.123" cy="0.173" rx="0.123" ry="0.173" transform="translate(1.373 0.036)" fill="#563008"/>
              <path id="Path_7239" data-name="Path 7239" d="M243.937,234.582l-.657,1.04-.2-.142.657-1.04Z" transform="translate(-242.661 -234.083)" fill="#563008"/>
            </g>
          </g>
          <g id="Group_251" data-name="Group 251" transform="translate(0 0.14)">
            <g id="Group_250" data-name="Group 250">
              <path id="Path_7240" data-name="Path 7240" d="M224.065,234.022l-1.179,1.155-.166-.188,1.179-1.155Z" transform="translate(-222.72 -233.834)" fill="#563008"/>
              <path id="Path_7241" data-name="Path 7241" d="M223.031,233.953l1.035.877-.3.4-1.035-.877Z" transform="translate(-222.724 -233.902)" fill="#563008"/>
            </g>
          </g>
          <g id="Group_253" data-name="Group 253" transform="translate(5.138 0.162)">
            <g id="Group_252" data-name="Group 252">
              <rect id="Rectangle_8" data-name="Rectangle 8" width="1.043" height="0.372" transform="translate(0.079)" fill="#563008"/>
              <rect id="Rectangle_9" data-name="Rectangle 9" width="1.091" height="0.411" transform="translate(0 0.503)" fill="#563008"/>
              <path id="Path_7242" data-name="Path 7242" d="M237.1,235.062l-.322.8-.165-.074.29-.722Z" transform="translate(-235.813 -234.559)" fill="#563008"/>
            </g>
          </g>
          <g id="Group_255" data-name="Group 255" transform="translate(6.755 0.13)">
            <g id="Group_254" data-name="Group 254">
              <path id="Path_7243" data-name="Path 7243" d="M239.825,234.236l-1.093.594-.208-.425,1.093-.594Z" transform="translate(-238.524 -233.811)" fill="#563008"/>
              <rect id="Rectangle_10" data-name="Rectangle 10" width="0.227" height="0.842" transform="translate(0.611 0.521)" fill="#563008"/>
            </g>
          </g>
          <rect id="Rectangle_11" data-name="Rectangle 11" width="0.963" height="0.44" transform="translate(10.235 0.592)" fill="#563008"/>
        </g>
        <g id="Group_274" data-name="Group 274" transform="translate(8.361 21.122)">
          <g id="Group_273" data-name="Group 273">
            <g id="Group_262" data-name="Group 262" transform="translate(8.988)">
              <g id="Group_257" data-name="Group 257" transform="translate(0 0.004)">
                <path id="Path_7244" data-name="Path 7244" d="M237.328,227.2h-.482l.482,1.236h-.25L236.6,227.2h-.363v1.236H236v-2.369h1.326Zm-1.1-.9v.667h.867v-.667Z" transform="translate(-235.9 -225.96)" fill="#dd5934"/>
                <path id="Path_7245" data-name="Path 7245" d="M237.341,228.4h-.47l-.481-1.236H236.2V228.4h-.435v-2.574h1.53v1.337h-.434Zm-.33-.2h.031l-.482-1.236h.529v-.93h-1.122v2.165H236v-1.236h.534Zm.055-1.268H236v-.872h1.071Zm-.867-.2h.663v-.463H236.2Z" transform="translate(-235.764 -225.823)" fill="#dd5934"/>
              </g>
              <g id="Group_258" data-name="Group 258" transform="translate(2.173 0.004)">
                <path id="Path_7246" data-name="Path 7246" d="M241.087,226.062h1.393v2.369h-.244V227.2h-.915v1.236h-.235Zm.235.9h.915v-.664h-.915Z" transform="translate(-240.985 -225.96)" fill="#dd5934"/>
                <path id="Path_7247" data-name="Path 7247" d="M242.446,228.4H242V227.16h-.711V228.4h-.438v-2.574h1.6Zm-.244-.2h.04v-2.165h-1.19v2.165h.031v-1.236H242.2Zm0-1.268h-1.119v-.868H242.2Zm-.915-.2H242v-.459h-.711Z" transform="translate(-240.849 -225.823)" fill="#dd5934"/>
              </g>
              <g id="Group_259" data-name="Group 259" transform="translate(4.414 0.004)">
                <path id="Path_7248" data-name="Path 7248" d="M246.577,228.431h-.247v-2.369h.247Z" transform="translate(-246.228 -225.96)" fill="#dd5934"/>
                <path id="Path_7249" data-name="Path 7249" d="M246.542,228.4h-.451v-2.574h.451Zm-.247-.2h.044v-2.165H246.3Z" transform="translate(-246.092 -225.823)" fill="#dd5934"/>
              </g>
              <g id="Group_260" data-name="Group 260" transform="translate(5.416 0.004)">
                <path id="Path_7250" data-name="Path 7250" d="M248.737,226.062h1.146v.25l-.966,1.886h.969v.233h-1.213v-.25l.966-1.886h-.9Z" transform="translate(-248.571 -225.96)" fill="#dd5934"/>
                <path id="Path_7251" data-name="Path 7251" d="M249.852,228.4h-1.417l.011-.4.89-1.737H248.5v-.437h1.35l-.011.4-.89,1.737h.9Zm-1.213-.2h1.01v-.029h-1.01Zm0-.124v.047l1.007-1.964V226.1Zm.065-2.012h.942v-.029H248.7Z" transform="translate(-248.435 -225.823)" fill="#dd5934"/>
              </g>
              <g id="Group_261" data-name="Group 261" transform="translate(7.384)">
                <path id="Path_7252" data-name="Path 7252" d="M254.654,228.427h-1.377v-2.373l1.377,0Zm-1.149-.233h.915v-1.9H253.5Z" transform="translate(-253.175 -225.951)" fill="#dd5934"/>
                <path id="Path_7253" data-name="Path 7253" d="M254.62,228.391h-1.581v-2.577l1.581,0Zm-1.377-.2h1.173v-2.165l-1.173,0Zm1.143-.029h-1.119v-2.108h1.119Zm-.915-.2h.711v-1.7h-.711Z" transform="translate(-253.039 -225.814)" fill="#dd5934"/>
              </g>
            </g>
            <g id="Group_264" data-name="Group 264" transform="translate(0 0.011)">
              <g id="Group_263" data-name="Group 263">
                <path id="Path_7254" data-name="Path 7254" d="M215.934,227.488h-.29l-.447-.926v1.87h-.223v-2.354h.246l.567,1.175.552-1.175h.29v2.354H216.4V226.5Z" transform="translate(-214.872 -225.976)" fill="#dd5934"/>
                <path id="Path_7255" data-name="Path 7255" d="M216.594,228.4h-.437v-1.573l-.3.63h-.418l-.281-.582V228.4h-.427v-2.558h.411l.5,1.04.489-1.04h.456Zm-.233-.2h.029v-2.15h-.029Zm-1.422,0h.019v-2.15h-.019Zm.761-.944h.032l.565-1.206h-.031Zm-.13,0h.03l-.582-1.206h-.029Z" transform="translate(-214.736 -225.839)" fill="#dd5934"/>
              </g>
            </g>
            <g id="Group_266" data-name="Group 266" transform="translate(3.978 0.894)">
              <g id="Group_265" data-name="Group 265">
                <path id="Path_7256" data-name="Path 7256" d="M225.242,229.633h-.187v-1.29h-.591v1.29h-.184v-1.49H225a.247.247,0,0,1,.24.258Z" transform="translate(-224.178 -228.041)" fill="#dd5934"/>
                <path id="Path_7257" data-name="Path 7257" d="M225.207,229.6h-.391v-1.291h-.387V229.6h-.387V227.9h.824a.347.347,0,0,1,.342.359Z" transform="translate(-224.042 -227.905)" fill="#dd5934"/>
              </g>
            </g>
            <g id="Group_268" data-name="Group 268" transform="translate(5.627 0.894)">
              <g id="Group_267" data-name="Group 267">
                <path id="Path_7258" data-name="Path 7258" d="M228.148,230h.724v-.423h-.733v-1.432h.2v1.245h.538v-1.245h.2v1.79a.247.247,0,0,1-.239.257h-.689Z" transform="translate(-228.037 -228.041)" fill="#dd5934"/>
                <path id="Path_7259" data-name="Path 7259" d="M228.7,230.157h-.79v-.4h.724v-.219H227.9V227.9h.4v1.244h.334V227.9h.407V229.8A.347.347,0,0,1,228.7,230.157Z" transform="translate(-227.901 -227.905)" fill="#dd5934"/>
              </g>
            </g>
            <g id="Group_270" data-name="Group 270" transform="translate(2.372 0.894)">
              <g id="Group_269" data-name="Group 269">
                <path id="Path_7260" data-name="Path 7260" d="M220.76,229.633a.245.245,0,0,1-.237-.257v-1.233h.917v.73h-.719v.574h.727v.187Zm-.039-1.3v.34h.524v-.34Z" transform="translate(-220.421 -228.041)" fill="#dd5934"/>
                <path id="Path_7261" data-name="Path 7261" d="M221.414,229.6h-.79a.346.346,0,0,1-.339-.359V227.9h1.12v.934h-.719v.369h.727Zm-.727-1.16h.32V228.3h-.32Z" transform="translate(-220.285 -227.905)" fill="#dd5934"/>
              </g>
            </g>
            <g id="Group_272" data-name="Group 272" transform="translate(7.254 0.894)">
              <g id="Group_271" data-name="Group 271">
                <path id="Path_7262" data-name="Path 7262" d="M232.876,229.376a.248.248,0,0,1-.229.257h-.7v-.96h.73v-.337h-.7v-.193h.9Zm-.739-.506v.576h.538v-.576Z" transform="translate(-231.843 -228.041)" fill="#dd5934"/>
                <path id="Path_7263" data-name="Path 7263" d="M231.809,229.6h-.1v-1.163h.73V228.3h-.7v-.4h1.107v1.334a.351.351,0,0,1-.325.359Zm.294-.391h.334v-.372H232.1Z" transform="translate(-231.707 -227.905)" fill="#dd5934"/>
              </g>
            </g>
          </g>
        </g>
        <g id="Group_277" data-name="Group 277" transform="translate(10.885 10.378)">
          <g id="Group_275" data-name="Group 275">
            <path id="Path_7264" data-name="Path 7264" d="M222.16,201.388h.669q0,1.62,0,1.656a.224.224,0,0,1-.031.1.152.152,0,0,1-.088.034c-.041,0-.072.006-.093.006h-.179c-.117,0-.237,0-.359-.009v-.062h.181a2.411,2.411,0,0,0,.248.012h.01a.173.173,0,0,0,.072-.02.717.717,0,0,0,.018-.176V202h-.483c-.03,0-.07,0-.121-.006a.506.506,0,0,1-.122-.026.17.17,0,0,1-.036-.093.687.687,0,0,1-.008-.1v-.326h-.191a.845.845,0,0,1-.026.247.578.578,0,0,1-.1.215.746.746,0,0,1-.222.156,1.83,1.83,0,0,1-.253.091h-.073v1.064h-.222v-1.829h.6q-.106-.23-.2-.4h-.512v-.057h1.031v-.255h.233v.255h1.031v.057h-.512A2.184,2.184,0,0,1,222.16,201.388Zm-1.186.678c.064-.025.122-.05.176-.077a.651.651,0,0,0,.158-.119.454.454,0,0,0,.1-.2,1.193,1.193,0,0,0,.018-.227h-.447Zm.494.964h-.225v-.877h1.1v.74h-.871Zm.726-2.039h-.806q.121.235.189.4h.331A1.73,1.73,0,0,0,222.194,200.991Zm-.08,1.222h-.646v.621h.646Zm-.054-.363a.268.268,0,0,0,.01.026.156.156,0,0,1,.008.02c.005.023.017.033.036.031a.15.15,0,0,0,.07.011h.057q.155,0,.367-.011v-.482h-.548Z" transform="translate(-220.643 -200.679)" fill="#080046"/>
          </g>
          <g id="Group_276" data-name="Group 276" transform="translate(10.228 0.077)">
            <path id="Path_7265" data-name="Path 7265" d="M246.975,201.026h-.5v.286h.439v.562H245.35v-.426h-.207q.145.477.243.848l-.044.012h-.181c-.01-.049-.019-.085-.026-.108v1.152h-.225v-1.016q-.056.181-.124.346h-.181l-.034-.02a6.841,6.841,0,0,0,.323-1.214h-.279v-.056h.294v-.533h.225v.533h.215v-.079h.439v-.286h-.519v-.06h1.705Zm-1.535,2.206h-.178c0-.012-.011-.028-.021-.051a1.433,1.433,0,0,0,.416-.51h.178l.036.031A1.725,1.725,0,0,1,245.441,203.232Zm1.535-.7h-.719q0,.672,0,.695a.1.1,0,0,1-.023.056.247.247,0,0,1-.137.026h-.178c-.084,0-.168-.009-.25-.017v-.051h.181a.641.641,0,0,1,.142.011l.026-.011a.1.1,0,0,0,.018-.077v-.633h-.762v-.059h1.705Zm-1.571-.4h1.463v.059H245.4Zm.385-.769h-.215v.462h.215Zm.225-.048h.235v-.286h-.235Zm.235.048h-.235v.462h.235Zm.535,1.543.191.3-.036.04h-.181a4.151,4.151,0,0,0-.421-.533l.036-.045h.171Zm-.31-1.081h.215v-.462h-.215Z" transform="translate(-244.572 -200.858)" fill="#080046"/>
          </g>
        </g>
        <g id="Group_289" data-name="Group 289" transform="translate(2.106 14.024)">
          <g id="Group_288" data-name="Group 288">
            <g id="Group_278" data-name="Group 278">
              <path id="Path_7266" data-name="Path 7266" d="M203.317,215.222h3.635v.523h-3.825l-.942-1.037-1,1.061h-.649l1.322-1.417-.546-.6L201,214.3h-.57l1.085-1.924h.57l-.221.388h1.2l-.618,1.5Zm-.095-3.555v.444h-2.6v-.444h1.029v-.522h-.7V210.7h.7v-.38h-1.029v-.444h1.029V209.4h.507v.475h1.061v.444H202.16v.38h.729v.444h-.729v.522Zm-1.592,1.513-.063.118.515.562.277-.681Zm2.748-2.13.444-.9H203.5v-.459h3.4v.459h-1.552l-.443.9h1.94v3.7H203.57v-3.7Zm-.317.436V214.3h.372v-2.811Zm1.386,0h-.539v.642h.539Zm-.539,1.085v.642h.539v-.642Zm0,1.085v.642h.539v-.642Zm1.441.642v-2.811h-.427V214.3Z" transform="translate(-200.293 -209.319)" fill="#563008"/>
              <path id="Path_7267" data-name="Path 7267" d="M201.033,215.74h-.876l1.4-1.5-.418-.461-.276.489h-.76l1.178-2.09h.762l-.222.388H203l-.645,1.57.812.892h3.681v.688H202.9l-.907-1Zm-.495-.166h.423l1.034-1.1.978,1.076h3.705v-.357H203.09l-.931-1.024.591-1.438h-1.215l.222-.388h-.379l-.991,1.758h.38l.342-.6.675.743Zm6.2-.856H203.3v-3.864h.839l.362-.737h-1.272v-.625h3.57v.625h-1.583l-.362.737h1.89Zm-3.278-.166h3.113v-3.532h-1.991l.525-1.069h1.521v-.294h-3.24v.294h1.373l-.525,1.069h-.777Zm2.78-.286h-.593V211.29h.593Zm-.427-.165h.262v-2.645h-.262Zm-.476.165h-.7v-.807h.7Zm-.538-.165h.373v-.476H204.8Zm-.475.165h-.537V211.29h.537Zm-.372-.165h.207v-2.645h-.207Zm-2.034-.2-.643-.7.114-.214h.9Zm-.442-.728.387.422.181-.445h-.556Zm3.862.009h-.7v-.807h.7Zm-.538-.166h.373v-.476H204.8Zm.538-.919h-.7v-.807h.7Zm-.538-.166h.373v-.476H204.8Zm-1.687.15h-2.762v-.61h1.029v-.357h-.7v-.609h.7v-.214h-1.029v-.61h1.029v-.475h.672v.475h1.061v.61h-1.061v.214h.729v.609h-.729v.357h1.061Zm-2.6-.166h2.432v-.278h-1.062v-.688h.729v-.278h-.729v-.546h1.062v-.278h-1.062v-.475h-.342v.475h-1.029v.278h1.029v.546h-.7v.278h.7v.688h-1.029Z" transform="translate(-200.103 -209.208)" fill="#563008"/>
            </g>
            <g id="Group_279" data-name="Group 279" transform="translate(24.069 0.016)">
              <path id="Path_7268" data-name="Path 7268" d="M262.234,212.432l-.642,1.243,1.14,2.138h-.594l-.839-1.568-.76,1.481h-.554l1.061-2.059-.5-1.956h-3.08v.768l-.309,3.318h-.53l.309-3.342v-1.243h3.484l-.1-.4h.547l.1.4h1.576v.5h-1.449l.317,1.251.269-.53Zm-1.03-2.677H262.8v.515H261.2v.372h-.522v-.372h-1.869v.372h-.522v-.372H256.7v-.515h1.592v-.317h.522v.317h1.869v-.317h.522Zm-1.853,4.458v.507h.626v.436h-2.249v-3.128h2.605v.443h-.982v.459h.847v1.283Zm-.491-1.742h-.625v.459h.625Zm.848,1.322v-.436h-1.473v.436Zm-1.473.42v.507h.625v-.507Zm3.746-3.706.356.618h-.57l-.356-.618Z" transform="translate(-256.536 -209.356)" fill="#563008"/>
              <path id="Path_7269" data-name="Path 7269" d="M262.749,215.785h-.782l-.788-1.472-.712,1.385h-.741l1.109-2.152-.475-1.863h-2.933v.685l-.316,3.4h-.7l.317-3.432v-1.318h3.461l-.1-.4h.717l.1.4h.642l-.387-.67v.266h-.688v-.372h-1.7v.372h-.688v-.372h-1.591v-.68h1.591v-.317h.688v.317h1.7v-.317h.688v.317h1.592v.68h-1.592v.072h.742l.406.7h.19v.665h-1.425l.236.934.192-.379h.741l-.684,1.325Zm-.682-.165h.406l-1.1-2.055.6-1.161h-.368l-.346.682-.4-1.568h1.473v-.333H260.78l-.1-.4H260.3l.1.4H256.9v1.16l-.3,3.259h.364l.3-3.243v-.843h3.228l.523,2.049-.015.028-1,1.938h.368l.809-1.576Zm-.374-4.688h.379l-.261-.452h-.379Zm-1.05-.483H261v-.372h1.591v-.349H261v-.317h-.357v.317h-2.034v-.317h-.357v.317h-1.592v.349h1.592v.372h.357v-.372h2.034Zm-.7,4.68h-2.414v-3.294h2.771v.609h-.982v.294h.848v1.449h-.848v.341h.626Zm-2.249-.166h2.084v-.27h-.626v-.673h.847V212.9h-.847v-.625h.982V212h-2.44Zm1.132-.27h-.791v-.673h.791Zm-.626-.166h.46v-.341h-.46Zm1.473-.761H258.03v-.6h1.638ZM258.2,213.6H259.5v-.27H258.2Zm.626-.7h-.791v-.625h.791Zm-.626-.166h.46v-.294h-.46Z" transform="translate(-256.414 -209.245)" fill="#563008"/>
            </g>
            <g id="Group_280" data-name="Group 280" transform="translate(8.132 0.494)">
              <path id="Path_7270" data-name="Path 7270" d="M219.129,212.613l6.193-.364a3.072,3.072,0,0,1-2.137,2.848s.324-1.07-.1-1.232l-3.825.259Z" transform="translate(-219.129 -211.443)" fill="#dd5934"/>
              <path id="Path_7271" data-name="Path 7271" d="M221.565,210.4s.162,5.607,2.237,6.093a30.353,30.353,0,0,1-.583-6.126Z" transform="translate(-220.524 -210.363)" fill="#dd5934"/>
            </g>
            <g id="Group_281" data-name="Group 281" transform="translate(16.567 1.639)">
              <path id="Path_7272" data-name="Path 7272" d="M239.207,214.205l-.344-.395.669-.767.344.395Z" transform="translate(-238.863 -213.043)" fill="#563008"/>
              <path id="Path_7273" data-name="Path 7273" d="M239.891,214.678l-.344.395-.669-.767.344-.395Z" transform="translate(-238.872 -213.54)" fill="#563008"/>
            </g>
            <g id="Group_282" data-name="Group 282" transform="translate(17.583 1.639)">
              <path id="Path_7274" data-name="Path 7274" d="M241.584,214.205l-.344-.395.669-.767.344.395Z" transform="translate(-241.24 -213.043)" fill="#563008"/>
              <path id="Path_7275" data-name="Path 7275" d="M242.268,214.678l-.344.395-.669-.767.344-.395Z" transform="translate(-241.249 -213.54)" fill="#563008"/>
            </g>
            <g id="Group_283" data-name="Group 283" transform="translate(19.664 1.639)">
              <path id="Path_7276" data-name="Path 7276" d="M246.453,214.205l-.344-.395.669-.767.344.395Z" transform="translate(-246.109 -213.043)" fill="#563008"/>
              <path id="Path_7277" data-name="Path 7277" d="M247.138,214.678l-.344.395-.669-.767.344-.395Z" transform="translate(-246.118 -213.54)" fill="#563008"/>
            </g>
            <g id="Group_284" data-name="Group 284" transform="translate(20.671 1.639)">
              <path id="Path_7278" data-name="Path 7278" d="M248.809,214.205l-.344-.395.669-.767.344.395Z" transform="translate(-248.465 -213.043)" fill="#563008"/>
              <path id="Path_7279" data-name="Path 7279" d="M249.493,214.678l-.344.395-.669-.767.344-.395Z" transform="translate(-248.474 -213.54)" fill="#563008"/>
            </g>
            <g id="Group_286" data-name="Group 286" transform="translate(15.797 0.058)">
              <g id="Group_285" data-name="Group 285">
                <path id="Path_7280" data-name="Path 7280" d="M240.766,210.352h3.105v1.211h-.556V210.8h-2.54v1.648h-.493V210.8h-2.47v.766h-.556v-1.211h3.016v-.394h-2.407v-.42h5.4v.42h-2.5Z" transform="translate(-237.173 -209.455)" fill="#563008"/>
                <path id="Path_7281" data-name="Path 7281" d="M240.746,212.416h-.658v-1.648h-2.3v.766h-.721v-1.377h3.017v-.229h-2.408v-.585h5.562v.585h-2.5v.229h3.105v1.377h-.722v-.766h-2.374Zm-.493-.165h.328V210.6h2.705v.766h.391v-1.046h-3.105v-.559h2.5v-.254h-5.231v.254h2.408v.559h-3.017v1.046h.391V210.6h2.635Z" transform="translate(-237.062 -209.344)" fill="#563008"/>
              </g>
            </g>
            <g id="Group_287" data-name="Group 287" transform="translate(15.727 3.337)">
              <path id="Path_7282" data-name="Path 7282" d="M239.121,220.265l-2.225-3.248h.821l2.009,2.933Z" transform="translate(-236.897 -217.016)" fill="#563008"/>
              <rect id="Rectangle_12" data-name="Rectangle 12" width="6.084" height="0.628" transform="translate(0.448 0.002)" fill="#563008"/>
              <rect id="Rectangle_13" data-name="Rectangle 13" width="4.139" height="0.536" transform="translate(1.445 1.099)" fill="#563008"/>
              <rect id="Rectangle_14" data-name="Rectangle 14" width="2.804" height="0.7" transform="translate(3.09 3.069) rotate(-90)" fill="#563008"/>
              <path id="Path_7283" data-name="Path 7283" d="M246.587,219.967l1.881-2.951h.937l-2.21,3.247Z" transform="translate(-242.445 -217.016)" fill="#563008"/>
              <rect id="Rectangle_15" data-name="Rectangle 15" width="2.52" height="0.564" transform="translate(2.231 2.684)" fill="#563008"/>
            </g>
          </g>
        </g>
        <g id="Group_290" data-name="Group 290" transform="translate(15.348 7.681)">
          <path id="Path_7284" data-name="Path 7284" d="M233.209,197.838h-2.125l1.1-3.469h2.125Z" transform="translate(-231.084 -194.369)" fill="#e6b222"/>
          <path id="Path_7285" data-name="Path 7285" d="M232.429,204.04l3.8-4.243h-2.578Z" transform="translate(-231.854 -197.477)" fill="#e6b222"/>
        </g>
        <g id="Group_295" data-name="Group 295" transform="translate(5.401 21.619)">
          <circle id="Ellipse_6" data-name="Ellipse 6" cx="1.042" cy="1.042" r="1.042" fill="#f5e0bb"/>
          <g id="Group_294" data-name="Group 294" transform="translate(0.113 0.08)">
            <g id="Group_291" data-name="Group 291" transform="translate(0 0.024)">
              <circle id="Ellipse_7" data-name="Ellipse 7" cx="0.385" cy="0.385" r="0.385" transform="translate(0.566 0.032)" fill="#563008"/>
              <path id="Path_7286" data-name="Path 7286" d="M208.651,227.666a.758.758,0,0,0-.485.889.952.952,0,0,1,.552-1.314.673.673,0,0,1,.4.021C209.31,227.342,208.651,227.666,208.651,227.666Z" transform="translate(-208.076 -227.221)" fill="#563008"/>
            </g>
            <g id="Group_292" data-name="Group 292" transform="translate(0.947)">
              <circle id="Ellipse_8" data-name="Ellipse 8" cx="0.385" cy="0.385" r="0.385" transform="translate(0 0.836)" fill="#563008"/>
              <path id="Path_7287" data-name="Path 7287" d="M210.964,228.055a.758.758,0,0,0-.484-.89.952.952,0,0,1,.8,1.176.674.674,0,0,1-.233.323C210.879,228.784,210.964,228.055,210.964,228.055Z" transform="translate(-210.4 -227.165)" fill="#563008"/>
            </g>
            <g id="Group_293" data-name="Group 293" transform="translate(0.122 0.836)">
              <circle id="Ellipse_9" data-name="Ellipse 9" cx="0.385" cy="0.385" r="0.385" fill="#563008"/>
              <path id="Path_7288" data-name="Path 7288" d="M208.99,230.406a.756.756,0,0,0,1.011-.051.951.951,0,0,1-1.408.215.67.67,0,0,1-.19-.35C208.37,230.013,208.99,230.406,208.99,230.406Z" transform="translate(-208.384 -229.716)" fill="#563008"/>
            </g>
          </g>
        </g>
        <g id="Group_300" data-name="Group 300" transform="translate(27.225 21.616)">
          <circle id="Ellipse_10" data-name="Ellipse 10" cx="1.042" cy="1.042" r="1.042" fill="#f5e0bb"/>
          <g id="Group_299" data-name="Group 299" transform="translate(0.113 0.08)">
            <g id="Group_296" data-name="Group 296" transform="translate(0 0.024)">
              <circle id="Ellipse_11" data-name="Ellipse 11" cx="0.385" cy="0.385" r="0.385" transform="translate(0.566 0.031)" fill="#563008"/>
              <path id="Path_7289" data-name="Path 7289" d="M259.71,227.658a.757.757,0,0,0-.485.889.952.952,0,0,1,.552-1.313.671.671,0,0,1,.4.02C260.369,227.334,259.71,227.658,259.71,227.658Z" transform="translate(-259.135 -227.213)" fill="#563008"/>
            </g>
            <g id="Group_297" data-name="Group 297" transform="translate(0.947)">
              <circle id="Ellipse_12" data-name="Ellipse 12" cx="0.385" cy="0.385" r="0.385" transform="translate(0 0.836)" fill="#563008"/>
              <path id="Path_7290" data-name="Path 7290" d="M262.023,228.047a.757.757,0,0,0-.484-.89.952.952,0,0,1,.8,1.176.674.674,0,0,1-.233.323C261.938,228.776,262.023,228.047,262.023,228.047Z" transform="translate(-261.459 -227.157)" fill="#563008"/>
            </g>
            <g id="Group_298" data-name="Group 298" transform="translate(0.122 0.836)">
              <circle id="Ellipse_13" data-name="Ellipse 13" cx="0.385" cy="0.385" r="0.385" fill="#563008"/>
              <path id="Path_7291" data-name="Path 7291" d="M260.049,230.4a.757.757,0,0,0,1.011-.05.951.951,0,0,1-1.408.215.672.672,0,0,1-.191-.35C259.428,230.006,260.049,230.4,260.049,230.4Z" transform="translate(-259.443 -229.709)" fill="#563008"/>
            </g>
          </g>
        </g>
        <path id="Path_7292" data-name="Path 7292" d="M202.388,193.33a14.813,14.813,0,0,1,14.321-10.9s10.946-.324,14.295,10.894c.033.112,0,0,0,0h-.464s.065.219,0,0a14.391,14.391,0,0,0-27.668,0" transform="translate(-199.305 -179.854)" fill="#dd5934"/>
        <path id="Path_7293" data-name="Path 7293" d="M202.882,225.745a14.393,14.393,0,0,0,27.726,0c.025-.082-.025.083,0,0l.48,0s.043-.158,0,0a14.825,14.825,0,0,1-14.348,10.994s-11.011.334-14.323-10.991c-.023-.077.022.079,0,0" transform="translate(-199.318 -204.61)" fill="#dd5934"/>
      </g>
    </g>
  </g>
</svg>
