<svg xmlns="http://www.w3.org/2000/svg" width="18" height="16.821" viewBox="0 0 18 16.821"><g opacity=".397" fill="#fff"><path d="M4.234 10.15a7.12 7.12 0 01.339-1.756A7.1 7.1 0 01.464 5.553a7.935 7.935 0 00-.15 4.891 3.93 3.93 0 003.92-.294z"/><path d="M4.483 7.92c.338.346.733.811.556 1.262a.212.212 0 00.12.275c.327.128.734-.668-.329-1.788a4.286 4.286 0 01.585-1.036c1.551 1.166.45 1.707.936 1.892.416.157.79-1.118-.664-2.219a4.105 4.105 0 01.409-.383 5.362 5.362 0 01-2.587-4.289A8.215 8.215 0 00.656 5.083 6.8 6.8 0 004.483 7.92zm4.169 5.859a5.834 5.834 0 00-2.078.455 5.482 5.482 0 01-1.578-1.38 2.309 2.309 0 01-1.648 1.708 12.565 12.565 0 002.686 1.377 3.276 3.276 0 003.087.749 1.509 1.509 0 00.749-2.31 1.453 1.453 0 00-1.218-.599z"/><path d="M4.652 12.357a.1.1 0 01.008-.04 3.951 3.951 0 01-.433-1.679 4.58 4.58 0 01-2.233.619 4.316 4.316 0 01-1.51-.28 7.2 7.2 0 002.429 3.271 2 2 0 001.739-1.891zm2.633-5.672a1.066 1.066 0 01.093.885.212.212 0 00.392.161c.36-.876-.31-1.62-.97-2.278a4.519 4.519 0 01.564-.26c1.15.643 1.352 1.524 1.106 2.056a.212.212 0 00.385.178 1.975 1.975 0 00-.95-2.4 4.91 4.91 0 01.5-.1 10.871 10.871 0 01.076-4.931 9.169 9.169 0 00-4.215 1.151 8.117 8.117 0 00-.351.209c.067 3.343 2.636 3.937 3.37 5.329z"/><path d="M16.488 3.856a3.33 3.33 0 001.431-1.555.215.215 0 00-.02-.218.219.219 0 00-.2-.082c-1.063.167-2.561-.368-4.15-.933A13.1 13.1 0 008.918-.001a10.447 10.447 0 00-.076 4.9c.064-.005.011 0 .432-.015.772.768 2.132 1.215 1.985 2.648l-.31 3.03a.212.212 0 00.422.043l.31-3.03c.168-1.647-1.333-2.26-1.756-2.712l.47-.016c.866.8 1.779 1.085 1.9 2.194l.327 2.866a.212.212 0 00.421-.048c-.392-2.277-.025-3.453-1.148-4.351l-.859-.687q.6-.026 1.143-.06c.492.548.752.711.944 1.149 1.085 2.338 1.03 2.672 1.35 2.532.357-.158-.09-.536-.962-2.7a2.218 2.218 0 00-.42-.631l-.366-.387a14.9 14.9 0 002.494-.37 3.053 3.053 0 01.6 1.536c.281 3.465-.682 5.7-2.864 6.647a.212.212 0 00.168.389c2.367-1.025 3.416-3.4 3.118-7.071a3.431 3.431 0 00-.6-1.629c.16-.053.311-.112.455-.174 1.823 2.853 2.36 5.5-.758 9.04a.212.212 0 10.318.281c3.472-3.935 2.5-6.903.832-9.517zm-3.839-.828a.53.53 0 11.532-.532.531.531 0 01-.532.532z"/></g></svg>