<svg xmlns="http://www.w3.org/2000/svg" width="22.466" height="12" viewBox="0 0 22.466 12"><path d="M21.68 5.682c0-.047 0-.071-.024-.094v-.589a21.837 21.837 0 01.8-3.957.237.237 0 00-.071-.212.181.181 0 00-.236.024c-1.861 1.931-2.025 3.7-2.661 3.768h-.116a1.449 1.449 0 01-.306-.024 1.777 1.777 0 01-.565-.188l-2.355-1.036c-.047-.024-.118-.047-.165-.071a1.311 1.311 0 01.212-1.06c.353-.447.4-.73-.236-.542a4.992 4.992 0 00-1.437.824c-.071.047-.141.118-.212.165a18.774 18.774 0 00-1.649-.424 7.318 7.318 0 00-2.19-1.013c-.471-.141-.824-.236-1.107-.33a2.63 2.63 0 01-1.154-.8C8.184.099 8.161.076 8.161.052a.157.157 0 00-.236 0 6.559 6.559 0 00-1.53 2.073c-.542.094-1.013.188-1.437.283A14.471 14.471 0 00.13 5.187a.354.354 0 00.024.565l.212.118a4.024 4.024 0 01.4.259.142.142 0 01-.094.259l-.377-.047a.154.154 0 00-.071.283 15.027 15.027 0 007.4 3.2c.024.094.071.188.094.283a2.676 2.676 0 001.649 1.884c.071.024.165-.024.118-.094a2.439 2.439 0 01.047-1.413.8.8 0 00.047-.565 13.607 13.607 0 003.815-.636 21.76 21.76 0 001.13-.4 4.993 4.993 0 001.437.824c.612.188.589-.094.236-.542a1.367 1.367 0 01-.245-.94 11.814 11.814 0 001.484-.895c.683-.447 1.507-1.013 1.554-1.06a1.022 1.022 0 01.377-.165.652.652 0 01.212-.024c.071 0 .118.024.188.024a.023.023 0 01.024.024c.518.236.73 1.319 2.167 2.826.071.071.118.141.188.212a.181.181 0 00.236.024.179.179 0 00.071-.212 27.24 27.24 0 01-.773-3.297z" fill="#fff" opacity=".397"/></svg>