<svg xmlns="http://www.w3.org/2000/svg" width="18" height="17.443" viewBox="0 0 18 17.443"><path d="M12.169.498a6.041 6.041 0 01-.131 8.372 14.2 14.2 0 00-2.809 4.139 7.813 7.813 0 01-6.461 4.4c-1.442.187-2.547-.393-2.716-1.817a6.083 6.083 0 012.565-6.086 6.5 6.5 0 002.641-3.39 7.209 7.209 0 013.746-4.139 4.171 4.171 0 001.835-1.48.921.921 0 01.543-.487c.262-.074.595.263.787.488zm.838 12.438a2.233 2.233 0 00.141 2.82 2 2 0 002.485.529 4.244 4.244 0 001.392-1.234 4.091 4.091 0 00.846-3.648 3.1 3.1 0 01-.106-.705c.018-.212-.106-.317-.335-.317a4.275 4.275 0 00-2.767.776 5.656 5.656 0 00-1.656 1.779z" opacity=".4" fill="#fff"/></svg>