<svg xmlns="http://www.w3.org/2000/svg" width="17" height="15.242" viewBox="0 0 17 15.242"><path d="M9.997 14.679c-.417.282-.347.512.157.512h1.27a2.832 2.832 0 001.465-.312 4 4 0 00.549-2v-.014c0-.5-.3-.631-.663-.284zm-3.224 0c.417.282.347.512-.157.512h-1.27a2.831 2.831 0 01-1.465-.312 4 4 0 01-.549-2v-.014c0-.5.3-.631.663-.284zM.128 8.653a1.752 1.752 0 01.665-2.016 1.974 1.974 0 012.05-3.019C2.297 1.413 4.472.112 6.216 1.568a2.466 2.466 0 014.567-.057c1.873-1.4 3.967-.1 3.327 2.107a1.984 1.984 0 012.049 3.019c.788.7 1.047 1.544.685 2.065s-7.857 6.54-8.416 6.54c-.9 0-8.126-6.14-8.3-6.589z" opacity=".397" fill="#fff"/></svg>