<svg xmlns="http://www.w3.org/2000/svg" width="20" height="19.761" viewBox="0 0 20 19.761"><g opacity=".4" fill="#fff"><path d="M13.019 5.846c.814.124 1.591-.561 1.8-1.935a8.462 8.462 0 00-.763-3.7 7.437 7.437 0 00-2.183 3.252c-.209 1.373.332 2.258 1.146 2.383zm-1.535.906a9.413 9.413 0 00-1.452-3.926c-.086 0-1.849 2.385-1.849 3.926s.737 2.419 1.65 2.419 1.65-.879 1.651-2.419zM6.416 5.647c-.085 0-1.849 2.387-1.85 3.927s.739 2.42 1.652 2.42 1.65-.88 1.651-2.42a9.431 9.431 0 00-1.453-3.927z"/><path d="M15.858 5.007c-1.377.195-2.07.966-1.953 1.782s.994 1.364 2.372 1.169a7.436 7.436 0 003.274-2.152 8.477 8.477 0 00-3.693-.799zm-2.772 6.645c1.541 0 3.928-1.765 3.928-1.849a9.4 9.4 0 00-3.928-1.453c-1.541 0-2.419.739-2.419 1.65s.874 1.652 2.419 1.652zm.991 1.658a9.394 9.394 0 00-3.929-1.454c-1.54 0-2.419.74-2.419 1.652s.879 1.652 2.419 1.652 3.929-1.769 3.929-1.85zm1.958-9.581c.552.551 1.531.468 2.465-.465A8.059 8.059 0 0019.998 0a7.066 7.066 0 00-3.5 1.259c-.931.941-1.018 1.917-.463 2.47zm-8.997 8.657h-.043L.024 18.992c-.06.079-.011.35.185.545s.452.263.532.2l3.127-3.28 3.515-3.683a.379.379 0 00-.131-.257.622.622 0 00-.214-.131z"/></g></svg>