<svg xmlns="http://www.w3.org/2000/svg" width="15" height="15" viewBox="0 0 15 15">
  <g id="Group_1153" data-name="Group 1153" transform="translate(22.069 59.069)">
    <path id="Path_10763" data-name="Path 10763" d="M9.5,2A7.5,7.5,0,1,0,17,9.5,7.5,7.5,0,0,0,9.5,2Zm0,14.25c-.594,0-1.359-1.106-1.827-3h3.654C10.859,15.144,10.094,16.25,9.5,16.25ZM7.512,12.5a16.357,16.357,0,0,1-.255-2.625h4.485a16.357,16.357,0,0,1-.255,2.625ZM2.769,9.875H6.508A17.333,17.333,0,0,0,6.751,12.5H3.462A6.692,6.692,0,0,1,2.769,9.875ZM9.5,2.75c.594,0,1.359,1.106,1.827,3H7.673C8.141,3.856,8.906,2.75,9.5,2.75ZM11.488,6.5a16.357,16.357,0,0,1,.255,2.625H7.258A16.357,16.357,0,0,1,7.512,6.5ZM6.508,9.125H2.769A6.692,6.692,0,0,1,3.462,6.5H6.751A17.333,17.333,0,0,0,6.508,9.125Zm5.985.75h3.739a6.692,6.692,0,0,1-.693,2.625H12.249A17.333,17.333,0,0,0,12.492,9.875Zm0-.75A17.333,17.333,0,0,0,12.249,6.5h3.289a6.692,6.692,0,0,1,.693,2.625ZM15.109,5.75H12.1A7.945,7.945,0,0,0,10.93,2.906,6.766,6.766,0,0,1,15.109,5.75ZM8.07,2.906A7.945,7.945,0,0,0,6.9,5.75H3.891A6.766,6.766,0,0,1,8.07,2.906ZM3.891,13.25H6.9A7.946,7.946,0,0,0,8.07,16.094,6.766,6.766,0,0,1,3.891,13.25Zm7.039,2.844A7.946,7.946,0,0,0,12.1,13.25h3.013A6.766,6.766,0,0,1,10.93,16.094Z" transform="translate(-24.069 -61.069)" fill="#fff"/>
  </g>
</svg>
