<svg xmlns="http://www.w3.org/2000/svg" width="105.506" height="41.044" viewBox="0 0 105.506 41.044"><g transform="translate(0 11.148)"><path d="M296.558,158.346l-.329,3.611h-9.117V161.5l6.279-9.556h-2.129a7.58,7.58,0,0,0-.938.041,1.754,1.754,0,0,0-.541.171,1.707,1.707,0,0,0-.65.638,15.062,15.062,0,0,0-.951,1.728h-.556l.3-3.264h8.446v.455l-6.278,9.556h2.444a7.887,7.887,0,0,0,1.564-.1,1.009,1.009,0,0,0,.606-.367,8.976,8.976,0,0,0,.722-1.145,14.261,14.261,0,0,0,.613-1.312Z" transform="translate(-287.112 -150.967)" fill="#fff"/><path d="M308.223,161.95h-5.291v-.588a6.066,6.066,0,0,0,.867-.147q.5-.118.5-.291a.907.907,0,0,0-.011-.136,1.018,1.018,0,0,0-.057-.2l-.83-2.216h-3.353c-.078.206-.162.447-.255.723s-.173.523-.241.739a4.155,4.155,0,0,0-.153.611,2.457,2.457,0,0,0-.025.264c0,.161.112.3.332.411a3.334,3.334,0,0,0,1.1.246v.588h-3.984v-.588a3.375,3.375,0,0,0,.51-.079,1.291,1.291,0,0,0,.449-.178,1.8,1.8,0,0,0,.475-.444,2.423,2.423,0,0,0,.326-.626q.793-2.117,1.591-4.243t1.762-4.689h1.369q1.341,3.633,2.1,5.744t1.294,3.5a1.75,1.75,0,0,0,.226.412,1.486,1.486,0,0,0,.39.35,1.466,1.466,0,0,0,.444.182,3,3,0,0,0,.46.075Zm-5.1-4.327-1.406-3.867-1.385,3.867Z" transform="translate(-287.521 -150.96)" fill="#fff"/><path d="M320.372,161.957h-3.847q-.869-1.469-1.567-2.458t-1.786-2.481h-.356v3.363a1.082,1.082,0,0,0,.089.459.714.714,0,0,0,.356.317,1.949,1.949,0,0,0,.366.12,4.372,4.372,0,0,0,.483.091v.588h-5.161v-.588l.524-.046a1.645,1.645,0,0,0,.475-.091.649.649,0,0,0,.343-.293,1.038,1.038,0,0,0,.1-.475v-7.584a1.073,1.073,0,0,0-.082-.444.744.744,0,0,0-.356-.325,2.341,2.341,0,0,0-.513-.173c-.2-.045-.363-.075-.487-.09v-.589h5.333v.589c-.142.015-.312.035-.511.063a2.734,2.734,0,0,0-.51.118.578.578,0,0,0-.356.309,1.207,1.207,0,0,0-.089.468v3.6h.287q.535-.535,1.246-1.288t1.1-1.236q.547-.672.8-1.063a1.3,1.3,0,0,0,.257-.679c0-.085-.082-.151-.246-.2a3.925,3.925,0,0,0-.753-.1v-.589h4.222v.589a4.9,4.9,0,0,0-1.286.3,3.326,3.326,0,0,0-1.033.72q-.73.724-1.205,1.255t-1.218,1.359q.657.881,1.579,2.16t1.839,2.494a4.572,4.572,0,0,0,.533.591,2.629,2.629,0,0,0,.663.456,1.631,1.631,0,0,0,.389.128,2.441,2.441,0,0,0,.376.054Z" transform="translate(-288.031 -150.967)" fill="#fff"/><path d="M332.473,161.957h-3.847q-.869-1.469-1.568-2.458t-1.786-2.481h-.356v3.363a1.068,1.068,0,0,0,.089.459.706.706,0,0,0,.356.317,1.949,1.949,0,0,0,.366.12,4.367,4.367,0,0,0,.483.091v.588h-5.161v-.588l.524-.046a1.645,1.645,0,0,0,.475-.091.644.644,0,0,0,.342-.293,1.026,1.026,0,0,0,.1-.475v-7.584a1.073,1.073,0,0,0-.082-.444.753.753,0,0,0-.356-.325,2.359,2.359,0,0,0-.512-.173c-.2-.045-.363-.075-.487-.09v-.589h5.332v.589c-.141.015-.311.035-.51.063a2.717,2.717,0,0,0-.51.118.573.573,0,0,0-.356.309,1.19,1.19,0,0,0-.089.468v3.6h.287q.534-.535,1.246-1.288t1.1-1.236q.547-.672.8-1.063a1.3,1.3,0,0,0,.256-.679c0-.085-.082-.151-.246-.2a3.9,3.9,0,0,0-.753-.1v-.589h4.223v.589a4.886,4.886,0,0,0-1.285.3,3.315,3.315,0,0,0-1.033.72q-.73.724-1.205,1.255t-1.219,1.359q.657.881,1.58,2.16t1.839,2.494a4.556,4.556,0,0,0,.532.591,2.632,2.632,0,0,0,.664.456,1.629,1.629,0,0,0,.389.128,2.409,2.409,0,0,0,.376.054Z" transform="translate(-288.541 -150.967)" fill="#fff"/><path d="M344.343,151.849q-.2.023-.572.1a1.526,1.526,0,0,0-.626.277,1.078,1.078,0,0,0-.367.677,7.594,7.594,0,0,0-.105,1.471v3.98a3.8,3.8,0,0,1-1.081,2.827,3.889,3.889,0,0,1-2.861,1.07,4.608,4.608,0,0,1-3.21-1.033,3.694,3.694,0,0,1-1.136-2.88v-5.473a1.027,1.027,0,0,0-.092-.452.863.863,0,0,0-.353-.339,1.775,1.775,0,0,0-.438-.159c-.174-.04-.316-.067-.425-.082v-.573h5.093v.573a3.817,3.817,0,0,0-.446.056,2.83,2.83,0,0,0-.459.125.543.543,0,0,0-.349.3,1.2,1.2,0,0,0-.089.475v5.4a3.465,3.465,0,0,0,.635,2.314,2.647,2.647,0,0,0,3.712-.075,3.556,3.556,0,0,0,.676-2.353V154.45a6.438,6.438,0,0,0-.12-1.444,1.306,1.306,0,0,0-.366-.691,1.64,1.64,0,0,0-.62-.3,5.277,5.277,0,0,0-.619-.166v-.589h4.216Z" transform="translate(-289.047 -150.967)" fill="#fff"/><path d="M349.577,162.238a5.481,5.481,0,0,1-1.66-.245,5.754,5.754,0,0,1-1.3-.578l-.472.528h-.582l-.088-3.867h.589a10.458,10.458,0,0,0,.506,1.164,5.663,5.663,0,0,0,.712,1.1,3.767,3.767,0,0,0,.935.824,2.261,2.261,0,0,0,1.208.317,1.922,1.922,0,0,0,1.427-.5,1.725,1.725,0,0,0,.5-1.264,1.439,1.439,0,0,0-.421-1.052,3.428,3.428,0,0,0-1.3-.737c-.384-.136-.736-.262-1.058-.378s-.624-.235-.907-.355a3.064,3.064,0,0,1-1.455-1.232,3.428,3.428,0,0,1-.475-1.789,3.042,3.042,0,0,1,.246-1.2,3.171,3.171,0,0,1,.719-1.038,3.444,3.444,0,0,1,1.156-.7,4.22,4.22,0,0,1,1.534-.271,4.5,4.5,0,0,1,1.513.248,5.916,5.916,0,0,1,1.108.5l.419-.452h.595l.055,3.648h-.588q-.205-.589-.483-1.2a5.309,5.309,0,0,0-.585-1.023,2.723,2.723,0,0,0-.774-.7,1.966,1.966,0,0,0-1.026-.262,1.651,1.651,0,0,0-1.209.462,1.533,1.533,0,0,0-.468,1.14,1.421,1.421,0,0,0,.408,1.049,3.41,3.41,0,0,0,1.269.718q.506.188,1.034.377t.938.362a3.4,3.4,0,0,1,1.509,1.167,3.151,3.151,0,0,1,.517,1.845,3.22,3.22,0,0,1-.3,1.344,3.08,3.08,0,0,1-.794,1.079,3.913,3.913,0,0,1-1.265.732A4.985,4.985,0,0,1,349.577,162.238Z" transform="translate(-289.569 -150.953)" fill="#fff"/><path d="M367,161.957h-5.249v-.588l.5-.046a1.419,1.419,0,0,0,.451-.091.682.682,0,0,0,.35-.3,1.016,1.016,0,0,0,.1-.471v-3.686H359v3.6a1.032,1.032,0,0,0,.1.459.688.688,0,0,0,.339.317,2.355,2.355,0,0,0,.445.128,4.078,4.078,0,0,0,.513.083v.588h-5.25v-.588c.115,0,.282-.022.5-.05a2.085,2.085,0,0,0,.482-.1.6.6,0,0,0,.342-.3,1.062,1.062,0,0,0,.1-.471v-7.569a1.04,1.04,0,0,0-.086-.444.74.74,0,0,0-.352-.317,2.611,2.611,0,0,0-.52-.177,3.852,3.852,0,0,0-.466-.094v-.589h5.25v.589a4.04,4.04,0,0,0-.507.074,4.271,4.271,0,0,0-.452.114.559.559,0,0,0-.352.313,1.214,1.214,0,0,0-.086.457V156h4.148v-3.122a1,1,0,0,0-.089-.444.756.756,0,0,0-.356-.317,2.585,2.585,0,0,0-.475-.17,4.05,4.05,0,0,0-.476-.1v-.589H367v.589a4.5,4.5,0,0,0-.491.063,3.56,3.56,0,0,0-.493.125.568.568,0,0,0-.349.309,1.158,1.158,0,0,0-.09.461v7.576a1.053,1.053,0,0,0,.09.459.7.7,0,0,0,.349.317,2.15,2.15,0,0,0,.475.136,4.842,4.842,0,0,0,.51.075Z" transform="translate(-289.977 -150.967)" fill="#fff"/><path d="M374,161.957h-5.386v-.588l.545-.046a1.718,1.718,0,0,0,.5-.091.67.67,0,0,0,.347-.3,1.07,1.07,0,0,0,.091-.471v-7.584a1.066,1.066,0,0,0-.089-.452.666.666,0,0,0-.349-.317,2.99,2.99,0,0,0-.486-.155,5.141,5.141,0,0,0-.555-.108v-.589H374v.589c-.136.015-.308.035-.513.063a2.738,2.738,0,0,0-.52.118.577.577,0,0,0-.355.3,1.186,1.186,0,0,0-.089.472v7.576a1.064,1.064,0,0,0,.093.462.683.683,0,0,0,.352.313,2.248,2.248,0,0,0,.476.132,4.721,4.721,0,0,0,.558.079Z" transform="translate(-290.544 -150.967)" fill="#fff"/></g><g transform="translate(14.344 27.316)"><path d="M312.887,174.515c-.141.015-.266.033-.375.053a2.583,2.583,0,0,0-.411.12.569.569,0,0,0-.37.325,1.279,1.279,0,0,0-.089.475v1.244c0,.25,0,.453.007.606s.011.344.021.569a7.941,7.941,0,0,1-2.023.852,8.68,8.68,0,0,1-2.461.4,5.475,5.475,0,0,1-1.977-.355,4.53,4.53,0,0,1-1.623-1.064,4.925,4.925,0,0,1-1.1-1.742,6.6,6.6,0,0,1-.4-2.384,6.922,6.922,0,0,1,.376-2.316,5.249,5.249,0,0,1,1.088-1.833,4.73,4.73,0,0,1,1.7-1.176,5.763,5.763,0,0,1,2.221-.416,5,5,0,0,1,1.534.226,6.5,6.5,0,0,1,1.162.483l.425-.415h.6l.061,3.905h-.6a7.267,7.267,0,0,0-1.245-2.614,2.307,2.307,0,0,0-1.834-.853,2.227,2.227,0,0,0-2.03,1.267,7.145,7.145,0,0,0-.716,3.493,8.026,8.026,0,0,0,.7,3.7,2.173,2.173,0,0,0,1.989,1.336,2.715,2.715,0,0,0,1.071-.2,2.262,2.262,0,0,0,.729-.464v-2.17a1.047,1.047,0,0,0-.089-.457.752.752,0,0,0-.356-.321,2.15,2.15,0,0,0-.512-.172q-.309-.069-.513-.1v-.589h5.043Z" transform="translate(-302.087 -167.873)" fill="#fff"/><path d="M325.18,178.878h-3.727q-.965-1.628-1.6-2.593t-1.59-2.231h-.375v3.25a1.039,1.039,0,0,0,.092.459.732.732,0,0,0,.354.317,2.24,2.24,0,0,0,.406.124,4.4,4.4,0,0,0,.476.087v.588H314.03v-.588c.132-.015.308-.036.524-.065a1.806,1.806,0,0,0,.462-.1.692.692,0,0,0,.35-.3,1.1,1.1,0,0,0,.089-.472V169.8a1.169,1.169,0,0,0-.077-.452.67.67,0,0,0-.362-.317,2.8,2.8,0,0,0-.516-.165c-.2-.045-.355-.078-.469-.1v-.589h5.449a5.027,5.027,0,0,1,2.775.63,2.131,2.131,0,0,1,.947,1.9,2.682,2.682,0,0,1-.584,1.806,3.842,3.842,0,0,1-1.783,1.066q.464.664,1.084,1.537t1.29,1.786q.213.3.579.721a1.687,1.687,0,0,0,.647.524,2.336,2.336,0,0,0,.4.091c.162.025.278.041.346.046Zm-4.661-7.953a2.015,2.015,0,0,0-.545-1.564,2.224,2.224,0,0,0-1.55-.494h-.54v4.478h.52a2.056,2.056,0,0,0,1.56-.58A2.59,2.59,0,0,0,320.519,170.925Z" transform="translate(-302.59 -167.887)" fill="#fff"/><path d="M334.818,169.359a5.315,5.315,0,0,1,1.139,1.749,6.108,6.108,0,0,1,.421,2.336,6.929,6.929,0,0,1-.355,2.224A5.258,5.258,0,0,1,335,177.486a5.038,5.038,0,0,1-1.655,1.232,5.345,5.345,0,0,1-2.266.441,5.253,5.253,0,0,1-2.006-.385,4.885,4.885,0,0,1-1.663-1.116,5.22,5.22,0,0,1-1.129-1.741,6,6,0,0,1-.419-2.285,6.626,6.626,0,0,1,.408-2.377,5.527,5.527,0,0,1,1.119-1.828,4.811,4.811,0,0,1,1.673-1.149,5.5,5.5,0,0,1,4.106-.012A4.984,4.984,0,0,1,334.818,169.359Zm-1.759,7.656a6.106,6.106,0,0,0,.444-1.555,12.614,12.614,0,0,0,.137-1.963,13.458,13.458,0,0,0-.12-1.809,6.263,6.263,0,0,0-.407-1.566,2.956,2.956,0,0,0-.781-1.1,1.8,1.8,0,0,0-1.211-.415,2.029,2.029,0,0,0-1.882,1.295,8.375,8.375,0,0,0-.644,3.658,12.273,12.273,0,0,0,.14,1.9,6.039,6.039,0,0,0,.442,1.555,2.79,2.79,0,0,0,.781,1.045,1.815,1.815,0,0,0,1.164.374,1.837,1.837,0,0,0,1.163-.377A2.59,2.59,0,0,0,333.059,177.014Z" transform="translate(-303.088 -167.873)" fill="#fff"/><path d="M349.168,168.77q-.2.023-.572.1a1.528,1.528,0,0,0-.625.274,1.089,1.089,0,0,0-.367.679,7.587,7.587,0,0,0-.105,1.47v3.98a3.8,3.8,0,0,1-1.081,2.827,3.885,3.885,0,0,1-2.86,1.071,4.608,4.608,0,0,1-3.211-1.033,3.693,3.693,0,0,1-1.135-2.88v-5.473a1.026,1.026,0,0,0-.093-.452.862.862,0,0,0-.352-.339,1.735,1.735,0,0,0-.438-.159c-.174-.04-.315-.067-.425-.083v-.572H343v.572a4.036,4.036,0,0,0-.445.057,2.959,2.959,0,0,0-.459.124.549.549,0,0,0-.349.3,1.216,1.216,0,0,0-.089.475v5.4a3.465,3.465,0,0,0,.635,2.314,2.646,2.646,0,0,0,3.712-.076,3.554,3.554,0,0,0,.676-2.352v-3.625a6.381,6.381,0,0,0-.12-1.444,1.306,1.306,0,0,0-.365-.691,1.645,1.645,0,0,0-.621-.3,5.384,5.384,0,0,0-.619-.165v-.589h4.216Z" transform="translate(-303.595 -167.887)" fill="#fff"/><path d="M359.434,170.856a3.335,3.335,0,0,1-.339,1.557,2.861,2.861,0,0,1-.934,1.06,4.176,4.176,0,0,1-1.406.61,7.657,7.657,0,0,1-1.776.189h-.794v3.007a1.11,1.11,0,0,0,.092.471.684.684,0,0,0,.352.321,2.654,2.654,0,0,0,.445.128,5.125,5.125,0,0,0,.52.091v.588h-5.263v-.588c.132-.015.308-.036.527-.065a1.691,1.691,0,0,0,.458-.1.683.683,0,0,0,.353-.294,1.117,1.117,0,0,0,.085-.483V169.8a1.155,1.155,0,0,0-.082-.456.669.669,0,0,0-.356-.321,2.5,2.5,0,0,0-.51-.16c-.212-.049-.371-.079-.475-.095v-.589h5.359a4.881,4.881,0,0,1,2.812.659A2.306,2.306,0,0,1,359.434,170.856Zm-2.669.385a2.964,2.964,0,0,0-.442-1.79,1.857,1.857,0,0,0-1.572-.585h-.567v4.7h.286a2.04,2.04,0,0,0,2.294-2.322Z" transform="translate(-304.118 -167.887)" fill="#fff"/></g><g transform="translate(20.405)"><path d="M311.6,140.468a2.566,2.566,0,0,0,.587.092,2.48,2.48,0,0,0,.31-.014h.042a.316.316,0,0,1,.338.275.4.4,0,0,1-.233.409,5.624,5.624,0,0,1-1.108.572,4.232,4.232,0,0,0,.848,1.122c.288.254.423.417.423.685s-.113.4-.29.4a.663.663,0,0,1-.367-.114,3.093,3.093,0,0,0-1.771-.381c-.523,0-.89.17-.89.544,0,.529.692.811,1.5.811a1.359,1.359,0,0,0,.389-.056c.48.106.776.339.776.6,0,.183-.127.332-.543.332a3.818,3.818,0,0,1-1.63-.339,1.29,1.29,0,0,1-.862-1.064c0-.537.417-1.017,1.455-1.171a8.65,8.65,0,0,1,.96-.085c.063,0,.085-.008.085-.029a.2.2,0,0,0-.05-.1c-.191-.282-.375-.592-.572-.953a4.965,4.965,0,0,1-1.567.353.821.821,0,0,1-.594-.254,2.359,2.359,0,0,1-.416-.459.038.038,0,0,1-.008-.028.027.027,0,0,1,.029-.029.056.056,0,0,1,.034.008,1.657,1.657,0,0,0,.757.148,3.978,3.978,0,0,0,.854-.162c.191-.05.388-.113.593-.183-.12-.24-.24-.5-.367-.776a.99.99,0,0,0-.162-.262.383.383,0,0,0-.255-.084.741.741,0,0,0-.127.013.243.243,0,0,1-.056.008.05.05,0,0,1-.056-.05.093.093,0,0,1,.034-.063c.262-.262.438-.36.565-.36a.9.9,0,0,1,.41.106c.268.127.3.211.3.29,0,.042-.007.127-.007.176a1.125,1.125,0,0,0,.1.4c.048.119.105.254.162.388.183-.077.36-.162.515-.247.085-.042.105-.084.105-.113s-.007-.042-.042-.077c-.078-.077-.155-.141-.247-.219-.013-.014-.013-.014-.013-.028s.013-.029.042-.029Zm1.081-.586a1.565,1.565,0,0,1,.692.169.552.552,0,0,1,.375.508.269.269,0,0,1-.3.29c-.092,0-.17-.035-.239-.183a1.5,1.5,0,0,0-.586-.7c-.034-.021-.064-.035-.064-.056s.022-.029.078-.029Zm1.362-.388c.247.119.4.247.4.473,0,.183-.092.3-.268.3-.113,0-.191-.043-.275-.22a1.61,1.61,0,0,0-.58-.592c-.042-.028-.056-.035-.056-.064s.028-.028.148-.028A1.619,1.619,0,0,1,314.041,139.494Z" transform="translate(-308.414 -139.29)" fill="#fff"/><path d="M315.377,144.019a.325.325,0,0,1-.19.055.8.8,0,0,1-.473-.24.592.592,0,0,1-.276-.5c0-.042.014-.056.035-.056a.1.1,0,0,1,.043.014.381.381,0,0,0,.225.071,1.556,1.556,0,0,0,.649-.212,4.553,4.553,0,0,1,2.153-.734,1.4,1.4,0,0,1,1.539,1.3c0,.592-.36,1.023-1.066,1.341a6.012,6.012,0,0,1-2.09.459.054.054,0,0,1-.056-.05c0-.028.013-.042.049-.056a5.369,5.369,0,0,0,1.637-.726,1.458,1.458,0,0,0,.77-1.192.756.756,0,0,0-.854-.755c-.438,0-.924.31-1.8,1.03C315.582,143.843,315.512,143.907,315.377,144.019Z" transform="translate(-308.668 -139.425)" fill="#fff"/><path d="M325.184,142.9c.325-.375.36-.389.431-.389s.12.008.459.24c.3.212.331.247.331.311s-.013.085-.176.24v.544c0,.191.028.494.028.558,0,.211-.267.3-.656.3-.268,0-.318-.05-.318-.24v-.184h-1.419c.014.9.028,1.384.028,1.5,0,.2-.191.3-.621.3-.31,0-.375-.028-.375-.254,0-.119.022-.628.035-1.538h-1.341v.261c0,.212-.2.311-.657.311-.211,0-.261-.056-.261-.247,0-.12.028-.325.028-.953a9.21,9.21,0,0,0-.042-1.044,3.431,3.431,0,0,1,1.1.29h1.194V142h-1.038v.092c0,.212-.2.311-.586.311-.212,0-.331-.056-.331-.247,0-.12.028-.325.028-.84a9.206,9.206,0,0,0-.042-1.044,3.458,3.458,0,0,1,1.1.289h.87c-.008-.677-.022-.86-.043-1.107,1.116.1,1.2.169,1.2.268,0,.077-.071.127-.261.233v.606h.94c.345-.366.38-.38.458-.38s.113,0,.445.24c.267.19.31.225.31.3s-.008.085-.169.233v.55c0,.19.028.494.028.557,0,.212-.227.3-.657.3-.268,0-.318-.05-.318-.24V142H323.85v.9Zm-2.245,1.241c.008-.317.008-.684.015-1.1h-1.215a.7.7,0,0,1-.148.078v1.022Zm.015-2.286V140.7h-.89a.669.669,0,0,1-.149.077v1.081Zm.9-1.158v1.158h1.037V140.7Zm1.433,3.444v-1.1H323.85c.008.417.008.784.014,1.1Z" transform="translate(-308.93 -139.293)" fill="#fff"/><path d="M330.342,140.739c.24-.029.438-.056.693-.106a.637.637,0,0,0,.268-.113c.105-.077.127-.1.191-.1s.19.056.422.247c.354.3.452.41.452.529s-.049.156-.162.233a.682.682,0,0,0-.275.311,7.376,7.376,0,0,1-4.152,3.938.222.222,0,0,1-.071.021.052.052,0,0,1-.049-.05c0-.021.007-.035.034-.056a9.331,9.331,0,0,0,3.481-4.332.193.193,0,0,0,.014-.064.071.071,0,0,0-.071-.071c-.043,0-.283.035-.578.092a.778.778,0,0,1-.17.029.751.751,0,0,1-.268-.077,6.22,6.22,0,0,1-2.386,2.2.132.132,0,0,1-.064.021.058.058,0,0,1-.063-.056.053.053,0,0,1,.014-.043,7.284,7.284,0,0,0,1.637-2.286.8.8,0,0,0,.12-.354c0-.127-.112-.247-.3-.374-.035-.021-.042-.029-.042-.042s.014-.021.056-.035a1.446,1.446,0,0,1,.36-.064,1.371,1.371,0,0,1,.571.268c.219.14.332.233.339.311Zm1.646-.875a1.441,1.441,0,0,1,.7.183.577.577,0,0,1,.346.487.3.3,0,0,1-.289.332.283.283,0,0,1-.275-.2,1.419,1.419,0,0,0-.536-.72c-.035-.021-.057-.035-.057-.056s.022-.029.079-.029Zm1.341-.444c.262.134.381.254.381.473a.3.3,0,0,1-.276.311c-.148,0-.218-.029-.3-.219a1.505,1.505,0,0,0-.543-.6c-.042-.029-.057-.035-.064-.063s.03-.035.078-.035A1.662,1.662,0,0,1,333.329,139.42Z" transform="translate(-309.221 -139.286)" fill="#fff"/><path d="M335.759,142.323a2.443,2.443,0,0,0-.112.353,3.548,3.548,0,0,1-2.076,2.576.071.071,0,0,1-.035.008.04.04,0,0,1-.042-.035c0-.014,0-.021.022-.042a4.125,4.125,0,0,0,1.376-2.739,1.618,1.618,0,0,0,.028-.29c0-.148-.112-.247-.395-.388-.028-.014-.035-.021-.035-.035s.028-.035.085-.064a1.023,1.023,0,0,1,.422-.134c.092,0,.219.056.51.254.218.148.3.254.3.338A.466.466,0,0,1,335.759,142.323Zm1.491-.853c-.071.106-.085.211-.1.557-.021.438-.042,1.171-.05,1.92a11.812,11.812,0,0,0,2.662-2.124c.014-.014.021-.021.034-.021a.041.041,0,0,1,.043.042.09.09,0,0,1-.015.042,9.044,9.044,0,0,1-2.519,2.95c-.092.078-.142.113-.205.177a.187.187,0,0,1-.148.064c-.063,0-.191-.085-.388-.291s-.276-.345-.276-.422a.74.74,0,0,1,.05-.2.816.816,0,0,0,.035-.254c.021-.833.021-1.644.021-2.554,0-.254-.084-.325-.339-.431-.035-.014-.049-.028-.049-.05s.007-.028.034-.05a.948.948,0,0,1,.467-.2c.092,0,.2.034.515.275.24.183.3.282.3.38A.4.4,0,0,1,337.25,141.47Z" transform="translate(-309.47 -139.345)" fill="#fff"/><path d="M345.812,142.612c.268.113.353.241.353.388,0,.219-.183.312-.416.312-.177,0-.635-.008-.911-.008-.622,0-1.709.056-2.74.17a.73.73,0,0,0-.353.091.385.385,0,0,1-.2.056.623.623,0,0,1-.38-.24c-.255-.268-.347-.409-.347-.507a1.484,1.484,0,0,1,.029-.269c.007-.035.021-.049.035-.049s.014,0,.042.021a.676.676,0,0,0,.515.2c.17,0,.31-.007.458-.014,1.222-.063,1.808-.105,2.775-.169.176-.013.247-.021.431-.042a1.772,1.772,0,0,1,.267-.021A1.328,1.328,0,0,1,345.812,142.612Z" transform="translate(-309.778 -139.43)" fill="#fff"/><path d="M348,145.549a.043.043,0,0,1-.048-.049.049.049,0,0,1,.028-.043,7.779,7.779,0,0,0,3.063-4,.128.128,0,0,0,.008-.05c0-.042-.029-.056-.085-.056s-.261.021-.417.035a16.409,16.409,0,0,0-1.884.338,1.335,1.335,0,0,0-.368.128.5.5,0,0,1-.2.077c-.135,0-.24-.077-.481-.339-.2-.211-.267-.345-.267-.459a.611.611,0,0,1,.062-.219c.022-.049.022-.049.035-.049s.014,0,.042.021a.776.776,0,0,0,.473.219,4.449,4.449,0,0,0,.572-.042c.693-.085,1.426-.177,2.231-.283a.77.77,0,0,0,.382-.113.334.334,0,0,1,.175-.071c.093,0,.185.035.515.311.3.247.4.36.4.465s-.035.127-.127.212a.586.586,0,0,0-.2.246,6.3,6.3,0,0,1-3.875,3.719Zm5.161-5.476a.7.7,0,1,1-.7-.7A.7.7,0,0,1,353.161,140.073Zm-1.165,0a.466.466,0,1,0,.466-.465A.48.48,0,0,0,352,140.073Z" transform="translate(-310.053 -139.29)" fill="#fff"/></g><g transform="translate(90.058 18.177)"><rect width="8.623" height="16.719" transform="matrix(0.997, 0.08, -0.08, 0.997, 1.344, 0)" fill="rgba(0,0,0,0.3)"/><g transform="translate(0.253 0.253)"><rect width="8.157" height="16.227" transform="matrix(0.997, 0.08, -0.08, 0.997, 1.304, 0)" fill="#e11b22"/><g transform="translate(0.902 0.976)"><path d="M.937,3.973c.062.1.12.2.182.288a.3.3,0,0,0,.069.067.034.034,0,0,0,.057-.015.23.23,0,0,1,.222-.132c.1-.01.2-.023.3-.039A.226.226,0,0,0,1.835,4.1c-.019-.019-.035-.046-.057-.057-.069-.032-.141-.059-.211-.087l-.061-.025a.216.216,0,0,1-.143-.21.125.125,0,0,0-.069-.109c-.035-.019-.072-.035-.108-.052a.218.218,0,0,1-.141-.209A2.668,2.668,0,0,1,1.065,3c.036-.243.082-.485.122-.728.011-.066.023-.132.027-.2a.438.438,0,0,1,.113-.245c.071-.089.149-.172.216-.264a.418.418,0,0,0,.1-.271A.5.5,0,0,0,1.62,1.2c.079-.009.163-.014.245-.031a1.786,1.786,0,0,0,.182-.065.374.374,0,0,1,.094-.019c.04,0,.052.018.037.054a.425.425,0,0,1-.029.05.575.575,0,0,0-.032.053.08.08,0,0,0,.046.12.239.239,0,0,0,.079.016.05.05,0,0,1,.053.041c.011.042.019.085.031.127a.122.122,0,0,0,.18.1,1.807,1.807,0,0,0,.4-.192.067.067,0,0,0,.027-.045c.006-.1.007-.2.013-.3a.527.527,0,0,1,.02-.148,2.024,2.024,0,0,0,.09-.4.19.19,0,0,1,.1-.165A.152.152,0,0,0,3.216.32.623.623,0,0,0,3.251.206.486.486,0,0,1,3.375,0c.025.424.049.836.074,1.258a.547.547,0,0,0,.1-.01A.838.838,0,0,0,3.7,1.188a1.836,1.836,0,0,1,.586-.177,1.263,1.263,0,0,1,.451,0,.4.4,0,0,1,.345.3c.014.059.023.119.034.178.028.149.056.3.086.447a.34.34,0,0,0,.032.083.152.152,0,0,0,.124.088.072.072,0,0,1,.067.045,1.737,1.737,0,0,1,.063.2,2.318,2.318,0,0,0,.11.41.179.179,0,0,1-.024.17c-.032.05-.068.1-.1.146a.31.31,0,0,0-.063.179.145.145,0,0,1-.079.144.15.15,0,0,1-.161-.024.653.653,0,0,0-.384-.123.444.444,0,0,0-.189.031.51.51,0,0,1-.23.006.292.292,0,0,0-.194.045A.568.568,0,0,1,4,3.39a2.346,2.346,0,0,0-.239.062c-.166.062-.176.2-.131.335a.079.079,0,0,0,.1.055.3.3,0,0,0,.1-.038,1.32,1.32,0,0,1,.54-.178,3.292,3.292,0,0,1,.575-.047,1.471,1.471,0,0,1,.455.067.711.711,0,0,1,.305.205.376.376,0,0,1,.094.24.457.457,0,0,0,.139.325.336.336,0,0,1,.1.292c-.013.115-.042.228-.057.343a1.1,1.1,0,0,0-.006.207.407.407,0,0,1-.049.208c-.029.058-.059.115-.088.172a.533.533,0,0,0-.054.356.261.261,0,0,1,0,.077.183.183,0,0,1-.2.178c-.15.007-.3.009-.45.017a2.915,2.915,0,0,0-.658.094.8.8,0,0,1-.335,0c-.131-.019-.263-.04-.394-.06a.16.16,0,0,0-.039,0c-.069.007-.091.012-.091.1,0,.316-.011.632-.011.948a3.15,3.15,0,0,0,.028.37.344.344,0,0,0,.05.119c.025.044.058.082.083.126s.017.085-.035.116a.413.413,0,0,1-.038.018.151.151,0,0,0-.095.185.056.056,0,0,1-.02.061.137.137,0,0,1-.186.02.578.578,0,0,0-.189-.087.553.553,0,0,1-.41-.5,2.021,2.021,0,0,1,.028-.6,3.689,3.689,0,0,0,.065-.638.8.8,0,0,0-.019-.165c-.02-.088-.064-.114-.153-.1-.151.018-.3.037-.454.052a3.587,3.587,0,0,0-.572.1c-.124.033-.254.048-.379.078a.47.47,0,0,0-.258.149.266.266,0,0,0-.051.081.311.311,0,0,1-.2.194,1.242,1.242,0,0,1-.179.05C.556,6.98.486,6.992.415,7A.14.14,0,0,1,.3,6.944a.463.463,0,0,0-.1-.089.181.181,0,0,1-.09-.2c.006-.049.015-.1.019-.145a.249.249,0,0,0-.039-.163A.6.6,0,0,1,0,5.946a2.215,2.215,0,0,1,.087-.5A1.437,1.437,0,0,1,.207,5.18a1.876,1.876,0,0,0,.148-.335,2.66,2.66,0,0,1,.221-.51.99.99,0,0,1,.3-.327l.047-.028Zm2,1.272a.12.12,0,0,0,0-.02c-.016-.176-.031-.352-.048-.527a.04.04,0,0,0-.015-.023,1.078,1.078,0,0,1-.127-.106.211.211,0,0,0-.181-.078c-.156.011-.312.024-.466.043a3.944,3.944,0,0,1-.718.051.208.208,0,0,0-.032,0,1.377,1.377,0,0,0-.007.333.512.512,0,0,0,.03.115.074.074,0,0,0,.069.053.662.662,0,0,1,.243.057.612.612,0,0,0,.249.049.347.347,0,0,1,.073.005,1.644,1.644,0,0,0,.192.04c.143.01.286.015.429.016C2.732,5.259,2.833,5.25,2.936,5.246ZM3.671,5.2a.142.142,0,0,0,.027,0c.15-.018.3-.031.449-.057a.8.8,0,0,1,.219-.008c.083.008.167.016.251.018.054,0,.082-.023.084-.066a.088.088,0,0,1,.056-.081l.107-.046a.188.188,0,0,0,.11-.109.28.28,0,0,0-.2-.364.852.852,0,0,0-.323.012.887.887,0,0,1-.268.034c-.041,0-.082-.007-.124-.008a.66.66,0,0,0-.271.032.167.167,0,0,0-.115.162c0,.088-.006.175-.005.263C3.662,5.057,3.668,5.128,3.671,5.2ZM3.583,2.55c.078-.01.149-.017.219-.028a.831.831,0,0,0,.305-.095.563.563,0,0,1,.376-.077.059.059,0,0,0,.066-.033A.177.177,0,0,0,4.5,2.081c-.064-.061-.123-.128-.188-.188A.259.259,0,0,0,4.2,1.823a.473.473,0,0,0-.489.124.205.205,0,0,1-.129.081Zm-.78.168c.014-.063.063-.078.109-.094.024-.008.032-.018.029-.044-.015-.121-.03-.243-.042-.365,0-.041-.031-.043-.059-.041-.113.007-.227.015-.34.026a.285.285,0,0,0-.1.035c-.041.022-.041.05,0,.075a.583.583,0,0,0,.066.033c.028.013.057.024.084.039.009,0,.015.016.022.024a.131.131,0,0,1-.025.021c-.061.029-.07.058-.027.11a.586.586,0,0,0,.248.173A.256.256,0,0,0,2.8,2.718Z" transform="translate(0.66 6.389) rotate(4.5)" fill="#fff"/><path d="M.58,1.528a.22.22,0,0,1-.009-.066,1.272,1.272,0,0,1,.038-.156.236.236,0,0,1,.124-.137A.16.16,0,0,0,.82.983.125.125,0,0,0,.691.867.2.2,0,0,0,.609.875.638.638,0,0,1,.4.9a1.092,1.092,0,0,0-.13.012C.218.918.206.933.2.983A.046.046,0,0,1,.195,1c-.01.017-.018.042-.033.047a.064.064,0,0,1-.053-.019A.386.386,0,0,1,0,.788.65.65,0,0,1,.087.455C.1.42.117.381.133.345A1.722,1.722,0,0,1,.2.185.156.156,0,0,1,.332.1.453.453,0,0,0,.46.057C.488.044.512.024.54.01A.06.06,0,0,1,.626.028a.274.274,0,0,0,.161.1.473.473,0,0,1,.3.21,1.355,1.355,0,0,0,.13.146A.243.243,0,0,1,1.27.636c.006.086,0,.172,0,.257a.106.106,0,0,1-.072.1.107.107,0,0,0-.073.11.148.148,0,0,1-.1.149c-.1.05-.21.1-.316.147-.018.008-.036.016-.053.025A.094.094,0,0,0,.607,1.5a.1.1,0,0,1-.013.03Z" transform="translate(5.055 5.211) rotate(4.5)" fill="#fff"/><g transform="translate(1.855 0) rotate(4.5)"><path d="M2.2.836c0-.078,0-.153.009-.228A1.7,1.7,0,0,1,2.23.294.138.138,0,0,0,2.156.141.984.984,0,0,1,2.074.087c-.029-.023-.026-.043.01-.055A.535.535,0,0,1,2.319,0a.181.181,0,0,1,.1.052A1.028,1.028,0,0,1,2.647.4a.456.456,0,0,1,.018.2c0,.011,0,.021,0,.032,0,.094.037.136.132.133A.359.359,0,0,0,2.982.708a.307.307,0,0,1,.306.013.191.191,0,0,0,.168.023c.06-.012.121-.025.182-.03A.26.26,0,0,1,3.81.763a.531.531,0,0,0,.248.086A.212.212,0,0,1,4.2.906a.385.385,0,0,0,.088.057.484.484,0,0,1,.212.215.277.277,0,0,1,.03.138.065.065,0,0,1-.076.07c-.063,0-.076.008-.091.071-.007.03-.012.06-.021.09a.059.059,0,0,1-.058.05c-.023,0-.032.014-.031.036a.5.5,0,0,0,0,.051.066.066,0,0,1-.068.085c-.108.009-.112.013-.107.121,0,.035-.006.045-.041.045a.169.169,0,0,0-.169.112.079.079,0,0,1-.079.056c-.048,0-.1.018-.144.024a.12.12,0,0,1-.065-.009.173.173,0,0,0-.127-.009.477.477,0,0,1-.243,0,.516.516,0,0,0-.082-.013A.113.113,0,0,0,3,2.2a.393.393,0,0,0-.007.083.925.925,0,0,1-.061.352.986.986,0,0,0-.072.306.11.11,0,0,1-.088.109,1.5,1.5,0,0,1-.2.044A.112.112,0,0,1,2.5,3.06a.218.218,0,0,1-.053-.078c-.041-.1-.08-.208-.116-.313-.013-.04-.011-.085-.024-.125a.3.3,0,0,0-.052-.1.346.346,0,0,1-.068-.166,1.742,1.742,0,0,1-.02-.187c0-.065-.017-.081-.083-.079-.088,0-.177.015-.265.012-.124-.005-.248-.021-.372-.033-.077-.008-.154-.017-.231-.029s-.135-.028-.2-.039A.142.142,0,0,1,.9,1.848C.877,1.8.849,1.762.822,1.72A.057.057,0,0,0,.794,1.7c.007.026.015.052.021.078a.133.133,0,0,1-.027.133.1.1,0,0,0-.014.13.494.494,0,0,1-.25-.018C.479,2.007.432,2,.386,1.985a.161.161,0,0,1-.117-.119c0-.022-.008-.044-.013-.066a.03.03,0,0,0-.048-.022c-.025.014-.047.033-.071.048s-.04.02-.06.029a.261.261,0,0,1,0-.067c.019-.073.044-.144.061-.218a.479.479,0,0,0,0-.12A.061.061,0,0,0,.1,1.4C.082,1.391.072,1.373.06,1.361A.428.428,0,0,1,.1,1.33a.1.1,0,0,1,.031-.008C.171,1.313.18,1.3.158,1.261S.116,1.2.1,1.168A.182.182,0,0,1,.06,1.03.114.114,0,0,1,.094.966C.117.948.143.965.164.98S.19,1,.2,1.013.245,1.029.262,1,.278.976.287.963A.1.1,0,0,1,.364.918.228.228,0,0,0,.456.882C.482.864.475.841.447.825A.3.3,0,0,1,.39.785.234.234,0,0,0,.227.716.212.212,0,0,1,.056.625.142.142,0,0,1,.03.567C.018.5.009.423,0,.356.047.4.1.441.149.489A.161.161,0,0,0,.314.531,1.022,1.022,0,0,0,.444.484C.452.48.462.464.46.459A.046.046,0,0,0,.434.441.15.15,0,0,0,.4.435.1.1,0,0,1,.288.343.574.574,0,0,1,.3.215C.3.207.3.2.313.188c.008.036.013.065.02.093a.288.288,0,0,0,.02.063C.361.358.376.375.388.376A.049.049,0,0,0,.422.346.728.728,0,0,0,.449.235c0-.028,0-.058.007-.086S.485.1.514.126A.32.32,0,0,1,.567.188C.582.208.59.232.605.251s.044.029.068,0L.68.241C.694.214.71.21.739.224.813.259.849.243.882.168.9.132.909.129.936.159a.154.154,0,0,0,.125.052.089.089,0,0,1,.09.062c.009.02.017.041.027.061A.142.142,0,0,0,1.25.4a.453.453,0,0,1,.12.076.991.991,0,0,0,.4.239c.09.029.176.068.266.1a.846.846,0,0,0,.124.027A.149.149,0,0,0,2.2.836Z" transform="translate(0 1.499)" fill="#fff"/><path d="M.249.126.282.18.4.094c0,.037.008.07.013.1A.086.086,0,0,0,.421.224c0,.008.011.019.017.02A.029.029,0,0,0,.461.229C.472.209.482.188.491.166.511.124.528.08.55.039A.188.188,0,0,1,.588,0,.233.233,0,0,1,.617.05c.008.029.01.061.015.091A.411.411,0,0,0,.7.305,1.119,1.119,0,0,1,.788.472.463.463,0,0,0,.9.638.2.2,0,0,0,.966.679a.939.939,0,0,1,.368.234c.039.037.071.082.108.122A.632.632,0,0,0,1.51,1.1a.3.3,0,0,1,.1.27c0,.042-.027.056-.069.048l-.044-.008c-.039-.006-.053,0-.065.041a.051.051,0,0,1-.012.022c-.035.033-.069.067-.105.1a.128.128,0,0,1-.154.014.648.648,0,0,0-.066-.033c-.033-.013-.047-.006-.055.029,0,.006,0,.013,0,.019a.063.063,0,0,1-.086.055.166.166,0,0,1-.116-.083A.077.077,0,0,0,.77,1.526C.74,1.523.725,1.5.714,1.476S.695,1.428.685,1.4a.3.3,0,0,0-.218-.182.6.6,0,0,1-.108-.044L.1,1.06.076,1.052C0,1.023-.02.993.02.918A.356.356,0,0,0,.048.734c0-.034,0-.068-.009-.1A.3.3,0,0,1,.084.46C.113.4.136.335.163.274S.213.175.237.125Z" transform="translate(0.903 3.945)" fill="#fff"/><path d="M.807.673.914.659A.137.137,0,0,1,.905.685a.905.905,0,0,0-.142.4,2.777,2.777,0,0,0-.023.543.125.125,0,0,0-.1.05.046.046,0,0,1-.031.014.411.411,0,0,1-.264-.032A.169.169,0,0,0,.27,1.641.135.135,0,0,1,.15,1.559c-.033-.066-.072-.13-.1-.2A.663.663,0,0,1,0,1.176c-.008-.1,0-.2,0-.293A.328.328,0,0,1,.053.724.579.579,0,0,0,.14.514c0-.027,0-.055.006-.082A.4.4,0,0,1,.219.27C.243.233.264.194.287.155.291.147.3.139.3.131.333.082.359.083.385.134A.157.157,0,0,0,.4.158C.432.2.472.2.491.148A.438.438,0,0,0,.514.055C.525-.007.542-.014.6.02A.952.952,0,0,0,.7.077.2.2,0,0,1,.812.315,1.43,1.43,0,0,0,.807.673Z" transform="translate(4.855 -0.001)" fill="#fff"/><path d="M.006,1.075A.831.831,0,0,1,.027.75C.041.705.064.662.074.616a.676.676,0,0,0,0-.124A.24.24,0,0,1,.14.323C.214.246.294.174.372.1A.161.161,0,0,1,.407.078C.451.055.459.059.468.107s.041.065.08.048A.586.586,0,0,0,.658.082C.687.06.71.031.739.01S.788,0,.786.035A.845.845,0,0,1,.77.152a.5.5,0,0,0,0,.279A.111.111,0,0,0,.785.457.472.472,0,0,1,.841.806C.835.871.822.935.817,1a.364.364,0,0,0,.009.094A.042.042,0,0,0,.85,1.12c.026.01.024.028.011.042a.249.249,0,0,1-.079.062c-.074.027-.15.047-.225.068a.245.245,0,0,1-.045,0,.068.068,0,0,0-.07.074c0,.059-.008.069-.067.068a.421.421,0,0,1-.121-.02A.074.074,0,0,1,.2,1.327a.147.147,0,0,0-.027-.109A.144.144,0,0,1,.144,1.1C.15,1.067.133,1.049.1,1.053A.756.756,0,0,0,.006,1.075Z" transform="translate(3.616 0.266)" fill="#fff"/></g></g></g></g></svg>