<svg xmlns="http://www.w3.org/2000/svg" width="34" height="30" viewBox="0 0 34 30"><path fill="none" d="M0 0h34v30H0z"/><path d="M16.388 5A7.4 7.4 0 009 12.388a8.524 8.524 0 00.627 2.844 11.914 11.914 0 00.854 1.6l5.065 7.668a.964.964 0 001.684 0l5.066-7.676a11.864 11.864 0 00.854-1.6 8.522 8.522 0 00.626-2.844A7.4 7.4 0 0016.388 5zm5.96 9.9a10.917 10.917 0 01-.778 1.456l-5.066 7.676c-.1.152-.132.152-.232 0l-5.066-7.676a10.921 10.921 0 01-.778-1.456 7.737 7.737 0 01-.559-2.507 6.519 6.519 0 1113.038 0 7.744 7.744 0 01-.558 2.507z" fill="#fff"/><path d="M16.388 8.477a3.911 3.911 0 103.911 3.911 3.916 3.916 0 00-3.911-3.911zm0 6.953a3.042 3.042 0 113.042-3.042 3.046 3.046 0 01-3.042 3.043z" fill="#fff"/></svg>