<svg xmlns="http://www.w3.org/2000/svg" width="34" height="30" viewBox="0 0 34 30"><path fill="none" d="M0 0h34v30H0z"/><path d="M10.481 6.251a2.872 2.872 0 00-2.293-1.252 2.873 2.873 0 00-2.3 1.249A4.761 4.761 0 005 9.099a4.76 4.76 0 00.891 2.85 3.217 3.217 0 001.179.994l-.674 10.143a1.8 1.8 0 103.585 0l-.675-10.143a3.218 3.218 0 001.175-.994 4.761 4.761 0 00.9-2.85 4.76 4.76 0 00-.9-2.848zM8.83 23.806a.879.879 0 01-1.519-.659l.662-9.958c.071.006.143.01.215.01s.144 0 .215-.01l.662 9.958a.871.871 0 01-.235.659zm-.642-11.525a1.653 1.653 0 01-.479-.072l-.039-.01a3.149 3.149 0 01-1.753-3.1c0-1.753 1.019-3.18 2.271-3.18s2.271 1.427 2.271 3.18-1.018 3.182-2.271 3.182zm9.78-7.282a.459.459 0 00-.459.459v5.214H16.34V5.461a.459.459 0 00-.917 0v5.211h-1.169V5.461a.459.459 0 00-.917 0v6.638a1.358 1.358 0 001.356 1.358h.082l-.644 9.674a1.755 1.755 0 103.5 0l-.638-9.674h.082a1.358 1.358 0 001.352-1.358V5.461a.459.459 0 00-.459-.462zm-1.475 18.82a.837.837 0 01-1.447-.627l.648-9.735h.376l.648 9.735a.828.828 0 01-.225.627zm1.016-11.72a.439.439 0 01-.439.439h-2.377a.439.439 0 01-.439-.439v-.51h3.255zM25.583 25a.443.443 0 01-.443-.442V5.443A.443.443 0 0125.583 5h1.226a.442.442 0 01.442.415l1.19 19.116a.448.448 0 01-.442.469zm.443-18.963v18.079h1.506l-1.136-18.23h-.3zM21.44 25a.436.436 0 01-.439-.469l1.187-19.116A.442.442 0 0122.629 5h1.234a.443.443 0 01.443.443v19.115a.443.443 0 01-.443.442zm1.6-18.973l-1.129 18.089h1.5V5.885h-.3z" fill="#fff"/></svg>