<svg xmlns="http://www.w3.org/2000/svg" width="34" height="30" viewBox="0 0 34 30"><path fill="none" d="M0 0h34v30H0z"/><path d="M26.171 12.409V9.324a2.2 2.2 0 00-2.2-2.2h-.579V6.78a1.789 1.789 0 00-3.578 0v.347h-6.46V6.78a1.789 1.789 0 00-3.578 0v.347h-.579a2.2 2.2 0 00-2.2 2.2V22.8a2.2 2.2 0 002.2 2.2h14.776a2.2 2.2 0 002.2-2.2V12.726a.5.5 0 00-.002-.317zm-4.565-6.418a.789.789 0 01.788.789v1.053a.788.788 0 01-1.577 0V6.78a.789.789 0 01.789-.789zm-10.83.789a.788.788 0 011.577 0v1.053a.788.788 0 01-1.577 0zM9.197 8.127h.6a1.789 1.789 0 003.529 0h6.512a1.789 1.789 0 003.529 0h.6a1.2 1.2 0 011.2 1.2v2.74H8V9.324a1.2 1.2 0 011.197-1.197zM23.973 24H9.197a1.2 1.2 0 01-1.2-1.2v-9.732h17.17V22.8a1.2 1.2 0 01-1.194 1.2zm0 0" fill="#fff"/><path d="M19.077 16.234l-3.284 3.207-1.667-1.628a.5.5 0 00-.706.709l.007.007 2.017 1.969a.5.5 0 00.7 0l3.634-3.548a.502.502 0 00-.7-.719zm0 0" fill="#fff"/></svg>