<svg xmlns="http://www.w3.org/2000/svg" width="34" height="30" viewBox="0 0 34 30"><path fill="none" d="M0 0h34v30H0z"/><path d="M12.557 20.709a2.145 2.145 0 102.145 2.145 2.145 2.145 0 00-2.145-2.145zm0 3.337a1.192 1.192 0 111.192-1.192 1.192 1.192 0 01-1.192 1.192zm9.056-3.337a2.145 2.145 0 102.145 2.145 2.145 2.145 0 00-2.145-2.145zm0 3.337a1.192 1.192 0 111.192-1.192 1.192 1.192 0 01-1.192 1.192zm4.84-15.852a.6.6 0 00-.381-.191l-15.519-.214-.429-1.311A2.193 2.193 0 008.074 5H6.477a.477.477 0 000 .954h1.6a1.24 1.24 0 011.144.834l3.027 9.13-.238.548a2.288 2.288 0 00.215 2.074 2.217 2.217 0 001.788 1h9.273a.477.477 0 100-.954H14.01a1.216 1.216 0 01-1-.572 1.311 1.311 0 01-.121-1.142l.191-.429 10.036-1.049a2.622 2.622 0 002.265-2l1.144-4.791a.405.405 0 00-.072-.409zm-2 4.982A1.621 1.621 0 0123 14.44l-9.92 1.025-2.217-6.722 14.613.215z" fill="#fff"/></svg>