<svg xmlns="http://www.w3.org/2000/svg" width="111.86" height="30" viewBox="0 0 111.86 30"><g data-name="Group 570"><g data-name="Group 548"><g data-name="Group 543"><path data-name="Path 7606" d="M80.477 13.778h-2.005l2.005 5.146h-1.043l-2.005-5.146h-1.51v5.146h-.965V9.059h5.521zm-4.558-3.764v2.778h3.609v-2.779z"/><path data-name="Path 7607" d="M81.098 19.35h-1.954l-2.005-5.147h-.795v5.147h-1.813V8.63h6.371v5.569h-1.81zm-1.373-.851h.13l-2.005-5.146h2.2V9.484h-4.67v9.015h.112v-5.146h2.226zm.228-5.281h-4.461V9.589h4.459zm-3.609-.85h2.759v-1.929h-2.759z"/></g><g data-name="Group 544"><path data-name="Path 7608" d="M84.006 9.059h5.8v9.865h-1.015v-5.146h-3.805v5.146h-.976zm.976 3.734h3.81v-2.764h-3.806z"/><path data-name="Path 7609" d="M90.232 19.35h-1.866v-5.147h-2.96v5.147H83.58V8.63h6.652zm-1.016-.851h.166V9.484H84.43v9.015h.126v-5.146h4.66zm0-5.281h-4.66V9.604h4.66zm-3.81-.85h2.96v-1.913h-2.96z"/></g><g data-name="Group 545"><path data-name="Path 7610" d="M94.361 18.924h-1.029V9.059h1.029z"/><path data-name="Path 7611" d="M94.79 19.35h-1.879V8.63h1.879zm-1.029-.851h.179V9.484h-.179z"/></g><g data-name="Group 546"><path data-name="Path 7612" d="M97.774 9.059h4.772v1.044l-4.024 7.851h4.037v.971h-5.053v-1.044l4.024-7.852h-3.756z"/><path data-name="Path 7613" d="M102.985 19.35h-5.9v-1.573l3.754-7.323h-3.487V8.63h5.622v1.571l-3.754 7.324h3.767zm-5.053-.851h4.2v-.12h-4.2zm0-.516v.193l4.19-8.176v-.193zm.267-8.379h3.922v-.12h-3.922z"/></g><g data-name="Group 547"><path data-name="Path 7614" d="M111.437 18.924h-5.735v-9.88l5.735.015zm-4.785-.971h3.81v-7.925h-3.81z"/><path data-name="Path 7615" d="M111.861 19.35h-6.586V8.618l6.585.017zm-5.735-.851h4.885V9.482l-4.885-.013zm4.759-.12h-4.66V9.603h4.66zm-3.81-.85h2.96v-7.075h-2.96z"/></g></g><g data-name="Group 550"><g data-name="Group 549"><path data-name="Path 7616" d="M41.527 14.96h-1.208l-1.858-3.856v7.785h-.929v-9.8h1.022l2.358 4.887 2.3-4.893h1.208v9.8h-.969V10.85z"/><path data-name="Path 7617" d="M44.85 19.314h-1.819v-6.553L41.8 15.385h-1.75l-1.167-2.421v6.35h-1.78V8.663h1.714l2.092 4.33 2.033-4.33h1.9zm-.969-.85H44v-8.95h-.119zm-5.922 0h.079v-8.95h-.088zm3.171-3.929h.131l2.356-5.022h-.131zm-.54 0h.127l-2.426-5.022h-.121z"/></g></g><g data-name="Group 551" fill="#da2128"><path data-name="Path 7618" d="M54.418 9.028l3.24-.117A1.99 1.99 0 0156.5 10.69s.167-.554-.051-.638l-1.981.134z"/><path data-name="Path 7619" d="M54.939 8.559s.084 2.9 1.158 3.156a15.714 15.714 0 01-.3-3.172z"/></g><g data-name="Group 553"><g data-name="Group 552" transform="translate(50.054 8.218)"><ellipse data-name="Ellipse 48" cx=".638" cy=".839" rx=".638" ry=".839" transform="rotate(-58.794 .968 .545)"/><path data-name="Path 7620" d="M3.591 1.654l-2.57 1.869-.325-.5 2.57-1.869z"/></g></g><g data-name="Group 555"><g data-name="Group 554" transform="translate(65.813 8.315)"><ellipse data-name="Ellipse 49" cx=".597" cy=".825" rx=".597" ry=".825" transform="rotate(-23.36 1.321 .273)"/><ellipse data-name="Ellipse 50" cx=".289" cy=".406" rx=".289" ry=".406" transform="translate(2.536)"/><ellipse data-name="Ellipse 51" cx=".289" cy=".406" rx=".289" ry=".406" transform="translate(3.221 .085)"/><path data-name="Path 7621" d="M2.993 1.172l-1.54 2.439-.476-.333L2.517.839z"/></g></g><g data-name="Group 557"><g data-name="Group 556"><path data-name="Path 7622" d="M49.537 8.987l-2.764 2.708-.39-.441 2.764-2.708z"/><path data-name="Path 7623" d="M47.102 8.665l2.427 2.056-.712.93-2.427-2.056z"/></g></g><g data-name="Group 559"><g data-name="Group 558"><path data-name="Rectangle 40" d="M58.618 8.597h2.445v.873h-2.445z"/><path data-name="Rectangle 41" d="M58.433 9.776h2.558v.963h-2.558z"/><path data-name="Path 7624" d="M61.451 9.776l-.754 1.868-.387-.173.68-1.694z"/></g></g><g data-name="Group 561"><g data-name="Group 560"><path data-name="Path 7625" d="M65.276 9.518l-2.562 1.392-.489-1 2.562-1.392z"/><path data-name="Rectangle 42" d="M63.658 9.744h.533v1.975h-.533z"/></g></g><path data-name="Rectangle 43" d="M70.385 9.605h2.258v1.031h-2.258z"/><g data-name="Group 563"><g data-name="Group 562"><path data-name="Path 7626" d="M58.096 18.968h-.778v-5.374h-2.46v5.374h-.766v-6.2h3.006a1.029 1.029 0 011 1.072z"/><path data-name="Path 7627" d="M58.521 19.393h-1.628v-5.374h-1.61v5.374h-1.617v-7.054h3.431a1.446 1.446 0 011.422 1.5z"/></g></g><g data-name="Group 565"><g data-name="Group 564"><path data-name="Path 7628" d="M60.996 20.487h3.017v-1.762h-3.052v-5.961h.812v5.183h2.24v-5.183h.847v7.454a1.029 1.029 0 01-1 1.072h-2.867z"/><path data-name="Path 7629" d="M63.862 21.716H60.57v-1.655h3.018v-.911h-3.053v-6.811h1.662v5.182h1.39v-5.182h1.7v7.879a1.446 1.446 0 01-1.425 1.498z"/></g></g><g data-name="Group 567"><g data-name="Group 566"><path data-name="Path 7630" d="M48.393 18.968a1.02 1.02 0 01-.987-1.072v-5.131h3.818v3.038H48.23v2.387h3.029v.779zm-.163-5.4v1.417h2.182v-1.417z"/><path data-name="Path 7631" d="M51.684 19.393h-3.291a1.441 1.441 0 01-1.412-1.5v-5.556h4.669v3.888h-2.995v1.537h3.029zm-3.029-4.833h1.332v-.567h-1.332z"/></g></g><g data-name="Group 569"><g data-name="Group 568"><path data-name="Path 7632" d="M71.611 17.895a1.032 1.032 0 01-.952 1.072h-2.924v-4h3.04v-1.4H67.85v-.8h3.761zm-3.076-2.107v2.4h2.24v-2.4z"/><path data-name="Path 7633" d="M67.736 19.393h-.426v-4.845h3.042v-.554h-2.926V12.34h4.61v5.556a1.464 1.464 0 01-1.356 1.5zm1.226-1.629h1.39v-1.549h-1.39z"/></g></g></g><g data-name="Group 210"><circle data-name="Ellipse 1" cx="14.907" cy="14.907" r="14.907" transform="translate(.093 .093)" fill="#f5e7c8"/><path data-name="Path 7167" d="M15 30.002a15 15 0 1115-15 15.017 15.017 0 01-15 15zM15 .188a14.814 14.814 0 1014.815 14.814A14.831 14.831 0 0015 .186z" fill="#dd5934"/></g><path data-name="Path 7168" d="M15 29.604a14.6 14.6 0 1114.6-14.6 14.621 14.621 0 01-14.6 14.6zm0-28.05A13.446 13.446 0 1028.447 15 13.461 13.461 0 0015 1.554z" fill="#563008"/><g data-name="Group 244"><path data-name="Path 7172" d="M14.991 3.342a11.626 11.626 0 00-11.256 8.3h2.579a9.182 9.182 0 018.675-5.892c6.491-.111 8.716 5.863 8.716 5.863l2.527-.006a11.792 11.792 0 00-11.241-8.265z" fill="#563008"/><path data-name="Path 7173" d="M14.976 26.521a11.792 11.792 0 01-11.241-8.263l2.527-.005s2.225 5.974 8.716 5.863a9.183 9.183 0 008.675-5.892h2.579a11.626 11.626 0 01-11.256 8.3" fill="#563008"/><g data-name="Group 228" fill="#f5e7c8"><g data-name="Group 211"><path data-name="Path 7174" d="M7.598 8.389l-.463.535-.266-.231.083-.1.168.146.294-.34-.811-.7-.231.266-.1-.086.316-.365z"/><path data-name="Path 7175" d="M7.138 8.967l-.314-.272.124-.144.168.146.253-.292-.763-.663-.231.266-.147-.127.357-.413.024.021 1.032.9zm-.224-.279l.218.189.421-.486-.96-.833-.275.317.051.045.231-.266.024.021.835.724-.336.388-.168-.146z"/></g><g data-name="Group 212"><path data-name="Path 7176" d="M8.216 7.55a.159.159 0 01.009.221l-.324.3-.426-.454.337-.316-.15-.159-.324.3-.086-.091.416-.391zm-.565.08l.256.273.248-.233-.256-.273z"/><path data-name="Path 7177" d="M7.9 8.119l-.47-.5.337-.316-.107-.113-.324.3-.129-.138.463-.434.569.606a.189.189 0 01.008.264zm-.38-.5l.383.408.3-.282a.128.128 0 00-.01-.176l-.526-.56-.37.348.042.045.324-.3.193.206zm.385.326l-.3-.319.294-.276.3.319zm-.21-.316l.212.227.2-.19-.212-.226z"/></g><g data-name="Group 213"><path data-name="Path 7178" d="M9.009 7.12l-.249.191.219.286-.1.077-.806-1.052.47-.36.486.634a.157.157 0 01-.02.224zm-.76-.475l.437.57.272-.208-.437-.57z"/><path data-name="Path 7179" d="M8.875 7.718l-.019-.025-.825-1.077.52-.4.506.66a.189.189 0 01-.026.268l-.224.172.219.286zm-.755-1.09l.767 1 .051-.039-.219-.286.274-.211a.125.125 0 00.014-.179l-.467-.61zm.564.631l-.475-.62.322-.247.475.62zm-.387-.609l.4.52.221-.17-.4-.52z"/></g><g data-name="Group 214"><path data-name="Path 7180" d="M9.907 6.331a.159.159 0 01-.035.218l-.378.233-.327-.53.393-.242-.115-.186-.378.233-.066-.107.486-.3zm-.57-.034l.2.318.29-.179-.2-.318z"/><path data-name="Path 7181" d="M9.482 6.825l-.36-.584.394-.242-.082-.132-.378.233-.1-.16.54-.333.436.708a.19.19 0 01-.044.261zm-.273-.563l.293.476.352-.217a.128.128 0 00.025-.174l-.4-.653-.432.266.032.053.378-.233.148.24zm.312.4l-.229-.372.344-.212.229.372zm-.142-.352l.163.264.236-.145-.163-.264z"/></g><g data-name="Group 215"><path data-name="Path 7182" d="M10.925 5.997l-.106.052-.364-.754-.336.162.364.754-.1.051-.42-.871.411-.2a.158.158 0 01.209.084z"/><path data-name="Path 7183" d="M10.361 6.304l-.448-.928.44-.212a.19.19 0 01.252.1l.361.748-.163.079-.364-.754-.28.135.364.754zm-.364-.9l.393.814.048-.023-.364-.754.394-.19.364.754.049-.024-.334-.692a.127.127 0 00-.167-.07z"/></g><g data-name="Group 216"><path data-name="Path 7184" d="M11.468 5.779a.158.158 0 01-.2-.106l-.272-.752.545-.2.161.445-.428.155.127.35.433-.157.041.114zm-.31-.783l.075.208.312-.113-.075-.207z"/><path data-name="Path 7185" d="M11.42 5.819a.173.173 0 01-.075-.017.207.207 0 01-.105-.118l-.283-.782.606-.219.183.5-.428.155.105.29.432-.156.062.173-.439.159a.171.171 0 01-.058.015zm-.381-.879l.262.722a.143.143 0 00.072.083.111.111 0 00.085 0l.38-.138-.02-.055-.433.157-.148-.409.428-.155-.139-.385zm.176.3l-.1-.267.371-.134.1.267zm-.015-.229l.053.148.252-.091-.053-.148z"/></g><g data-name="Group 217"><path data-name="Path 7186" d="M12.261 5.513l-.03-.121.463-.116-.085-.339-.452.113-.119-.477.578-.144.03.121-.457.114.053.212.453-.113.11.442a.159.159 0 01-.107.2z"/><path data-name="Path 7187" d="M12.239 5.552l-.046-.183.464-.116-.069-.278-.452.113-.134-.538.64-.16.046.183-.457.114.038.151.453-.113.118.473a.189.189 0 01-.13.237zm.031-.136l.015.06.409-.1a.113.113 0 00.072-.057.143.143 0 00.011-.1l-.1-.411-.453.113-.069-.274.457-.114-.015-.06-.516.129.1.415.452-.113.1.4z"/></g><g data-name="Group 218"><path data-name="Path 7188" d="M13.427 5.263a.158.158 0 01-.172-.144l-.113-.792.574-.082.067.469-.45.064.052.368.456-.065.017.12zm-.143-.83l.031.218.328-.047-.031-.218z"/><path data-name="Path 7189" d="M13.402 5.299a.192.192 0 01-.184-.173l-.117-.823.637-.091.076.531-.451.065.044.305.456-.065.026.183-.463.066zm-.23-.942l.109.76a.126.126 0 00.137.118l.4-.057-.008-.058-.456.065-.061-.431.45-.064-.058-.406zm.11.334l-.039-.281.391-.056.04.281zm.032-.227l.022.156.265-.038-.022-.156z"/></g><g data-name="Group 219"><path data-name="Path 7190" d="M14.961 3.805l.2.007.435.5.017-.489h.127l-.045 1.334h-.127l.022-.648-.5-.588-.041 1.218h-.123z"/><path data-name="Path 7191" d="M15.72 5.197l-.191-.007.023-.667-.443-.517-.039 1.169-.187-.006.047-1.4.241.008.009.011.382.443.015-.439.19.006zm-.125-.068h.064l.042-1.27h-.063l-.018.538-.478-.555h-.151l-.043 1.27h.06l.043-1.268.565.66z"/></g><g data-name="Group 220"><path data-name="Path 7192" d="M16.572 5.275l-.452-.067.141-.956.6.089-.117.791a.159.159 0 01-.172.143zm-.214-.878l-.1.7.37.055.1-.7z"/><path data-name="Path 7193" d="M16.593 5.308h-.026l-.484-.072.151-1.019.664.1-.121.822a.207.207 0 01-.072.131.174.174 0 01-.112.038zm-.437-.127l.421.062a.115.115 0 00.089-.025.143.143 0 00.049-.091l.112-.76-.539-.079zm.495 0l-.432-.064.112-.761.433.064zm-.36-.117l.307.045.094-.636-.307-.045z"/></g><g data-name="Group 221"><path data-name="Path 7194" d="M17.586 5.494l-.442-.114.241-.936.589.152-.2.774a.159.159 0 01-.188.124zm-.121-.9l-.176.684.362.093.176-.684z"/><path data-name="Path 7195" d="M17.626 5.533a.16.16 0 01-.044-.006l-.473-.122.257-1 .651.168-.208.8a.2.2 0 01-.093.127.178.178 0 01-.09.033zm-.028-.067a.113.113 0 00.086-.013.14.14 0 00.064-.088l.192-.744-.528-.136-.225.875zm.08-.049l-.423-.109.192-.745.423.109zm-.346-.155l.3.077.16-.623-.3-.077z"/></g><g data-name="Group 222"><path data-name="Path 7196" d="M18.567 5.82l-.413-.154.338-.906.436.163.119-.319.119.044-.4 1.068a.159.159 0 01-.199.104zm0-.9l-.252.675.321.12.252-.675z"/><path data-name="Path 7197" d="M18.616 5.86a.169.169 0 01-.061-.011l-.443-.165.011-.03.348-.935.436.162.119-.318.178.066-.011.029-.4 1.068a.2.2 0 01-.177.134zm-.039-.066a.127.127 0 00.16-.085l.387-1.038-.06-.022-.119.319-.436-.162-.316.846zm.073-.035l-.38-.142.273-.734.38.142zm-.3-.179l.261.1.229-.615-.261-.1z"/></g><g data-name="Group 223"><path data-name="Path 7198" d="M19.23 6.108l-.118-.055.554-1.183.118.055z"/><path data-name="Path 7199" d="M19.246 6.151l-.176-.082.013-.029.568-1.212.176.082-.013.029zm-.091-.113l.061.028.527-1.125-.061-.029z"/></g><g data-name="Group 224"><path data-name="Path 7200" d="M19.759 6.378a.157.157 0 01-.048-.219l.395-.7.5.286-.234.412-.4-.225-.183.324.4.227-.06.105zm.394-.744l-.109.192.288.164.109-.192z"/><path data-name="Path 7201" d="M20.15 6.637l-.406-.231a.189.189 0 01-.06-.263l.411-.723.56.318-.265.467-.4-.225-.152.269.4.227zm-.375-.286l.351.2.029-.051-.4-.227.215-.378.4.225.2-.357-.45-.255-.379.668a.127.127 0 00.036.176zm.57-.318l-.343-.195.14-.247.343.195zm-.257-.219l.233.132.078-.137-.233-.132z"/></g><g data-name="Group 225"><path data-name="Path 7202" d="M22.026 6.949l.1.085-.527.64-.59-.485.849-1.03.486.4zm-.83.221l.387.318.359-.436-.387-.318zm.966-.593l-.284-.234-.238.288.285.234z"/><path data-name="Path 7203" d="M21.607 7.719l-.638-.526.889-1.079.535.44-.321.39.1.085zm-.549-.535l.54.445.487-.591-.1-.085.321-.39-.437-.36zm.529.348l-.436-.359.4-.485.436.358zm-.346-.367l.338.279.319-.387-.338-.278zm.688-.256l-.333-.274.278-.337.333.274zm-.244-.283l.236.194.2-.24-.236-.194z"/></g><g data-name="Group 226"><path data-name="Path 7204" d="M22.451 8.278a.159.159 0 01-.221.013l-.311-.318.445-.435.323.331.156-.153-.311-.318.09-.088.4.409zm-.092-.564l-.267.262.238.243.267-.261z"/><path data-name="Path 7205" d="M22.33 8.36a.176.176 0 01-.121-.046l-.333-.341.49-.48.323.331.111-.108-.31-.318.135-.132.444.454-.594.581a.207.207 0 01-.145.059zm-.365-.387l.288.295a.126.126 0 00.176-.014l.55-.537-.355-.363-.045.043.311.318-.2.2-.323-.33zm.364.29l-.282-.288.312-.306.282.288zm-.193-.287l.193.2.222-.217-.193-.2z"/></g><g data-name="Group 227"><path data-name="Path 7206" d="M22.622 8.723l.748-.612.287.35-.1.08-.207-.253-.651.533z"/><path data-name="Path 7207" d="M22.698 8.867l-.121-.147.8-.652.328.4-.146.12-.207-.253zm-.031-.138l.04.049.651-.533.207.253.048-.039-.247-.3z"/></g></g><g data-name="Group 243"><g data-name="Group 242" fill="#f5e7c8"><g data-name="Group 229"><path data-name="Path 7208" d="M8.262 23.391a.162.162 0 01-.225.023l-.356-.315.863-.975.1.089-.225.255.37.328zm.074-.83l-.475.536.272.241.475-.536z"/><path data-name="Path 7209" d="M8.136 23.482a.191.191 0 01-.12-.043l-.382-.338.022-.024.884-1 .149.132-.225.255.37.328-.022.024-.527.6a.2.2 0 01-.149.066zm-.411-.387l.332.294a.131.131 0 00.18-.02l.505-.571-.37-.328.225-.255-.052-.047zm.41.289l-.321-.284.022-.024.5-.56.321.284zm-.229-.29l.224.2.432-.488-.224-.2z"/></g><g data-name="Group 230"><path data-name="Path 7210" d="M8.486 24.078l.4.28.156-.224-.4-.283.529-.757.108.075-.46.658.3.207.46-.658.112.078-.661.947a.162.162 0 01-.227.044l-.38-.265z"/><path data-name="Path 7211" d="M8.885 24.507a.191.191 0 01-.11-.035l-.407-.284.108-.155.4.279.119-.171-.4-.282.566-.81.16.112-.46.658.244.17.46-.658.165.115-.68.973a.2.2 0 01-.165.088zm-.426-.335l.353.247a.131.131 0 00.183-.036l.643-.92-.059-.041-.46.658-.35-.244.46-.658-.055-.038-.492.7.4.282-.193.277-.4-.279z"/></g><g data-name="Group 231"><path data-name="Path 7212" d="M10.316 24.912l.407-.871.437.2-.053.113-.314-.146-.354.758z"/><path data-name="Path 7213" d="M10.454 25.012l-.181-.084.434-.93.5.231-.08.171-.314-.146zm-.095-.115l.064.03.354-.758.314.146.025-.054-.378-.177z"/></g><g data-name="Group 232"><path data-name="Path 7214" d="M11.835 25.345a.163.163 0 01-.2.106l-.446-.156.2-.584.464.162.072-.206-.446-.156.041-.118.573.2zm-.361-.472l-.123.351.342.119.123-.351z"/><path data-name="Path 7215" d="M11.682 25.491a.2.2 0 01-.056-.008l-.478-.168.226-.645.464.162.051-.144-.446-.156.062-.178.634.222-.01.03-.263.75a.2.2 0 01-.184.135zm-.452-.215l.416.146a.131.131 0 00.159-.086l.252-.72-.512-.179-.02.056.446.156-.093.266-.464-.162zm.482.11l-.4-.141.144-.412.4.141zm-.32-.181l.28.1.1-.29-.281-.1z"/></g><g data-name="Group 233"><path data-name="Path 7216" d="M13.332 25.88l-.123-.026.171-.815-.31-.065-.166.788-.12-.025.166-.788-.3-.064-.172.815-.121-.025.2-.941.82.173a.162.162 0 01.122.2z"/><path data-name="Path 7217" d="M13.357 25.919l-.186-.039.006-.032.165-.783-.247-.052-.166.788-.181-.039.166-.787-.24-.051-.172.815-.184-.039.007-.032.205-.972.851.179a.2.2 0 01.147.233zm-.11-.089l.06.013.157-.747a.129.129 0 00-.1-.157l-.788-.166-.185.877.058.012.171-.815.366.077-.007.032-.159.756.056.011.166-.788.373.079-.007.032z"/></g><g data-name="Group 234"><path data-name="Path 7218" d="M14.088 25.966a.161.161 0 01-.145-.179l.065-.792.615.05-.038.469-.482-.04-.03.369.488.04-.01.12zm.042-.836l-.018.219.351.029.018-.219z"/><path data-name="Path 7219" d="M14.579 26.039l-.494-.04a.193.193 0 01-.174-.214l.067-.825.679.056-.044.533-.482-.039-.024.3.488.04zm-.488-.1l.429.035v-.056l-.488-.04.035-.433.483.039.033-.4-.55-.045-.062.761a.129.129 0 00.115.143zm.4-.522l-.416-.034.023-.283.416.034zm-.346-.093l.287.024.012-.155-.287-.023z"/></g><g data-name="Group 235"><path data-name="Path 7220" d="M15.739 26.002h-.125l-.021-.833-.4.01.021.833h-.124l-.024-.961.485-.012a.162.162 0 01.165.162z"/><path data-name="Path 7221" d="M15.064 26.052v-.032l-.025-.993.518-.013a.19.19 0 01.139.055.2.2 0 01.059.139l.02.827h-.19v-.027l-.02-.8-.333.008.02.833zm.04-.962l.023.9h.059l-.021-.832.462-.012v.032l.02.8h.061l-.019-.763a.134.134 0 00-.04-.094.127.127 0 00-.092-.036z"/></g><g data-name="Group 236"><path data-name="Path 7222" d="M17.716 25.007l-.275.059.421.617-.143.031-.421-.618-.207.045.146.677-.132.028-.28-1.3.757-.163zm-.732-.36l.079.365.5-.107-.079-.366z"/><path data-name="Path 7223" d="M17.081 25.885l-.294-1.36.032-.007.788-.17.148.684-.26.056.421.617-.211.045-.421-.617-.154.034.146.677zm-.217-1.311l.266 1.234.069-.015-.146-.677.26-.056.421.617.075-.016-.421-.617.29-.063-.121-.558zm.174.476l-.093-.429.558-.12.093.429zm-.016-.379l.065.3.431-.093-.065-.3z"/></g><g data-name="Group 237"><path data-name="Path 7224" d="M18 24.269l.767-.271.443 1.251-.135.048-.231-.653-.5.179.231.653-.129.045zm.3.428l.5-.179-.124-.35-.5.179z"/><path data-name="Path 7225" d="M18.422 25.562l-.464-1.312.829-.293.464 1.312-.2.069-.231-.653-.443.157.231.653zm-.381-1.273l.421 1.19.068-.024-.231-.653.565-.2.231.653.073-.026-.421-1.19zm.235.45l-.145-.411.565-.2.145.411zm-.063-.372l.1.29.443-.157-.1-.29z"/></g><g data-name="Group 238"><path data-name="Path 7226" d="M19.866 24.954l-.131.061-.563-1.2.131-.061z"/><path data-name="Path 7227" d="M19.72 25.059l-.59-1.261.189-.089.589 1.261zm-.5-1.23l.535 1.144.072-.034-.535-1.144z"/></g><g data-name="Group 239"><path data-name="Path 7228" d="M20.98 24.347l-.648.38-.177-.3.116-.068.112.191.413-.241-.54-.922-.324.19-.066-.113.443-.259z"/><path data-name="Path 7229" d="M20.321 24.771l-.21-.358.173-.1.112.191.357-.209-.507-.866-.324.19-.1-.169.5-.292.7 1.2zm-.121-.335l.144.247.593-.347-.639-1.09-.388.227.033.057.324-.19.573.978-.468.274-.112-.191z"/></g><g data-name="Group 240"><path data-name="Path 7230" d="M21.568 23.942l-.117.084-.774-1.078.117-.084z"/><path data-name="Path 7231" d="M21.443 24.071l-.811-1.131.17-.122.811 1.131zm-.721-1.116l.736 1.026.065-.046-.736-1.026z"/></g><g data-name="Group 241"><path data-name="Path 7232" d="M21.155 22.599l.156-.138.682.048-.322-.365.1-.089.877 1-.1.089-.426-.484-.793-.058.8.91-.1.087z"/><path data-name="Path 7233" d="M22.029 23.64l-.92-1.044.191-.168.617.043-.291-.33.15-.132.92 1.044-.15.132-.439-.5-.7-.051.771.875zm-.829-1.038l.834.947.05-.044-.832-.945.885.064.414.47.052-.047-.834-.947-.052.047.352.4-.747-.053z"/></g></g></g></g><g data-name="Group 256"><g data-name="Group 245" fill="#563008"><path data-name="Path 7236" d="M13.118 21.364l1.193-.043a.733.733 0 01-.426.655s.062-.2-.018-.235l-.729.049z"/><path data-name="Path 7237" d="M13.31 21.191s.031 1.069.426 1.161a5.769 5.769 0 01-.111-1.168z"/></g><g data-name="Group 247"><g data-name="Group 246" transform="translate(11.512 21.066)" fill="#563008"><ellipse data-name="Ellipse 2" cx=".235" cy=".309" rx=".235" ry=".309" transform="rotate(-58.794 .357 .201)"/><path data-name="Path 7238" d="M1.321.609l-.946.688-.12-.182.946-.688z"/></g></g><g data-name="Group 249"><g data-name="Group 248" transform="translate(17.311 21.102)" fill="#563008"><ellipse data-name="Ellipse 3" cx=".22" cy=".304" rx=".22" ry=".304" transform="rotate(-23.36 .486 .1)"/><ellipse data-name="Ellipse 4" cx=".106" cy=".15" rx=".106" ry=".15" transform="translate(.933)"/><ellipse data-name="Ellipse 5" cx=".106" cy=".15" rx=".106" ry=".15" transform="translate(1.185 .031)"/><path data-name="Path 7239" d="M1.101.431l-.567.9-.175-.123.567-.9z"/></g></g><g data-name="Group 251"><g data-name="Group 250" fill="#563008"><path data-name="Path 7240" d="M11.322 21.353l-1.017 1-.143-.162 1.017-1z"/><path data-name="Path 7241" d="M10.425 21.231l.893.757-.262.342-.893-.757z"/></g></g><g data-name="Group 253"><g data-name="Group 252" fill="#563008"><path data-name="Rectangle 8" d="M14.663 21.206h.9v.321h-.9z"/><path data-name="Rectangle 9" d="M14.595 21.64h.942v.354h-.942z"/><path data-name="Path 7242" d="M15.706 21.64l-.278.687-.142-.064.25-.623z"/></g></g><g data-name="Group 255"><g data-name="Group 254" fill="#563008"><path data-name="Path 7243" d="M17.114 21.544l-.943.512-.18-.367.943-.512z"/><path data-name="Rectangle 10" d="M16.518 21.627h.196v.727h-.196z"/></g></g><path data-name="Rectangle 11" fill="#563008" d="M18.994 21.577h.831v.379h-.831z"/></g><g data-name="Group 274"><g data-name="Group 273"><g data-name="Group 262" fill="#dd5934"><g data-name="Group 257"><path data-name="Path 7244" d="M16.205 19.298h-.416l.416 1.066h-.216l-.416-1.066h-.315v1.066h-.2v-2.045h1.145zm-.945-.78v.576h.748v-.576z"/><path data-name="Path 7245" d="M16.333 20.453h-.405l-.415-1.067h-.165v1.067h-.375v-2.221h1.32v1.154h-.375zm-.285-.176h.027l-.416-1.066h.457v-.802h-.969v1.869h.024v-1.069h.461zm.047-1.094h-.924v-.752h.924zm-.748-.176h.572v-.4h-.572z"/></g><g data-name="Group 258"><path data-name="Path 7246" d="M16.936 18.32h1.2v2.045h-.211v-1.067h-.789v1.066h-.2zm.2.774h.789v-.573h-.789z"/><path data-name="Path 7247" d="M18.226 20.453h-.386v-1.067h-.614v1.067h-.378v-2.221h1.378zm-.21-.176h.034v-1.868h-1.027v1.869h.027v-1.069h.966zm0-1.094h-.966v-.749h.966zm-.79-.176h.614v-.4h-.614z"/></g><g data-name="Group 259"><path data-name="Path 7248" d="M19.083 20.365h-.213V18.32h.213z"/><path data-name="Path 7249" d="M19.171 20.453h-.389v-2.221h.389zm-.213-.176h.038v-1.868h-.038z"/></g><g data-name="Group 260"><path data-name="Path 7250" d="M19.789 18.32h.989v.216l-.834 1.627h.837v.2h-1.047v-.216l.834-1.627h-.779z"/><path data-name="Path 7251" d="M20.869 20.453h-1.223l.01-.345.768-1.5h-.722v-.377h1.165l-.01.345-.768 1.5h.78zm-1.047-.176h.871v-.025h-.871zm0-.107v.041l.869-1.7v-.041zm.056-1.737h.813v-.024h-.813z"/></g><g data-name="Group 261"><path data-name="Path 7252" d="M22.62 20.364h-1.189v-2.048h1.189zm-.992-.2h.79v-1.643h-.79z"/><path data-name="Path 7253" d="M22.705 20.453h-1.364v-2.224h1.364zm-1.188-.176h1.013v-1.869h-1.013zm.986-.025h-.965v-1.819h.965zm-.789-.176h.614V18.61h-.614z"/></g></g><g data-name="Group 264"><g data-name="Group 263" fill="#dd5934"><path data-name="Path 7254" d="M8.129 19.543h-.25l-.385-.8v1.613h-.193v-2.031h.212l.49 1.014.476-1.014h.25v2.031h-.2v-1.665z"/><path data-name="Path 7255" d="M8.819 20.446h-.377v-1.358l-.255.543h-.361l-.243-.5v1.317h-.368V18.24h.355l.433.9.422-.9h.394zm-.2-.176h.025v-1.855h-.025zm-1.227 0h.017v-1.855h-.017zm.657-.814h.027l.488-1.041h-.027zm-.112 0h.026l-.5-1.041h-.025z"/></g></g><g data-name="Group 266"><g data-name="Group 265" fill="#dd5934"><path data-name="Path 7256" d="M11.566 20.374h-.161V19.26h-.51v1.114h-.159v-1.286h.623a.213.213 0 01.207.222z"/><path data-name="Path 7257" d="M11.654 20.462h-.337v-1.114h-.334v1.114h-.334v-1.467h.711a.3.3 0 01.295.31z"/></g></g><g data-name="Group 268"><g data-name="Group 267" fill="#dd5934"><path data-name="Path 7258" d="M12.166 20.689h.625v-.365h-.633v-1.236h.169v1.074h.464v-1.074h.176v1.545a.213.213 0 01-.207.222h-.594z"/><path data-name="Path 7259" d="M12.76 20.943h-.682V20.6h.625v-.189h-.633v-1.416h.344v1.074h.288v-1.074h.351v1.633a.3.3 0 01-.293.315z"/></g></g><g data-name="Group 270"><g data-name="Group 269" fill="#dd5934"><path data-name="Path 7260" d="M9.554 20.374a.211.211 0 01-.2-.222v-1.064h.791v.63h-.62v.5h.628v.161zm-.034-1.119v.294h.452v-.294z"/><path data-name="Path 7261" d="M10.236 20.462h-.682a.3.3 0 01-.292-.31v-1.157h.967v.806h-.62v.319h.627zm-.627-1h.276v-.118h-.276z"/></g></g><g data-name="Group 272"><g data-name="Group 271" fill="#dd5934"><path data-name="Path 7262" d="M14.366 20.152a.214.214 0 01-.2.222h-.606v-.829h.63v-.291h-.606v-.167h.779zm-.637-.437v.5h.464v-.5z"/><path data-name="Path 7263" d="M13.563 20.462h-.088v-1h.63v-.115h-.606v-.352h.955v1.152a.3.3 0 01-.281.31zm.254-.338h.288v-.321h-.288z"/></g></g></g></g><g data-name="Group 277"><g data-name="Group 275"><path data-name="Path 7264" d="M10.703 9.569h.578v1.429a.194.194 0 01-.027.09.132.132 0 01-.076.03h-.234c-.1 0-.2 0-.31-.007v-.054h.156a2.092 2.092 0 00.214.01h.009a.15.15 0 00.062-.017.619.619 0 00.016-.152v-.808h-.517a.436.436 0 01-.105-.022.147.147 0 01-.031-.08.6.6 0 01-.007-.088v-.281h-.165a.729.729 0 01-.022.213.5.5 0 01-.085.186.643.643 0 01-.192.135 1.575 1.575 0 01-.218.078h-.063v.918h-.192V9.57h.518q-.091-.2-.17-.343H9.4v-.049h.89v-.22h.2v.22h.89v.049h-.442a1.884 1.884 0 01-.235.342zm-1.024.585c.055-.021.105-.043.152-.066a.56.56 0 00.136-.1.391.391 0 00.083-.172 1.033 1.033 0 00.015-.2h-.386zm.426.832h-.194v-.757h.946v.639h-.752zm.627-1.76h-.7q.1.2.163.343h.286a1.493 1.493 0 00.251-.343zm-.069 1.052h-.558v.536h.558zm-.047-.314c0 .008.006.016.009.022a.127.127 0 01.007.017c0 .02.015.028.031.027a.13.13 0 00.06.01h.049q.134 0 .317-.01v-.416h-.473z" fill="#080046"/></g><g data-name="Group 276"><path data-name="Path 7265" d="M20.295 9.165h-.433v.247h.379v.485h-1.349V9.53h-.179q.125.412.21.732l-.038.01h-.156a1.253 1.253 0 00-.023-.093v.994h-.194v-.876q-.049.157-.107.3h-.156l-.029-.017a5.9 5.9 0 00.279-1.048h-.241v-.049h.254v-.46h.194v.46h.185v-.069h.379v-.249h-.448v-.052h1.472zm-1.325 1.9h-.154c0-.01-.009-.024-.018-.044a1.236 1.236 0 00.359-.44h.154l.031.027a1.489 1.489 0 01-.371.464zm1.325-.6h-.62v.6a.089.089 0 01-.02.049.213.213 0 01-.118.022h-.154c-.073 0-.145-.008-.216-.015v-.044h.156a.552.552 0 01.123.01l.022-.01a.09.09 0 00.015-.066v-.546h-.658v-.051h1.472zm-1.356-.348h1.262v.051h-1.262zm.332-.663h-.185v.4h.185zm.194-.042h.2v-.247h-.2zm.2.042h-.2v.4h.2zm.462 1.331l.165.257-.031.034h-.156a3.585 3.585 0 00-.363-.46l.031-.039h.147zm-.268-.933h.185v-.4h-.185z" fill="#080046"/></g></g><g data-name="Group 289"><g data-name="Group 288"><g data-name="Group 278" fill="#563008"><path data-name="Path 7266" d="M4.427 17.198h3.137v.451h-3.3l-.813-.9-.861.916h-.56l1.141-1.223-.471-.519-.267.471h-.492l.936-1.661h.492l-.191.335h1.027l-.533 1.3zm-.082-3.068v.383h-2.24v-.383h.888v-.451h-.6v-.383h.6v-.328h-.888v-.383h.888v-.41h.438v.41h.916v.383h-.916v.328h.629v.383h-.629v.451zm-1.374 1.305l-.055.1.444.485.239-.588zm2.371-1.838l.383-.779H4.584v-.4h2.939v.4H6.184l-.383.779h1.674v3.192h-2.83v-3.192zm-.273.376v2.426h.321v-2.426zm1.2 0h-.464v.554h.465zm-.465.936v.554h.465v-.554zm0 .936v.554h.465v-.554zm1.243.554v-2.426h-.369v2.426z"/><path data-name="Path 7267" d="M2.619 17.741h-.756l1.209-1.3-.361-.4-.238.422h-.659l1.017-1.8h.657l-.191.335h1.017l-.557 1.355.7.77h3.176v.594h-3.4l-.782-.861zm-.427-.143h.365l.893-.949.844.929h3.2v-.308h-3.1l-.8-.884.51-1.241H3.056l.191-.335h-.333l-.855 1.518h.328l.295-.521.582.641zm5.354-.738H4.574v-3.335h.724l.313-.636h-1.1v-.539h3.081v.539H6.226l-.313.636h1.631zm-2.832-.144h2.687v-3.048H5.683l.453-.922h1.313v-.251h-2.8v.253h1.185l-.453.922h-.667zm2.4-.247h-.512V13.9h.512zm-.369-.143h.226v-2.283h-.226zm-.411.143h-.607v-.7h.607zm-.464-.143h.322v-.411H5.87zm-.41.143h-.464V13.9h.464zm-.321-.143h.179v-2.283h-.179zm-1.755-.173l-.555-.606.1-.185h.778zm-.381-.628l.334.364.156-.384h-.48zm3.333.007h-.607v-.7h.607zm-.464-.143h.322v-.411h-.322zm.464-.793h-.607v-.7h.607zm-.464-.143h.322v-.411h-.322zm-1.456.129H2.032v-.526h.888v-.308h-.6v-.526h.6v-.185h-.888v-.526h.888v-.41h.58v.41h.916v.526H3.5v.185h.629v.526H3.5v.308h.916zm-2.242-.143h2.1v-.24h-.916v-.594h.629v-.24h-.629v-.47h.916v-.24h-.916v-.41h-.295v.41h-.888v.24h.888v.471h-.6v.24h.6v.594h-.888z"/></g><g data-name="Group 279" fill="#563008"><path data-name="Path 7268" d="M27.507 14.772l-.554 1.073.984 1.845h-.513l-.724-1.353-.659 1.278h-.478l.916-1.777-.43-1.688H23.39v.663l-.267 2.863h-.458l.266-2.884v-1.073h3.01l-.089-.348h.472l.089.348h1.36v.431h-1.25l.273 1.08.232-.458zm-.889-2.31h1.374v.444h-1.374v.321h-.451v-.321h-1.613v.321h-.451v-.321h-1.374v-.444h1.374v-.273h.451v.273h1.613v-.273h.451zm-1.6 3.847v.441h.54v.376h-1.941v-2.7h2.248v.383h-.847v.4h.731v1.107zm-.424-1.5h-.54v.4h.54zm.732 1.141v-.376h-1.271v.376zm-1.271.362v.438h.54v-.438zm3.233-3.2l.308.533h-.492l-.308-.533z"/><path data-name="Path 7269" d="M28.056 17.761h-.675l-.68-1.27-.614 1.2h-.639l.957-1.857-.41-1.608h-2.532v.591l-.273 2.935h-.6l.274-2.962v-1.138h2.987l-.089-.349h.619l.089.349h.554l-.334-.578v.229h-.594v-.321h-1.47v.321h-.594v-.321h-1.373v-.587h1.373v-.273h.594v.273h1.47v-.273h.594v.273h1.374v.587H26.69v.062h.64l.35.608h.164v.574h-1.23l.2.806.166-.327h.64l-.59 1.144zm-.589-.143h.35l-.946-1.773.517-1h-.313l-.3.589-.343-1.353h1.271v-.288h-1.344l-.089-.349h-.324l.089.349h-3.03v1l-.259 2.813h.314l.26-2.8v-.728h2.785l.451 1.768-.013.024-.862 1.672h.317l.7-1.36zm-.323-4.046h.327l-.225-.39h-.327zm-.906-.417h.308v-.321h1.373v-.3h-1.373v-.274h-.308v.274h-1.756v-.274h-.307v.274h-1.374v.3h1.374v.321h.308v-.321h1.756zm-.608 4.038h-2.083v-2.841h2.391v.526h-.848v.253h.731v1.25h-.731v.294h.54zm-1.941-.143h1.8v-.233h-.54v-.581h.731v-.964h-.731v-.54h.847v-.24H23.69zm.977-.233h-.683v-.581h.683zm-.54-.143h.4v-.294h-.4zm1.271-.657h-1.414v-.519h1.414zm-1.271-.145h1.129v-.233h-1.129zm.54-.6h-.683v-.54h.683zm-.54-.143h.4v-.253h-.4z"/></g><g data-name="Group 280" fill="#dd5934"><path data-name="Path 7270" d="M8.835 13.539l5.344-.314a2.652 2.652 0 01-1.844 2.458s.28-.923-.084-1.063l-3.3.224z"/><path data-name="Path 7271" d="M9.734 12.557s.14 4.839 1.93 5.259a26.193 26.193 0 01-.5-5.287z"/></g><g data-name="Group 281" fill="#563008"><path data-name="Path 7272" d="M16.412 14.521l-.3-.341.577-.662.3.341z"/><path data-name="Path 7273" d="M16.995 14.5l-.3.341-.577-.662.3-.341z"/></g><g data-name="Group 282" fill="#563008"><path data-name="Path 7274" d="M17.289 14.521l-.3-.341.577-.662.3.341z"/><path data-name="Path 7275" d="M17.871 14.5l-.3.341-.577-.662.3-.341z"/></g><g data-name="Group 283" fill="#563008"><path data-name="Path 7276" d="M19.085 14.521l-.3-.341.577-.662.3.341z"/><path data-name="Path 7277" d="M19.669 14.5l-.3.341-.577-.662.3-.341z"/></g><g data-name="Group 284" fill="#563008"><path data-name="Path 7278" d="M19.954 14.521l-.3-.341.577-.662.3.341z"/><path data-name="Path 7279" d="M20.537 14.5l-.3.341-.577-.662.3-.341z"/></g><g data-name="Group 286"><g data-name="Group 285" fill="#563008"><path data-name="Path 7280" d="M18.551 12.927h2.68v1.045h-.48v-.661h-2.192v1.422h-.425v-1.422h-2.131v.661h-.48v-1.045h2.6v-.34h-2.078v-.362h4.657v.362h-2.154z"/><path data-name="Path 7281" d="M18.63 14.809h-.568v-1.422h-1.989v.661h-.623V12.86h2.6v-.2h-2.078v-.505h4.8v.505h-2.154v.2h2.68v1.188h-.623v-.661h-2.049zm-.426-.143h.283v-1.427h2.335v.661h.337V13h-2.68v-.483h2.154v-.219h-4.515v.219h2.078V13h-2.6v.9h.337v-.661h2.274z"/></g></g><g data-name="Group 287" fill="#563008"><path data-name="Path 7282" d="M17.31 17.787l-1.92-2.8h.708l1.734 2.531z"/><path data-name="Rectangle 12" d="M15.777 14.984h5.251v.542h-5.251z"/><path data-name="Rectangle 13" d="M16.637 15.932h3.572v.463h-3.572z"/><path data-name="Rectangle 14" d="M18.057 17.631v-2.42h.604v2.42z"/><path data-name="Path 7283" d="M18.965 17.53l1.624-2.547h.809l-1.907 2.8z"/><path data-name="Rectangle 15" d="M17.315 17.299h2.175v.486h-2.175z"/></g></g></g><g data-name="Group 290" fill="#e6b222"><path data-name="Path 7284" d="M15.08 9.623h-1.834l.948-2.994h1.834z"/><path data-name="Path 7285" d="M13.742 12.293l3.283-3.661H14.8z"/></g><g data-name="Group 295" transform="translate(4.661 18.658)"><circle data-name="Ellipse 6" cx=".899" cy=".899" r=".899" fill="#f5e0bb"/><g data-name="Group 294" fill="#563008"><g data-name="Group 291" transform="translate(.097 .09)"><circle data-name="Ellipse 7" cx=".332" cy=".332" r=".332" transform="translate(.489 .027)"/><path data-name="Path 7286" d="M.497.379a.654.654 0 00-.418.768A.821.821 0 01.555.013a.58.58 0 01.343.018C1.065.104.497.379.497.379z"/></g><g data-name="Group 292" transform="translate(.914 .069)"><circle data-name="Ellipse 8" cx=".332" cy=".332" r=".332" transform="translate(0 .722)"/><path data-name="Path 7287" d="M.489.768A.654.654 0 00.071 0a.821.821 0 01.694 1.015.581.581 0 01-.2.279C.414 1.397.489.768.489.768z"/></g><g data-name="Group 293" transform="translate(.202 .79)"><circle data-name="Ellipse 9" cx=".332" cy=".332" r=".332"/><path data-name="Path 7288" d="M.523.596a.653.653 0 00.873-.044.821.821 0 01-1.215.186.578.578 0 01-.164-.3c-.03-.181.506.158.506.158z"/></g></g></g><g data-name="Group 300" transform="translate(23.496 18.655)"><circle data-name="Ellipse 10" cx=".899" cy=".899" r=".899" fill="#f5e0bb"/><g data-name="Group 299" fill="#563008"><g data-name="Group 296" transform="translate(.097 .09)"><circle data-name="Ellipse 11" cx=".332" cy=".332" r=".332" transform="translate(.489 .027)"/><path data-name="Path 7289" d="M.497.387a.653.653 0 00-.418.768A.821.821 0 01.555.021a.579.579 0 01.343.017C1.065.104.497.387.497.387z"/></g><g data-name="Group 297" transform="translate(.914 .069)"><circle data-name="Ellipse 12" cx=".332" cy=".332" r=".332" transform="translate(0 .722)"/><path data-name="Path 7290" d="M.488.768A.653.653 0 00.07 0a.821.821 0 01.694 1.015.581.581 0 01-.2.279C.414 1.397.488.768.488.768z"/></g><g data-name="Group 298" transform="translate(.202 .791)"><circle data-name="Ellipse 13" cx=".332" cy=".332" r=".332"/><path data-name="Path 7291" d="M.523.596a.653.653 0 00.873-.044.821.821 0 01-1.215.185.58.58 0 01-.164-.3C-.012.258.523.596.523.596z"/></g></g></g><path data-name="Path 7292" d="M2.66 11.631a12.809 12.809 0 0124.7 0c.029.1 0 0 0 0h-.4s.056.189 0 0a12.42 12.42 0 00-23.878 0" fill="#dd5934"/><path data-name="Path 7293" d="M3.075 18.24a12.422 12.422 0 0023.928 0c.022-.07-.022.071 0 0h.414s.037-.136 0 0a12.81 12.81 0 01-24.743 0c-.02-.067.019.068 0 0" fill="#dd5934"/></svg>