<svg xmlns="http://www.w3.org/2000/svg" width="20" height="18.918" viewBox="0 0 20 18.918"><path data-name="Path 11048" d="M8.637 18.918a.45.45 0 01-.328-.141l-.007-.007-.015-.015a.454.454 0 01.015-.641l9.369-9.393a4.688 4.688 0 001.375-3.272 4.393 4.393 0 00-1.285-3.209 4.6 4.6 0 00-6.481.093l-9.388 9.388a3.216 3.216 0 002.252 5.5 3.174 3.174 0 002.277-.953l2.356-2.357 7.167-7.212a1.857 1.857 0 00-.068-2.6l-.025-.026a1.822 1.822 0 00-2.576-.046L7.512 9.79l-.023.024a.47.47 0 01-.644-.683l5.742-5.787a2.671 2.671 0 011.88-.781h.1a2.886 2.886 0 012 .848 2.975 2.975 0 01.848 1.994 2.662 2.662 0 01-.779 1.981l-9.665 9.665-.011.025-.02.009-.024.021a4.162 4.162 0 01-5.707-6.053l3.537-3.537 5.86-5.858a5.532 5.532 0 017.824-.081 5.418 5.418 0 011.572 3.91 5.621 5.621 0 01-1.665 3.918L8.952 18.79a.451.451 0 01-.312.125z"/></svg>