<svg xmlns="http://www.w3.org/2000/svg" width="40" height="40" viewBox="0 0 40 40"><g data-name="Group 210"><circle data-name="Ellipse 1" cx="19.876" cy="19.876" r="19.876" transform="translate(.124 .124)" fill="#f5e7c8"/><path data-name="Path 7167" d="M20 40.002a20 20 0 1120-20 20.023 20.023 0 01-20 20zM20 .249a19.753 19.753 0 1019.753 19.753A19.775 19.775 0 0020 .247z" fill="#dd5934"/></g><path data-name="Path 7168" d="M20 39.473a19.472 19.472 0 1119.473-19.472A19.495 19.495 0 0120 39.473zm0-37.4a17.928 17.928 0 1017.928 17.928A17.948 17.948 0 0020 2.072z" fill="#563008"/><g data-name="Group 244"><path data-name="Path 7172" d="M19.988 4.455C7.567 4.893 4.98 15.516 4.98 15.516h3.438A12.242 12.242 0 0119.984 7.66c8.654-.148 11.621 7.817 11.621 7.817l3.37-.007C31.199 4.058 19.988 4.455 19.988 4.455z" fill="#563008"/><path data-name="Path 7173" d="M19.967 35.363s-11.211.4-14.987-11.018l3.37-.007s2.966 7.965 11.621 7.817a12.243 12.243 0 0011.566-7.856h3.438S32.388 34.922 19.967 35.36" fill="#563008"/><g data-name="Group 228" fill="#f5e7c8"><g data-name="Group 211"><path data-name="Path 7174" d="M10.13 11.184l-.618.713-.355-.308.111-.128.224.195.392-.453-1.082-.938-.308.355-.132-.115.422-.487z"/><path data-name="Path 7175" d="M9.517 11.956l-.418-.363.166-.192.224.195.337-.389-1.018-.883-.308.355-.2-.17.477-.551.032.028 1.376 1.194zm-.3-.372l.291.252.562-.648-1.28-1.111-.366.423.068.059.308-.355.032.028 1.113.966-.448.517-.224-.195z"/></g><g data-name="Group 212"><path data-name="Path 7176" d="M10.955 10.067a.212.212 0 01.012.294l-.432.406-.568-.605.449-.422-.2-.212-.432.405-.114-.122.555-.521zm-.753.107l.341.363.331-.31-.341-.363z"/><path data-name="Path 7177" d="M10.533 10.826l-.626-.667.449-.422-.142-.151-.432.405-.172-.183.617-.579.758.808a.253.253 0 01.011.353zm-.507-.663l.511.543.4-.376a.17.17 0 00-.014-.235l-.7-.746-.494.463.057.06.432-.405.258.274zm.513.434l-.4-.425.392-.368.4.425zm-.279-.422l.283.3.27-.253-.283-.3z"/></g><g data-name="Group 213"><path data-name="Path 7178" d="M12.015 9.493l-.332.255.292.381-.135.1-1.074-1.4.627-.481.648.846a.21.21 0 01-.026.299zm-1.013-.634l.582.76.362-.277-.582-.76z"/><path data-name="Path 7179" d="M11.832 10.29l-.026-.033-1.1-1.436.693-.532.675.88a.252.252 0 01-.034.357l-.3.229.292.381zm-1.007-1.453l1.023 1.335.067-.052-.292-.381.366-.281a.167.167 0 00.018-.238l-.623-.813zm.752.841l-.634-.827.429-.329.633.827zm-.516-.812l.531.693.3-.226-.531-.693z"/></g><g data-name="Group 214"><path data-name="Path 7180" d="M13.208 8.439a.212.212 0 01-.047.291l-.5.311-.436-.706.524-.323-.153-.248-.5.311-.088-.142.648-.4zm-.76-.046l.262.424.386-.238-.262-.424z"/><path data-name="Path 7181" d="M12.642 9.099l-.48-.778.525-.323-.109-.177-.5.311-.132-.214.721-.444.581.943a.253.253 0 01-.059.348zm-.363-.751l.391.634.469-.289a.171.171 0 00.033-.233l-.538-.871-.576.355.043.07.5-.311.2.32zm.417.528l-.306-.5.459-.282.305.5zm-.189-.469l.217.353.314-.194-.217-.352z"/></g><g data-name="Group 215"><path data-name="Path 7182" d="M14.566 7.995l-.142.069-.485-1.006-.449.216.485 1.006-.14.067-.56-1.161.548-.265a.211.211 0 01.279.113z"/><path data-name="Path 7183" d="M13.816 8.405l-.6-1.237.586-.283a.253.253 0 01.335.133l.481 1-.217.105-.485-1.005-.373.18.485 1.006zm-.485-1.2l.524 1.085.063-.031-.485-1.006.525-.253.485 1.006.066-.032-.445-.922a.17.17 0 00-.223-.093z"/></g><g data-name="Group 216"><path data-name="Path 7184" d="M15.29 7.706a.21.21 0 01-.264-.142l-.363-1 .727-.263.215.594-.571.207.169.466.577-.209.055.152zm-.413-1.044l.1.277.416-.15-.1-.276z"/><path data-name="Path 7185" d="M15.23 7.758a.229.229 0 01-.1-.023.276.276 0 01-.14-.158l-.377-1.042.808-.292.243.673-.571.206.141.387.576-.209.083.231-.585.212a.228.228 0 01-.078.015zm-.509-1.172l.349.963a.191.191 0 00.1.11.148.148 0 00.113.006l.507-.183-.027-.073-.577.209-.2-.546.571-.207-.186-.514zm.234.406l-.129-.356.5-.179.129.356zm-.02-.305l.071.2.335-.122-.071-.2z"/></g><g data-name="Group 217"><path data-name="Path 7186" d="M16.349 7.351l-.04-.162.618-.154-.113-.452-.6.15-.159-.635.771-.192.04.162-.609.152.071.283.6-.151.147.589a.212.212 0 01-.142.265z"/><path data-name="Path 7187" d="M16.318 7.402l-.061-.243.618-.154-.092-.371-.6.15-.179-.717.853-.213.061.244-.609.152.05.2.6-.151.157.63a.252.252 0 01-.173.316zm.041-.182l.02.08.545-.136a.151.151 0 00.1-.076.19.19 0 00.015-.137l-.137-.548-.61.15-.091-.365.609-.152-.02-.08-.689.172.138.553.6-.15.134.535z"/></g><g data-name="Group 218"><path data-name="Path 7188" d="M17.902 7.017a.21.21 0 01-.229-.192l-.151-1.056.766-.109.09.625-.6.086.07.491.608-.087.023.16zm-.191-1.106l.042.291.438-.062-.042-.291z"/><path data-name="Path 7189" d="M17.875 7.061a.256.256 0 01-.245-.23l-.156-1.1.85-.121.1.708-.6.086.059.407.608-.087.035.243-.617.088a.182.182 0 01-.034.006zm-.305-1.259l.145 1.014a.168.168 0 00.182.157l.533-.076-.011-.077-.607.087-.082-.574.6-.086-.078-.542zm.147.445l-.053-.375.521-.075.053.375zm.042-.3l.03.208.354-.05-.03-.208z"/></g><g data-name="Group 219"><path data-name="Path 7190" d="M19.947 5.073l.261.009.579.672.022-.652.169.006-.06 1.778-.169-.006.029-.864-.673-.784-.055 1.624-.164-.005z"/><path data-name="Path 7191" d="M20.959 6.929l-.254-.009.03-.89-.591-.689-.053 1.558-.249-.008.062-1.863.322.011.012.014.509.59.02-.586.254.008zm-.167-.09h.085l.057-1.693h-.085l-.024.718-.638-.74-.2-.006-.057 1.693h.08l.058-1.69.754.879z"/></g><g data-name="Group 220"><path data-name="Path 7192" d="M22.096 7.033l-.6-.089.188-1.275.8.119-.156 1.055a.212.212 0 01-.232.19zm-.286-1.171l-.138.931.493.073.138-.931z"/><path data-name="Path 7193" d="M22.124 7.077h-.034l-.645-.1.2-1.358.886.131-.162 1.1a.276.276 0 01-.1.174.233.233 0 01-.145.053zm-.583-.169l.561.083a.153.153 0 00.119-.034.19.19 0 00.066-.121l.15-1.013-.719-.106zm.66.006l-.576-.085.15-1.015.577.086zm-.481-.156l.41.06.125-.848-.41-.06z"/></g><g data-name="Group 221"><path data-name="Path 7194" d="M23.453 7.328l-.59-.152.322-1.248.785.2-.266 1.032a.211.211 0 01-.251.168zm-.161-1.194l-.235.911.482.124.235-.911z"/><path data-name="Path 7195" d="M23.501 7.377a.211.211 0 01-.058-.007l-.631-.162.342-1.33.868.224-.277 1.073a.272.272 0 01-.123.169.238.238 0 01-.121.033zm-.037-.089a.15.15 0 00.115-.017.187.187 0 00.085-.118l.256-.992-.7-.181-.3 1.167zm.107-.066l-.565-.146.256-.994.564.146zm-.462-.206l.4.1.213-.83-.4-.1z"/></g><g data-name="Group 222"><path data-name="Path 7196" d="M24.754 7.759l-.55-.206.45-1.207.581.217.158-.425.159.059-.531 1.424a.212.212 0 01-.267.138zm0-1.2l-.335.9.427.159.335-.9z"/><path data-name="Path 7197" d="M24.821 7.815a.226.226 0 01-.082-.015l-.59-.22.015-.039.464-1.247.582.216.158-.424.238.089-.015.039-.531 1.424a.262.262 0 01-.239.177zm-.052-.094a.169.169 0 00.213-.113l.516-1.385-.08-.03-.158.425-.581-.216-.421 1.128zm.1-.046l-.506-.189.364-.978.507.189zm-.4-.238l.348.129.306-.82-.348-.129z"/></g><g data-name="Group 223"><path data-name="Path 7198" d="M25.641 8.144l-.157-.074.739-1.577.157.074z"/><path data-name="Path 7199" d="M25.662 8.201l-.235-.11.018-.038.757-1.616.234.11-.018.038zm-.122-.15l.082.038.7-1.5-.081-.038z"/></g><g data-name="Group 224"><path data-name="Path 7200" d="M26.345 8.505a.21.21 0 01-.063-.292l.526-.927.672.382-.311.549-.528-.3-.244.431.533.3-.08.141zm.525-.992l-.145.256.384.218.146-.256z"/><path data-name="Path 7201" d="M26.866 8.849l-.542-.307a.252.252 0 01-.08-.35l.547-.964.747.423-.354.622-.527-.3-.2.358.534.3zm-.5-.381l.468.266.038-.067-.533-.3.287-.5.527.3.27-.476-.6-.34-.506.89a.17.17 0 00.048.235zm.759-.423l-.457-.26.187-.33.458.26zm-.342-.292l.311.177.1-.183-.311-.176z"/></g><g data-name="Group 225"><path data-name="Path 7202" d="M29.368 9.265l.138.114-.7.854-.786-.647 1.132-1.373.648.533zm-1.107.294l.515.424.479-.581-.515-.424zm1.288-.791l-.379-.312-.317.385.38.312z"/><path data-name="Path 7203" d="M28.809 10.292l-.851-.7 1.185-1.438.713.587-.428.52.138.114zm-.732-.713l.721.594.649-.788-.138-.114.428-.52-.583-.48zm.705.464l-.581-.478.533-.646.581.478zm-.462-.49l.451.371.425-.516-.451-.371zm.917-.341l-.445-.366.371-.45.445.366zm-.326-.377l.314.259.263-.32-.314-.259z"/></g><g data-name="Group 226"><path data-name="Path 7204" d="M29.934 11.033a.212.212 0 01-.294.018l-.414-.423.594-.58.431.441.209-.2-.414-.423.12-.117.532.545zm-.122-.752l-.357.349.317.324.357-.348z"/><path data-name="Path 7205" d="M29.772 11.146a.235.235 0 01-.161-.062l-.445-.455.654-.64.43.441.148-.145-.414-.424.18-.176.592.6-.792.775a.276.276 0 01-.192.086zm-.486-.515l.385.393a.168.168 0 00.234-.019l.733-.716-.474-.484-.06.058.414.423-.269.263-.43-.44zm.486.386l-.376-.385.417-.408.376.385zm-.257-.383l.258.264.3-.29-.258-.264z"/></g><g data-name="Group 227"><path data-name="Path 7206" d="M30.161 11.632l1-.816.383.467-.129.106-.276-.337-.868.711z"/><path data-name="Path 7207" d="M30.262 11.822l-.161-.2 1.062-.87.437.533-.195.159-.275-.337zm-.042-.184l.054.065.868-.711.276.337.064-.053-.329-.4z"/></g></g><g data-name="Group 243"><g data-name="Group 242" fill="#f5e7c8"><g data-name="Group 229"><path data-name="Path 7208" d="M11.015 31.187a.217.217 0 01-.3.03l-.475-.421 1.151-1.3.134.119-.3.34.494.437zm.1-1.107l-.633.715.363.322.633-.715z"/><path data-name="Path 7209" d="M10.847 31.308a.255.255 0 01-.16-.057l-.509-.451.029-.032 1.179-1.332.2.177-.3.339.494.438-.029.032-.7.794a.267.267 0 01-.204.092zm-.547-.515l.443.392a.174.174 0 00.24-.027l.674-.761-.494-.438.3-.339-.069-.062zm.547.385l-.427-.379.029-.032.661-.747.428.379zm-.305-.386l.3.265.576-.651-.3-.265z"/></g><g data-name="Group 230"><path data-name="Path 7210" d="M11.313 32.102l.533.373.209-.3-.539-.377.705-1.009.144.1-.613.877.4.276.613-.877.15.1-.882 1.263a.216.216 0 01-.3.058l-.507-.354z"/><path data-name="Path 7211" d="M11.847 32.674a.254.254 0 01-.147-.047l-.542-.378.145-.207.533.372.158-.228-.539-.376.755-1.08.214.15-.613.877.325.227.613-.877.22.154-.907 1.3a.265.265 0 01-.215.113zm-.569-.446l.471.329a.175.175 0 00.243-.048l.858-1.227-.079-.055-.613.877-.466-.326.613-.877-.073-.051-.656.938.539.376-.258.369-.533-.372z"/></g><g data-name="Group 231"><path data-name="Path 7212" d="M13.754 33.215l.542-1.162.582.271-.07.151-.419-.2-.472 1.011z"/><path data-name="Path 7213" d="M13.938 33.343l-.241-.112.578-1.239.66.308-.107.228-.419-.2zm-.126-.154l.085.04.472-1.011.419.2.034-.072-.5-.236z"/></g><g data-name="Group 232"><path data-name="Path 7214" d="M15.78 33.792a.217.217 0 01-.267.141l-.595-.209.272-.779.618.216.1-.274-.595-.208.055-.157.764.268zm-.482-.63l-.164.468.455.159.164-.468z"/><path data-name="Path 7215" d="M15.576 33.986a.272.272 0 01-.075-.011l-.637-.223.3-.86.618.216.067-.192-.595-.209.083-.238.846.3-.014.04-.351 1a.261.261 0 01-.242.177zm-.6-.287l.554.194a.174.174 0 00.211-.115l.336-.96-.683-.239-.027.075.595.209-.124.355-.618-.216zm.643.146l-.537-.188.192-.549.536.188zm-.427-.241l.374.131.136-.386-.374-.131z"/></g><g data-name="Group 233"><path data-name="Path 7216" d="M17.776 34.505l-.164-.034.228-1.086-.413-.087-.221 1.05-.159-.033.221-1.05-.4-.085-.229 1.086-.161-.034.264-1.254 1.093.23a.216.216 0 01.162.261z"/><path data-name="Path 7217" d="M17.81 34.556l-.248-.053.008-.042.22-1.044-.329-.069-.221 1.05-.243-.052.221-1.05-.32-.067-.229 1.087-.245-.052.009-.042.273-1.3 1.135.239a.261.261 0 01.2.311zm-.147-.119l.08.017.209-1a.172.172 0 00-.129-.209l-1.051-.221-.246 1.17.078.016.228-1.086.488.1-.009.042-.212 1.008.075.015.221-1.05.5.1-.009.042z"/></g><g data-name="Group 234"><path data-name="Path 7218" d="M18.783 34.621a.214.214 0 01-.193-.238l.086-1.056.819.067-.051.626-.642-.053-.04.492.65.053-.013.16zm.056-1.115l-.024.292.468.038.024-.292z"/><path data-name="Path 7219" d="M19.438 34.718l-.658-.054a.257.257 0 01-.233-.285l.089-1.1.906.074-.058.711-.643-.052-.032.405.65.053zm-.651-.14l.573.047.006-.074-.65-.053.047-.577.643.053.044-.54-.734-.06-.083 1.014a.172.172 0 00.154.191zm.537-.7l-.554-.045.031-.378.554.046zm-.461-.124l.383.031.016-.206-.382-.031z"/></g><g data-name="Group 235"><path data-name="Path 7220" d="M20.989 34.669h-.167l-.028-1.11-.53.013.028 1.11h-.165l-.031-1.281.647-.016a.216.216 0 01.22.216z"/><path data-name="Path 7221" d="M20.085 34.735v-.043l-.033-1.325.691-.017a.253.253 0 01.185.073.267.267 0 01.079.185l.027 1.1-.253.006v-.043l-.026-1.067-.444.011.027 1.11zm.054-1.283l.03 1.195h.079l-.028-1.11.616-.016v.043l.026 1.067h.082l-.026-1.017a.178.178 0 00-.053-.125.169.169 0 00-.123-.049z"/></g><g data-name="Group 236"><path data-name="Path 7222" d="M23.621 33.342l-.366.079.561.823-.19.041-.561-.823-.276.06.195.9-.176.038-.373-1.73 1.009-.217zm-.975-.48l.1.487.66-.142-.105-.487z"/><path data-name="Path 7223" d="M22.774 34.513l-.392-1.814.042-.009 1.051-.227.2.912-.346.075.561.823-.281.061-.562-.823-.206.045.2.9zm-.289-1.748l.355 1.645.092-.02-.2-.9.347-.075.562.823.1-.022-.561-.823.387-.084-.161-.744zm.233.634l-.123-.572.744-.16.123.572zm-.021-.505l.087.4.575-.124-.087-.4z"/></g><g data-name="Group 237"><path data-name="Path 7224" d="M23.999 32.358l1.023-.362.591 1.668-.18.063-.308-.87-.671.238.308.87-.172.061zm.4.571l.672-.238-.166-.467-.671.238z"/><path data-name="Path 7225" d="M24.562 34.081l-.619-1.749 1.105-.391.619 1.749-.261.092-.308-.87-.59.209.307.87zm-.509-1.7l.562 1.587.09-.032-.308-.87.754-.267.308.87.1-.034-.562-1.587zm.314.6l-.194-.548.753-.267.194.548zm-.084-.5l.137.386.591-.209-.137-.386z"/></g><g data-name="Group 238"><path data-name="Path 7226" d="M26.487 33.272l-.174.082-.75-1.6.174-.082z"/><path data-name="Path 7227" d="M26.292 33.411l-.786-1.681.252-.119.786 1.681zm-.672-1.64l.713 1.525.1-.045-.713-1.525z"/></g><g data-name="Group 239"><path data-name="Path 7228" d="M27.974 32.462l-.865.507-.236-.4.155-.091.15.255.55-.322-.72-1.229-.432.253-.088-.15.591-.346z"/><path data-name="Path 7229" d="M27.094 33.027l-.28-.477.23-.134.15.255.476-.279-.676-1.154-.432.253-.132-.225.666-.39.938 1.6zm-.162-.447l.192.329.791-.463-.851-1.453-.517.3.044.076.432-.253.764 1.3-.625.365-.149-.255z"/></g><g data-name="Group 240"><path data-name="Path 7230" d="M28.757 31.922l-.156.112-1.031-1.438.156-.112z"/><path data-name="Path 7231" d="M28.591 32.094l-1.082-1.508.227-.162 1.082 1.508zm-.961-1.488l.981 1.368.086-.062-.981-1.368z"/></g><g data-name="Group 241"><path data-name="Path 7232" d="M28.205 30.13l.209-.183.909.063-.429-.486.135-.119 1.17 1.327-.135.119-.569-.645-1.057-.077 1.069 1.213-.131.116z"/><path data-name="Path 7233" d="M29.371 31.519l-1.227-1.392.254-.224.822.058-.388-.44.2-.176 1.227 1.392-.2.176-.585-.664-.934-.068 1.028 1.166zm-1.105-1.385l1.113 1.263.067-.059-1.11-1.26 1.179.086.552.627.07-.062-1.113-1.263-.07.062.47.533-1-.07z"/></g></g></g></g><g data-name="Group 256"><g data-name="Group 245" fill="#563008"><path data-name="Path 7236" d="M17.489 28.487l1.59-.058a.977.977 0 01-.569.873s.083-.271-.025-.313l-.972.066z"/><path data-name="Path 7237" d="M17.745 28.256s.041 1.425.568 1.548a7.7 7.7 0 01-.148-1.557z"/></g><g data-name="Group 247"><g data-name="Group 246" transform="translate(15.348 28.089)" fill="#563008"><ellipse data-name="Ellipse 2" cx=".313" cy=".412" rx=".313" ry=".412" transform="rotate(-58.794 .475 .268)"/><path data-name="Path 7238" d="M1.766.812l-1.261.917-.16-.243L1.606.569z"/></g></g><g data-name="Group 249"><g data-name="Group 248" transform="translate(23.081 28.137)" fill="#563008"><ellipse data-name="Ellipse 3" cx=".293" cy=".405" rx=".293" ry=".405" transform="rotate(-23.36 .647 .134)"/><ellipse data-name="Ellipse 4" cx=".142" cy=".199" rx=".142" ry=".199" transform="translate(1.244)"/><ellipse data-name="Ellipse 5" cx=".142" cy=".199" rx=".142" ry=".199" transform="translate(1.58 .042)"/><path data-name="Path 7239" d="M1.469.571l-.756 1.2-.234-.164.756-1.2z"/></g></g><g data-name="Group 251"><g data-name="Group 250" fill="#563008"><path data-name="Path 7240" d="M15.095 28.467l-1.356 1.329-.191-.216 1.356-1.329z"/><path data-name="Path 7241" d="M13.9 28.308l1.191 1.009-.349.457-1.191-1.009z"/></g></g><g data-name="Group 253"><g data-name="Group 252" fill="#563008"><path data-name="Rectangle 8" d="M19.55 28.275h1.2v.428h-1.2z"/><path data-name="Rectangle 9" d="M19.459 28.853h1.255v.473h-1.255z"/><path data-name="Path 7242" d="M20.94 28.854l-.37.916-.19-.085.333-.831z"/></g></g><g data-name="Group 255"><g data-name="Group 254" fill="#563008"><path data-name="Path 7243" d="M22.817 28.727l-1.257.683-.24-.489 1.257-.683z"/><path data-name="Rectangle 10" d="M22.023 28.837h.261v.969h-.261z"/></g></g><path data-name="Rectangle 11" fill="#563008" d="M25.324 28.77h1.108v.506h-1.108z"/></g><g data-name="Group 274"><g data-name="Group 273"><g data-name="Group 262" fill="#dd5934"><g data-name="Group 257"><path data-name="Path 7244" d="M21.605 25.731h-.554l.554 1.422h-.288l-.554-1.422h-.418v1.422h-.268v-2.726h1.526zm-1.26-1.04v.768h1v-.768z"/><path data-name="Path 7245" d="M21.777 27.27h-.541l-.554-1.422h-.22v1.422h-.5v-2.961h1.76v1.539h-.5zm-.38-.235h.036l-.554-1.422h.609v-1.07h-1.29v2.492h.032v-1.422h.615zm.063-1.459h-1.232v-1h1.232zm-1-.235h.763v-.533h-.763z"/></g><g data-name="Group 258"><path data-name="Path 7246" d="M22.58 24.427h1.6v2.726h-.281v-1.422h-1.053v1.422h-.27zm.27 1.032h1.053v-.764H22.85z"/><path data-name="Path 7247" d="M24.301 27.27h-.515v-1.422h-.818v1.422h-.5v-2.961h1.837zm-.28-.235h.046v-2.492h-1.369v2.492h.035v-1.422h1.288zm0-1.459h-1.288v-1h1.288zm-1.053-.235h.818v-.529h-.818z"/></g><g data-name="Group 259"><path data-name="Path 7248" d="M25.443 27.153h-.284v-2.726h.284z"/><path data-name="Path 7249" d="M25.56 27.27h-.518v-2.961h.518zm-.284-.235h.05v-2.492h-.05z"/></g><g data-name="Group 260"><path data-name="Path 7250" d="M26.385 24.427h1.319v.288l-1.112 2.17h1.116v.268h-1.4v-.288l1.112-2.17h-1.038z"/><path data-name="Path 7251" d="M27.824 27.27h-1.63l.013-.459 1.024-2h-.963v-.5h1.553l-.013.459-1.024 2h1.04zm-1.4-.235h1.162v-.033h-1.162zm0-.143v.054l1.159-2.26v-.054zm.074-2.316h1.085v-.033h-1.085z"/></g><g data-name="Group 261"><path data-name="Path 7252" d="M30.161 27.153h-1.585v-2.73h1.585zm-1.323-.268h1.053v-2.19h-1.053z"/><path data-name="Path 7253" d="M30.278 27.271h-1.819v-2.966h1.819zm-1.584-.235h1.35v-2.492h-1.35zm1.315-.033H28.72v-2.425h1.287zm-1.053-.235h.818v-1.955h-.818z"/></g></g><g data-name="Group 264"><g data-name="Group 263" fill="#dd5934"><path data-name="Path 7254" d="M10.842 26.057h-.334l-.514-1.065v2.151h-.257v-2.709h.283l.653 1.352.635-1.352h.334v2.709h-.268v-2.22z"/><path data-name="Path 7255" d="M11.759 27.261h-.5v-1.81l-.34.724h-.482l-.324-.669v1.755h-.491v-2.944h.473l.578 1.2.562-1.2h.525zm-.268-.235h.033v-2.473h-.033zm-1.636 0h.022v-2.473h-.022zm.876-1.086h.036l.651-1.387h-.034zm-.15 0h.035l-.67-1.387h-.034z"/></g></g><g data-name="Group 266"><g data-name="Group 265" fill="#dd5934"><path data-name="Path 7256" d="M15.421 27.165h-.215V25.68h-.68v1.485h-.211V25.45h.831a.285.285 0 01.276.3z"/><path data-name="Path 7257" d="M15.538 27.282h-.45v-1.485h-.446v1.485h-.446v-1.954h.948a.4.4 0 01.393.414z"/></g></g><g data-name="Group 268"><g data-name="Group 267" fill="#dd5934"><path data-name="Path 7258" d="M16.222 27.584h.834v-.486h-.844V25.45h.225v1.432h.619V25.45h.234v2.06a.284.284 0 01-.275.3h-.792z"/><path data-name="Path 7259" d="M17.014 27.928h-.909v-.457h.834v-.252h-.845v-1.891h.459v1.432h.385v-1.432h.468v2.177a.4.4 0 01-.392.423z"/></g></g><g data-name="Group 270"><g data-name="Group 269" fill="#dd5934"><path data-name="Path 7260" d="M12.743 27.165a.281.281 0 01-.272-.3v-1.418h1.055v.84h-.827v.66h.837v.215zm-.045-1.492v.392h.6v-.392z"/><path data-name="Path 7261" d="M13.648 27.282h-.909a.4.4 0 01-.39-.414v-1.54h1.289v1.074h-.827v.425h.837zm-.837-1.335h.368v-.157h-.368z"/></g></g><g data-name="Group 272"><g data-name="Group 271" fill="#dd5934"><path data-name="Path 7262" d="M19.155 26.868a.285.285 0 01-.263.3h-.808v-1.1h.84v-.388h-.808v-.222h1.039zm-.85-.582v.663h.619v-.663z"/><path data-name="Path 7263" d="M18.084 27.282h-.117v-1.339h.84v-.153h-.809v-.462h1.274v1.536a.4.4 0 01-.374.413zm.338-.45h.385v-.428h-.385z"/></g></g></g></g><g data-name="Group 277"><g data-name="Group 275"><path data-name="Path 7264" d="M14.272 12.758h.77v1.906a.258.258 0 01-.035.12.175.175 0 01-.1.039c-.048 0-.083.006-.107.006h-.206c-.135 0-.272 0-.413-.01v-.072h.208a2.784 2.784 0 00.286.013h.012a.2.2 0 00.083-.023.826.826 0 00.021-.2v-1.074h-.556c-.034 0-.081 0-.14-.006a.582.582 0 01-.14-.03.2.2 0 01-.041-.107.793.793 0 01-.009-.118v-.375h-.22a.972.972 0 01-.03.284.664.664 0 01-.113.248.858.858 0 01-.256.18 2.106 2.106 0 01-.291.1h-.084v1.224h-.256v-2.105h.69q-.122-.264-.226-.457h-.589v-.065h1.187v-.294h.268v.294h1.186v.065h-.589a2.516 2.516 0 01-.31.457zm-1.365.78c.073-.029.141-.058.2-.088a.749.749 0 00.182-.137.522.522 0 00.11-.229 1.374 1.374 0 00.021-.261h-.514zm.568 1.11h-.259v-1.009h1.261v.852h-1zm.836-2.347h-.928q.139.271.217.457h.381a1.991 1.991 0 00.329-.457zm-.092 1.407h-.744v.715h.744zm-.062-.418a.3.3 0 00.012.03.181.181 0 01.009.023c.006.026.02.038.042.036a.173.173 0 00.08.013h.065q.179 0 .422-.013v-.555h-.63z" fill="#080046"/></g><g data-name="Group 276"><path data-name="Path 7265" d="M27.061 12.223h-.577v.33h.506v.646h-1.8v-.49h-.238q.167.549.28.976l-.051.013h-.208a1.35 1.35 0 00-.03-.124v1.325h-.259V13.73q-.065.209-.143.4h-.208l-.039-.023a7.87 7.87 0 00.372-1.4h-.321v-.065h.339v-.614h.259v.614h.247v-.091h.506v-.33h-.6v-.069h1.962zm-1.766 2.539h-.205c0-.013-.012-.032-.024-.059a1.649 1.649 0 00.479-.587h.205l.041.036a1.985 1.985 0 01-.497.61zm1.766-.806h-.827v.8a.118.118 0 01-.027.065.284.284 0 01-.158.029h-.205c-.1 0-.193-.011-.288-.02v-.058h.208a.741.741 0 01.164.013l.03-.013a.121.121 0 00.021-.088v-.728h-.877v-.068h1.962zm-1.808-.463h1.683v.068h-1.683zm.443-.884h-.247v.532h.247zm.259-.056h.271v-.33h-.271zm.271.056h-.271v.532h.271zm.616 1.775l.22.343-.042.046h-.208a4.778 4.778 0 00-.484-.614l.041-.052h.2zm-.357-1.243h.247v-.532h-.247z" fill="#080046"/></g></g><g data-name="Group 289"><g data-name="Group 288"><g data-name="Group 278" fill="#563008"><path data-name="Path 7266" d="M5.903 22.93h4.183v.6h-4.4l-1.084-1.194-1.148 1.221h-.747l1.522-1.631-.629-.693-.356.629h-.656l1.248-2.214h.656l-.255.447h1.376l-.712 1.735zm-.109-4.091v.511H2.805v-.511h1.184v-.6h-.8v-.509h.8v-.437H2.805v-.511h1.184v-.552h.583v.546h1.221v.511H4.572v.437h.839v.511h-.839v.6zM3.962 20.58l-.073.136.592.647.319-.783zm3.162-2.451l.511-1.039H6.113v-.529h3.918v.529H8.245l-.51 1.039h2.232v4.255H6.195V18.13zm-.364.5v3.235h.428V18.63zm1.6 0h-.62v.738h.62zm-.62 1.248v.738h.62v-.738zm0 1.248v.738h.62v-.738zm1.658.738V18.63h-.492v3.235z"/><path data-name="Path 7267" d="M3.493 23.654H2.485l1.612-1.725-.481-.53-.318.562H2.42l1.355-2.4h.876l-.255.447H5.75l-.742 1.807.934 1.027h4.235v.792H5.638l-1.043-1.148zm-.569-.191h.486l1.19-1.266 1.126 1.238H9.99v-.406H5.86l-1.071-1.178.68-1.655h-1.4l.255-.447h-.436l-1.141 2.023h.437l.393-.695.777.855zm7.138-.985H6.099v-4.449h.965l.417-.848H6.02v-.719h4.108v.719H8.307l-.417.848h2.174zm-3.772-.191h3.582v-4.065H7.581l.6-1.23h1.75v-.338H6.203v.338h1.58l-.6 1.23h-.894zm3.2-.329h-.682v-3.429h.682zm-.492-.19h.3v-3.039h-.3zm-.547.19h-.81v-.929h.81zm-.619-.19h.429v-.547h-.429zm-.547.19h-.618v-3.429h.618zm-.428-.19h.239v-3.039h-.239zm-2.341-.23l-.74-.808.131-.246h1.038zm-.509-.837l.445.486.209-.513H4.02zm4.444.01h-.81v-.929h.81zm-.619-.191h.429v-.547h-.429zm.619-1.057h-.81v-.934h.81zm-.619-.191h.429v-.543h-.429zm-1.941.173H2.71v-.7h1.184v-.416h-.8v-.7h.8v-.246H2.71v-.7h1.184v-.546h.773v.546h1.221v.7H4.667v.246h.839v.7h-.839v.411h1.221zm-2.989-.191h2.8v-.325H4.48v-.792h.84v-.32h-.839v-.628h1.222v-.32H4.481v-.54h-.393v.547H2.9v.32h1.184v.628h-.8v.32h.8v.785H2.9z"/></g><g data-name="Group 279" fill="#563008"><path data-name="Path 7268" d="M36.675 19.694l-.738 1.43 1.312 2.46h-.684l-.965-1.8-.875 1.7h-.638l1.221-2.369-.574-2.251h-3.545v.884l-.356 3.818h-.61l.355-3.845v-1.43h4.01l-.119-.464h.629l.119.464h1.813v.574h-1.667l.364 1.44.31-.61zm-1.185-3.08h1.832v.592H35.49v.428h-.6v-.423h-2.151v.428h-.6v-.428h-1.832v-.6h1.832v-.364h.6v.364h2.151v-.364h.6zm-2.132 5.13v.583h.72v.5H31.49v-3.6h3v.51h-1.13v.529h.975v1.476zm-.565-2h-.72v.529h.72zm.975 1.522v-.5h-1.695v.5zm-1.695.483v.583h.72v-.583zm4.31-4.264l.41.711h-.656l-.41-.711z"/><path data-name="Path 7269" d="M37.405 23.681h-.9l-.906-1.694-.819 1.594h-.852l1.276-2.476-.547-2.144h-3.372v.788l-.363 3.913h-.8l.365-3.949v-1.517h3.982l-.118-.465h.825l.119.465h.739l-.445-.771v.306h-.791v-.428h-1.96v.428h-.792v-.428h-1.831v-.783h1.831v-.364h.792v.364h1.96v-.364h.791v.364h1.832v.783h-1.836v.083h.854l.467.811h.219v.765h-1.64l.272 1.074.221-.436h.853l-.787 1.525zm-.785-.19h.467l-1.261-2.364.69-1.336h-.423l-.4.785-.457-1.8h1.694v-.384h-1.792l-.118-.465h-.432l.118.465h-4.037v1.335l-.346 3.75h.419l.347-3.732v-.97h3.716l.6 2.357-.017.032-1.149 2.23h.423l.931-1.814zm-.43-5.394h.436l-.3-.52h-.436zm-1.208-.556h.411v-.431h1.831v-.4h-1.829v-.365h-.411v.365h-2.341v-.365h-.411v.365h-1.827v.4h1.832v.428h.411v-.428h2.341zm-.811 5.385h-2.776v-3.79h3.188v.7h-1.13v.338h.975v1.667h-.975v.392h.72zm-2.588-.191h2.4v-.31h-.72v-.774h.975v-1.285h-.975v-.72h1.13v-.32h-2.807zm1.3-.31h-.91v-.774h.91zm-.72-.191h.53v-.392h-.53zm1.695-.875h-1.885v-.692h1.885zm-1.695-.191h1.505v-.31h-1.505zm.72-.8h-.91v-.72h.91zm-.72-.191h.53v-.338h-.53z"/></g><g data-name="Group 280" fill="#dd5934"><path data-name="Path 7270" d="M11.781 18.052l7.126-.419a3.535 3.535 0 01-2.459 3.277s.373-1.231-.112-1.417l-4.4.3z"/><path data-name="Path 7271" d="M12.979 16.742s.186 6.452 2.574 7.012a34.927 34.927 0 01-.671-7.049z"/></g><g data-name="Group 281" fill="#563008"><path data-name="Path 7272" d="M21.883 19.36l-.4-.454.77-.883.4.454z"/><path data-name="Path 7273" d="M22.66 19.333l-.4.454-.77-.883.4-.454z"/></g><g data-name="Group 282" fill="#563008"><path data-name="Path 7274" d="M23.052 19.36l-.4-.454.77-.883.4.454z"/><path data-name="Path 7275" d="M23.829 19.333l-.4.454-.77-.883.4-.454z"/></g><g data-name="Group 283" fill="#563008"><path data-name="Path 7276" d="M25.447 19.36l-.4-.454.77-.883.4.454z"/><path data-name="Path 7277" d="M26.224 19.333l-.4.454-.77-.883.4-.454z"/></g><g data-name="Group 284" fill="#563008"><path data-name="Path 7278" d="M26.605 19.36l-.4-.454.77-.883.4.454z"/><path data-name="Path 7279" d="M27.382 19.333l-.4.454-.77-.883.4-.454z"/></g><g data-name="Group 286"><g data-name="Group 285" fill="#563008"><path data-name="Path 7280" d="M24.735 17.235h3.573v1.393h-.64v-.881H24.74v1.9h-.567v-1.9H21.34v.881h-.64v-1.393h3.471v-.453h-2.77v-.483h6.21v.483h-2.872z"/><path data-name="Path 7281" d="M24.839 19.739h-.757v-1.9H21.43v.881h-.83v-1.58h3.471v-.263H21.3v-.673h6.4v.673h-2.872v.263h3.573v1.584h-.83v-.881h-2.732zm-.568-.19h.377v-1.9h3.113v.882h.45v-1.2h-3.572v-.644h2.872v-.292h-6.02v.292h2.771v.644h-3.471v1.2h.45v-.882h3.032z"/></g></g><g data-name="Group 287" fill="#563008"><path data-name="Path 7282" d="M23.08 23.715l-2.56-3.738h.944l2.312 3.375z"/><path data-name="Rectangle 12" d="M21.036 19.979h7.001v.722h-7.001z"/><path data-name="Rectangle 13" d="M22.182 21.242h4.763v.617h-4.763z"/><path data-name="Rectangle 14" d="M24.075 23.508v-3.227h.805v3.227z"/><path data-name="Path 7283" d="M25.286 23.372l2.165-3.4h1.078l-2.543 3.737z"/><path data-name="Rectangle 15" d="M23.087 23.065h2.899v.649h-2.899z"/></g></g></g><g data-name="Group 290" fill="#e6b222"><path data-name="Path 7284" d="M20.106 12.831h-2.445l1.264-3.992h2.445z"/><path data-name="Path 7285" d="M18.322 16.391l4.378-4.882h-2.967z"/></g><g data-name="Group 295" transform="translate(6.215 24.877)"><circle data-name="Ellipse 6" cx="1.199" cy="1.199" r="1.199" fill="#f5e0bb"/><g data-name="Group 294" fill="#563008"><g data-name="Group 291" transform="translate(.13 .119)"><circle data-name="Ellipse 7" cx=".443" cy=".443" r=".443" transform="translate(.652 .036)"/><path data-name="Path 7286" d="M.662.512a.872.872 0 00-.558 1.024A1.1 1.1 0 01.739.025a.774.774 0 01.457.024c.228.09-.534.463-.534.463z"/></g><g data-name="Group 292" transform="translate(1.22 .092)"><circle data-name="Ellipse 8" cx=".443" cy=".443" r=".443" transform="translate(0 .962)"/><path data-name="Path 7287" d="M.65 1.024A.872.872 0 00.093 0a1.1 1.1 0 01.925 1.354.775.775 0 01-.268.372c-.198.137-.1-.702-.1-.702z"/></g><g data-name="Group 293" transform="translate(.27 1.054)"><circle data-name="Ellipse 9" cx=".443" cy=".443" r=".443"/><path data-name="Path 7288" d="M.697.794A.87.87 0 001.861.735a1.094 1.094 0 01-1.62.247.771.771 0 01-.219-.4c-.039-.24.675.212.675.212z"/></g></g></g><g data-name="Group 300" transform="translate(31.328 24.873)"><circle data-name="Ellipse 10" cx="1.199" cy="1.199" r="1.199" fill="#f5e0bb"/><g data-name="Group 299" fill="#563008"><g data-name="Group 296" transform="translate(.13 .12)"><circle data-name="Ellipse 11" cx=".443" cy=".443" r=".443" transform="translate(.652 .036)"/><path data-name="Path 7289" d="M.665.513a.871.871 0 00-.558 1.024A1.1 1.1 0 01.742.026a.772.772 0 01.457.023C1.42.139.665.513.665.513z"/></g><g data-name="Group 297" transform="translate(1.22 .092)"><circle data-name="Ellipse 12" cx=".443" cy=".443" r=".443" transform="translate(0 .963)"/><path data-name="Path 7290" d="M.654 1.024A.871.871 0 00.097 0a1.1 1.1 0 01.925 1.354.775.775 0 01-.268.372c-.2.137-.1-.702-.1-.702z"/></g><g data-name="Group 298" transform="translate(.27 1.054)"><circle data-name="Ellipse 13" cx=".443" cy=".443" r=".443"/><path data-name="Path 7291" d="M.697.794A.871.871 0 001.861.736a1.094 1.094 0 01-1.62.247.774.774 0 01-.219-.4C-.016.342.697.794.697.794z"/></g></g></g><path data-name="Path 7292" d="M3.547 15.507A17.045 17.045 0 0120.026 2.969s12.6-.372 16.449 12.536c.038.129 0 0 0 0h-.534s.074.252 0 0a16.668 16.668 0 00-15.915-12s-12.04-.413-15.923 12" fill="#dd5934"/><path data-name="Path 7293" d="M4.101 24.319a16.562 16.562 0 0031.9 0c.029-.094-.029.095 0 0h.552s.05-.181 0 0a17.059 17.059 0 01-16.505 12.644s-12.671.385-16.482-12.647c-.027-.089.025.091 0 0" fill="#dd5934"/></svg>