<svg xmlns="http://www.w3.org/2000/svg" width="20" height="17.314" viewBox="0 0 20 17.314"><path data-name="Path 11025" d="M8.038 16.151a.943.943 0 00.613.825.849.849 0 00.317.063.936.936 0 00.7-.317l1.861-2.051 3.553 2.474a1.064 1.064 0 00.571.169 1.016 1.016 0 00.973-.783L19.987.648a.519.519 0 00-.19-.529.567.567 0 00-.55-.085L.593 8.198a1 1 0 00-.592.973.972.972 0 00.7.888l7.127 2.157zm1.057-.338l-.148-2.94 1.734 1.206zm6.535.4l-6.472-4.462 9.39-9.369zm1.8-14.212l-9.244 9.222-7.022-2.115z" fill="#fff"/></svg>