<svg xmlns="http://www.w3.org/2000/svg" width="20.867" height="20" viewBox="0 0 20.867 20"><g fill="#fff"><path d="M3.69 3.758h8.296v1.166H3.69zm0 4.075h8.296v1.166H3.69zm0 5.24v-1.166h.158v-.023h7.41l-.241.242a2.747 2.747 0 00-.614.947z"/><path d="M.9 20a.906.906 0 01-.371-.087.868.868 0 01-.529-.79V.877A.889.889 0 01.877 0H14.89a.889.889 0 01.877.877v6.544l-.871.871V.871H.871V19.15l3.279-2.981a.908.908 0 01.6-.233h5.359a2.723 2.723 0 00.171.849H4.759l-3.262 2.982A.908.908 0 01.9 20zm11.93-3.35a.81.81 0 01-.564-.222.78.78 0 01-.223-.609l.114-1.824v-.01a.69.69 0 01.222-.5l5.433-5.43a.812.812 0 011.128 0l1.695 1.695a.808.808 0 010 1.131l-5.426 5.426a.919.919 0 01-.527.23l-1.8.112zm.137-2.58l-.094 1.728 1.736-.095.772-.846-1.6-1.6zm1.444-1.4l1.611 1.611 3.941-3.967-1.611-1.611z"/></g></svg>