<svg xmlns="http://www.w3.org/2000/svg" width="25" height="25" viewBox="0 0 25 25"><g fill="#d7ad7d"><path d="M7.5 1.75h10a5.757 5.757 0 015.75 5.75v10a5.757 5.757 0 01-5.75 5.75h-10a5.757 5.757 0 01-5.75-5.75v-10A5.757 5.757 0 017.5 1.75zm10 20a4.255 4.255 0 004.25-4.25v-10a4.255 4.255 0 00-4.25-4.25h-10A4.255 4.255 0 003.25 7.5v10a4.255 4.255 0 004.25 4.25z"/><path d="M12.541 7.707a4.774 4.774 0 01.7.052A4.75 4.75 0 0114.68 16.7a4.772 4.772 0 01-2.135.508 4.75 4.75 0 010-9.5zm0 8a3.25 3.25 0 003.214-3.727 3.23 3.23 0 00-2.734-2.738 3.27 3.27 0 00-.478-.035 3.25 3.25 0 000 6.5zM18.01 7.75H18a.75.75 0 01-.75-.75.75.75 0 01.75-.75h.01a.75.75 0 01.75.75.75.75 0 01-.75.75z"/></g></svg>