<svg xmlns="http://www.w3.org/2000/svg" width="20" height="19.465" viewBox="0 0 20 19.465"><g data-name="Group 1038"><g data-name="Group 1037"><path data-name="Path 10724" d="M6.38 15.289a2.088 2.088 0 102.088 2.088 2.088 2.088 0 00-2.088-2.088zm0 3.248a1.16 1.16 0 111.16-1.16 1.16 1.16 0 01-1.16 1.16z"/><path data-name="Path 10725" d="M15.196 15.289a2.088 2.088 0 102.088 2.088 2.088 2.088 0 00-2.088-2.088zm0 3.248a1.16 1.16 0 111.16-1.16 1.16 1.16 0 01-1.16 1.16z"/><path data-name="Path 10726" d="M19.905 3.109a.58.58 0 00-.371-.186l-15.1-.209-.42-1.276a2.134 2.134 0 00-2-1.438H.464a.464.464 0 100 .928h1.554a1.206 1.206 0 011.114.812l2.946 8.886-.232.534a2.227 2.227 0 00.209 2.018 2.158 2.158 0 001.74.974h9.025a.464.464 0 100-.928H7.8a1.183 1.183 0 01-.974-.557 1.276 1.276 0 01-.126-1.114l.186-.418 9.767-1.021a2.552 2.552 0 002.2-1.949l1.114-4.663a.394.394 0 00-.062-.393zm-1.949 4.849a1.578 1.578 0 01-1.415 1.23l-9.651 1-2.157-6.546 14.221.209z"/></g></g></svg>