<svg xmlns="http://www.w3.org/2000/svg" width="19" height="18.975" viewBox="0 0 19 18.975"><path d="M18.255 10.586H13.2V9.11h5.053zm-.927 7.646H7.665v-5.62a.372.372 0 00-.373-.372H3.641a.372.372 0 00-.373.372v5.62H1.684v-6.9h15.644zm-13.314 0h2.905v-5.248H4.014zM.745 9.11H5.8v1.476H.745zm1.732-4.164h4.329l-.921 3.42H.947zm3.24-.746h7.567v-.721H5.717zm-1.3-1.467h10.208V.744H4.412zm7.011 2.211l.921 3.42H6.657l.921-3.42zm-4.879 5.64h5.914V9.11h-5.92zm11.505-2.22h-4.939l-.921-3.42h4.294zm.946.363v-.058a.37.37 0 00-.026-.083l-1.9-4.164a.373.373 0 00-.339-.218h-2.7v-.725H15a.372.372 0 00.373-.372V.372A.372.372 0 0015 0H4.039a.372.372 0 00-.373.372v2.735a.372.372 0 00.373.372h.932V4.2H2.235a.373.373 0 00-.34.22L.032 8.586a.354.354 0 00-.016.042.353.353 0 00-.009.039v2.287a.372.372 0 00.373.372h.559V18.6a.372.372 0 00.373.372H17.7a.372.372 0 00.373-.372v-7.27h.555a.372.372 0 00.372-.372V8.727zM9.873 16.1h5.343v-3.116H9.873zm-.745-3.485v3.857a.372.372 0 00.373.372h6.088a.372.372 0 00.373-.372v-3.86a.372.372 0 00-.373-.372H9.5a.372.372 0 00-.373.372z" fill-rule="evenodd"/></svg>