<svg xmlns="http://www.w3.org/2000/svg" width="15" height="28.012" viewBox="0 0 15 28.012"><path d="M.034 4.422l.013-.031a.389.389 0 01.026-.044v-.018a.4.4 0 01.128-.115l.066-.035L10.363.045a.459.459 0 01.658.42v3.674h3.52a.462.462 0 01.459.459v22.955a.462.462 0 01-.459.459H.463a.462.462 0 01-.459-.459V4.594a.268.268 0 010-.084.7.7 0 01.03-.088zm10.069-3.281l-7.3 2.994h7.3zM.922 27.089H14.08V5.053H.922z"/><path d="M11.417 20.664H3.459a.46.46 0 010-.919h7.958a.46.46 0 010 .919zm-5.936 1.528H9.46a.46.46 0 010 .919H5.481a.46.46 0 010-.919zm6.911-7.596h-.808a4.044 4.044 0 00-3.635-4.018v-.428a.404.404 0 00-.808 0v.424a4.044 4.044 0 00-3.635 4.018h-.814a.404.404 0 100 .808h9.7a.404.404 0 100-.808zm-8.077 0a3.231 3.231 0 016.462 0z"/></svg>