<svg xmlns="http://www.w3.org/2000/svg" width="20.833" height="25" viewBox="0 0 20.833 25"><path d="M.036 21.914a.015.015 0 010 .012.407.407 0 00-.036.141v2.517A.417.417 0 00.418 25h20a.417.417 0 00.417-.417v-2.516a.405.405 0 00-.028-.136.031.031 0 000-.012l-1.632-3.669V5.944l1.612-2.819c.005-.009.008-.02.012-.029l.014-.035a.416.416 0 00.029-.142v-2.5A.417.417 0 0020.417 0h-20A.417.417 0 000 .417v2.5a.417.417 0 00.028.14c0 .012.009.023.014.035s.007.02.012.029l1.613 2.823v12.3zM20 24.167H.833V22.5H20zM.833.833H20V2.5H.833zm1.612 4.792l-1.31-2.292H19.7l-1.31 2.292a.417.417 0 00-.055.208v12.5a.417.417 0 00.036.169l1.406 3.164H1.058L2.464 18.5a.417.417 0 00.036-.169V5.833a.417.417 0 00-.055-.208z" fill="#fff"/><path d="M6.138 12.757l-.327.766 1.15.491-1.083.625.417.722 1.083-.625-.15 1.241.827.1.224-1.861 1.72-.993v1.987l-1.5 1.125.5.667 1-.75V17.5h.833v-1.25l1 .75.5-.667-1.5-1.125v-1.986l1.72.993.224 1.861.827-.1-.15-1.241 1.083.625.417-.722-1.083-.625 1.15-.491-.327-.766-1.724.736-1.719-.992 1.721-.993 1.724.736.327-.766-1.15-.491 1.083-.625-.417-.722-1.083.625.15-1.241-.827-.1-.224 1.861-1.72.993V9.792l1.5-1.125-.5-.667-1 .75V7.5h-.833v1.25l-1-.75-.5.667 1.5 1.125v1.987l-1.72-.993-.224-1.861-.827.1.15 1.241-1.083-.625-.417.722 1.083.625-1.15.491.327.766 1.724-.738 1.719.993-1.719.993z" fill="#fff"/></svg>