<svg xmlns="http://www.w3.org/2000/svg" width="25" height="25" viewBox="0 0 25 25"><path d="M15.501 1.75h3a.75.75 0 01.75.75v4a.75.75 0 01-.75.75h-3a.25.25 0 00-.25.25v2.25h3.25a.75.75 0 01.728.932l-1 4a.75.75 0 01-.728.568h-2.25v7.25a.75.75 0 01-.75.75h-4a.75.75 0 01-.75-.75v-7.25H7.5a.75.75 0 01-.75-.75v-4a.75.75 0 01.75-.75h2.25V7.499a5.757 5.757 0 015.751-5.749zm2.25 1.5h-2.25a4.255 4.255 0 00-4.251 4.249v3a.75.75 0 01-.75.75H8.25v2.5h2.25a.75.75 0 01.75.75v7.25h2.5v-7.25a.75.75 0 01.75-.75h2.414l.625-2.5h-3.038a.75.75 0 01-.75-.75v-3a1.752 1.752 0 011.75-1.75h2.25z" fill="#d7ad7d"/></svg>