<svg xmlns="http://www.w3.org/2000/svg" width="13.299" height="18" viewBox="0 0 13.299 18"><g data-name="Group 1052"><g data-name="Group 1051"><g data-name="Group 1050"><path data-name="Path 10738" d="M6.649 0A6.657 6.657 0 000 6.649a7.672 7.672 0 00.564 2.56 10.723 10.723 0 00.769 1.437l4.559 6.908a.867.867 0 001.515 0l4.559-6.908a10.677 10.677 0 00.769-1.437 7.669 7.669 0 00.564-2.56A6.657 6.657 0 006.649 0zm5.364 8.906a9.826 9.826 0 01-.7 1.31l-4.559 6.908c-.09.137-.119.137-.208 0l-4.559-6.908a9.83 9.83 0 01-.7-1.311 6.964 6.964 0 01-.5-2.256 5.867 5.867 0 1111.734 0 6.969 6.969 0 01-.507 2.257z"/><path data-name="Path 10739" d="M6.649 3.129a3.52 3.52 0 103.52 3.52 3.524 3.524 0 00-3.52-3.52zm0 6.258a2.738 2.738 0 112.738-2.738 2.741 2.741 0 01-2.738 2.738z"/></g></g></g></svg>