<svg xmlns="http://www.w3.org/2000/svg" width="14" height="13.106" viewBox="0 0 14 13.106"><path d="M8.571 6.813a3.639 3.639 0 00.917-2.381C9.488 2.532 7.777 0 6.995 0S4.502 2.529 4.502 4.432s1.64 3.324 2.493 3.324a2.434 2.434 0 001.576-.943zM5.105 8.535C3.759 7.189.762 6.611.205 7.164s.025 3.551 1.371 4.9a3.638 3.638 0 002.33 1.032c.089 0 .177.01.263.01a2.264 2.264 0 001.524-.457 2.437 2.437 0 00.447-1.783 3.639 3.639 0 00-1.035-2.331zm3.781 0a3.639 3.639 0 00-1.03 2.331 2.441 2.441 0 00.447 1.783 2.249 2.249 0 001.524.457 2.4 2.4 0 00.263-.01 3.638 3.638 0 002.331-1.037c1.346-1.346 1.924-4.343 1.371-4.9s-3.56.029-4.906 1.376z"/></svg>