<svg xmlns="http://www.w3.org/2000/svg" width="18" height="16.023" viewBox="0 0 18 16.023"><path d="M17.744.109a.736.736 0 00-.4-.109 6.71 6.71 0 00-1.831.511 11.253 11.253 0 01-1.423.438 13.6 13.6 0 01-2.044.182c-.511-.036-.949-.036-1.387-.036a15.683 15.683 0 00-5.146.805A6.483 6.483 0 00.951 7.375a4.993 4.993 0 00.62 2.883 1.281 1.281 0 00.182.292A14.494 14.494 0 00.005 15.4a.54.54 0 00.438.62h.07a.549.549 0 00.547-.474 12.6 12.6 0 011.423-4.234 3.506 3.506 0 00.73.474 6.356 6.356 0 002.7.62 6.661 6.661 0 001.46-.182C12.519 11.024 17.666 2.369 17.958.8a.553.553 0 00-.214-.691zM7.159 11.242a4.534 4.534 0 01-1.2.146 5.358 5.358 0 01-2.226-.511 2.8 2.8 0 01-.62-.438c1.569-2.226 4.015-3.869 7.482-5.073a.543.543 0 10-.365-1.022 15.848 15.848 0 00-7.847 5.219 3.744 3.744 0 01-.4-2.08 5.218 5.218 0 013.8-4.562 14.434 14.434 0 014.781-.766c.4 0 .839 0 1.387.036a17.231 17.231 0 002.3-.182c.4-.073.985-.292 1.606-.474.255-.073.547-.182.839-.292-.996 2.188-5.34 9.013-9.537 9.999z" fill="#92d69e"/></svg>