<svg xmlns="http://www.w3.org/2000/svg" width="16" height="16" viewBox="0 0 16 16"><path d="M14.3 16A14.313 14.313 0 010 1.7 1.706 1.706 0 011.7 0h2.758a1.7 1.7 0 011.7 1.7 8.03 8.03 0 00.4 2.522v.007a1.714 1.714 0 01-.4 1.7L5.149 7.3A8.6 8.6 0 008.7 10.85l1.4-1.058a1.679 1.679 0 011.148-.43 1.637 1.637 0 01.53.085 8 8 0 002.513.4 1.706 1.706 0 011.7 1.7V14.3A1.706 1.706 0 0114.3 16zM1.7 1a.7.7 0 00-.7.7A13.311 13.311 0 0014.3 15a.7.7 0 00.7-.7v-2.751a.7.7 0 00-.7-.7 9.007 9.007 0 01-2.831-.451.647.647 0 00-.211-.033.7.7 0 00-.462.158l-.027.027-1.976 1.485-.282-.15a9.809 9.809 0 01-4.4-4.4l-.149-.281 1.451-1.922.025-.025a.717.717 0 00.175-.722A9.029 9.029 0 015.162 1.7a.7.7 0 00-.7-.7z"/></svg>