<svg xmlns="http://www.w3.org/2000/svg" width="18" height="13.057" viewBox="0 0 18 13.057"><path data-name="Path 11070" d="M3.953 13.057a1.448 1.448 0 01-1.534-1.255 1.122 1.122 0 010-.169c.035-.485.044-.65.05-.864a8.65 8.65 0 00-.023-.842 14.711 14.711 0 00-.28-1.994.348.348 0 010-.13l.029-.177-.181-.024a24.642 24.642 0 00-1.687-.186A.355.355 0 010 7.06V3.883a.353.353 0 01.334-.353 21.3 21.3 0 005.381-1.042 26.729 26.729 0 005.4-2.438.346.346 0 01.179-.05.355.355 0 01.354.354v10.235a.355.355 0 01-.354.354.346.346 0 01-.174-.047 29.064 29.064 0 00-5.4-2.441l-.49-.153v.237c0 .394.007.793.034 1.187.023.325.051.576.094.837.035.211.068.373.169.848a1.214 1.214 0 01-.193.954 1.62 1.62 0 01-1.077.665 1.725 1.725 0 01-.304.027zm-.71-5.147l-.345.074.02.1a15.3 15.3 0 01.233 1.792c.025.347.032.619.025.908-.006.232-.016.4-.051.9a.509.509 0 000 .07.765.765 0 00.827.6h.08a.935.935 0 00.108-.013.909.909 0 00.606-.358.539.539 0 00.091-.417c-.1-.484-.137-.652-.175-.881a8.61 8.61 0 01-.1-.9 15.227 15.227 0 01-.03-1.526v-.141l-.137-.035c-.42-.108-.853-.206-1.29-.291zm7.438-6.8a27.357 27.357 0 01-4.748 2.05 24.086 24.086 0 01-3.139.792l-.145.026v3l.146.026a23.354 23.354 0 013.138.775 28.663 28.663 0 014.749 2.063l.26.14V.967zm-8.937 3q-.44.055-.875.09l-.162.013v2.518l.16.015q.441.042.877.1l.2.026V4.087zm13.979 6.748a.355.355 0 01-.229-.084l-.032-.031-1.952-2.027a.353.353 0 01.482-.514l.032.031 1.951 2.029a.353.353 0 01-.254.6zm-.9-5.212a.353.353 0 110-.706h2.824a.353.353 0 110 .706zm-1.059-2.904a.353.353 0 01-.254-.6L15.467.107a.353.353 0 01.509.489l-1.957 2.035a.35.35 0 01-.255.111z"/></svg>